<svg xmlns="http://www.w3.org/2000/svg" viewBox="0 0 64 64" width="64" height="64">
    <path fill="#faa629"
        d="M50,32c0,1.867-1.646,3.452-2.194,5.136-.567,1.746-.186,3.992-1.243,5.445-1.068,1.468-3.329,1.794-4.797,2.862-1.453,1.058-2.456,3.113-4.202,3.68-1.685,.547-3.697-.508-5.564-.508s-3.879,1.055-5.564,.508c-1.746-.567-2.749-2.622-4.203-3.68-1.468-1.068-3.728-1.395-4.797-2.862-1.058-1.453-.676-3.699-1.243-5.445-.547-1.685-2.193-3.269-2.193-5.136s1.646-3.452,2.194-5.136c.567-1.746,.186-3.992,1.243-5.445,1.068-1.468,3.329-1.794,4.797-2.862,1.453-1.058,2.456-3.113,4.202-3.68,1.685-.547,3.697,.508,5.564,.508s3.879-1.055,5.564-.508c1.746,.567,2.749,2.622,4.203,3.68,1.468,1.068,3.728,1.395,4.797,2.862,1.058,1.453,.676,3.699,1.243,5.445,.547,1.685,2.193,3.269,2.193,5.136Z" />
    <path fill="#f78c1e"
        d="M38.99,15.75c-1.29,.11-2.68,.63-3.99,.63-1.87,0-3.88-1.05-5.56-.5-1.75,.56-2.75,2.62-4.21,3.68-1.46,1.06-3.72,1.39-4.79,2.86-1.06,1.45-.68,3.7-1.25,5.44-.54,1.69-2.19,3.27-2.19,5.14s1.65,3.45,2.19,5.14c.57,1.74,.19,3.99,1.25,5.44,1.07,1.47,3.33,1.8,4.79,2.86,1.01,.74,1.81,1.95,2.78,2.81-.54,.06-1.07,.03-1.57-.13-1.75-.56-2.75-2.62-4.21-3.68-1.46-1.06-3.72-1.39-4.79-2.86-1.06-1.45-.68-3.7-1.25-5.44-.54-1.69-2.19-3.27-2.19-5.14s1.65-3.45,2.19-5.14c.57-1.74,.19-3.99,1.25-5.44,1.07-1.47,3.33-1.8,4.79-2.86,1.46-1.06,2.46-3.12,4.21-3.68,1.68-.55,3.69,.5,5.56,.5s3.88-1.05,5.56-.5c.54,.17,1,.48,1.43,.87Z" />
    <path fill="#faa629"
        d="M61,31c-.552,0-1,.448-1,1,0,15.104-12.023,27.445-27,27.975v-2.5c0-.552-.448-1-1-1s-1,.448-1,1v2.5c-14.645-.518-26.457-12.33-26.975-26.975h2.5c.552,0,1-.448,1-1s-.448-1-1-1h-2.5c.518-14.645,12.33-26.457,26.975-26.975v2.5c0,.552,.448,1,1,1s1-.448,1-1v-2.482c5.262,.19,10.384,1.847,14.723,4.79h-1.337c-.552,0-1,.448-1,1s.448,1,1,1h4.159c.552,0,1-.448,1-1V5.674c0-.552-.448-1-1-1s-1,.448-1,1v2.019c-5.086-3.67-11.241-5.693-17.544-5.693C15.458,2,2,15.458,2,32s13.458,30,30,30,30-13.458,30-30c0-.552-.448-1-1-1Z" />
    <path fill="#fff"
        d="M48.758,26.555c-.191-.59-.26-1.286-.332-2.022-.126-1.281-.256-2.606-1.054-3.703-.806-1.107-2.085-1.664-3.214-2.155-.674-.293-1.31-.57-1.802-.928-.482-.351-.935-.865-1.415-1.41-.819-.93-1.747-1.983-3.067-2.413-1.267-.412-2.556-.128-3.803,.146-.735,.162-1.43,.314-2.07,.314s-1.334-.152-2.07-.314c-1.247-.274-2.535-.559-3.803-.146-1.321,.429-2.249,1.483-3.068,2.413-.479,.545-.933,1.059-1.414,1.41-.492,.358-1.128,.635-1.802,.928-1.129,.491-2.409,1.048-3.215,2.155-.798,1.097-.928,2.421-1.054,3.702-.072,.737-.141,1.433-.333,2.023-.179,.551-.523,1.131-.887,1.746-.635,1.071-1.355,2.286-1.355,3.699s.72,2.628,1.355,3.699c.364,.614,.708,1.195,.887,1.746,.191,.59,.26,1.286,.332,2.022,.126,1.281,.256,2.606,1.054,3.703,.806,1.107,2.085,1.664,3.214,2.155,.674,.293,1.31,.57,1.802,.928,.482,.351,.935,.865,1.415,1.41,.819,.93,1.747,1.983,3.067,2.413,1.257,.41,2.552,.13,3.803-.146,.735-.162,1.43-.314,2.07-.314s1.334,.152,2.07,.314c1.246,.273,2.534,.557,3.803,.146,1.321-.429,2.249-1.483,3.068-2.413,.479-.545,.933-1.059,1.414-1.41,.492-.358,1.128-.635,1.802-.928,1.129-.491,2.409-1.048,3.215-2.155,.798-1.097,.928-2.421,1.054-3.702,.072-.737,.141-1.433,.333-2.023,.179-.551,.523-1.131,.887-1.746,.635-1.071,1.355-2.286,1.355-3.699s-.72-2.628-1.355-3.699c-.364-.614-.708-1.195-.887-1.746Zm-.833,8.124c-.404,.681-.822,1.386-1.069,2.148-.259,.796-.341,1.634-.42,2.445-.104,1.062-.203,2.064-.681,2.721-.485,.667-1.413,1.07-2.395,1.498-.744,.323-1.512,.657-2.182,1.145-.66,.48-1.208,1.103-1.738,1.705-.712,.809-1.385,1.572-2.184,1.832-.75,.244-1.725,.03-2.757-.196-.807-.178-1.642-.361-2.499-.361s-1.691,.184-2.499,.361c-1.031,.227-2.006,.44-2.756,.196-.799-.26-1.472-1.023-2.184-1.832-.53-.602-1.079-1.225-1.739-1.706-.669-.487-1.438-.821-2.181-1.145-.982-.427-1.91-.831-2.395-1.498-.478-.657-.577-1.66-.681-2.721-.08-.811-.162-1.648-.42-2.444-.248-.763-.665-1.467-1.069-2.148-.553-.933-1.075-1.814-1.075-2.679s.522-1.746,1.075-2.679c.404-.681,.822-1.386,1.069-2.148,.259-.796,.341-1.634,.42-2.445,.104-1.062,.203-2.064,.681-2.721,.485-.667,1.413-1.07,2.395-1.498,.744-.323,1.512-.657,2.182-1.145,.66-.48,1.208-1.103,1.738-1.705,.712-.809,1.385-1.572,2.184-1.832,.902-.258,1.766-.004,2.757,.196,.807,.178,1.642,.361,2.499,.361s1.691-.184,2.499-.361c1.031-.227,2.006-.44,2.756-.196,.799,.26,1.472,1.023,2.184,1.832,.53,.602,1.079,1.225,1.739,1.706,.669,.487,1.438,.821,2.181,1.145,.982,.427,1.91,.831,2.395,1.498,.478,.657,.577,1.66,.681,2.721,.08,.811,.162,1.648,.42,2.444,.248,.763,.665,1.467,1.069,2.148,.553,.933,1.075,1.814,1.075,2.679s-.522,1.746-1.075,2.679Z" />
    <path fill="#000"
        d="M28.708 24.664h-5.624c-.552 0-1 .448-1 1s.448 1 1 1h4.624v4.336h-4.624c-.552 0-1 .448-1 1v6.336c0 .552.448 1 1 1h5.624c.552 0 1-.448 1-1s-.448-1-1-1h-4.624v-4.336h4.624c.552 0 1-.448 1-1v-6.336c0-.552-.448-1-1-1zM40.916 24.664c-.552 0-1 .448-1 1v5.336h-4.238v-5.336c0-.552-.448-1-1-1s-1 .448-1 1v6.336c0 .552.448 1 1 1h5.238v5.336c0 .552.448 1 1 1s1-.448 1-1v-12.673c0-.552-.448-1-1-1z" />
</svg>