<svg xmlns="http://www.w3.org/2000/svg" enable-background="new 0 0 90 90" viewBox="0 0 90 90" fill="#f6a530"
    width="90" height="90">
    <path
        d="M45.181,20.313c2.9,0.031,5.837,0.588,8.671,1.724c11.22,4.484,17.387,16.604,14.459,28.285l-0.391,1.016   c-1.13,2.953-5.115,3.589-8.244,2.724c-3.199-0.88-6.032-4.104-6.021-9.104V41.89c-1.115-3.813-4.541-6.459-8.527-6.558   c-4.056-0.104-7.676,2.459-8.926,6.318c-1.244,3.865,0.198,8.063,3.546,10.349c3.355,2.287,7.781,2.099,10.923-0.468   c2.01-1.828,4.64,1.38,2.448,2.99c-4.454,3.64-10.797,3.916-15.547,0.672c-4.756-3.24-6.813-9.251-5.048-14.724   c1.767-5.48,6.942-9.146,12.698-9.005c3.235,0.083,6.23,1.359,8.495,3.453c0.219-0.844,0.973-1.437,1.844-1.448   c1.088-0.016,1.973,0.87,1.957,1.963v9.537c-0.014,3.703,1.511,4.902,3.183,5.364c1.557,0.429,3.26-0.213,3.854-0.921   c2.474-9.844-2.677-20-12.135-23.781c-9.552-3.817-20.411,0.094-25.333,9.131c-4.922,9.036-2.318,20.276,6.073,26.233   c8.391,5.954,19.869,4.709,26.771-2.921c1.713-2.141,4.817,0.672,2.864,2.588c-8.197,9.058-21.916,10.558-31.88,3.49   c-9.957-7.072-13.066-20.515-7.224-31.239C28.072,24.864,36.472,20.218,45.181,20.313z M44.895,4.796   c-10.517,0-20.604,4.177-28.043,11.615C9.415,23.849,5.239,33.937,5.239,44.453c0,10.521,4.176,20.604,11.613,28.041   c7.438,7.438,17.526,11.615,28.043,11.615c21.899,0,39.655-17.755,39.655-39.656C84.55,22.551,66.794,4.796,44.895,4.796z" />
</svg>