<svg xmlns="http://www.w3.org/2000/svg" viewBox="0 0 64 64" width="64" height="64"><rect width="7" height="7" x="10" y="17" fill="#ccc"/><path fill="#f7a539" d="M19,24v8c0,1.66-1.34,3-3,3h-5c-.83,0-1.58-.34-2.12-.88s-.88-1.29-.88-2.12v-8h11Z"/><polygon fill="#999" points="38 58 38 63 26 63 26 58 29.5 58 34.5 58 38 58"/><path fill="#f9c84e" d="M29.5 53.37v4.63h-3.5c-1.3-2.6-3.38-4.74-5.94-6.12l-2.9-1.56c-1.9-1.02-3.44-2.53-4.5-4.31-1.07-1.79-1.66-3.85-1.66-6.01v-5h5v5c0 1.24.34 2.42.94 3.44.61 1.02 1.49 1.88 2.57 2.48l3.1 1.69c2.66 1.44 5 3.4 6.89 5.76ZM53 35v5c0 2.16-.59 4.22-1.66 6.01-1.06 1.78-2.6 3.29-4.5 4.31l-2.9 1.56c-2.56 1.38-4.64 3.52-5.94 6.12h-3.5v-4.63c1.89-2.36 4.23-4.32 6.89-5.76l3.1-1.69c1.08-.6 1.96-1.46 2.57-2.48.6-1.02.94-2.2.94-3.44v-5h5Z"/><polygon fill="#f7a539" points="34.5 53.37 34.5 58 29.5 58 29.5 53.37 29.5 35 34.5 35 34.5 53.37"/><rect width="7" height="7" x="28.5" y="17" fill="#ccc"/><path fill="#f9c84e" d="M37.5,24v8c0,1.66-1.34,3-3,3h-5c-.83,0-1.58-.34-2.12-.88s-.88-1.29-.88-2.12v-8h11Z"/><path fill="#f7a539" d="M56,24v8c0,.83-.34,1.58-.88,2.12s-1.29.88-2.12.88h-5c-1.66,0-3-1.34-3-3v-8h11Z"/><rect width="7" height="7" x="47" y="17" fill="#ccc"/><path fill="#999" d="M55 7v2h-9v-2c0-1.66 1.34-3 3-3h3c1.66 0 3 1.34 3 3ZM34.5 5c1.1 0 2 .9 2 2 0 .55-.22 1.05-.59 1.41-.36.37-.86.59-1.41.59h-5c-1.1 0-2-.9-2-2 0-.55.22-1.05.59-1.41.36-.37.86-.59 1.41-.59h5ZM15.5 3.5c1.93 0 3.5 1.57 3.5 3.5 0 .96-.39 1.84-1.03 2.47-.63.64-1.51 1.03-2.47 1.03h-4c-1.93 0-3.5-1.57-3.5-3.5 0-.96.39-1.84 1.03-2.47.63-.64 1.51-1.03 2.47-1.03h4Z"/><circle cx="11.5" cy="7" r="1" fill="#252525"/><circle cx="15.5" cy="7" r="1" fill="#252525"/><circle cx="30" cy="1" r="1" fill="#252525"/><circle cx="34" cy="1" r="1" fill="#252525"/><circle cx="30" cy="13" r="1" fill="#252525"/><circle cx="34" cy="13" r="1" fill="#252525"/><path fill="#252525" d="M56 23h-1v-6c0-.552-.448-1-1-1h-7c-.552 0-1 .448-1 1v6h-1c-.552 0-1 .448-1 1v8c0 1.858 1.28 3.411 3 3.858v4.142c0 1.027-.277 2.041-.798 2.927-.526.879-1.286 1.612-2.19 2.115l-3.098 1.688c-2.005 1.085-3.812 2.447-5.414 4.046v-14.918c1.72-.447 3-2 3-3.858v-8c0-.552-.448-1-1-1h-1v-6c0-.552-.448-1-1-1h-7c-.552 0-1 .448-1 1v6h-1c-.552 0-1 .448-1 1v8c0 1.067.417 2.071 1.173 2.827.513.513 1.144.854 1.827 1.031v14.918c-1.602-1.599-3.409-2.96-5.412-4.044l-3.093-1.686c-.912-.507-1.671-1.24-2.194-2.113-.524-.892-.802-1.906-.802-2.933v-4.142c1.72-.447 3-2 3-3.858v-8c0-.552-.448-1-1-1h-1v-6c0-.552-.448-1-1-1h-7c-.552 0-1 .448-1 1v6h-1c-.552 0-1 .448-1 1v8c0 1.067.417 2.071 1.173 2.827.513.513 1.144.854 1.827 1.031v4.142c0 2.296.623 4.552 1.801 6.521 1.178 1.978 2.867 3.596 4.886 4.679l2.899 1.56c2.333 1.257 4.197 3.157 5.415 5.495v4.745c0 .552.448 1 1 1h12c.552 0 1-.448 1-1v-4.745c1.217-2.338 3.082-4.238 5.414-5.494l2.899-1.56c2.019-1.084 3.708-2.702 4.885-4.678 1.179-1.971 1.802-4.227 1.802-6.523v-4.142c.683-.177 1.314-.518 1.827-1.031.756-.756 1.173-1.76 1.173-2.827v-8c0-.552-.448-1-1-1ZM48 18h5v5h-5v-5ZM30.5 57v-21h3v21h-3ZM29.5 18h5v5h-5v-5ZM27.5 32v-7h9v7c0 1.103-.897 2-2 2h-5c-.533 0-1.035-.208-1.413-.587s-.587-.88-.587-1.413ZM11 18h5v5h-5v-5ZM9 32v-7h9v7c0 1.103-.897 2-2 2h-5c-.533 0-1.035-.208-1.413-.587s-.587-.88-.587-1.413ZM20.534 50.999l-2.9-1.561c-1.7-.912-3.122-2.274-4.115-3.942-.994-1.661-1.519-3.562-1.519-5.497v-4h3v4c0 1.383.373 2.748 1.082 3.953.706 1.181 1.724 2.164 2.95 2.845l3.103 1.691c2.452 1.327 4.586 3.102 6.366 5.258v3.253h-1.909c-1.404-2.541-3.481-4.612-6.058-6.001ZM37 62h-10v-3h10v3ZM50.48 45.498c-.992 1.666-2.414 3.029-4.114 3.941l-2.901 1.561c-2.575 1.388-4.653 3.459-6.057 6h-1.909v-3.253c1.78-2.156 3.914-3.931 6.369-5.26l3.107-1.694c1.219-.677 2.236-1.66 2.946-2.847.706-1.199 1.078-2.563 1.078-3.947v-4h3v4c0 1.935-.525 3.835-1.52 5.498ZM55 32c0 .533-.208 1.035-.587 1.413s-.88.587-1.413.587h-5c-1.103 0-2-.897-2-2v-7h9v7ZM11.5 11.5h4c1.208 0 2.338-.472 3.172-1.317.856-.844 1.328-1.974 1.328-3.183 0-2.481-2.019-4.5-4.5-4.5h-4c-1.208 0-2.338.472-3.172 1.317-.856.844-1.328 1.974-1.328 3.183 0 2.481 2.019 4.5 4.5 4.5ZM9.742 5.232c.465-.472 1.089-.732 1.758-.732h4c1.378 0 2.5 1.122 2.5 2.5 0 .668-.26 1.293-.742 1.768-.465.472-1.089.732-1.758.732h-4c-1.378 0-2.5-1.122-2.5-2.5 0-.668.26-1.293.742-1.768ZM29.5 10h5c.811 0 1.565-.317 2.108-.874.575-.561.892-1.315.892-2.126 0-1.654-1.346-3-3-3h-5c-.811 0-1.565.317-2.108.874-.575.561-.892 1.315-.892 2.126 0 1.654 1.346 3 3 3ZM28.806 6.288c.181-.186.428-.288.694-.288h5c.551 0 1 .449 1 1 0 .267-.102.513-.306.712-.181.186-.428.288-.694.288h-5c-.551 0-1-.449-1-1 0-.267.102-.513.306-.712ZM46 10h9c.552 0 1-.448 1-1v-2c0-2.206-1.794-4-4-4h-3c-2.206 0-4 1.794-4 4v2c0 .552.448 1 1 1ZM47 7c0-1.103.897-2 2-2h3c1.103 0 2 .897 2 2v1h-7v-1Z"/></svg>