<svg xmlns="http://www.w3.org/2000/svg" enable-background="new 0 0 504 344.02" viewBox="0 0 504 344.02" width="504" height="344.0199890136719"><path fill="#655f68" d="M453.21,138.89l0,16.01c0,5.03-4.08,9.11-9.11,9.11h-47.29c-5.03,0-9.11-4.08-9.11-9.11l0-9.91    c-10.055-19.774-3.196-25.109,7.85-25.33C421.336,104.737,438.179,118.868,453.21,138.89z"/><path fill="#dd864a" d="M490.66,94.3c-34.21-11.41-68.43-22.82-102.64-34.24l7.53,59.6c19.22,6.41,38.44,12.82,57.66,19.23    c9.66,3.23,19.32,6.45,28.98,9.67c8.78,2.93,17.81-3.72,17.81-13.11v-28.04C500,101.45,496.23,96.16,490.66,94.3z"/><path fill="#f69552" d="M397.06,102.17c0,4.29-0.27,10.34-1.51,17.49c-1.29,7.48-3.64,16.17-7.85,25.33H158.42H64.83h-2.34    c-29.72,0-53.81-24.5-53.81-54.71c0-15.1,6.02-28.78,15.76-38.68s23.19-16.02,38.05-16.02h72.37c12.22,0,24.07-4.23,33.62-11.99    l9.32-7.58c14.18-11.54,33.13-15.02,50.39-9.26c53.28,17.77,106.55,35.54,159.83,53.31C391.68,68.17,397.06,82.97,397.06,102.17z"/><rect width="74.87" height="28.54" x="200.53" y="83.15" fill="#655f68"/><path fill="#cdc7b9" d="M158.42,144.99v23.74c0,7.9-6.31,14.31-14.09,14.31l-13.99,0c-13.608,13.943-26.084,13.943-37.43,0    l-14,0c-7.78,0-14.08-6.41-14.08-14.31v-23.74H158.42z"/><path fill="#ffc05a" d="M4,249.64v42.81c0,26.27,50.28,47.57,112.3,47.57s112.3-21.3,112.3-47.57v-42.81H4z"/><path fill="#655f68" d="M133.48,202.63c53.87,3.5,95.12,23.21,95.12,47.01c0,26.27-50.28,47.57-112.3,47.57    S4,275.91,4,249.64c0-22.37,36.44-41.13,85.53-46.21c2.53-8.55,3.19-15.9,3.38-20.39h37.43    C130.52,187.39,131.14,194.42,133.48,202.63z"/><path fill="#5d5560" d="M89.53 203.43c-2.06 6.96-5.36 14.74-10.66 22.42-6.27 9.08-13.34 15.18-18.72 19.03 0 0 21.13-35.5-14.04-32.38C58.66 208.24 73.41 205.1 89.53 203.43zM181.26 210.83v.01c-37.8 3.01-18.8 33.05-18.19 34.02-5.37-3.84-12.44-9.94-18.69-19.01-5.51-7.98-8.86-16.06-10.9-23.22C151.09 203.77 167.35 206.65 181.26 210.83zM395.55 119.66c7.37 2.46 14.74 4.92 22.11 7.38-4.14 15.21-12.17 28.97-27.22 34.37-1.69-1.66-2.74-3.96-2.74-6.51v-9.91C391.91 135.83 394.26 127.14 395.55 119.66z"/><path fill="#c57742" d="M420.46,70.88c0,0,4.27,30.2-2.8,56.16c-7.37-2.46-14.74-4.92-22.11-7.38    c1.24-7.15,1.51-13.2,1.51-17.49c0-19.2-5.38-34-9.04-42.11C398.83,63.67,409.65,67.28,420.46,70.88z"/><path fill="#3a322b" d="M116.302,344.02c65.216,0,116.302-22.652,116.302-51.569v-42.813   c0-13.049-10.522-25.381-29.628-34.724c-17.275-8.448-40.748-14.114-66.356-16.069c-1.053-4.271-1.664-8.263-1.995-11.804h9.709   c9.97,0,18.081-8.216,18.081-18.315v-19.741h221.283v5.917c0,7.229,5.882,13.111,13.111,13.111h47.287   c7.229,0,13.111-5.881,13.111-13.111v-10.46l23.721,7.913c1.827,0.61,3.696,0.91,5.547,0.91c3.584,0,7.103-1.125,10.137-3.312   c4.695-3.383,7.388-8.669,7.388-14.504v-28.037c0-7.702-4.853-14.497-12.076-16.906L229.454,2.952   c-18.622-6.212-38.879-2.493-54.182,9.953l-9.32,7.58c-8.795,7.152-19.837,11.091-31.092,11.091H62.49   c-31.877,0-57.811,26.335-57.811,58.705c0,31.804,25.04,57.764,56.15,58.662v19.784c0,10.1,8.111,18.315,18.081,18.315h9.71   c-0.355,3.798-1.026,8.106-2.221,12.716c-23.412,2.694-44.612,8.608-59.926,16.766C9.154,225.749,0,237.199,0,249.638v42.813   C0,321.367,51.086,344.02,116.302,344.02z M449.208,154.902c0,2.818-2.293,5.111-5.111,5.111H396.81   c-2.818,0-5.111-2.292-5.111-5.111v-9.072c3.007-6.692,5.324-13.732,6.896-20.941l50.614,16.884V154.902z M489.393,98.094   c3.952,1.318,6.607,5.063,6.607,9.317v28.037c0,3.231-1.481,6.152-4.064,8.013c-2.49,1.795-5.577,2.271-8.476,1.304l-83.441-27.834   c0.688-4.894,1.038-9.833,1.038-14.758c0-12.065-2.1-24.201-6.119-35.586L489.393,98.094z M12.68,90.281   c0-27.958,22.345-50.705,49.811-50.705h72.37c13.088,0,25.923-4.576,36.139-12.885l9.32-7.58   c13.167-10.708,30.589-13.912,46.604-8.57l158.146,52.753c5.231,12.195,7.987,25.582,7.987,38.878   c0,13.271-2.746,26.634-7.959,38.812H62.49C35.024,140.985,12.68,118.239,12.68,90.281z M68.83,168.726v-19.741h85.585v19.741   c0,5.688-4.522,10.315-10.081,10.315H78.911C73.353,179.041,68.83,174.413,68.83,168.726z M83.702,208.147   c-1.948,5.058-4.572,10.285-8.125,15.436c-4.816,6.979-10.79,13.051-17.757,18.049c-1.795,1.288-2.206,3.787-0.918,5.582   c0.781,1.089,2.008,1.668,3.253,1.668c0.808,0,1.623-0.243,2.329-0.75c7.717-5.536,14.337-12.267,19.677-20.006   c10.178-14.75,13.552-30.035,14.493-41.084h29.938c0.937,11.02,4.306,26.318,14.494,41.084c5.341,7.74,11.962,14.471,19.679,20.006   c0.706,0.507,1.521,0.75,2.328,0.75c1.245,0,2.472-0.579,3.253-1.669c1.288-1.795,0.877-4.294-0.919-5.581   c-6.966-4.997-12.94-11.069-17.757-18.049c-3.805-5.515-6.554-11.12-8.536-16.506c23.389,2.084,44.635,7.351,60.328,15.024   c16.214,7.929,25.143,17.708,25.143,27.537c0,23.617-49.596,43.569-108.302,43.569S8,273.255,8,249.638   C8,230.955,39.477,213.917,83.702,208.147z M8,268.79c16.816,19.168,58.426,32.417,108.302,32.417s91.486-13.25,108.302-32.417   v23.661c0,23.617-49.596,43.569-108.302,43.569S8,316.068,8,292.45V268.79z M196.528,111.687c0,2.209,1.791,4,4,4h74.868   c2.209,0,4-1.791,4-4V87.145h29.434v24.542c0,2.209,1.791,4,4,4s4-1.791,4-4V87.145h13.057v24.542c0,2.209,1.791,4,4,4s4-1.791,4-4   V87.145h13.057v24.542c0,2.209,1.791,4,4,4s4-1.791,4-4V83.145c0-2.209-1.791-4-4-4H46.113c-2.209,0-4,1.791-4,4s1.791,4,4,4   h150.415V111.687z M271.396,107.687h-66.868V87.145h66.868V107.687z"/></svg>