<svg xmlns="http://www.w3.org/2000/svg" data-name="Layer 3" viewBox="0 0 64 64" width="64" height="64"><path fill="#006837" d="M27.5,15.335A7.991,7.991,0,0,0,21,12H17v4a8,8,0,0,0,8,8Z"/><path fill="#06723c" d="M25.317,22.9,27.5,15.336A7.986,7.986,0,0,0,21,12H18.5v3A8,8,0,0,0,25.317,22.9Z"/><rect width="62" height="11" x="1" y="43" fill="#f8cd8b"/><path fill="#fadfb8" d="M14,52H63V43H3.19A11,11,0,0,0,14,52Z"/><rect width="62" height="4" x="1" y="43" fill="#6ecbf9"/><path fill="#8c8c8c" d="M61,43l-.584-.292A63.547,63.547,0,0,0,32,36h0A63.547,63.547,0,0,0,3.584,42.708L3,43"/><polygon fill="#f2f2f2" points="7 43 5.586 43 1.585 47 3 47 4.414 47 8.414 43 7 43"/><polygon fill="#f2f2f2" points="13 43 11.586 43 7.585 47 9 47 10.414 47 14.414 43 13 43"/><polygon fill="#f2f2f2" points="19 43 17.586 43 13.585 47 15 47 16.414 47 20.414 43 19 43"/><polygon fill="#f2f2f2" points="25 43 23.586 43 19.585 47 21 47 22.414 47 26.414 43 25 43"/><polygon fill="#f2f2f2" points="31 43 29.586 43 25.585 47 27 47 28.414 47 32.414 43 31 43"/><polygon fill="#f2f2f2" points="37 43 35.586 43 31.585 47 33 47 34.414 47 38.414 43 37 43"/><polygon fill="#f2f2f2" points="43 43 41.586 43 37.585 47 39 47 40.414 47 44.414 43 43 43"/><polygon fill="#f2f2f2" points="49 43 47.586 43 43.585 47 45 47 46.414 47 50.414 43 49 43"/><polygon fill="#f2f2f2" points="55 43 53.586 43 49.585 47 51 47 52.414 47 56.414 43 55 43"/><polygon fill="#f2f2f2" points="61 43 59.586 43 55.585 47 57 47 58.414 47 62.414 43 61 43"/><path fill="#a0a0a0" d="M7.321,41H56.679A63.405,63.405,0,0,0,7.321,41Z"/><path fill="#06723c" d="M25,23A13,13,0,0,1,38,10h9v9A13,13,0,0,1,34,32H25Z"/><path fill="#0f8446" d="M25,23v6h8A13,13,0,0,0,46,16V10H38A13,13,0,0,0,25,23Z"/><path fill="#fff" d="M33,28a1,1,0,0,1-.707-.293l-4-4,1.414-1.414L33,25.586l9.293-9.293,1.414,1.414-10,10A1,1,0,0,1,33,28Z"/><polygon fill="#fff" points="37 17 35 17 35 15 33 15 33 17 31 17 31 19 33 19 33 21 35 21 35 19 37 19 37 17"/></svg>