<svg xmlns="http://www.w3.org/2000/svg" enable-background="new 0 0 504 464" viewBox="0 0 504 464" width="504" height="464"><path fill="#e15c63" d="M411.09,389.24l-65.51,23.26v19c0,15.74,12.57,28.5,28.08,28.5h41.95    c13.86,0,25.68-10.26,27.75-24.17c0.44-2.96,0.86-5.99,1.26-9.08L411.09,389.24z"/><path fill="#f9b132" d="M433.3,227.25h0.01c0.79-6.11,3.54-11.89,7.97-16.39L457.89,194    C493.363,88.986,474.079,27.338,406.42,4H228.6c-35.459,63.333-35.459,126.667,0,190h28.08c0,15.74,12.57,28.5,28.07,28.5h14.04    l46.79,66.5l65.51,99.75v0.49v18.55c0,10.47,8.37,18.96,18.68,18.96h14.85c3.23-24.77,5.13-53.55,3.91-85.5    c-1.07-28.11-4.38-53.61-8.65-76C422.32,254.145,411.775,242.328,433.3,227.25z"/><path fill="#e15c63" d="M345.58,289v9.5h-27.95c-10.4,0-18.84-8.56-18.84-19.13V222.5h18.72    c15.51,0,28.07,12.76,28.07,28.5V289z"/><path fill="#655f68" d="M345.58 384v-33.25V317.5v-19V289h42.6c12.65 0 22.91 10.42 22.91 23.26v76.49.49c0 12.84-10.26 23.26-22.91 23.26h-42.6V384zM439.88 265.25h-56.74c-5.24 0-9.48-4.31-9.48-9.62v-18.76c0-5.31 4.24-9.62 9.48-9.62h50.16.01c-.47 3.53-.29 7.16.6 10.72C436.01 246.46 438.04 255.56 439.88 265.25zM498.87 75.25c-12.227-8.151-15.484-17.426-4.39-28.5-1.3-6.14-2.91-12.54-4.87-19.14C485.45 13.59 472.69 4 458.26 4h-51.84c16.15 39.36 18.71 74.3 18.71 95 0 42.64-10.87 75.9-18.71 95h51.47.37c14.43 0 27.19-9.59 31.35-23.61 1.96-6.6 3.57-13 4.87-19.14-12.73-11.812-11.267-21.312 4.39-28.5C499.74 113.6 500 105.58 500 99S499.74 84.4 498.87 75.25z"/><path fill="#ffc05a" d="M457.89 122.75h40.98c-.82 8.59-2.19 18.18-4.38 28.5h-.01-36.59c-3.88 0-7.39-1.59-9.93-4.17-2.54-2.58-4.11-6.14-4.11-10.08C443.85 129.13 450.13 122.75 457.89 122.75zM498.87 75.25h-40.98c-7.76 0-14.04-6.38-14.04-14.25 0-3.94 1.57-7.5 4.11-10.08 2.54-2.58 6.05-4.17 9.93-4.17h36.59.01C496.68 57.07 498.05 66.66 498.87 75.25z"/><path fill="#655f68" d="M228.7,122.75h17.49c0.87-9.15,1.13-17.17,1.13-23.75s-0.26-14.6-1.13-23.75H228.7    c-7.81,0-14.13-6.33-14.13-14.13v-0.24c0-7.8,6.32-14.13,14.13-14.13h13.11C238.99,33.52,234.79,19.08,228.6,4h-23.39    c-18.09,0-32.76,14.89-32.76,33.25v123.5c0,18.36,14.67,33.25,32.76,33.25h23.39c6.19-15.08,10.39-29.52,13.21-42.75H228.7    c-7.81,0-14.13-6.33-14.13-14.13v-0.24C214.57,129.08,220.89,122.75,228.7,122.75z"/><path fill="#ffc05a" d="M392.38 122.75v28.5H241.81 228.7c-7.81 0-14.13-6.33-14.13-14.13v-.24c0-7.8 6.32-14.13 14.13-14.13h17.49H392.38zM392.38 46.75v28.5H246.19 228.7c-7.81 0-14.13-6.33-14.13-14.13v-.24c0-7.8 6.32-14.13 14.13-14.13h13.11H392.38z"/><path fill="#cdc7b9" d="M172.45,37.25h-28.19c-6.27,0-11.44,4.04-13.43,9.5c-44.348,31.963-36.519,67.302,0.03,104.5    c1.99,5.46,7.13,9.5,13.4,9.5h28.19c7.72-24.86,9.36-46.65,9.36-61.75C181.81,72.93,176.92,51.65,172.45,37.25z"/><path fill="#655f68" d="M130.31,143.04c3.78-17.45,4.71-32.65,4.71-44.04c0-16.92-2.06-31.82-4.73-44.14    c-0.61-2.84-0.37-5.62,0.54-8.11H78.87c-6.18,0-12.11,1.11-17.6,3.13v98.24c5.49,2.02,11.42,3.13,17.6,3.13h51.99    C129.94,148.73,129.69,145.91,130.31,143.04z"/><path fill="#5d5560" d="M61.27,49.88c-15.44,5.7-27.43,18.69-31.94,34.87v28.5c4.51,16.18,16.5,29.17,31.94,34.87    c6.96-20.14,8.24-37.77,8.24-49.12C69.51,78.13,65.17,61.18,61.27,49.88z"/><path fill="#e4e4e4" d="M46.11,99c0,2.01-0.25,8.26-4.68,14.25h-12.1H18.04C10.28,113.25,4,106.87,4,99    s6.28-14.25,14.04-14.25h11.29h12.1C42.62,86.36,46.11,91.51,46.11,99z"/><path fill="#d14b62" d="M429.77,426.75h14.85c-0.4,3.09-0.82,6.12-1.26,9.08c-2.07,13.91-13.89,24.17-27.75,24.17h-41.95    c-15.51,0-28.08-12.76-28.08-28.5c30.23,0,51.13-11.1,65.51-27.57v3.86C411.09,418.26,419.46,426.75,429.77,426.75z"/><path fill="#ef9d26" d="M448.53 341.25c1.22 31.95-.68 60.73-3.91 85.5h-14.85c-10.31 0-18.68-8.49-18.68-18.96v-3.86c40.61-46.49 29.18-135.75 28.8-138.61C444.16 287.69 447.46 313.17 448.53 341.25zM457.89 194l-15.84 16.08H261.58h-.01c-3.09-4.58-4.89-10.12-4.89-16.08h149.74H457.89z"/><path fill="#3a322b" d="M18.038,117.25h8.355c7.618,22.519,28.771,38,52.475,38h49.43c0.523,0.946,1.129,1.855,1.821,2.712   c3.48,4.313,8.636,6.788,14.144,6.788h24.405c1.976,18.665,17.606,33.25,36.539,33.25h47.724c1.953,16.039,15.474,28.5,31.823,28.5   h10.037v52.873c0,12.752,10.247,23.127,22.843,23.127h23.95v129c0,17.92,14.389,32.5,32.075,32.5h41.945   c15.74,0,29.373-11.86,31.71-27.587c4.674-31.468,6.427-63.537,5.21-95.316c-1.342-35.046-6.3-70.069-14.737-104.094   c-2.065-8.329,0.364-17.27,6.339-23.335l15.462-15.696c15.549-0.581,29.355-11.29,33.859-26.447C500.45,147.967,504,123.566,504,99   s-3.55-48.967-10.552-72.524C488.816,10.887,474.346,0,458.259,0H205.207c-18.933,0-34.563,14.585-36.539,33.25h-24.407   c-5.523,0-10.693,2.482-14.184,6.81c-0.687,0.851-1.289,1.752-1.808,2.69H78.868c-23.705,0-44.857,15.481-52.475,38h-8.355   C8.092,80.75,0,88.937,0,99S8.092,117.25,18.038,117.25z M388.377,126.75v20.5H228.7c-5.588,0-10.134-4.546-10.134-10.134v-0.232   c0-5.588,4.546-10.134,10.134-10.134H388.377z M392.377,155.25c2.209,0,4-1.791,4-4v-28.5c0-2.209-1.791-4-4-4H250.535   c0.512-6.57,0.785-13.192,0.785-19.75s-0.273-13.18-0.785-19.75h141.842c2.209,0,4-1.791,4-4v-28.5c0-2.209-1.791-4-4-4H245.009   C242.334,30.944,238.815,19.291,234.49,8h169.208c11.558,29.039,17.434,59.636,17.434,91c0,31.363-5.875,61.961-17.434,91H234.49   c4.325-11.291,7.844-22.944,10.519-34.75H392.377z M388.377,50.75v20.5H228.7c-5.588,0-10.134-4.546-10.134-10.134v-0.232   c0-5.588,4.546-10.134,10.134-10.134H388.377z M317.635,294.5c-8.185,0-14.843-6.786-14.843-15.127V226.5h14.718   c13.275,0,24.075,10.991,24.075,24.5v43.5H317.635z M349.585,293h38.594c10.431,0,18.916,8.641,18.916,19.263v76.487v0.487   c0,10.622-8.485,19.263-18.916,19.263h-38.594V388h33.434c2.209,0,4-1.791,4-4s-1.791-4-4-4h-33.434v-25.25h33.434   c2.209,0,4-1.791,4-4s-1.791-4-4-4h-33.434V321.5h33.434c2.209,0,4-1.791,4-4s-1.791-4-4-4h-33.434V293z M415.605,456H373.66   c-13.275,0-24.075-10.991-24.075-24.5v-15h38.594c7.377,0,14.069-3.024,18.936-7.909c0.417,12.29,10.416,22.159,22.655,22.159   h10.272c-0.208,1.497-0.418,2.993-0.64,4.487C437.644,447.074,427.413,456,415.605,456z M429.083,231.25   c0.013,2.565,0.312,5.143,0.94,7.678c1.834,7.396,3.491,14.841,4.99,22.322h-51.873c-3.021,0-5.479-2.522-5.479-5.622v-18.756   c0-3.1,2.458-5.622,5.479-5.622H429.083z M438.428,208.054c-4.172,4.235-7.024,9.528-8.403,15.196h-46.886   c-7.432,0-13.479,6.111-13.479,13.622v18.756c0,7.511,6.047,13.622,13.479,13.622h53.413c4.375,23.82,7.055,47.98,7.98,72.153   c1.038,27.092-0.122,54.397-3.438,81.347H429.77c-8.092,0-14.675-6.709-14.675-14.957v-18.556v-0.487v-76.487   c0-15.033-12.074-27.263-26.916-27.263h-38.594v-34c0-17.92-14.389-32.5-32.075-32.5h-32.755c-11.937,0-21.867-8.887-23.749-20.5   h187.326L438.428,208.054z M491.229,147.25h-33.343c-5.535,0-10.038-4.598-10.038-10.25s4.503-10.25,10.038-10.25h36.54   C493.648,133.624,492.584,140.463,491.229,147.25z M494.427,71.25h-36.54c-5.535,0-10.038-4.598-10.038-10.25   s4.503-10.25,10.038-10.25h33.343C492.584,57.537,493.648,64.376,494.427,71.25z M485.78,28.754   c1.377,4.633,2.608,9.301,3.709,13.996h-31.603c-9.946,0-18.038,8.187-18.038,18.25s8.092,18.25,18.038,18.25h37.312   c0.421,5.236,0.68,10.488,0.766,15.75h-33.397c-2.209,0-4,1.791-4,4s1.791,4,4,4h33.397c-0.085,5.262-0.345,10.514-0.766,15.75   h-37.312c-9.946,0-18.038,8.187-18.038,18.25s8.092,18.25,18.038,18.25h31.603c-1.1,4.695-2.332,9.363-3.709,13.996   C482.091,181.66,471.031,190,458.259,190h-45.956c11.167-29.1,16.829-59.683,16.829-91s-5.661-61.9-16.829-91h45.956   C471.031,8,482.091,16.34,485.78,28.754z M205.207,8h20.682c4.48,11.265,8.148,22.918,10.921,34.75H228.7   c-9.999,0-18.134,8.135-18.134,18.134v0.232c0,9.999,8.135,18.134,18.134,18.134h13.809c0.528,6.567,0.812,13.192,0.812,19.75   s-0.284,13.183-0.812,19.75H228.7c-9.999,0-18.134,8.135-18.134,18.134v0.232c0,9.999,8.135,18.134,18.134,18.134h8.109   c-2.772,11.832-6.441,23.485-10.921,34.75h-20.682c-15.676,0-28.454-12.829-28.74-28.708c6.198-20.189,9.345-41.142,9.345-62.292   c0-21.151-3.147-42.103-9.345-62.292C176.753,20.829,189.531,8,205.207,8z M136.304,45.082c1.965-2.436,4.864-3.832,7.957-3.832   h25.224c5.526,18.749,8.327,38.162,8.327,57.75s-2.801,39.001-8.327,57.75h-25.222c-3.077,0-5.963-1.389-7.918-3.812   c-2.044-2.533-2.817-5.833-2.12-9.056c3.181-14.721,4.794-29.821,4.794-44.883c0-15.095-1.621-30.229-4.817-44.982   C133.515,50.847,134.281,47.59,136.304,45.082z M125.983,50.75c-0.085,1.642,0.042,3.309,0.399,4.961   c3.076,14.198,4.636,28.762,4.636,43.289c0,14.495-1.553,29.027-4.614,43.193c-0.364,1.686-0.491,3.385-0.4,5.057H78.868   c-4.306,0-8.51-0.607-12.53-1.734C71.095,130.463,73.51,114.837,73.51,99c0-15.835-2.415-31.461-7.171-46.516   c4.02-1.127,8.224-1.734,12.53-1.734H125.983z M58.835,55.297C63.261,69.447,65.51,84.126,65.51,99   c0,14.876-2.249,29.555-6.675,43.703c-10.674-5.077-19.342-14.096-23.916-25.453h6.515c1.27,0,2.463-0.602,3.217-1.623   c4.753-6.432,5.463-13.178,5.463-16.627c0-8.039-3.423-13.869-5.464-16.628c-0.754-1.02-1.947-1.622-3.216-1.622h-6.515   C39.493,69.393,48.161,60.374,58.835,55.297z M18.038,88.75h21.253c1.342,2.264,2.822,5.776,2.822,10.25   c0,2.175-0.395,6.184-2.817,10.25H18.038C12.503,109.25,8,104.652,8,99S12.503,88.75,18.038,88.75z M84.227,99c0-2.209,1.791-4,4-4   h28.075c2.209,0,4,1.791,4,4s-1.791,4-4,4H88.227C86.018,103,84.227,101.209,84.227,99z M84.227,70.5c0-2.209,1.791-4,4-4h28.075   c2.209,0,4,1.791,4,4s-1.791,4-4,4H88.227C86.018,74.5,84.227,72.709,84.227,70.5z M84.227,127.5c0-2.209,1.791-4,4-4h28.075   c2.209,0,4,1.791,4,4s-1.791,4-4,4H88.227C86.018,131.5,84.227,129.709,84.227,127.5z M372.981,99c0,2.209-1.791,4-4,4h-93.585   c-2.209,0-4-1.791-4-4s1.791-4,4-4h93.585C371.19,95,372.981,96.791,372.981,99z"/></svg>