<svg xmlns="http://www.w3.org/2000/svg" enable-background="new 0 0 100 100" viewBox="0 0 100 100" width="100" height="100"><path fill="#99f0fd" d="M27.491,37.563l-3.819-17.798c-0.471-2.441-2.763-4.022-5.123-3.538      c-1.177,0.244-2.148,0.958-2.766,1.915c-0.62,0.961-0.886,2.168-0.65,3.392l3.439,16.029H27.491z"/><path d="M17.706,38.902l-3.676-17.13c-0.592-3.065,1.335-6.037,4.29-6.648c1.416-0.286,2.862-0.005,4.069,0.801      c1.25,0.835,2.099,2.124,2.389,3.628l4.05,18.877l-2.205,0.473l-4.055-18.9c-0.18-0.931-0.687-1.706-1.432-2.203      c-0.703-0.468-1.542-0.635-2.362-0.467c-1.753,0.362-2.891,2.152-2.536,3.989l3.671,17.108L17.706,38.902z"/><path fill="#99f0fd" d="M81.428,37.563l3.439-16.029c0.172-0.887,0.079-1.764-0.22-2.547      c-0.526-1.372-1.692-2.449-3.195-2.76c-2.36-0.484-4.653,1.096-5.123,3.538l-3.819,17.798H81.428z"/><path d="M82.294,38.902l-2.205-0.473l3.676-17.131c0.35-1.814-0.789-3.604-2.543-3.966c-0.818-0.168-1.657-0.003-2.36,0.467      c-0.745,0.498-1.252,1.273-1.427,2.18l-4.06,18.923l-2.204-0.473l4.055-18.9c0.285-1.481,1.134-2.769,2.384-3.605      c1.208-0.806,2.652-1.093,4.068-0.801c2.957,0.611,4.884,3.583,4.297,6.625L82.294,38.902z"/><path fill="#99f0fd" d="M38.49,26.823l-15.095-6.295c-0.947-1.308-0.963-3.171,0.097-4.382       c1.427-1.63,3.843-1.45,5.054,0.221l13.763,7.774c0.737,1.249,0.228,2.885-1.075,3.453l0,0       C40.257,28.018,39.126,27.701,38.49,26.823z"/><path d="M40.334,28.91c-0.953,0-1.88-0.408-2.542-1.156l-15.126-6.309l-0.186-0.257c-1.286-1.776-1.218-4.209,0.162-5.786       c0.896-1.021,2.167-1.556,3.486-1.512c1.239,0.057,2.38,0.64,3.17,1.607l13.827,7.81l0.154,0.26       c0.521,0.883,0.637,1.95,0.321,2.929c-0.31,0.959-1.008,1.735-1.916,2.132C41.246,28.817,40.787,28.91,40.334,28.91z        M24.151,19.621l15.066,6.284l0.186,0.257c0.324,0.447,0.892,0.611,1.382,0.397c0.319-0.139,0.558-0.408,0.67-0.757       c0.091-0.282,0.087-0.581-0.008-0.853l-13.669-7.721l-0.145-0.199c-0.386-0.533-0.972-0.856-1.609-0.885       c-0.636-0.022-1.238,0.235-1.685,0.745C23.716,17.601,23.651,18.732,24.151,19.621z"/><path fill="#acacac" d="M19.402,19.522c0-1.868,1.462-3.382,3.266-3.382c1.804,0,3.266,1.515,3.266,3.382       c0,1.868-1.462,3.383-3.266,3.383C20.864,22.905,19.402,21.391,19.402,19.522z"/><path d="M22.668,24.033c-2.422,0-4.393-2.023-4.393-4.51s1.971-4.51,4.393-4.51c2.423,0,4.393,2.023,4.393,4.51       S25.09,24.033,22.668,24.033z M22.668,17.268c-1.179,0-2.138,1.012-2.138,2.255s0.959,2.255,2.138,2.255       c1.18,0,2.138-1.012,2.138-2.255S23.847,17.268,22.668,17.268z"/><path fill="#acacac" d="M44.362,29.67h-5.432c-0.607,0-1.1-0.492-1.1-1.1v-4.565c0-0.607,0.493-1.1,1.1-1.1h4.332       c0.608,0,1.1,0.493,1.1,1.1v2.953V29.67z"/><path d="M45.49,30.798h-5.404c-1.865,0-3.382-1.517-3.382-3.382V25.16c0-1.865,1.517-3.382,3.382-3.382h2.022       c1.865,0,3.383,1.517,3.383,3.382V30.798z M40.086,24.033c-0.622,0-1.128,0.505-1.128,1.127v2.255       c0,0.622,0.506,1.127,1.128,1.127h3.149V25.16c0-0.622-0.506-1.127-1.128-1.127H40.086z"/><path fill="#99f0fd" d="M61.51,26.823l15.095-6.295c0.947-1.308,0.963-3.171-0.097-4.382       c-1.427-1.63-3.843-1.45-5.054,0.221L57.691,24.14c-0.737,1.249-0.228,2.885,1.075,3.453l0,0       C59.743,28.018,60.874,27.701,61.51,26.823z"/><path d="M59.665,28.91c-0.453,0-0.911-0.092-1.349-0.283c-0.909-0.396-1.607-1.173-1.917-2.132       c-0.317-0.978-0.2-2.045,0.321-2.929l0.154-0.26l13.827-7.81c0.79-0.967,1.932-1.549,3.17-1.607       c1.317-0.044,2.59,0.491,3.485,1.512c1.38,1.577,1.449,4.01,0.163,5.786l-0.187,0.257l-15.125,6.309       C61.545,28.502,60.618,28.91,59.665,28.91z M58.553,24.948c-0.095,0.272-0.1,0.571-0.008,0.853       c0.113,0.349,0.352,0.619,0.672,0.757c0.491,0.215,1.057,0.05,1.381-0.397l0.186-0.257l15.066-6.284       c0.5-0.889,0.435-2.02-0.19-2.733c-0.447-0.51-1.049-0.767-1.685-0.745c-0.636,0.03-1.222,0.353-1.608,0.885l-0.145,0.199       L58.553,24.948z"/><path fill="#acacac" d="M80.598,19.522c0-1.868-1.462-3.382-3.266-3.382c-1.804,0-3.266,1.515-3.266,3.382       c0,1.868,1.462,3.383,3.266,3.383C79.136,22.905,80.598,21.391,80.598,19.522z"/><path d="M77.332,24.033c-2.422,0-4.393-2.023-4.393-4.51s1.971-4.51,4.393-4.51c2.423,0,4.393,2.023,4.393,4.51       S79.755,24.033,77.332,24.033z M77.332,17.268c-1.179,0-2.138,1.012-2.138,2.255s0.959,2.255,2.138,2.255       c1.18,0,2.138-1.012,2.138-2.255S78.511,17.268,77.332,17.268z"/><path fill="#acacac" d="M55.638,29.67h5.432c0.607,0,1.1-0.492,1.1-1.1v-4.565c0-0.607-0.493-1.1-1.1-1.1h-4.332       c-0.608,0-1.1,0.493-1.1,1.1v3.775V29.67z"/><path d="M59.914,30.798H54.51V25.16c0-1.865,1.518-3.382,3.383-3.382h2.022c1.865,0,3.382,1.517,3.382,3.382v2.255       C63.297,29.281,61.779,30.798,59.914,30.798z M56.765,28.543h3.149c0.622,0,1.128-0.505,1.128-1.127V25.16       c0-0.622-0.506-1.127-1.128-1.127h-2.022c-0.622,0-1.128,0.505-1.128,1.127V28.543z"/><path d="M60.283 37.039l-1.594-1.596.797-.796c.426-.426.661-.992.661-1.594 0-.602-.234-1.168-.661-1.594-.852-.852-2.336-.852-3.189 0-.426.426-.66.992-.66 1.594 0 .602.234 1.168.66 1.594l.798.796-1.594 1.596-.798-.797c-.851-.851-1.321-1.984-1.321-3.189 0-1.205.47-2.338 1.321-3.189 1.703-1.704 4.674-1.704 6.378 0 .851.851 1.321 1.984 1.321 3.189 0 1.204-.47 2.337-1.321 3.189L60.283 37.039zM44.498 37.039l-1.594-1.596.798-.796c.426-.426.66-.992.66-1.594 0-.602-.234-1.168-.66-1.594-.853-.852-2.336-.852-3.189 0-.426.426-.66.992-.66 1.594 0 .602.234 1.168.66 1.594l.798.796-1.594 1.596-.798-.797c-.851-.851-1.321-1.984-1.321-3.189 0-1.205.47-2.338 1.321-3.189 1.703-1.704 4.675-1.704 6.378 0 .851.851 1.321 1.984 1.321 3.189 0 1.204-.47 2.337-1.321 3.189L44.498 37.039z"/><path fill="#8fb5f5" d="M30.833,60.113H20.685c-1.868,0-3.382-1.514-3.382-3.382v-2.015V47.71h65.395v9.02       c0,0.623-0.168,1.207-0.463,1.708c-0.587,1.002-1.675,1.674-2.92,1.674H69.168H30.833z"/><path d="M79.315,61.241H68.04v-2.255h11.275c1.243,0,2.255-1.012,2.255-2.255v-7.892H18.43v7.892       c0,1.243,1.011,2.255,2.255,2.255H31.96v2.255H20.685c-2.487,0-4.51-2.023-4.51-4.51V46.583h67.65V56.73       C83.825,59.218,81.802,61.241,79.315,61.241z"/><path fill="#4c4c4c" d="M80.442,51.093c1.868,0,3.471-1.136,4.156-2.754c0.228-0.54,0.354-1.133,0.354-1.756                c0-2.491-2.019-4.51-4.51-4.51H19.558c-1.142,0-2.185,0.425-2.979,1.124c-0.938,0.826-1.531,2.037-1.531,3.386                c0,2.491,2.019,4.51,4.51,4.51H80.442z"/><path d="M80.442,52.221H19.558c-3.109,0-5.638-2.529-5.638-5.638s2.529-5.638,5.638-5.638h60.885                c3.108,0,5.638,2.529,5.638,5.638S83.55,52.221,80.442,52.221z M19.558,43.201c-1.865,0-3.383,1.517-3.383,3.382                c0,1.865,1.517,3.382,3.383,3.382h60.885c1.865,0,3.382-1.517,3.382-3.382c0-1.865-1.517-3.382-3.382-3.382H19.558z"/><path d="M78.188,47.71v-2.255h2.255v2.255C78.188,47.71,80.442,47.71,78.188,47.71z M73.677,47.71v-2.255h2.255v2.255          C73.677,47.71,75.933,47.71,73.677,47.71z M69.168,47.71v-2.255h2.255v2.255C69.168,47.71,71.423,47.71,69.168,47.71z           M64.658,47.71v-2.255h2.255v2.255C64.658,47.71,66.912,47.71,64.658,47.71z M60.147,47.71v-2.255h2.255v2.255          C60.147,47.71,62.403,47.71,60.147,47.71z M55.638,47.71v-2.255h2.255v2.255C55.638,47.71,57.893,47.71,55.638,47.71z           M51.127,47.71v-2.255h2.255v2.255C51.127,47.71,53.382,47.71,51.127,47.71z M46.618,47.71v-2.255h2.255v2.255          C46.618,47.71,48.873,47.71,46.618,47.71z M42.107,47.71v-2.255h2.255v2.255C42.107,47.71,44.362,47.71,42.107,47.71z           M37.597,47.71v-2.255h2.255v2.255C37.597,47.71,39.853,47.71,37.597,47.71z M33.088,47.71v-2.255h2.255v2.255          C33.088,47.71,35.342,47.71,33.088,47.71z M28.577,47.71v-2.255h2.255v2.255C28.577,47.71,30.833,47.71,28.577,47.71z           M24.067,47.71v-2.255h2.255v2.255C24.067,47.71,26.323,47.71,24.067,47.71z M19.558,47.71v-2.255h2.255v2.255          C19.558,47.71,21.812,47.71,19.558,47.71z"/><rect width="4.51" height="9.02" x="20.685" y="60.113" fill="#acacac"/><polygon points="26.323 70.26 24.067 70.26 24.067 61.241 21.812 61.241 21.812 70.26 19.558 70.26 19.558 58.986 26.323 58.986"/><rect width="4.51" height="9.02" x="74.805" y="60.113" fill="#acacac"/><polygon points="80.442 70.26 78.188 70.26 78.188 61.241 75.933 61.241 75.933 70.26 73.677 70.26 73.677 58.986 80.442 58.986"/><rect width="5.637" height="2.255" x="20.685" y="54.475"/><rect width="5.637" height="2.255" x="73.677" y="54.475"/><rect width="6.765" height="2.255" x="46.618" y="54.475"/><g><path fill="#fd8301" d="M54.367,84.784l-1.675-1.577C51.818,83.284,50.921,83.33,50,83.33s-1.818-0.046-2.692-0.123        l-1.675,1.577c-0.053,0.05-0.142,0.014-0.142-0.057V71.952h9.02v12.774C54.51,84.798,54.42,84.834,54.367,84.784z"/><path d="M45.865,86.113l-0.774-0.278c-0.443-0.192-0.728-0.626-0.728-1.108V70.824h11.275v14.642l-0.728,0.368        c-0.443,0.193-0.959,0.103-1.313-0.228l-0.002-0.001l-1.31-1.234c-1.562,0.117-3.004,0.117-4.568,0L45.865,86.113z         M46.618,73.079v9.229l0.285-0.268l0.504,0.044c1.801,0.16,3.389,0.16,5.187,0l0.503-0.044l0.285,0.267v-9.228H46.618z"/><rect width="8.118" height="8.403" x="31.96" y="70.223" fill="#fd8301"/><path d="M41.206,79.753H30.833V69.096h10.373V79.753z M33.088,77.498h5.863v-6.147h-5.863V77.498z"/><polygon fill="#fd8301" points="45.49 76.274 45.49 84.918 37.372 82.325 37.372 73.68"/><path d="M45.49,86.046c-0.115,0-0.23-0.018-0.343-0.054l-8.118-2.593c-0.468-0.148-0.784-0.582-0.784-1.074V73.68        c0-0.36,0.172-0.698,0.462-0.911c0.291-0.212,0.667-0.274,1.008-0.163l8.119,2.593c0.467,0.148,0.784,0.582,0.784,1.074v8.644        c0,0.36-0.172,0.698-0.463,0.911C45.96,85.972,45.726,86.046,45.49,86.046z M38.5,81.501l5.863,1.873v-6.277L38.5,75.224        V81.501z"/><rect width="7.216" height="8.403" x="60.824" y="70.223" fill="#fd8301"/><path d="M69.168,79.753h-9.471V69.096h9.471V79.753z M61.951,77.498h4.961v-6.147h-4.961V77.498z"/><path fill="#fad151" d="M50,74.685c-0.921,0-1.818-0.046-2.692-0.123l-1.818,1.711l-8.01-2.559        c-0.051-0.016-0.067-0.077-0.031-0.115l1.338-1.39c-1.165-0.651-1.707-1.163-2.317-1.988h-4.51v-5.186h4.51        c0.61-0.824,1.152-1.336,2.317-1.988l-2.067-1.712l8.522-2.352l2.067,1.711c0.874-0.077,1.771-0.123,2.692-0.123        s1.818,0.046,2.692,0.123l2.067-1.711l8.522,2.352l-2.067,1.712c1.165,0.651,1.706,1.164,2.317,1.988h4.51v5.186h-4.51        c-0.611,0.824-1.151,1.337-2.317,1.988l1.337,1.39c0.036,0.038,0.02,0.099-0.031,0.115l-8.01,2.559l-1.818-1.711        C51.818,74.64,50.921,74.685,50,74.685z"/><path d="M54.22,77.55l-1.935-1.823c-1.575,0.117-2.994,0.117-4.569,0l-1.937,1.823l-9.236-2.951l-0.204-0.652        c-0.104-0.408,0.007-0.83,0.3-1.132l0.386-0.401c-0.412-0.316-0.761-0.655-1.103-1.064h-5.09v-7.442h5.09        c0.305-0.365,0.617-0.674,0.973-0.961l-2.561-2.121l11.173-3.084l2.166,1.794c1.593-0.121,3.06-0.121,4.653,0l2.166-1.794        l11.173,3.084l-2.562,2.121c0.356,0.288,0.668,0.597,0.973,0.961h5.09v7.442h-5.09c-0.343,0.409-0.692,0.747-1.103,1.064        l0.825,0.857l-0.14,0.675c-0.103,0.4-0.415,0.725-0.812,0.846L54.22,77.55z M39.44,73.157l5.76,1.84l1.703-1.602l0.504,0.044        c1.817,0.162,3.372,0.162,5.187,0l0.503-0.044l1.702,1.602l5.761-1.84l-1.172-1.219l1.275-0.712        c1.043-0.582,1.463-1.004,1.96-1.675l0.338-0.456h3.95v-2.932h-3.95l-0.338-0.456c-0.496-0.669-0.916-1.09-1.96-1.674        l-1.437-0.802l1.669-1.383l-5.87-1.62l-1.971,1.632l-0.461-0.041c-1.8-0.158-3.387-0.158-5.187,0l-0.461,0.041l-1.971-1.632        l-5.87,1.62l1.669,1.383l-1.437,0.802c-1.047,0.585-1.466,1.005-1.96,1.673l-0.338,0.457h-3.951v2.932h3.951l0.338,0.457        c0.495,0.668,0.915,1.09,1.96,1.674l1.276,0.712L39.44,73.157z M61.735,74.378c0.002,0.002,0.004,0.004,0.006,0.007        L61.735,74.378z"/><polygon fill="#fd8301" points="54.51 76.274 62.628 73.68 62.628 82.325 54.51 84.918"/><path d="M54.51,86.046c-0.236,0-0.47-0.074-0.665-0.217c-0.291-0.213-0.463-0.55-0.463-0.911v-8.644        c0-0.491,0.317-0.925,0.784-1.074l8.119-2.593c0.344-0.111,0.718-0.049,1.008,0.163c0.29,0.213,0.462,0.551,0.462,0.911v8.644        c0,0.491-0.317,0.925-0.784,1.074l-8.118,2.593C54.74,86.028,54.625,86.046,54.51,86.046z M55.638,77.097v6.277l5.863-1.873        v-6.277L55.638,77.097z"/><g><path fill="#fd8301" d="M56.314,67.63c0,1.432-2.827,2.593-6.314,2.593s-6.314-1.16-6.314-2.593       c0-1.432,2.827-2.593,6.314-2.593S56.314,66.198,56.314,67.63z"/><path d="M50,71.351c-3.698,0-7.442-1.278-7.442-3.721c0-2.443,3.743-3.721,7.442-3.721s7.442,1.278,7.442,3.721       C57.442,70.072,53.698,71.351,50,71.351z M50,66.164c-3.225,0-5.097,1.032-5.187,1.472c0.091,0.428,1.965,1.46,5.187,1.46       c3.208,0,5.079-1.022,5.185-1.466C55.08,67.187,53.21,66.164,50,66.164z M55.187,67.635h0.011H55.187z"/></g></g></svg>