<svg xmlns="http://www.w3.org/2000/svg" enable-background="new 0 0 50 50" viewBox="0 0 50 50" width="50" height="50"><path fill="#E8E8E8" d="M29.9365,16.42c0,4.2388,2.9898,9.4119,6.6816,11.5434c3.692,2.1327,6.7078,0.4164,6.7078-3.8211         c0.026-4.2375-2.9639-9.4119-6.6557-11.5434C32.9783,10.4661,29.9624,12.1824,29.9365,16.42z" enable-background="new"/><path fill="#686868" d="M46.5091,24.0584c-0.0086,2.5874-0.9226,4.4069-2.3987,5.2651l-3.3256,1.9352         c1.4761-0.8582,2.3901-2.6819,2.3944-5.2693c0.0172-5.2136-3.6517-11.5601-8.1874-14.1777         c-2.2828-1.3217-4.3511-1.4417-5.8444-0.5749l3.3299-1.931c1.4933-0.8712,3.5616-0.7467,5.8444,0.5707         C42.8531,12.4939,46.522,18.8448,46.5091,24.0584z"/><path fill="#4F4D4D" d="M34.994,11.8101c4.5342,2.6178,8.2016,8.9668,8.1869,14.1802         c-0.0148,5.2102-3.7062,7.3137-8.2404,4.6959c-4.5369-2.6194-8.2016-8.97-8.1869-14.1802         C26.7684,11.2926,30.4571,9.1907,34.994,11.8101z"/><path fill="#D8D8D8" d="M42.0906,25.7917c0,2.369-0.8338,4.0122-2.1751,4.7976l-5.1702,3.0027l-0.6042,0.3505L30.2876,36.15       c0.3021-0.1693,0.5679-0.3865,0.8096-0.6402c0.5921-0.6042,1.0151-1.4621,1.2205-2.5135       c0.1088-0.5074,0.1571-1.0514,0.1571-1.6432c0.0121-4.7492-3.3231-10.5132-7.4557-12.8816       c-2.0785-1.2084-3.9635-1.317-5.3169-0.5198l9.6279-5.5608c0.4471-0.2655,0.9547-0.4225,1.4985-0.4708       c1.1238-0.1333,2.4288,0.1811,3.8185,0.9907c1.4017,0.7971,2.7068,1.9937,3.8185,3.4074       C40.6526,19.0736,42.1027,22.6621,42.0906,25.7917z"/><path fill="#E8E8E8" d="M25.0168,18.4629c4.1212,2.3794,7.4629,8.1514,7.4494,12.9024       c-0.0134,4.7361-3.3769,6.6369-7.4981,4.2575s-7.4629-8.1514-7.4495-12.8875C17.5322,17.9844,20.8957,16.0836,25.0168,18.4629z       "/><g><path fill="#BFBFBF" d="M33.0324,36.8909c4.0873,2.3598,4.1226,6.1913,0.0486,8.5588         c-4.0612,2.3601-10.676,2.3522-14.7633-0.0076c-4.0873-2.3598-4.1094-6.1837-0.0482-8.5438         C22.3434,34.5308,28.9451,34.5311,33.0324,36.8909z" enable-background="new"/><path fill="#4F4D4D" d="M37.0693,38.899l-0.0472,3.5184c-0.0048,1.6827-1.1091,3.3629-3.3152,4.6449          c-4.4502,2.5862-11.6809,2.5808-16.1508,0.0001c-2.254-1.3013-3.3797-3.007-3.3749-4.7101l0.0472-3.5184          c-0.0048,1.7031,1.1209,3.4087,3.3749,4.7101c4.4699,2.5807,11.7006,2.5861,16.1508-0.0001          C35.9601,42.2619,37.0645,40.5817,37.0693,38.899z"/><path fill="#686868" d="M33.7015,34.1888c4.4699,2.5807,4.4932,6.7745,0.0526,9.3552          c-4.4502,2.5862-11.6809,2.5808-16.1508,0.0001c-4.4792-2.5861-4.5028-6.769-0.0526-9.3552          C21.9913,31.6083,29.2223,31.6027,33.7015,34.1888z"/><path fill="#BFBFBF" d="M36.255,10.4815l-0.012,1.8126l-0.0121,2.3926l-0.0846,23.6603c0,1.5589-1.0272,3.0935-3.0573,4.2777         c-3.1781,1.861-7.9149,2.2592-11.7939,1.2326c-0.2779-0.0726-0.5437-0.1451-0.8096-0.2177         c-0.8217-0.2779-1.583-0.6166-2.2839-1.0149c-2.0784-1.1842-3.1176-2.7673-3.1055-4.3261l0.1087-27.8536         c0,1.5471,1.0392,3.1301,3.1056,4.3143c3.5889,2.0663,9.0991,2.3318,13.1593,0.7977         c0.6163-0.2177,1.1842-0.4714,1.7159-0.7977c1.2084-0.6892,2.0543-1.5105,2.5376-2.3926         C36.0738,11.7625,36.255,11.1099,36.255,10.4815z"/><path fill="#AFAFAF" d="M36.2309,14.6867l-0.0846,23.6603c0,1.5589-1.0272,3.0935-3.0573,4.2777        c-3.1781,1.861-7.9149,2.2592-11.7939,1.2326c-0.2779-0.0726-0.5437-0.1451-0.8096-0.2177        c0.0604-0.2661,0.0967-0.5434,0.1329-0.8219c0.0846-0.7611,0.1934-1.6073,0.7009-2.1991        c0.6646-0.7853,1.7884-0.9665,2.6102-1.5589c1.5346-1.0756,1.7401-3.2387,1.5709-5.0873        c-0.1571-1.8728-0.5317-3.8547,0.29-5.5221c1.1601-2.3684,4.3139-3.2145,5.5948-5.5345        c0.7613-1.4019,0.7371-3.1295,1.1359-4.6524c0.1692-0.6042,0.3867-1.1842,0.7613-1.6916        C33.9832,15.6053,35.0708,15.0371,36.2309,14.6867z"/><path fill="#BFBFBF" d="M33.1359,6.1332c4.1212,2.3794,4.1567,6.2426,0.049,8.6298         c-4.0948,2.3797-10.7644,2.3717-14.8856-0.0077c-4.1212-2.3794-4.1435-6.235-0.0486-8.6146         C22.3584,3.7535,29.0148,3.7538,33.1359,6.1332z"/><path fill="#4F4D4D" d="M37.8283,8.064l-0.0502,3.7388c-0.0051,1.7881-1.1786,3.5735-3.5228,4.9359          c-4.7289,2.7482-12.4126,2.7425-17.1624,0.0001c-2.3951-1.3828-3.5914-3.1953-3.5863-5.0051l0.0501-3.7388          C13.5516,9.8047,14.7478,11.6172,17.143,13c4.7499,2.7423,12.4335,2.748,17.1624-0.0001          C36.6497,11.6376,37.8232,9.8522,37.8283,8.064z"/><path fill="#686868" d="M34.2495,3.0588c4.7499,2.7423,4.7747,7.1988,0.0559,9.9411          C29.5765,15.7481,21.8928,15.7424,17.143,13c-4.7598-2.7481-4.7848-7.1929-0.0559-9.9411          C21.8059,0.3167,29.4897,0.3108,34.2495,3.0588z"/><path fill="#4F4D4D" d="M32.0765,4.3171c-3.562-2.0269-9.2886-2.055-12.8234,0c-2.0276,1.1787-2.877,2.7949-2.5208,4.3295        c0.2467-1.0957,1.0687-2.1647,2.5208-3.0143c3.5348-2.055,9.2614-2.0269,12.8234,0c1.5072,0.8777,2.3566,1.9734,2.5756,3.0959        C35.0084,7.1668,34.159,5.5225,32.0765,4.3171z"/><path fill="#3D3D3D" d="M32.0765,5.6322c-3.562-2.0269-9.2886-2.055-12.8234,0c-1.4521,0.8496-2.2741,1.9186-2.5208,3.0143        c0.2192,1.1238,1.0687,2.2196,2.5756,3.0959c3.5346,2.0283,9.2888,2.055,12.8234,0c1.4523-0.8496,2.2743-1.9172,2.5208-3.0143        C34.4331,7.6057,33.5837,6.5099,32.0765,5.6322z"/><path fill="#929393" d="M36.8753,7.5248c-0.3939,0.23-1.0313,0.23-1.4275,0c-0.1912-0.1093-0.2868-0.2527-0.2937-0.3961         c-0.0114-0.1549,0.0865-0.3097,0.2891-0.428c0.3939-0.2277,1.0313-0.23,1.4274,0c0.0615,0.0364,0.1138,0.0751,0.1571,0.1183         C37.2555,7.0423,37.2054,7.3336,36.8753,7.5248z"/><path fill="#AFAFAF" d="M37.0278,6.819c0.0114,0.1549-0.0842,0.3119-0.2891,0.4303c-0.3916,0.23-1.0313,0.2277-1.4252,0         c-0.0638-0.0364-0.1161-0.0774-0.1594-0.1206c-0.0114-0.1549,0.0865-0.3097,0.2891-0.428c0.3939-0.2277,1.0313-0.23,1.4274,0         C36.9322,6.7371,36.9845,6.7759,37.0278,6.819z"/><path fill="#929393" d="M25.9769,14.5379c-0.3939,0.23-1.0313,0.23-1.4275,0c-0.1912-0.1093-0.2868-0.2527-0.2937-0.3961         c-0.0114-0.1549,0.0865-0.3097,0.2891-0.428c0.3939-0.2277,1.0313-0.23,1.4274,0c0.0615,0.0364,0.1138,0.0751,0.1571,0.1183         C26.3571,14.0554,26.307,14.3467,25.9769,14.5379z"/><path fill="#AFAFAF" d="M26.1294,13.8322c0.0114,0.1549-0.0842,0.3119-0.2891,0.4303c-0.3916,0.23-1.0313,0.2277-1.4252,0         c-0.0638-0.0364-0.1161-0.0774-0.1594-0.1206c-0.0114-0.1549,0.0865-0.3097,0.2891-0.428c0.3939-0.2277,1.0313-0.23,1.4274,0         C26.0338,13.7502,26.0862,13.789,26.1294,13.8322z"/><path fill="#929393" d="M25.9769,2.2153c-0.3939,0.23-1.0313,0.23-1.4275,0c-0.1912-0.1093-0.2868-0.2527-0.2937-0.3961         c-0.0114-0.1549,0.0865-0.3097,0.2891-0.428c0.3939-0.2277,1.0313-0.23,1.4274,0c0.0615,0.0364,0.1138,0.0751,0.1571,0.1183         C26.3571,1.7328,26.307,2.0241,25.9769,2.2153z"/><path fill="#AFAFAF" d="M26.1294,1.5096c0.0114,0.1549-0.0842,0.3119-0.2891,0.4303c-0.3916,0.23-1.0313,0.2277-1.4252,0         c-0.0638-0.0364-0.1161-0.0774-0.1594-0.1206c-0.0114-0.1549,0.0865-0.3097,0.2891-0.428c0.3939-0.2277,1.0313-0.23,1.4274,0         C26.0338,1.4276,26.0862,1.4664,26.1294,1.5096z"/><path fill="#929393" d="M32.0637,3.1979c-0.3939,0.23-1.0313,0.23-1.4275,0c-0.1912-0.1093-0.2868-0.2527-0.2937-0.3961         c-0.0114-0.1549,0.0865-0.3097,0.2891-0.428c0.3939-0.2277,1.0313-0.23,1.4274,0c0.0615,0.0364,0.1138,0.0751,0.1571,0.1183         C32.4439,2.7154,32.3938,3.0067,32.0637,3.1979z"/><path fill="#AFAFAF" d="M32.2162,2.4921c0.0114,0.1549-0.0842,0.3119-0.2891,0.4303c-0.3916,0.23-1.0313,0.2277-1.4252,0         c-0.0638-0.0364-0.1161-0.0774-0.1594-0.1206c-0.0114-0.1549,0.0865-0.3097,0.2891-0.428c0.3939-0.2277,1.0313-0.23,1.4274,0         C32.1206,2.4102,32.1729,2.449,32.2162,2.4921z"/><path fill="#929393" d="M18.4544,12.6148c-0.3939,0.23-1.0313,0.23-1.4275,0c-0.1912-0.1093-0.2868-0.2527-0.2937-0.3961         c-0.0114-0.1549,0.0865-0.3097,0.2891-0.428c0.3939-0.2277,1.0313-0.23,1.4274,0c0.0615,0.0364,0.1138,0.0751,0.1571,0.1183         C18.8346,12.1323,18.7845,12.4236,18.4544,12.6148z"/><path fill="#AFAFAF" d="M18.6069,11.909c0.0114,0.1549-0.0842,0.3119-0.2891,0.4303c-0.3916,0.23-1.0313,0.2277-1.4252,0         c-0.0638-0.0364-0.1161-0.0774-0.1594-0.1206c-0.0114-0.1549,0.0865-0.3097,0.2891-0.428c0.3939-0.2277,1.0313-0.23,1.4274,0         C18.5113,11.8271,18.5636,11.8659,18.6069,11.909z"/><g><path fill="#929393" d="M33.9391,12.7792c-0.3939,0.23-1.0313,0.23-1.4274,0c-0.1912-0.1093-0.2868-0.2527-0.2937-0.3961         c-0.0114-0.1549,0.0865-0.3097,0.2891-0.428c0.3939-0.2277,1.0313-0.23,1.4274,0c0.0615,0.0364,0.1138,0.0751,0.1571,0.1183         C34.3193,12.2967,34.2692,12.588,33.9391,12.7792z"/><path fill="#AFAFAF" d="M34.0917,12.0734c0.0114,0.1549-0.0842,0.3119-0.2891,0.4303c-0.3916,0.23-1.0313,0.2277-1.4252,0         c-0.0638-0.0364-0.1161-0.0774-0.1594-0.1206c-0.0114-0.1549,0.0865-0.3097,0.2891-0.428c0.3939-0.2277,1.0313-0.23,1.4274,0         C33.996,11.9915,34.0484,12.0303,34.0917,12.0734z"/></g><g><path fill="#929393" d="M19.4615,3.782c-0.3939,0.23-1.0313,0.23-1.4274,0c-0.1912-0.1093-0.2868-0.2527-0.2937-0.3961         c-0.0114-0.1549,0.0865-0.3097,0.2891-0.428c0.3939-0.2277,1.0313-0.23,1.4274,0c0.0615,0.0364,0.1138,0.0751,0.1571,0.1183         C19.8417,3.2994,19.7917,3.5908,19.4615,3.782z"/><path fill="#AFAFAF" d="M19.6141,3.0762c0.0114,0.1549-0.0842,0.3119-0.2891,0.4303c-0.3916,0.23-1.0313,0.2277-1.4252,0         c-0.0638-0.0364-0.1161-0.0774-0.1594-0.1206c-0.0114-0.1549,0.0865-0.3097,0.2891-0.428c0.3939-0.2277,1.0313-0.23,1.4274,0         C19.5185,2.9943,19.5708,3.0331,19.6141,3.0762z"/></g><g><path fill="#929393" d="M16.0438,7.5248c-0.3939,0.23-1.0313,0.23-1.4275,0c-0.1912-0.1093-0.2868-0.2527-0.2937-0.3961         c-0.0114-0.1549,0.0865-0.3097,0.2891-0.428c0.3939-0.2277,1.0313-0.23,1.4274,0c0.0615,0.0364,0.1138,0.0751,0.1571,0.1183         C16.424,7.0423,16.3739,7.3336,16.0438,7.5248z"/><path fill="#AFAFAF" d="M16.1963,6.819c0.0114,0.1549-0.0842,0.3119-0.2891,0.4303c-0.3916,0.23-1.0313,0.2277-1.4252,0         c-0.0638-0.0364-0.1161-0.0774-0.1594-0.1206c-0.0114-0.1549,0.0865-0.3097,0.2891-0.428c0.3939-0.2277,1.0313-0.23,1.4274,0         C16.1007,6.7371,16.1531,6.7759,16.1963,6.819z"/></g><g><path fill="#D8D8D8" d="M27.3261,32.1949c0,2.369-0.8338,4.0122-2.1751,4.7976l-5.1702,3.0027l-0.6042,0.3505l-0.7129,0.423        c0.3021-0.1693,0.5679-0.3865,0.8096-0.6402c0.5921-0.6042,1.0151-1.4621,1.2205-2.5135        c0.1088-0.5074,0.1571-1.0514,0.1571-1.6432c0.0121-4.7492-3.3231-10.5132-7.4557-12.8816        c-2.0785-1.2084-3.9635-1.3169-5.3169-0.5198l6.4873-3.7762c0.4471-0.2655,0.9547-0.4225,1.4985-0.4708        c1.1238-0.1333,2.4288,0.1811,3.8185,0.9907c1.4017,0.7971,2.7068,1.9937,3.8185,3.4074        C25.8881,25.4768,27.3382,29.0654,27.3261,32.1949z"/><path fill="#E8E8E8" d="M13.393,23.0816c4.1212,2.3794,7.4629,8.1514,7.4494,12.9024        c-0.0134,4.7361-3.3769,6.6369-7.4981,4.2575S5.8815,32.0901,5.8949,27.354C5.9084,22.6031,9.2718,20.7023,13.393,23.0816z"/><path fill="#E8E8E8" d="M6.6738,27.801c0,4.2388,2.9898,9.4119,6.6816,11.5434c3.692,2.1327,6.7078,0.4164,6.7078-3.8211          c0.026-4.2375-2.9639-9.4119-6.6557-11.5434C9.7156,21.8471,6.6996,23.5634,6.6738,27.801z" enable-background="new"/><path fill="#686868" d="M23.2464,35.4394c-0.0086,2.5874-0.9226,4.4069-2.3987,5.2651l-3.3256,1.9352          c1.4761-0.8582,2.3901-2.6819,2.3944-5.2693c0.0172-5.2136-3.6517-11.5601-8.1874-14.1777          c-2.2828-1.3217-4.3511-1.4417-5.8444-0.5749l3.3299-1.931c1.4933-0.8712,3.5616-0.7467,5.8444,0.5707          C19.5904,23.8749,23.2593,30.2258,23.2464,35.4394z"/><path fill="#4F4D4D" d="M11.7313,23.1911c4.5342,2.6178,8.2016,8.9668,8.1869,14.1802          c-0.0148,5.2102-3.7062,7.3137-8.2404,4.6959c-4.5369-2.6194-8.2016-8.97-8.1869-14.1802          C3.5057,22.6736,7.1944,20.5717,11.7313,23.1911z"/><path fill="#686868" d="M7.01,25.7482c0.2026-0.2501,0.6228-0.4862,0.9646-0.5738          c-3.0417,4.6628,2.6148,14.4277,8.2096,14.0265c0.1612-0.0114,0.3326-0.0571,0.5043-0.1193          c-0.0303,0.0482-0.0474,0.1028-0.0795,0.1498c-0.3312,0.4811-1.0562,0.895-1.6386,0.9369          C9.2194,40.5795,3.3748,30.2358,7.01,25.7482z"/><path fill="#3D3D3D" d="M7.9746,25.1744c0.0386-0.0102,0.0838-0.0394,0.1196-0.0457          c5.6763-0.8455,11.6366,9.1669,8.5942,13.9529c-0.1717,0.0622-0.3431,0.1079-0.5043,0.1193          C10.5895,39.602,4.933,29.8372,7.9746,25.1744z"/><path fill="#777676" d="M4.0976,28.0936c-0.0064,0.0392-0.0225,0.0688-0.0226,0.1136        c-0.0012,0.4344,0.3045,0.964,0.6828,1.1827c0.2173,0.1255,0.4029,0.1087,0.5289-0.0003        c-0.0555,0.3406-0.3255,0.4739-0.6647,0.2783c-0.3784-0.2187-0.6841-0.7483-0.6828-1.1827        C3.9398,28.3001,4.0043,28.1743,4.0976,28.0936z"/><path fill="#929393" d="M4.7579,29.3899c-0.3784-0.2187-0.6841-0.7483-0.6828-1.1827        c0.0001-0.0448,0.0162-0.0744,0.0226-0.1136c0.126-0.109,0.3116-0.1255,0.5289,0c0.3782,0.218,0.6841,0.7476,0.6828,1.1827        c-0.0001,0.0448-0.0162,0.0741-0.0226,0.1133C5.1608,29.4986,4.9751,29.5154,4.7579,29.3899z"/><path fill="#777676" d="M18.0662,37.5478c-0.0064,0.0392-0.0225,0.0688-0.0226,0.1136        c-0.0012,0.4344,0.3045,0.964,0.6828,1.1827c0.2173,0.1255,0.4029,0.1087,0.5289-0.0003        c-0.0555,0.3406-0.3255,0.4739-0.6647,0.2783c-0.3784-0.2187-0.6841-0.7483-0.6828-1.1827        C17.9084,37.7543,17.9729,37.6285,18.0662,37.5478z"/><path fill="#929393" d="M18.7265,38.8442c-0.3784-0.2187-0.6841-0.7483-0.6828-1.1827        c0.0001-0.0448,0.0162-0.0744,0.0226-0.1136c0.126-0.109,0.3116-0.1255,0.5289,0c0.3782,0.218,0.6841,0.7476,0.6828,1.1827        c-0.0001,0.0448-0.0162,0.0741-0.0226,0.1133C19.1294,38.9528,18.9437,38.9696,18.7265,38.8442z"/><path fill="#777676" d="M11.7903,24.036c-0.0064,0.0392-0.0225,0.0688-0.0226,0.1136        c-0.0012,0.4344,0.3045,0.964,0.6828,1.1827c0.2173,0.1255,0.4029,0.1087,0.5289-0.0003        c-0.0555,0.3406-0.3255,0.4739-0.6647,0.2783c-0.3784-0.2187-0.6841-0.7483-0.6828-1.1827        C11.6325,24.2425,11.697,24.1167,11.7903,24.036z"/><path fill="#929393" d="M12.4506,25.3323c-0.3784-0.2187-0.6841-0.7483-0.6828-1.1827        c0.0001-0.0448,0.0162-0.0744,0.0226-0.1136c0.126-0.109,0.3116-0.1255,0.5289,0c0.3782,0.218,0.6841,0.7476,0.6828,1.1827        c-0.0001,0.0448-0.0162,0.0741-0.0226,0.1133C12.8535,25.441,12.6678,25.4578,12.4506,25.3323z"/><path fill="#777676" d="M9.4147,38.8367c-0.0064,0.0392-0.0225,0.0688-0.0226,0.1136        c-0.0012,0.4344,0.3045,0.964,0.6828,1.1827c0.2173,0.1255,0.4029,0.1087,0.5289-0.0003        c-0.0555,0.3406-0.3255,0.4739-0.6647,0.2783c-0.3784-0.2187-0.6841-0.7483-0.6828-1.1827        C9.2568,39.0432,9.3213,38.9174,9.4147,38.8367z"/><path fill="#929393" d="M10.0749,40.133c-0.3784-0.2187-0.6841-0.7483-0.6828-1.1827        c0.0001-0.0448,0.0162-0.0744,0.0226-0.1136c0.126-0.109,0.3116-0.1255,0.5289,0c0.3782,0.218,0.6841,0.7476,0.6828,1.1827        c-0.0001,0.0448-0.0162,0.0741-0.0226,0.1133C10.4778,40.2417,10.2922,40.2585,10.0749,40.133z"/><g><path fill="#777676" d="M5.9108,34.0933c-0.0064,0.0392-0.0225,0.0688-0.0226,0.1136        c-0.0012,0.4344,0.3045,0.964,0.6828,1.1827c0.2173,0.1255,0.4029,0.1087,0.5289-0.0003        c-0.0555,0.3406-0.3255,0.4739-0.6647,0.2783c-0.3784-0.2187-0.6841-0.7483-0.6828-1.1827        C5.7529,34.2998,5.8174,34.174,5.9108,34.0933z"/><path fill="#929393" d="M6.571,35.3896c-0.3784-0.2187-0.6841-0.7483-0.6828-1.1827        c0.0001-0.0448,0.0162-0.0744,0.0226-0.1136c0.126-0.109,0.3116-0.1255,0.5289,0c0.3782,0.218,0.6841,0.7476,0.6828,1.1827        c-0.0001,0.0448-0.0162,0.0741-0.0226,0.1133C6.9739,35.4983,6.7882,35.5151,6.571,35.3896z"/></g><g><path fill="#777676" d="M16.5137,29.5659c-0.0064,0.0392-0.0225,0.0688-0.0226,0.1136        c-0.0012,0.4344,0.3044,0.964,0.6828,1.1827c0.2173,0.1255,0.4029,0.1087,0.5289-0.0003        c-0.0555,0.3406-0.3255,0.4739-0.6647,0.2783c-0.3784-0.2187-0.6841-0.7483-0.6828-1.1827        C16.3558,29.7724,16.4203,29.6466,16.5137,29.5659z"/><path fill="#929393" d="M17.1739,30.8622c-0.3784-0.2187-0.6841-0.7483-0.6828-1.1827        c0.0001-0.0448,0.0162-0.0744,0.0226-0.1136c0.126-0.109,0.3116-0.1255,0.5289,0c0.3782,0.218,0.6841,0.7476,0.6828,1.1827        c-0.0001,0.0448-0.0162,0.0741-0.0226,0.1133C17.5768,30.9709,17.3911,30.9877,17.1739,30.8622z"/></g><g><path fill="#777676" d="M5.8995,23.2475c-0.0064,0.0392-0.0225,0.0688-0.0226,0.1136        c-0.0012,0.4344,0.3045,0.964,0.6828,1.1827c0.2173,0.1255,0.4029,0.1087,0.5289-0.0003        c-0.0555,0.3406-0.3255,0.4739-0.6647,0.2783c-0.3784-0.2187-0.6841-0.7483-0.6828-1.1827        C5.7416,23.454,5.8061,23.3282,5.8995,23.2475z"/><path fill="#929393" d="M6.5597,24.5438c-0.3784-0.2187-0.6841-0.7483-0.6828-1.1827        c0.0001-0.0448,0.0162-0.0744,0.0226-0.1136c0.126-0.109,0.3116-0.1255,0.5289,0c0.3782,0.218,0.6841,0.7476,0.6828,1.1827        c-0.0001,0.0448-0.0162,0.0741-0.0226,0.1133C6.9626,24.6525,6.777,24.6693,6.5597,24.5438z"/></g><g><path fill="#777676" d="M14.3091,40.7173c-0.0064,0.0392-0.0225,0.0688-0.0226,0.1136        c-0.0012,0.4344,0.3045,0.964,0.6828,1.1827c0.2173,0.1255,0.4029,0.1087,0.5289-0.0003        c-0.0555,0.3406-0.3255,0.4739-0.6647,0.2783c-0.3784-0.2187-0.6841-0.7483-0.6828-1.1827        C14.1513,40.9238,14.2157,40.798,14.3091,40.7173z"/><path fill="#929393" d="M14.9694,42.0137c-0.3784-0.2187-0.6841-0.7483-0.6828-1.1827        c0.0001-0.0448,0.0162-0.0744,0.0226-0.1136c0.126-0.109,0.3116-0.1255,0.5289,0c0.3782,0.218,0.6841,0.7476,0.6828,1.1827        c-0.0001,0.0448-0.0162,0.0741-0.0226,0.1133C15.3722,42.1223,15.1866,42.1391,14.9694,42.0137z"/></g></g></g></svg>