<svg xmlns="http://www.w3.org/2000/svg" enable-background="new 0 0 74 74" viewBox="0 0 74 74" width="74" height="74"><polygon fill="#eb5463" points="25.97 35.98 38.92 40.43 29.09 69 23.86 63.16 16.14 64.55"/><path d="M29.09,69.37c-0.11,0-0.21-0.04-0.28-0.12l-5.09-5.68l-7.51,1.35c-0.13,0.03-0.26-0.02-0.35-0.12s-0.11-0.24-0.07-0.37     l9.83-28.57c0.07-0.2,0.28-0.3,0.48-0.23l12.95,4.45c0.2,0.07,0.3,0.28,0.23,0.48l-9.83,28.57c-0.04,0.13-0.15,0.22-0.28,0.25     C29.14,69.37,29.12,69.37,29.09,69.37z M23.86,62.79c0.11,0,0.21,0.04,0.28,0.12l4.8,5.36l9.5-27.61L26.2,36.45l-9.5,27.61     l7.09-1.27C23.81,62.79,23.84,62.79,23.86,62.79z"/><polygon fill="#eb5463" points="48.03 35.98 35.08 40.43 44.91 69 50.14 63.16 57.86 64.55"/><path d="M44.91,69.37c-0.02,0-0.05,0-0.07-0.01c-0.13-0.03-0.24-0.12-0.28-0.25l-9.83-28.57c-0.03-0.09-0.03-0.2,0.02-0.29     c0.04-0.09,0.12-0.16,0.21-0.19l12.95-4.45c0.2-0.07,0.41,0.04,0.48,0.23l9.83,28.57c0.04,0.13,0.02,0.26-0.07,0.37     c-0.09,0.1-0.22,0.15-0.35,0.12l-7.51-1.35l-5.09,5.68C45.12,69.33,45.02,69.37,44.91,69.37z M35.56,40.66l9.5,27.61l4.8-5.36     c0.09-0.1,0.22-0.14,0.35-0.12l7.09,1.27l-9.5-27.61L35.56,40.66z"/><path fill="#fed230" d="M64.39,31.22c0,2.79-3.47,4.99-4.28,7.51c-0.85,2.61,0.63,6.42-0.95,8.59c-1.59,2.19-5.69,1.95-7.88,3.55    c-2.17,1.58-3.2,5.56-5.81,6.4c-2.51,0.82-5.68-1.77-8.46-1.77c-2.79,0-5.95,2.58-8.47,1.77c-2.61-0.85-3.64-4.82-5.81-6.4    c-2.19-1.59-6.29-1.36-7.88-3.55c-1.58-2.17-0.1-5.99-0.95-8.59c-0.82-2.52-4.28-4.72-4.28-7.51c0-2.79,3.47-5,4.28-7.51    c0.85-2.61-0.63-6.43,0.95-8.6c1.6-2.19,5.69-1.96,7.89-3.55c2.17-1.58,3.21-5.56,5.82-6.4c2.52-0.82,5.68,1.77,8.47,1.77    c2.79,0,5.95-2.58,8.47-1.77c2.61,0.85,3.64,4.82,5.81,6.4c2.19,1.6,6.29,1.36,7.88,3.56c1.58,2.17,0.1,5.99,0.94,8.59    C60.92,26.23,64.39,28.44,64.39,31.22z"/><path d="M29.6,57.81c-0.4,0-0.79-0.05-1.17-0.18c-1.62-0.53-2.65-2.11-3.64-3.65c-0.72-1.12-1.41-2.17-2.28-2.81    c-0.89-0.65-2.17-0.99-3.42-1.32c-1.75-0.47-3.57-0.96-4.55-2.31c-0.98-1.34-0.88-3.2-0.79-5.01c0.06-1.29,0.13-2.63-0.21-3.69    c-0.33-1-1.11-1.96-1.94-2.98c-1.16-1.43-2.36-2.91-2.36-4.64c0-1.74,1.2-3.22,2.36-4.65c0.83-1.02,1.61-1.98,1.94-2.98    c0.34-1.06,0.28-2.4,0.21-3.69c-0.09-1.8-0.19-3.67,0.79-5.01c0.99-1.36,2.8-1.84,4.55-2.31c1.24-0.33,2.53-0.68,3.41-1.32    c0.87-0.63,1.56-1.69,2.28-2.81c0.99-1.54,2.02-3.12,3.64-3.65c1.54-0.5,3.27,0.16,4.94,0.8c1.23,0.47,2.5,0.95,3.65,0.95    c1.15,0,2.42-0.48,3.64-0.95c1.67-0.64,3.4-1.29,4.94-0.79c1.62,0.53,2.65,2.11,3.64,3.65c0.72,1.12,1.41,2.17,2.28,2.81    c0.89,0.65,2.17,0.99,3.41,1.32c1.75,0.47,3.56,0.96,4.55,2.31c0.97,1.34,0.88,3.2,0.79,5c-0.07,1.29-0.13,2.63,0.21,3.69    c0.32,1,1.11,1.96,1.94,2.98c1.16,1.43,2.36,2.91,2.36,4.64c0,1.74-1.2,3.21-2.36,4.64c-0.83,1.02-1.61,1.98-1.94,2.98    c-0.34,1.06-0.28,2.4-0.21,3.69c0.09,1.8,0.19,3.67-0.79,5c-0.99,1.35-2.8,1.84-4.55,2.31c-1.24,0.33-2.53,0.68-3.41,1.32    c-0.87,0.63-1.55,1.69-2.28,2.81c-0.99,1.54-2.02,3.12-3.64,3.65c-1.54,0.5-3.27-0.16-4.94-0.79c-1.23-0.47-2.5-0.95-3.64-0.95    c-1.15,0-2.42,0.49-3.65,0.96C32.11,57.31,30.82,57.81,29.6,57.81z M29.61,5.37c-0.33,0-0.65,0.04-0.95,0.14    c-1.37,0.44-2.32,1.92-3.24,3.34c-0.73,1.13-1.48,2.29-2.47,3.01c-1,0.73-2.35,1.09-3.66,1.44c-1.7,0.46-3.31,0.89-4.14,2.03    c-0.82,1.12-0.73,2.78-0.65,4.53c0.07,1.36,0.14,2.77-0.25,3.96c-0.37,1.13-1.23,2.2-2.07,3.22c-1.08,1.33-2.2,2.7-2.2,4.17    c0,1.47,1.12,2.84,2.2,4.17c0.84,1.03,1.7,2.09,2.07,3.22c0.39,1.19,0.32,2.6,0.25,3.96c-0.09,1.75-0.17,3.4,0.65,4.53    c0.83,1.14,2.44,1.57,4.14,2.03c1.31,0.35,2.66,0.71,3.66,1.44c0.98,0.72,1.74,1.88,2.47,3.01c0.92,1.42,1.88,2.9,3.24,3.34    c1.29,0.42,2.82-0.17,4.44-0.78c1.29-0.49,2.63-1,3.91-1c1.29,0,2.62,0.51,3.91,1c1.62,0.62,3.14,1.2,4.44,0.78    c1.36-0.44,2.32-1.92,3.24-3.34c0.73-1.13,1.48-2.29,2.47-3.01c1-0.73,2.35-1.09,3.66-1.44c1.7-0.46,3.31-0.89,4.14-2.03    c0.82-1.12,0.73-2.78,0.65-4.52c-0.07-1.36-0.14-2.77,0.25-3.96c0.37-1.13,1.23-2.19,2.07-3.22c1.08-1.33,2.2-2.7,2.2-4.17    c0-1.47-1.12-2.84-2.2-4.17c-0.84-1.03-1.7-2.09-2.07-3.22c-0.39-1.19-0.31-2.6-0.24-3.96c0.09-1.75,0.17-3.4-0.64-4.53    c-0.83-1.14-2.44-1.57-4.14-2.03c-1.31-0.35-2.66-0.71-3.66-1.44c-0.98-0.72-1.74-1.88-2.47-3.01c-0.92-1.43-1.87-2.9-3.24-3.34    c-1.29-0.42-2.82,0.16-4.44,0.78c-1.29,0.49-2.63,1-3.91,1c-1.29,0-2.62-0.51-3.91-1C31.86,5.83,30.67,5.37,29.61,5.37z"/><g><path fill="#f8b732" d="M36.99,50.36c-10.55,0-19.14-8.59-19.14-19.15c0-10.55,8.58-19.14,19.14-19.14    c10.56,0,19.15,8.58,19.15,19.14C56.15,41.77,47.55,50.36,36.99,50.36z M36.99,14.79c-9.05,0-16.42,7.37-16.42,16.42    c0,9.06,7.37,16.44,16.42,16.44c9.06,0,16.44-7.37,16.44-16.44C53.43,22.15,46.06,14.79,36.99,14.79z"/></g><g><path d="M36.99,50.74c-10.76,0-19.51-8.76-19.51-19.53c0-10.76,8.75-19.51,19.51-19.51c10.77,0,19.53,8.75,19.53,19.51    C56.52,41.98,47.76,50.74,36.99,50.74z M36.99,12.45c-10.35,0-18.76,8.42-18.76,18.76c0,10.35,8.42,18.78,18.76,18.78    c10.35,0,18.78-8.42,18.78-18.78C55.77,20.86,47.35,12.45,36.99,12.45z M36.99,48.02c-9.26,0-16.8-7.54-16.8-16.81    c0-9.26,7.53-16.8,16.8-16.8c9.27,0,16.81,7.53,16.81,16.8C53.8,40.48,46.26,48.02,36.99,48.02z M36.99,15.16    c-8.85,0-16.05,7.2-16.05,16.05c0,8.86,7.2,16.06,16.05,16.06c8.86,0,16.06-7.21,16.06-16.06C53.05,22.36,45.85,15.16,36.99,15.16    z"/></g><g><path fill="#fff" d="M50.05,29.52v3.41l-2.43,0.75c-0.27,1.19-0.75,2.31-1.38,3.31l1.19,2.26l-2.4,2.4l-2.26-1.19      c-1,0.63-2.11,1.11-3.3,1.38l-0.76,2.43H35.3l-0.76-2.43c-1.19-0.27-2.3-0.75-3.3-1.38l-2.26,1.19l-2.4-2.4l1.19-2.26      c-0.63-1-1.11-2.12-1.38-3.31l-2.43-0.75v-3.41l2.43-0.76c0.27-1.18,0.75-2.3,1.38-3.3l-1.19-2.26l2.4-2.41l2.26,1.19      c1-0.63,2.11-1.11,3.3-1.38l0.76-2.43h3.41l0.76,2.43c1.19,0.27,2.3,0.75,3.3,1.38l2.26-1.19l2.4,2.41l-1.19,2.26      c0.63,1,1.11,2.12,1.38,3.3L50.05,29.52z"/><path d="M38.7,44.64H35.3c-0.16,0-0.31-0.11-0.36-0.26l-0.69-2.23c-1.06-0.27-2.08-0.69-3.02-1.26l-2.07,1.09      c-0.15,0.07-0.32,0.05-0.44-0.07l-2.4-2.4c-0.12-0.12-0.14-0.29-0.07-0.44L27.33,37c-0.57-0.95-1-1.96-1.26-3.03l-2.23-0.68      c-0.16-0.05-0.26-0.19-0.26-0.36v-3.41c0-0.16,0.11-0.31,0.26-0.36l2.23-0.69c0.27-1.06,0.69-2.08,1.26-3.02l-1.09-2.07      c-0.08-0.15-0.05-0.32,0.07-0.44l2.4-2.41c0.12-0.12,0.3-0.14,0.44-0.07l2.07,1.09c0.95-0.57,1.96-1,3.02-1.26l0.69-2.23      c0.05-0.16,0.19-0.26,0.36-0.26h3.41c0.16,0,0.31,0.11,0.36,0.26l0.69,2.23c1.06,0.26,2.07,0.69,3.02,1.26l2.07-1.09      c0.14-0.08,0.32-0.05,0.44,0.07l2.4,2.41c0.12,0.12,0.14,0.29,0.07,0.44l-1.09,2.07c0.57,0.94,1,1.96,1.26,3.02l2.23,0.69      c0.16,0.05,0.26,0.19,0.26,0.36v3.41c0,0.17-0.11,0.31-0.26,0.36l-2.23,0.68c-0.27,1.07-0.69,2.08-1.26,3.03l1.09,2.07      c0.08,0.15,0.05,0.32-0.07,0.44l-2.4,2.4c-0.12,0.12-0.29,0.14-0.44,0.07l-2.07-1.09c-0.95,0.57-1.96,1-3.02,1.26l-0.69,2.23      C39.01,44.54,38.87,44.64,38.7,44.64z M35.57,43.89h2.85l0.67-2.17c0.04-0.13,0.14-0.22,0.27-0.25c1.12-0.26,2.2-0.71,3.19-1.33      c0.11-0.07,0.26-0.08,0.38-0.01l2.02,1.06l2.01-2.01l-1.06-2.02c-0.06-0.12-0.06-0.26,0.01-0.38c0.62-0.99,1.07-2.06,1.33-3.2      c0.03-0.13,0.13-0.24,0.25-0.27l2.17-0.67v-2.85l-2.17-0.67c-0.13-0.04-0.22-0.14-0.25-0.27c-0.26-1.13-0.71-2.2-1.33-3.19      c-0.07-0.11-0.08-0.26-0.01-0.38l1.06-2.02l-2.01-2.02l-2.02,1.06c-0.12,0.06-0.26,0.06-0.38-0.01      c-0.99-0.63-2.06-1.08-3.19-1.33c-0.13-0.03-0.23-0.13-0.27-0.25l-0.67-2.17h-2.85l-0.68,2.17c-0.04,0.13-0.14,0.22-0.27,0.25      c-1.12,0.26-2.19,0.71-3.19,1.33c-0.11,0.07-0.26,0.08-0.38,0.01l-2.02-1.06l-2.01,2.02l1.06,2.02      c0.06,0.12,0.06,0.26-0.01,0.38c-0.62,0.99-1.07,2.06-1.33,3.19c-0.03,0.13-0.13,0.23-0.25,0.27l-2.17,0.67v2.85l2.17,0.67      c0.13,0.04,0.23,0.14,0.25,0.27c0.26,1.13,0.71,2.21,1.33,3.2c0.07,0.11,0.08,0.26,0.01,0.38l-1.06,2.02l2.01,2.01l2.02-1.06      c0.12-0.06,0.26-0.06,0.38,0.01c0.99,0.63,2.06,1.07,3.19,1.33c0.13,0.03,0.23,0.13,0.27,0.25L35.57,43.89z"/><path fill="#fed230" d="M41.11,31.22c0,2.27-1.84,4.11-4.11,4.11c-2.27,0-4.11-1.84-4.11-4.11c0-2.27,1.84-4.11,4.11-4.11     C39.27,27.11,41.11,28.95,41.11,31.22z"/><path d="M37,35.7c-2.47,0-4.49-2.01-4.49-4.49c0-2.48,2.01-4.49,4.49-4.49c2.48,0,4.49,2.01,4.49,4.49     C41.49,33.69,39.47,35.7,37,35.7z M37,27.48c-2.06,0-3.74,1.68-3.74,3.74c0,2.06,1.68,3.74,3.74,3.74c2.06,0,3.74-1.68,3.74-3.74     C40.74,29.16,39.06,27.48,37,27.48z"/></g></svg>