<svg xmlns="http://www.w3.org/2000/svg" enable-background="new 0 0 100 100" viewBox="0 0 100 100" width="100" height="100"><rect width="4.777" height="2.253" x="77.096" y="70.606" transform="rotate(-32.25 79.486 71.734)"/><path fill="#f29a44" d="M85.058,83.451H47.739c-17.964,0-32.526-14.627-32.526-32.67     c0-18.043,14.562-32.669,32.526-32.669c17.964,0,31.399,14.627,31.399,32.669c0,9.48-6.472,22.531-22.349,23.958l28.269-3.049     V83.451z"/><path d="M86.185,84.577H47.738c-18.556,0-33.652-15.161-33.652-33.796c0-18.635,15.096-33.796,33.652-33.796     c18.24,0,32.527,14.845,32.527,33.796c0,6.834-3.408,16.441-12.127,21.601l17.92-1.933l0.241,2.24L58.014,75.74     c-0.37,0.046-0.744,0.087-1.124,0.121l-0.222-2.242l1.066-0.115C72.588,71.625,78.011,59,78.011,50.781     c0-17.687-13.297-31.543-30.273-31.543c-17.313,0-31.399,14.15-31.399,31.543c0,17.393,14.086,31.543,31.399,31.543h38.446     V84.577z"/><path fill="#f29a44" d="M56.412,74.739h-8.674c-13.011,0-23.853-10.89-23.853-23.958     c0-15.245,13.011-23.957,23.853-23.957c10.842,0,21.684,10.89,21.684,21.78c0,10.889-8.674,17.423-19.516,17.423     c-13.01,0-17.347-8.712-17.347-15.246c0-8.711,8.674-15.245,15.179-15.245c8.674,0,13.01,6.534,13.01,13.068     c0,6.533-6.505,8.711-10.842,8.711c-4.337,0-8.674-2.178-8.674-6.534c0-4.355,4.337-6.533,6.505-6.533c0,0,4.983,0,3.69,3.92     L56.412,74.739z"/><path d="M57.539 75.865h-9.8c-13.54 0-24.979-11.487-24.979-25.084 0-15.493 12.966-25.084 24.979-25.084 11.512 0 22.811 11.346 22.811 22.906 0 10.922-8.489 18.55-20.643 18.55-14.583 0-18.474-10.291-18.474-16.372 0-9.069 8.92-16.372 16.305-16.372 9.281 0 14.137 7.141 14.137 14.194 0 6.759-6.204 9.838-11.968 9.838-4.72 0-9.8-2.397-9.8-7.66 0-5.1 4.893-7.66 7.631-7.66.315 0 3.105.052 4.407 1.852.477.66.926 1.811.353 3.548l-.354 1.07-2.139-.706.353-1.07c.333-1.007.053-1.394-.039-1.521-.503-.695-1.956-.92-2.582-.92-1.481 0-5.378 1.663-5.378 5.407 0 3.715 3.912 5.408 7.547 5.408 3.361 0 9.715-1.586 9.715-7.585 0-5.751-3.719-11.942-11.884-11.942-5.658 0-14.052 5.929-14.052 14.119 0 6.514 4.248 14.12 16.221 14.12 10.827 0 18.389-6.702 18.389-16.297 0-10.23-10.375-20.654-20.558-20.654-10.929 0-22.726 8.729-22.726 22.831 0 12.376 10.408 22.832 22.726 22.832h9.8V75.865zM83.932 76.691v-2.253h2.253v2.253C83.932 76.691 86.185 76.691 83.932 76.691zM78.299 80.071v-2.253h2.253v2.253C78.299 80.071 80.552 80.071 78.299 80.071zM73.792 80.071v-2.253h2.253v2.253C73.792 80.071 76.046 80.071 73.792 80.071zM69.286 80.071v-2.253h2.253v2.253C69.286 80.071 71.54 80.071 69.286 80.071zM62.527 80.071v-2.253h2.253v2.253C62.527 80.071 64.78 80.071 62.527 80.071z"/><rect width="4.302" height="2.253" x="21.077" y="71.169" transform="rotate(-82.721 23.228 72.298)"/><rect width="5.702" height="2.253" x="20.762" y="27.719" transform="rotate(-17.962 23.613 28.845)"/><rect width="2.253" height="5.816" x="63.09" y="20.273" transform="rotate(-18.439 64.208 23.179)"/><rect width="5.057" height="2.253" x="65.339" y="40.642" transform="rotate(-53.487 67.864 41.77)"/><rect width="4.772" height="2.253" x="71.97" y="31.63" transform="rotate(-63.435 74.357 32.758)"/><rect width="5.816" height="2.253" x="73.701" y="60.356" transform="rotate(-18.45 76.596 61.484)"/><rect width="2.254" height="4.772" x="39.996" y="25.301" transform="rotate(-63.435 41.123 27.688)"/><rect width="2.253" height="5.816" x="56.331" y="27.032" transform="rotate(-18.439 57.462 29.941)"/><rect width="5.439" height="2.253" x="21.505" y="50.781" transform="rotate(-45.001 24.225 51.908)"/><rect width="4.772" height="2.253" x="13.953" y="41.205" transform="rotate(-26.565 16.342 42.337)"/><rect width="2.253" height="5.816" x="38.307" y="60.828" transform="rotate(-18.44 39.438 63.742)"/><rect width="2.253" height="5.816" x="56.331" y="61.955" transform="rotate(-71.561 57.458 64.86)"/><rect width="2.254" height="4.772" x="31.547" y="77.685" transform="rotate(-26.565 32.67 80.066)"/><rect width="2.253" height="6.315" x="43.939" y="14.954" transform="rotate(-56.308 45.068 18.112)"/><rect width="5.633" height="2.253" x="33.237" y="40.642"/><rect width="2.253" height="4.772" x="47.882" y="33.187" transform="rotate(-63.429 49.011 35.572)"/><rect width="5.633" height="2.253" x="56.895" y="51.908"/><rect width="5.439" height="2.253" x="38.403" y="49.655" transform="rotate(-45.009 41.126 50.784)"/></svg>