<svg xmlns="http://www.w3.org/2000/svg" viewBox="0 0 250 250" width="250" height="250"><path fill="#ffeddc" d="M187.29,119.77h-12.8V108.71h-99v11.06H62.71V108.71H18v75.8A28.5,28.5,0,0,0,46.53,213H203.47A28.5,28.5,0,0,0,232,184.51v-75.8H187.29Zm-34.1,51.57H135.48v17.72h-21V171.34H96.81v-21h17.71V132.67h21v17.72h17.71Z"/><path fill="#dd4a4a" d="M203.47,64.78H46.53A28.5,28.5,0,0,0,18,93.28v15.43H62.71V97.65h12.8v11.06h99V97.65h12.8v11.06H232V93.28A28.5,28.5,0,0,0,203.47,64.78Z"/><polygon fill="#dd4a4a" points="135.48 132.67 114.52 132.67 114.52 150.39 96.81 150.39 96.81 171.34 114.52 171.34 114.52 189.06 135.48 189.06 135.48 171.34 153.19 171.34 153.19 150.39 135.48 150.39 135.48 132.67"/><path fill="#ffc78f" d="M103.16,58.12a8.92,8.92,0,0,1,8.92-8.92h25.84a8.92,8.92,0,0,1,8.92,8.92v6.66h12.83v-8.3A19.5,19.5,0,0,0,140.17,37H109.83a19.5,19.5,0,0,0-19.5,19.5v8.3h12.83Z"/><polygon fill="#6cb7f4" points="187.29 119.77 187.29 108.71 187.29 97.65 174.49 97.65 174.49 108.71 174.49 119.77 187.29 119.77"/><polygon fill="#6cb7f4" points="75.51 119.77 75.51 108.71 75.51 97.65 62.71 97.65 62.71 108.71 62.71 119.77 75.51 119.77"/><path fill="#ddba99" d="M232,184.51v-75.8h-11.1v74.66a19.26,19.26,0,0,1-19.26,19.26H163a22.78,22.78,0,0,0-16.44,7L143.29,213h60.18A28.5,28.5,0,0,0,232,184.51Z"/><path fill="#dd4a4a" d="M216.57,79.23a19.39,19.39,0,0,1,4.3,12.17v17.31H232V93.28a28.51,28.51,0,0,0-27-28.47Z"/><path fill="#ddba99" d="M187.29 108.71v11.06h-12.8V108.71h-7.16v12.61a5.46 5.46 0 005.46 5.46H189a5.46 5.46 0 005.46-5.46V108.71zM75.51 108.71v11.06H62.71V108.71H55.55v12.61A5.46 5.46 0 0061 126.78h16.2a5.46 5.46 0 005.46-5.46V108.71z"/><path fill="#ffeef3" d="M103.16,58.12a8.92,8.92,0,0,1,1-4.18c-7.37,0-9.84-5.45-10.62-8.23a19.42,19.42,0,0,0-3.25,10.77v8.3h12.83Z"/><path fill="#ddba99" d="M140.17,37h-3.73l5,2.62A21.83,21.83,0,0,1,153.26,59v5.8h6.41v-8.3A19.5,19.5,0,0,0,140.17,37Z"/><path fill="#ffeef3" d="M46.53,64.78A28.5,28.5,0,0,0,18,93.28v15.43H30.8V93.35A25.82,25.82,0,0,1,39.48,74l10.45-9.26Z"/><path fill="#ffeef3" d="M41.46,205.78A36,36,0,0,1,30.8,180.22V108.71H18v75.8A28.5,28.5,0,0,0,46.53,213h2.24Z"/><path fill="none" stroke="#000" stroke-linecap="round" stroke-linejoin="round" stroke-width="4" d="M159.67,64.78h43.8A28.5,28.5,0,0,1,232,93.28v15.43"/><line x1="146.84" x2="103.16" y1="64.78" y2="64.78" fill="none" stroke="#000" stroke-linecap="round" stroke-linejoin="round" stroke-width="4"/><line x1="103.16" x2="90.33" y1="64.78" y2="64.78" fill="none" stroke="#000" stroke-linecap="round" stroke-linejoin="round" stroke-width="4"/><line x1="146.84" x2="159.67" y1="64.78" y2="64.78" fill="none" stroke="#000" stroke-linecap="round" stroke-linejoin="round" stroke-width="4"/><path fill="none" stroke="#000" stroke-linecap="round" stroke-linejoin="round" stroke-width="4" d="M232,108.71v75.8A28.5,28.5,0,0,1,203.47,213H46.53A28.5,28.5,0,0,1,18,184.51v-75.8"/><path fill="none" stroke="#000" stroke-linecap="round" stroke-linejoin="round" stroke-width="4" d="M90.33,64.78H46.53A28.5,28.5,0,0,0,18,93.28v15.43"/><polygon fill="none" stroke="#000" stroke-linecap="round" stroke-linejoin="round" stroke-width="4" points="96.81 171.34 114.52 171.34 114.52 189.06 135.48 189.06 135.48 171.34 153.19 171.34 153.19 150.39 135.48 150.39 135.48 132.67 114.52 132.67 114.52 150.39 96.81 150.39 96.81 171.34"/><line x1="187.29" x2="231.97" y1="108.71" y2="108.71" fill="none" stroke="#000" stroke-linecap="round" stroke-linejoin="round" stroke-width="4"/><line x1="174.49" x2="75.51" y1="108.71" y2="108.71" fill="none" stroke="#000" stroke-linecap="round" stroke-linejoin="round" stroke-width="4"/><line x1="62.71" x2="18.03" y1="108.71" y2="108.71" fill="none" stroke="#000" stroke-linecap="round" stroke-linejoin="round" stroke-width="4"/><polyline fill="none" stroke="#000" stroke-linecap="round" stroke-linejoin="round" stroke-width="4" points="75.51 108.71 75.51 119.77 62.71 119.77 62.71 108.71"/><polyline fill="none" stroke="#000" stroke-linecap="round" stroke-linejoin="round" stroke-width="4" points="75.51 108.71 75.51 97.65 62.71 97.65 62.71 108.71"/><polyline fill="none" stroke="#000" stroke-linecap="round" stroke-linejoin="round" stroke-width="4" points="174.49 108.71 174.49 97.65 187.29 97.65 187.29 108.71"/><polyline fill="none" stroke="#000" stroke-linecap="round" stroke-linejoin="round" stroke-width="4" points="174.49 108.71 174.49 119.77 187.29 119.77 187.29 108.71"/><path fill="none" stroke="#000" stroke-linecap="round" stroke-linejoin="round" stroke-width="4" d="M159.67,64.78v-8.3A19.5,19.5,0,0,0,140.17,37H109.83a19.5,19.5,0,0,0-19.5,19.5v8.3"/><path fill="none" stroke="#000" stroke-linecap="round" stroke-linejoin="round" stroke-width="4" d="M146.84,64.78V58.12a8.92,8.92,0,0,0-8.92-8.92H112.08a8.92,8.92,0,0,0-8.92,8.92v6.66"/></svg>