<svg xmlns="http://www.w3.org/2000/svg" enable-background="new 0 0 66 66" viewBox="0 0 66 66" width="66" height="66"><path fill="#cccaca" stroke="#682f2a" stroke-linecap="round" stroke-linejoin="round" stroke-miterlimit="10" stroke-width="1.5" d="M37.8,49.5l-0.1-1.2c0-0.5,0.3-0.9,0.7-1l4-1c0.6-0.1,1.1,0.3,1.2,0.8l0.2,1.8c0.1,0.5-0.3,1-0.9,1l-4,0.4      C38.4,50.4,37.9,50,37.8,49.5z"/><path fill="#cccaca" stroke="#682f2a" stroke-linecap="round" stroke-linejoin="round" stroke-miterlimit="10" stroke-width="1.5" d="M38.1,49.2L37,49.1c-0.5,0-0.9,0.3-1,0.7l-1,4c-0.1,0.6,0.3,1.1,0.8,1.2l1.8,0.2c0.5,0.1,1-0.3,1-0.9l0.4-4      C39,49.7,38.7,49.3,38.1,49.2z"/><rect width="2.8" height="15.6" x="34.7" y="39.7" fill="#e5e5e5" stroke="#682f2a" stroke-linecap="round" stroke-linejoin="round" stroke-miterlimit="10" stroke-width="1.5" transform="rotate(-45.001 36.052 47.481)"/><path fill="#cccaca" stroke="#682f2a" stroke-linecap="round" stroke-linejoin="round" stroke-miterlimit="10" stroke-width="1.5" d="M3.7,17.6c-0.6-0.8-0.4-2,0.3-2.7L14.2,4.8c3.9-3.9,10.2-3.9,14.2,0l6.6,6.6c0.7,0.7,0.9,1.9,0.3,2.7      c-0.8,1.1-2.3,1.2-3.2,0.3l-7.3-7.3c-2-2-5.2-2-7.1,0L6.9,17.9C6,18.8,4.5,18.7,3.7,17.6z"/><path fill="#525f70" stroke="#682f2a" stroke-linecap="round" stroke-linejoin="round" stroke-miterlimit="10" stroke-width="1.5" d="M29.1,43.9l-27-27c-0.3-0.3-0.4-0.8-0.3-1.2c0.3-1.3,1.2-2.2,2.5-2.5c0.4-0.1,0.9,0,1.2,0.3l27,27L29.1,43.9     z"/><path fill="#e5e5e5" stroke="#682f2a" stroke-linecap="round" stroke-linejoin="round" stroke-miterlimit="10" stroke-width="1.5" d="M28.3,36.4c-0.7,1.6-1.8,2.7-3.4,3.4l4.1,4.1c2.2-0.1,3.3-1.2,3.4-3.4L28.3,36.4z"/><path fill="#cccaca" stroke="#682f2a" stroke-linecap="round" stroke-linejoin="round" stroke-miterlimit="10" stroke-width="1.5" d="M53.7,35.9L51.3,36c-1.6,0.1-3,0.7-4.1,1.8l-5,5c-0.8,0.8-1.8,1.6-2.8,2.2l-7,4.6c-0.2,0.2-0.6,0.1-0.8-0.1     l0,0c-0.2-0.2-0.2-0.5-0.1-0.8l4.6-7c0.7-1,1.4-1.9,2.2-2.8l4-4c1.7-1.7,4-2.7,6.4-2.8h1.1L53.7,35.9z"/><g><path fill="#e5e5e5" stroke="#682f2a" stroke-linecap="round" stroke-linejoin="round" stroke-miterlimit="10" stroke-width="1.5" d="M53.9,37.3L32.8,16.2l-1.1-1.4c-0.5-0.6-0.4-1.4,0.1-1.9l1.1-1.1c0.3-0.3,0.8-0.5,1.3-0.4l2.5,0.5L58,33.2      L53.9,37.3z"/><path fill="#fecd04" stroke="#682f2a" stroke-linecap="round" stroke-linejoin="round" stroke-miterlimit="10" stroke-width="1.5" d="M58.2,32.5l5.5,5.5c0.7,0.7,0.7,1.8,0,2.5L63,41.2c-0.4,0.4-0.9,0.9-1.4,1.2c-0.6,0.5-1.8,1.7-1.9,3.4      c-0.1,0.7-0.1,1.4-0.3,2.1c-0.6,2-1.7,6-3.2,9.6c-0.6,1.4-1,3-1.2,4.5c0,0.1,0,0.2,0,0.3c-0.1,1.3-1.3,2.2-2.6,1.9l-5-1.2      c-0.7-0.2-1.2-0.7-1.3-1.4v-0.1c-0.1-0.6,0.1-1.1,0.5-1.6c0.9-1,2.4-3.2,2.4-7.3c0,0,1.2-8.4,3.7-11.5c0,0,1.4-1.8,0.1-3.5      c-0.5-0.7-0.5-1.6,0.1-2.3l2.8-2.8C56.3,31.8,57.5,31.8,58.2,32.5z"/><path fill="none" stroke="#fff" stroke-linecap="round" stroke-linejoin="round" stroke-miterlimit="10" stroke-width="1.5" d="M56 37.7c.3 1.1.2 2.3-.1 3.4-.2.5-.4 1.1-.7 1.5-.3.5-.7.9-.9 1.5-1 2.1-1.5 4.3-2 6.6M51.3 57.2c-.2.9-.6 1.7-1 2.5" opacity=".4"/></g><line x1="24" x2="24.9" y1="35.4" y2="36.3" fill="none" stroke="#682f2a" stroke-linecap="round" stroke-linejoin="round" stroke-miterlimit="10" stroke-width="1.5"/><line x1="4.9" x2="5.8" y1="16.1" y2="17" fill="none" stroke="#682f2a" stroke-linecap="round" stroke-linejoin="round" stroke-miterlimit="10" stroke-width="1.5"/></svg>