<svg xmlns="http://www.w3.org/2000/svg" enable-background="new 0 0 66 66" viewBox="0 0 66 66" width="66" height="66"><path fill="#ffb95c" stroke="#682f2a" stroke-linecap="round" stroke-linejoin="round" stroke-miterlimit="10" stroke-width="1.5" d="M63.3,59L63.3,59c-1.3-1.2-2.4-2.5-3.3-4c-9.1-14.9-19.4-26.3-25.8-35.8l-2.8-4l-5.7,4.1l2.9,3.9   c7.1,9.1,14.6,22.5,25.8,35.8c1.1,1.3,2.1,2.8,2.8,4.4l0,0c0.4,0.8,1.3,1.1,2.1,0.6l3.9-2.8C63.9,60.6,63.9,59.6,63.3,59z"/><g opacity=".4"><path fill="none" stroke="#fff" stroke-linecap="round" stroke-linejoin="round" stroke-miterlimit="10" stroke-width="1.5" d="M55.2,53.1c-3.5-5.4-7.2-10.5-11.1-15.6"/><line x1="38.6" x2="36.3" y1="30.2" y2="27.2" fill="none" stroke="#fff" stroke-linecap="round" stroke-linejoin="round" stroke-miterlimit="10" stroke-width="1.5"/></g><path fill="#cccaca" stroke="#682f2a" stroke-linecap="round" stroke-linejoin="round" stroke-miterlimit="10" stroke-width="1.5" d="M15.9,8.6c-1.9,3.3-4.6,5.5-8.6,6.2c0,0-1.1,7.3,5.4,7.5c1.3-3.3,4.6-5.7,8.4-6.3L15.9,8.6z"/><path fill="#e5e5e5" stroke="#682f2a" stroke-linecap="round" stroke-linejoin="round" stroke-miterlimit="10" stroke-width="1.5" d="M12.7 22.2l-4.3 3.1c-.8.5-1.8.5-2.5-.1-1.5-1.4-2.7-3.1-3.6-5-.4-.8-.1-1.9.7-2.4l4.3-3.1C8.2 17.9 10 20.4 12.7 22.2zM52 4.8c-9.9-2.8-17-3.1-20.9-3-2.4.1-4.7.6-6.9 1.6-4.7 2.1-8.4 5.1-8.4 5.1l-.1 1.7c-.1 2.5 1.5 4.9 3.9 5.7l0 0c.6.2 1.1.5 1.5 1l4.1 4.2c.6.6 1.4.6 2.1.2l4.9-3.6c.6-.5.9-1.3.5-2L31 12.3C30.3 11 31 9.4 32.5 9c8.1-2.2 18.9-1.5 18.9-1.5L52 4.8z"/></svg>