<svg xmlns="http://www.w3.org/2000/svg" viewBox="0 0 512 512" width="512" height="512"><path fill="#ffc96f" d="M61 337h130l16.1-210.7C121.8 158.2 61 240.5 61 337zm243.2-219.8L321 337h160c0-107.7-75.7-197.7-176.8-219.8zM271 436.8c159.8-3.4 236-59.8 236-59.8v-40H35v40s76.2 56.5 236 59.8z"/><path fill="#ffb234" d="m480.1 317-77.7-49.4c-22.7-14.4-38.6-37.4-44.1-63.7l-18-85c-1.9-9.3-10.1-15.9-19.6-15.9h-17.6L321 337h160c0-6.7-.3-13.4-.9-20zM208.9 103 191 337H61c0-14 1.3-27.6 3.7-40.9l44.8-28.5c22.7-14.4 38.6-37.4 44.2-63.7l18-85c1.9-9.3 10.1-15.9 19.6-15.9h17.6z"/><path fill="#ffc96f" d="M282.5 75h-22.9c-10.5 0-19.1 8.1-19.9 18.5L221 337h100L302.4 93.5c-.8-10.4-9.5-18.5-19.9-18.5z"/><path fill="#ffdca4" d="M83 317h50v40H83zM379 317h50v40h-50z"/><g fill="#272525"><path d="M133 332h246v10H133z"/><path d="M256 442c-88.5 0-152.7-16.5-190.9-30.3C23.3 396.6 2.9 381.6 2 381c-1.3-.9-2-2.4-2-4v-40c0-2.8 2.2-5 5-5h78v10H10v32.4c6.1 4 25.7 16.1 59 28.1C106.4 416 169.2 432 256 432s149.6-16.1 187-29.5c33.3-12 52.9-24.1 59-28.1V342h-73v-10h78c2.8 0 5 2.2 5 5v40c0 1.6-.8 3.1-2 4-.9.6-21.3 15.6-63 30.7-38.3 13.8-102.5 30.3-191 30.3z"/><path d="M36 337H26c0-46.3 13.7-90.9 39.6-129.1 25.3-37.2 60.5-66 101.9-83.3l3.8 9.2C89.1 168.2 36 247.9 36 337zm280 .4L297.4 93.9c-.6-7.8-7.2-13.9-15-13.9h-52.9c-7.8 0-14.4 6.1-15 13.9l-17.1 223.5-10-.8 17.1-223.5c1-13 11.9-23.1 24.9-23.1h52.9c13 0 23.9 10.1 24.9 23.1L326 336.6l-10 .8zM133 362H83c-2.8 0-5-2.2-5-5v-40c0-2.8 2.2-5 5-5h50c2.8 0 5 2.2 5 5v40c0 2.8-2.2 5-5 5zm-45-10h40v-30H88v30zm341 10h-50c-2.8 0-5-2.2-5-5v-40c0-2.8 2.2-5 5-5h50c2.8 0 5 2.2 5 5v40c0 2.8-2.2 5-5 5zm-45-10h40v-30h-40v30zm93.4-30.8-77.7-49.4c-23.7-15.1-40.6-39.4-46.4-66.9l-11.5-54.6 9.8-2.1 11.5 54.6c5.2 24.8 20.5 46.9 41.9 60.5l77.7 49.4-5.3 8.5z"/><path d="M486 337h-10c0-89.1-53.1-168.8-135.4-203.1-1.5-.6-2.6-2-3-3.6l-2.2-10.4c-1.5-6.9-7.6-11.9-14.7-11.9h-17.6V98h17.6c11.7 0 22 8.3 24.5 19.8l1.7 7.8c40.3 17.4 74.7 45.8 99.5 82.3C472.3 246.1 486 290.7 486 337zM34.6 321.2l-5.4-8.4 77.7-49.4c21.4-13.6 36.7-35.7 41.9-60.5l18-85c2.4-11.5 12.7-19.8 24.5-19.8h17.6v10h-17.6c-7 0-13.2 5-14.7 11.9l-18 85c-5.8 27.4-22.7 51.8-46.4 66.9l-77.6 49.3z"/></g></svg>