<svg xmlns="http://www.w3.org/2000/svg" enable-background="new 0 0 100 100" viewBox="0 0 100 100" width="100" height="100"><polygon fill="#fdf09e" points="21.813 15.047 21.813 84.952 26.323 84.952 26.323 19.558 57.893 19.558 57.893 84.952 62.403 84.952 62.403 15.047"/><path d="M63.53,86.08h-6.765V20.685H27.45V86.08h-6.765V13.92H63.53V86.08z M59.02,83.825h2.255v-67.65H22.94v67.65h2.255V18.43      H59.02V83.825z"/><rect width="9.02" height="2.255" x="61.275" y="83.825"/><rect width="9.02" height="2.255" x="13.92" y="83.825"/><rect width="31.57" height="65.395" x="26.323" y="19.558" fill="#874c21"/><path d="M59.02,86.08H25.195V18.43H59.02V86.08z M27.45,83.825h29.315v-63.14H27.45V83.825z"/><polygon points="33.651 61.275 31.396 61.275 31.396 55.638 38.161 55.638 38.161 57.893 33.651 57.893"/><circle cx="66.912" cy="50" r="18.04" fill="#fdad57"/><path d="M66.912,69.168c-10.569,0-19.167-8.598-19.167-19.168s8.598-19.167,19.167-19.167S86.08,39.431,86.08,50     S77.482,69.168,66.912,69.168z M66.912,33.088C57.586,33.088,50,40.674,50,50s7.586,16.912,16.912,16.912     c9.326,0,16.912-7.586,16.912-16.912S76.238,33.088,66.912,33.088z"/><polygon points="77.06 65.785 74.805 65.785 74.825 52.355 75.933 46.437 75.933 35.342 78.188 35.342 78.168 46.748 77.06 52.667"/><path d="M69.168,68.04h-2.255V55.159c0-1.882,0.394-3.718,1.17-5.462l2.365-5.309c0.646-1.451,0.975-2.979,0.975-4.543V31.96      h2.255v7.885c0,1.882-0.394,3.719-1.17,5.462l-2.365,5.309c-0.646,1.451-0.975,2.979-0.975,4.543V68.04z"/><rect width="2.255" height="11.48" x="65.785" y="31.96"/><path d="M63.53,68.04h-2.255V44.362c0-2.823-0.97-5.734-1.612-7.661c-0.401-1.202-0.643-1.927-0.643-2.486v-1.127h2.255v1.127     c0.012,0.231,0.297,1.086,0.526,1.773c0.688,2.066,1.729,5.185,1.729,8.375V68.04z"/><rect width="2.255" height="16.913" x="56.765" y="42.107"/><rect width="2.255" height="16.913" x="52.255" y="37.597"/></svg>