<svg xmlns="http://www.w3.org/2000/svg" enable-background="new 0 0 2670.606 4023.016" viewBox="0 0 2670.606 4023.016" width="2670.60595703125" height="4023.01611328125"><path fill="#A86751" d="M983.633,2775.416h739.344c0,0,112.256-1.12,256.224,45.88      c257.32,84.008,615.936,321.752,615.936,994.408c0,0-434.376,183.312-1227.408,183.312h-2.448      c-28.84,0-57.208-0.24-85.096-0.712c-738.96-12.384-1142.32-182.608-1142.32-182.608      C137.881,2745.792,983.633,2775.416,983.633,2775.416z"/><path fill="#3F160F" d="M1367.737,4023.016h-2.448c-28.448,0-57.208-0.24-85.496-0.712      c-735.104-12.32-1147.168-182.768-1151.248-184.488c-8.888-3.752-14.664-12.464-14.664-22.112      c0-365.96,97.456-645.616,289.656-831.2C651.585,2745,965.193,2750.832,984.026,2751.416h738.96      c4.504-0.088,117.632-0.616,263.672,47.064c170.776,55.752,310.68,151.44,415.84,284.384      c143.76,181.76,216.656,428.32,216.656,732.832c0,9.648-5.776,18.36-14.664,22.112      C2600.082,3839.672,2156.505,4023.016,1367.737,4023.016z M161.945,3799.336c78.84,29.656,470.816,164.12,1118.656,174.976      c28.016,0.464,56.504,0.704,84.688,0.704h2.448c698.536,0,1121.12-144.768,1203.336-175.68      c-2.544-285.872-71.888-516.848-206.224-686.688c-99.192-125.416-231.448-215.76-393.088-268.528      c-138.088-45.088-247.448-44.728-248.552-44.696h-739.56c-0.28,0-0.552,0-0.832-0.016c-4.016-0.16-311.456-7.2-546.432,220.128      C257.065,3192.992,164.769,3455.304,161.945,3799.336z"/><path fill="#FF7300" d="M1282.049,3946.84v-411.336c178.688-331.856,681.936-747.584,681.936-747.584      s231.464,68.824,333.592,161.264c-29.16,87.312-59.936,239.416-99.824,376.56c0,0,77.64,263.192,82.984,581.616      c-207.72,45.832-514.576,91.656-911.096,91.656h-2.448c-28.84,0-57.208-0.24-85.096-0.712L1282.049,3946.84z"/><path fill="#3F160F" d="M1369.649,4023.016h-2.448c-28.456,0-57.216-0.24-85.496-0.712c-13.088-0.216-23.584-10.88-23.6-23.968      l-0.056-51.472c0-0.008,0-0.016,0-0.024v-411.336c0-3.976,0.984-7.88,2.864-11.376      c178.856-332.168,667.088-737.608,687.784-754.704c6.168-5.096,14.464-6.784,22.128-4.496      c9.664,2.872,237.896,71.472,342.856,166.472c7.064,6.392,9.672,16.36,6.664,25.392c-15.12,45.28-31.192,110.376-48.208,179.312      c-15.392,62.36-31.296,126.768-49.416,189.736c12.152,43.864,77.16,291.48,82.016,581.128      c0.192,11.408-7.68,21.376-18.824,23.84C2095.225,3972.872,1781.465,4023.016,1369.649,4023.016z M1306.081,3974.648      c20.336,0.248,40.808,0.368,61.12,0.368h2.448c393.912,0,696.776-46.288,886.672-86.912      c-7.976-302.488-80.832-553.024-81.584-555.576c-1.296-4.4-1.312-9.08-0.024-13.488c18.648-64.12,35.008-130.376,50.832-194.456      c15.44-62.552,30.12-121.992,44.304-167.56c-87.792-71.192-254.2-127.496-300.496-142.288      c-32.496,27.4-140.608,119.984-262.808,239.952c-189.464,186-327.792,354.2-400.496,486.912L1306.081,3974.648z"/><path fill="#E0E0E0" d="M2239.666,3521.048c0,0-545.216,14.456-957.888,14.456v217.256c0,0,298.64,36.976,988.848-12.328      L2239.666,3521.048z"/><path fill="#3F160F" d="M1622.769,3790.24c-229.264,0-336.656-12.752-343.944-13.664c-12.024-1.488-21.048-11.704-21.048-23.816      v-217.256c0-13.256,10.744-24,24-24c407.624,0,951.8-14.304,957.248-14.448c12.464-0.072,22.696,8.56,24.4,20.64l30.96,219.384      c0.928,6.584-0.92,13.264-5.096,18.44c-4.184,5.168-10.328,8.376-16.96,8.848      C1994.017,3784.256,1779.793,3790.24,1622.769,3790.24z M1305.777,3731.024c77.984,6.872,375.16,26.24,937.488-12.72      l-24.368-172.712c-102.768,2.584-554.408,13.424-913.112,13.904v171.528H1305.777z"/><path fill="#E0E0E0" d="M1717.329,2779.144c0,0-84.816,314.768-353.984,314.768s-351.264-314.768-351.264-314.768H1717.329z"/><path d="M1363.337,3117.904c-284.424,0-373.616-329.384-374.488-332.704c-1.872-7.192-0.312-14.848,4.232-20.728      c4.544-5.88,11.56-9.328,18.992-9.328h705.248c7.472,0,14.504,3.48,19.048,9.4c4.544,5.928,6.064,13.632,4.12,20.84      C1739.601,2788.712,1647.609,3117.904,1363.337,3117.904z M1045.169,2803.144c10.672,29.056,30.536,75.264,62.144,120.896      c67.048,96.792,153.184,145.872,256.024,145.872c199.368,0,291.768-191.128,320.52-266.768H1045.169z"/><path fill="#FF7300" d="M1457.729,3946.84v-411.336c-178.688-331.856-681.936-747.584-681.936-747.584      s-231.464,68.824-333.592,161.264c29.16,87.312,59.936,239.416,99.824,376.56c0,0-77.64,263.192-82.984,581.616      c207.72,45.832,514.576,91.656,911.096,91.656h2.44c28.84,0,57.208-0.24,85.096-0.712L1457.729,3946.84z"/><path fill="#3F160F" d="M1372.577,4023.016h-2.448c-411.824,0-725.576-50.152-916.264-92.216      c-11.144-2.464-19.016-12.432-18.824-23.84c4.856-289.648,69.864-537.264,82.016-581.128      c-18.128-62.976-34.024-127.384-49.416-189.744c-17.016-68.92-33.088-134.024-48.208-179.296c-3.016-9.032-0.4-19,6.664-25.392      c104.96-95,333.192-163.6,342.856-166.472c7.648-2.28,15.96-0.6,22.128,4.496c20.696,17.096,508.92,422.536,687.784,754.704      c1.88,3.496,2.864,7.408,2.864,11.376v411.336c0,0.008,0,0.016,0,0.024l-0.064,51.472c-0.016,13.088-10.512,23.752-23.6,23.968      C1429.793,4022.776,1401.033,4023.016,1372.577,4023.016z M483.465,3888.104c189.896,40.624,492.752,86.912,886.672,86.912      h2.448c20.312,0,40.784-0.12,61.12-0.368l0.032-27.832V3541.6c-72.696-132.712-211.024-300.912-400.496-486.912      c-122.2-119.968-230.312-212.544-262.808-239.952c-46.296,14.792-212.704,71.096-300.496,142.288      c14.184,45.56,28.856,105,44.304,167.552c15.824,64.08,32.176,130.336,50.832,194.464c1.28,4.408,1.272,9.088-0.024,13.488      C564.289,3335.08,491.441,3585.624,483.465,3888.104z M1457.737,3946.84h0.08H1457.737z"/><path fill="#A86751" d="M1366.065,3093.904c269.144,0,351.264-314.768,351.264-314.768s300.704-241.432,250.192,11.112      C1855.153,3352.08,1467.825,3413.84,1366.065,3093.904z"/><path fill="#3F160F" d="M1585.769,3311.072c-108.824,0-201.04-79.296-242.576-209.888c-2.32-7.296-1.016-15.264,3.504-21.44      s11.712-9.832,19.368-9.832c247.744,0,327.264-293.856,328.04-296.824c1.304-4.992,4.176-9.424,8.192-12.656      c30.416-24.416,185.864-143.928,259.808-99.016c49.624,30.144,34.056,107.976,28.944,133.552      c-60.696,303.472-214.864,505.92-392.76,515.76C1594.105,3310.96,1589.913,3311.072,1585.769,3311.072z M1399.705,3116.304      c39.848,96.944,111.512,151.136,195.936,146.496c117.968-6.528,279.984-135.432,348.344-477.248      c8.824-44.096,6.28-75.168-6.792-83.112c-32.328-19.648-135.336,41.048-198.92,90.736      c-6.832,22.648-29.432,89.496-75.872,156.968C1594.097,3049.352,1503.801,3106.28,1399.705,3116.304z"/><path fill="#A86751" d="M1363.337,3093.904c-269.152,0-351.264-314.768-351.264-314.768s-276.832-233.432-237.52,21.104      C860.993,3359.904,1261.585,3413.84,1363.337,3093.904z"/><path fill="#3F160F" d="M1137.729,3313.952c-6.136,0-12.312-0.24-18.552-0.72c-178.104-13.808-322.688-213.728-368.336-509.328      c-11.208-72.568,0.44-117.44,35.592-137.184c74.016-41.576,213.832,71.072,241.12,94.072c3.792,3.192,6.496,7.496,7.752,12.288      c0.192,0.736,20.52,76.6,72.016,150.952c67.048,96.792,153.184,145.872,256.016,145.872c7.656,0,14.848,3.656,19.368,9.832      s5.824,14.144,3.504,21.44C1343.961,3234.016,1249.777,3313.952,1137.729,3313.952z M825.481,2705.112      c-6.08,0-11.336,1.088-15.552,3.456c-14.768,8.304-19.008,40.376-11.656,88.008c51.184,331.416,206.856,459.664,324.608,468.8      c88.264,6.8,165.488-49.632,206.76-149.072c-104.08-10.032-194.344-66.968-262.632-166.168      c-46.656-67.768-69.248-134.904-75.968-157.256C942.049,2752.8,865.729,2705.112,825.481,2705.112z"/><path fill="#E0E0E0" d="M2357.649,1058.92c0,0,339.304,1832.152-1008.568,1777.376      c-902.096-36.656-950.384-882.568-950.384-882.568l-82.296-781.648C316.401,1172.08,1177.265,767.472,2357.649,1058.92z"/><path fill="#3F160F" d="M1407.241,2861.504c-19.456,0-39.16-0.408-59.136-1.216c-476.896-19.384-716.368-264.656-833.28-467.008      c-124.16-214.888-139.112-422.352-140.056-437.576l-82.24-781.112c-1.072-10.16,4.408-19.888,13.664-24.232      c8.904-4.184,222.24-103.248,583.976-167.784c333.28-59.456,859.4-98.52,1473.24,53.04c9.152,2.256,16.128,9.664,17.84,18.928      c0.464,2.496,46.096,253,37.32,561.808c-14.752,519.24-169.176,802.824-296.128,949.288      C1952.145,2762.12,1711.737,2861.504,1407.241,2861.504z M342.097,1186.968l80.472,764.248c0.04,0.376,0.072,0.76,0.096,1.144      c0.12,2.056,13.52,209.768,134.656,418.496c161.408,278.12,428.128,426.648,792.744,441.464      c317.336,12.888,564.912-80.648,736.032-278.024c121.752-140.432,269.936-413.744,284.464-918.296      c7.504-260.872-24.432-479.304-33.92-537.512c-598.296-144.968-1110.664-106.872-1436.208-48.984      C598.489,1083.2,397.497,1163.272,342.097,1186.968z"/><path fill="#703120" d="M766.985,1058.144c0,0-34.384,510.816-435.488,557.76c-102.592-350.728,2.992-443.824,2.992-443.824      S485.593,1102.376,766.985,1058.144z"/><path fill="#3F160F" d="M331.481,1639.904c-10.536,0-20-6.936-23.016-17.264c-43.656-149.232-56.256-272.008-37.464-364.928      c14.744-72.92,44.296-100.704,47.624-103.64c1.744-1.536,3.704-2.816,5.824-3.792c6.296-2.904,157.376-71.608,438.824-115.848      c7.216-1.128,14.552,1.08,19.928,6c5.384,4.928,8.232,12.032,7.744,19.32c-0.36,5.384-9.56,133.464-69.304,269.328      c-80.464,183-214.408,290.424-387.336,310.656C333.345,1639.856,332.409,1639.904,331.481,1639.904z M348.585,1192.096      c-12.016,14.648-78.76,112.384,0.264,397.16c146.824-23.872,257.208-117.408,328.312-278.312      c39.928-90.352,56.248-179.032,62.44-224.008C509.209,1126.032,373.249,1181.488,348.585,1192.096z"/><path fill="#E0E0E0" d="M568.001,1516.768c0,0-154.568-116.576-287.952-0.736c-128.104,111.248-104.504,482.08,259.584,445"/><path fill="#3F160F" d="M491.737,1987.528c-134.08,0-235.168-58.72-281.32-165.384c-48.104-111.2-23.928-256.656,53.896-324.232      c117.104-101.688,259.312-44.672,318.136-0.304c10.584,7.984,12.696,23.024,4.712,33.608c-7.968,10.576-23,12.688-33.568,4.744      l0,0c-0.36-0.272-36.672-27.128-87.136-40.176c-64.68-16.728-122.104-3.816-170.672,38.368      c-62.12,53.944-81.04,177.104-41.32,268.936c25.208,58.256,95.448,153.16,282.728,134.072      c13.224-1.36,24.968,8.256,26.312,21.44s-8.256,24.968-21.44,26.312C524.825,1986.656,508.033,1987.528,491.737,1987.528z"/><circle cx="2002.473" cy="1687.264" r="114.216" fill="#3F160F"/><circle cx="1136.649" cy="1687.264" r="114.216" fill="#3F160F"/><path fill="#3F160F" d="M1662.169 2176.68c-11.768 0-22.04-8.664-23.728-20.648-1.856-13.128 7.28-25.264 20.4-27.128 46.768-6.608 75.112-23.64 86.664-52.064 32.536-80.104-67.28-235.832-108.488-289.08-8.112-10.48-6.192-25.552 4.296-33.664 10.48-8.112 25.552-6.192 33.664 4.296 1.656 2.136 40.856 53.04 75 118.584 47.912 91.992 61.368 165.32 40 217.944-18.288 45.008-60.144 72.44-124.416 81.52C1664.417 2176.6 1663.289 2176.68 1662.169 2176.68zM430.617 1817.392c-10.432 0-20.032-6.856-23.056-17.376-3.656-12.704 3.664-25.968 16.336-29.664 7.368-2.2 70.928-23.168 57.52-87.64-6.76-32.464-40.056-53.984-65.24-51.624-23.632 2.248-28.952 25.96-29.248 45.456-.2 13.248-10.904 23.736-24.368 23.624-13.248-.2-23.832-11.112-23.624-24.368.976-63.192 38.192-89.216 72.696-92.496 46.504-4.392 104.488 30.536 116.776 89.632 18.208 87.56-51.664 132.168-91.16 143.512C435.049 1817.088 432.817 1817.392 430.617 1817.392zM1568.073 2476.344c-78.072 0-169.984-25.808-269.648-103.664-10.448-8.16-12.304-23.248-4.144-33.688 8.168-10.456 23.24-12.304 33.688-4.144 109.976 85.92 220.8 113.192 329.376 81.08 80.872-23.92 129.624-72.68 130.104-73.168 9.312-9.44 24.504-9.544 33.936-.232 9.44 9.304 9.544 24.504.232 33.936C1820.137 2377.984 1720.481 2476.344 1568.073 2476.344z"/><path fill="#FF7300" d="M2487.609,1077.536c0,0,550.128,241.28-396.016,241.28c-560.768,0-850.96,43.184-1381.608-72.888      c-307.16,39.752-372.76,58.256-527.584,78.504c-153.384,20.064-76.016-100.136,15.688-125.176      C198.097,1199.248,1034.529,933.136,2487.609,1077.536z"/><path fill="#3F160F" d="M1479.233,1350.72c-243.088,0-466.08-14.216-770.288-80.464      c-178.04,23.096-275.648,39.224-354.192,52.208c-56.496,9.336-105.288,17.4-169.24,25.76      c-88.664,11.584-109.032-22.216-113.296-43.4c-10.112-50.328,56.76-111.36,119.064-128.592      c13.904-4.384,220.584-68.272,603.704-115.808c357.736-44.376,942.176-81.584,1694.992-6.776      c2.504,0.248,4.96,0.888,7.264,1.904c31.728,13.92,189.16,87.472,172.072,168.952      c-17.16,81.824-195.336,118.304-577.728,118.304c-127.816,0-239.472,2.208-347.44,4.336      C1650.585,1349,1563.697,1350.72,1479.233,1350.72z M709.993,1221.92c1.72,0,3.44,0.184,5.128,0.552      c406.704,88.976,667.352,83.816,1028.088,76.688c108.208-2.144,220.104-4.352,348.392-4.352      c489.136,0,527.936-66.768,530.744-80.152c5.856-27.888-67.536-80.752-140.944-113.624      c-1429.2-141.392-2267.72,118.44-2276.032,121.088c-0.32,0.104-0.64,0.192-0.96,0.28c-52.656,14.376-87.8,59.672-85.128,72.96      c0.392,1.992,13.176,11.376,60,5.264c63.152-8.264,111.576-16.264,167.64-25.528c79.52-13.144,178.488-29.496,359.984-52.984      C707.929,1221.984,708.961,1221.92,709.993,1221.92z"/><path fill="#FF7300" d="M2488.641,1080.456c0,0-1327.968-150.168-2298.304,125.936      C118.561,650.456,590.457,97.328,1351.705,122.36C2431.065,157.848,2488.641,1080.456,2488.641,1080.456z"/><path fill="#3F160F" d="M190.337,1230.392c-4.648,0-9.248-1.352-13.2-3.96c-5.832-3.848-9.704-10.04-10.6-16.968      c-34.4-266.44,53.928-538.168,242.336-745.488C634.569,215.624,969.681,85.808,1352.497,98.368      c250.208,8.232,466.984,64.728,644.288,167.928c142.416,82.888,259.64,195.792,348.408,335.56      c150.888,237.568,166.8,467.44,167.4,477.112c0.44,7.08-2.272,14-7.416,18.888s-12.184,7.248-19.232,6.456      c-13.232-1.496-1334.504-146.432-2289.04,125.168C194.745,1230.088,192.537,1230.392,190.337,1230.392z M1301.905,145.536      c-348.016,0-651.064,123.56-857.512,350.728c-172.408,189.712-256.608,435.888-233.36,679.432      c880.456-241.664,2049.768-141.808,2250.496-122.144c-9.192-67.968-43.088-247.632-157.976-427.704      c-84.72-132.8-196.456-240.04-332.096-318.744c-170.136-98.72-378.92-152.808-620.544-160.752      C1334.497,145.808,1318.129,145.536,1301.905,145.536z"/><path fill="#FF7300" d="M712.489,1248.536c0,0-380.032,58.792-569.504,77.736c-67.408,5.248-110.288-43.768-117.936-89.656      c-6.656-39.944,17.408-91.056,101.512-108.856C471.353,1054.768,586.313,1139.472,712.489,1248.536z"/><path fill="#3F160F" d="M133.417,1350.624c-74.128,0-122.896-55.144-132.048-110.064      c-8.888-53.288,24.84-116.096,120.216-136.28c343.536-72.728,468.12,6.392,606.6,126.096c7.08,6.12,9.952,15.792,7.368,24.784      s-10.152,15.664-19.4,17.096c-3.808,0.592-382.84,59.104-570.792,77.896C141.321,1350.464,137.329,1350.624,133.417,1350.624z       M352.721,1124.648c-60.968,0-133.36,8-221.2,26.592c-68.64,14.528-87.784,51.592-82.808,81.432      c6.136,36.784,40.592,73.664,92.4,69.672c144.648-14.472,405.016-52.912,515.68-69.608      C584.937,1173.896,504.001,1124.648,352.721,1124.648z"/><path fill="#FA0" d="M1249.177,1054.344c0,0,212.264-163.84,255.392-409.688c53.208-303.28-121.944-506.632-459.024-504.64      c-128.52,25.704-165.248,33.048-165.248,33.048s33-148.912,308.408-149.056c397.92-0.208,522.936,175.808,672.088,450.976      c182.984,337.584,245.76,462.552,418.8,587.736C1908.089,1229.336,1249.177,1054.344,1249.177,1054.344z"/><path fill="#3F160F" d="M1863.905,1158.872c-74.864,0-155.392-4.664-241.424-14c-210.544-22.856-377.8-66.896-379.464-67.336      c-8.832-2.344-15.56-9.504-17.368-18.456c-1.808-8.96,1.632-18.16,8.864-23.744c2.832-2.2,205.544-161.872,246.416-394.84      c24.264-138.272-0.416-255.736-71.352-339.696c-75.664-89.544-199.752-136.808-359.072-136.808c-0.84,0-1.672,0-2.52,0      l-162.968,32.592c-7.96,1.584-16.176-0.944-21.848-6.744c-5.672-5.792-8.04-14.064-6.288-21.984      C858.393,161.008,897.401,0.144,1188.713,0c0.224,0,0.496,0,0.712,0c410.536,0,540.72,183.544,692.488,463.528l23.632,43.632      c165.328,305.4,227.192,419.664,388.136,536.104c6.944,5.024,10.68,13.368,9.808,21.896c-0.872,8.52-6.232,15.936-14.056,19.448      C2179.177,1134.056,2036.633,1158.872,1863.905,1158.872z M1300.153,1041.928c147.28,33.576,624.048,127.304,931.296,14.464      c-145.688-115.448-215.216-243.888-368.144-526.368l-23.616-43.608c-147.832-272.744-265.424-438.408-650.272-438.408      c-0.232,0-0.464,0-0.696,0c-163.128,0.08-234.152,53.248-264.192,91.728l116.312-23.264c3.168-0.64,6.432-0.48,9.664-0.48      c173.904,0,310.664,53.136,395.744,153.832c80.416,95.184,108.768,226.232,81.968,378.976      C1494.585,840.392,1364.577,981.96,1300.153,1041.928z"/><path fill="#FA0" d="M1019.041,1084.952c0,0,6.856-233.64-184.632-218.728s-137.64,261.152-137.64,261.152      S876.905,1191.328,1019.041,1084.952z"/><path fill="#3F160F" d="M822.481,1170.68c-73.928,0-129.52-19.192-133.736-20.688c-7.816-2.776-13.648-9.384-15.416-17.496      c-1.248-5.704-29.848-140.768,33.072-225.464c28.736-38.68,71.176-60.472,126.152-64.744      c57.176-4.464,104.408,10.64,140.32,44.848c73.088,69.64,70.32,193.28,70.168,198.504c-0.216,7.312-3.752,14.128-9.608,18.512      C963.641,1156.392,886.241,1170.68,822.481,1170.68z M717.881,1108.624c40.896,10.96,169.992,36.888,276.968-35.888      c-1.216-29.224-8.88-106.936-55.224-150.96c-25.976-24.68-59.792-35-103.352-31.632c-41.04,3.192-70.888,18.048-91.264,45.408      C705.153,989.072,712.977,1075.384,717.881,1108.624z M1019.041,1084.944h0.08H1019.041z M1019.041,1084.944h0.08H1019.041z"/><path fill="#E0E0E0" d="M498.657,3521.048c0,0,545.216,14.456,957.888,14.456v217.256c0,0-298.64,36.976-988.848-12.328      L498.657,3521.048z"/><path fill="#3F160F" d="M1115.553,3790.24c-157.032,0-371.2-5.984-649.56-25.864c-6.632-0.472-12.776-3.68-16.96-8.848      c-4.176-5.176-6.024-11.848-5.096-18.44l30.96-219.384c1.704-12.08,12.296-20.752,24.4-20.64      c5.448,0.144,549.632,14.448,957.256,14.448c13.256,0,24,10.744,24,24v217.256c0,12.112-9.024,22.328-21.048,23.816      C1452.209,3777.488,1344.769,3790.24,1115.553,3790.24z M495.065,3718.304c562.296,38.952,859.488,19.6,937.488,12.72v-171.536      c-358.712-0.48-810.352-11.32-913.12-13.904L495.065,3718.304z"/><path fill="#EDEDED" d="M378.865 916.216c-1.392 0-2.8-.128-4.216-.376-13.04-2.312-21.744-14.744-19.448-27.784 1.056-6.008 27.208-148.88 137.856-302.168 102.032-141.36 298.128-317.784 652.88-355.456 13.16-1.424 25 8.152 26.4 21.336 1.4 13.176-8.152 25-21.336 26.4-269.816 28.656-477.664 141.048-617.776 334.08C428.321 756.776 402.713 895.04 402.457 896.424 400.393 908.04 390.273 916.216 378.865 916.216zM2264.641 801.616c-11.256 0-21.288-7.952-23.528-19.4-.512-2.544-46.416-217.696-328.496-362.704-11.792-6.056-16.432-20.528-10.368-32.32 6.064-11.792 20.528-16.424 32.32-10.368 304.312 156.44 351.8 386.536 353.664 396.256 2.504 13.016-6.008 25.6-19.024 28.104C2267.681 801.472 2266.154 801.616 2264.641 801.616z"/><path fill="#3F160F" d="M1129.441 755.312c-48.648 0-104.32-20.208-160.216-59.632C815.217 587.064 673.553 550.704 581.833 539.328c-99.512-12.328-163.472 1.208-164.096 1.344-12.912 2.832-25.728-5.352-28.576-18.288-2.848-12.928 5.288-25.712 18.208-28.584 11.152-2.472 276.52-58.096 589.52 162.648 73.856 52.088 143.736 65.264 186.928 35.208 31.072-21.624 42.664-64.152 30.248-110.992-45.8-172.744-314.864-256.72-531.352-276.152-13.2-1.184-22.944-12.848-21.76-26.048s12.808-22.936 26.048-21.76c370.712 33.272 539.296 182.808 573.464 311.656 17.736 66.888-1.128 129.232-49.224 162.696C1187.873 747.312 1160.049 755.304 1129.441 755.312zM2292.761 738.272c-.384 0-.768 0-1.16 0-53.072-.608-107.112-42.744-160.624-125.24-99.352-153.168-188.184-312.648-189.072-314.232-6.44-11.584-2.272-26.2 9.312-32.64 11.6-6.432 26.192-2.272 32.64 9.312.88 1.584 88.952 159.68 187.392 311.44 55.08 84.92 96.152 103.088 120.904 103.368 28.216.632 45.184-23.24 45.344-23.48 7.464-10.944 22.392-13.784 33.352-6.312 10.952 7.472 13.776 22.4 6.312 33.352C2375.921 695.656 2346.25 738.272 2292.761 738.272z"/><path fill="#EDEDED" d="M2040.217 1019.384c-6.192 0-12.384-2.384-17.08-7.136-80.112-81.136-146.408-212.536-216.592-351.648-110.848-219.712-225.48-446.912-402.936-498.464-12.728-3.696-20.048-17.008-16.352-29.744 3.696-12.728 17.024-20.04 29.744-16.352 197.512 57.376 316.928 294.056 432.4 522.936 68.44 135.648 133.08 263.776 207.896 339.536 9.312 9.432 9.216 24.632-.216 33.944C2052.409 1017.072 2046.305 1019.384 2040.217 1019.384zM646.601 3288.952c-10.504 0-20.152-6.952-23.104-17.56l-77.416-277.632c-3.264-11.704 2.736-24.008 13.984-28.64l136.152-56.064c12.24-5.048 26.28.792 31.328 13.056 5.048 12.256-.8 26.28-13.056 31.328l-116.448 47.952 71.696 257.112c3.56 12.768-3.904 26-16.672 29.56C650.905 3288.664 648.737 3288.952 646.601 3288.952z"/><g><path fill="#EDEDED" d="M2102.874,3259.552c-2,0-4.04-0.248-6.064-0.776c-12.824-3.344-20.512-16.448-17.176-29.28      l60.72-233.072l-123.76-55.408c-12.096-5.416-17.512-19.616-12.096-31.712c5.424-12.104,19.624-17.512,31.712-12.096      l142.296,63.712c10.696,4.792,16.368,16.616,13.416,27.96l-65.832,252.728C2123.265,3252.4,2113.537,3259.552,2102.874,3259.552      z"/></g><g><path fill="#EDEDED" d="M261.161,3744.496c-0.64,0-1.288-0.024-1.936-0.072c-13.216-1.056-23.072-12.624-22.016-25.832      c28.208-353.88,114.68-497.312,118.344-503.24c6.976-11.264,21.76-14.76,33.032-7.792c11.256,6.96,14.752,21.712,7.824,32.984      c-1.064,1.76-84.264,141.936-111.352,481.864C284.057,3734.968,273.553,3744.496,261.161,3744.496z"/></g><g><path fill="#EDEDED" d="M2482.409,3743.216c-12.168,0-22.6-9.216-23.848-21.584c-34.392-339.76-120.752-478.032-121.624-479.392      c-7.128-11.144-3.92-25.984,7.2-33.144c11.128-7.168,25.92-4,33.12,7.096c3.792,5.848,93.304,147.4,129.064,500.6      c1.336,13.184-8.272,24.96-21.464,26.296C2484.042,3743.176,2483.218,3743.216,2482.409,3743.216z"/></g></svg>