<svg xmlns="http://www.w3.org/2000/svg" enable-background="new 0 0 100 100" viewBox="0 0 100 100" width="100" height="100"><rect width="58.421" height="4.494" x="20.789" y="44.382" fill="#fff"/><path d="M80.334,50H19.666v-6.741h60.668V50z M21.913,47.753h56.174v-2.247H21.913V47.753z"/><rect width="56.174" height="35.951" x="21.913" y="48.876" fill="#aeaeae"/><path d="M79.211,85.951H20.789V47.753h58.421V85.951z M23.037,83.704h53.927V50H23.037V83.704z"/><rect width="4.493" height="5.617" x="70.223" y="38.765" fill="#f95555"/><path d="M75.84,45.506h-6.741v-7.864h6.741V45.506z M71.346,43.259h2.247v-3.37h-2.247V43.259z"/><rect width="4.494" height="5.617" x="25.284" y="38.765" fill="#2edbf7"/><path d="M30.901,45.506H24.16v-7.864h6.741V45.506z M26.407,43.259h2.247v-3.37h-2.247V43.259z"/><circle cx="50" cy="64.605" r="11.235" fill="#f9ec9a" transform="rotate(-22.5 49.997 64.602)"/><path d="M50,76.963c-6.814,0-12.358-5.543-12.358-12.358c0-6.815,5.544-12.359,12.358-12.359s12.359,5.544,12.359,12.359C62.359,71.42,56.814,76.963,50,76.963z M50,54.494c-5.575,0-10.111,4.535-10.111,10.111c0,5.576,4.536,10.111,10.111,10.111c5.575,0,10.111-4.535,10.111-10.111C60.111,59.029,55.575,54.494,50,54.494z"/><polygon points="49.262 71.764 47.335 70.607 50.263 65.729 45.769 65.729 50.739 57.446 52.665 58.603 49.737 63.482 54.231 63.482"/><path d="M53.37,81.457v-2.247h2.247v2.247C53.37,81.457,55.618,81.457,53.37,81.457z M48.876,81.457v-2.247h2.247v2.247C48.876,81.457,51.124,81.457,48.876,81.457z M44.383,81.457v-2.247h2.247v2.247C44.383,81.457,46.63,81.457,44.383,81.457z"/><rect width="17.976" height="2.247" x="20.789" y="79.211"/><rect width="17.976" height="2.247" x="61.235" y="79.211"/><path fill="#4dc889" d="M62.359,27.53c0,6.826-5.533,12.359-12.359,12.359c-6.825,0-12.358-5.533-12.358-12.359S43.175,15.172,50,15.172C56.826,15.172,62.359,20.705,62.359,27.53z"/><path d="M50,41.012c-7.434,0-13.482-6.047-13.482-13.482c0-7.434,6.048-13.482,13.482-13.482s13.482,6.047,13.482,13.482C63.482,34.965,57.434,41.012,50,41.012z M50,16.295c-6.195,0-11.235,5.04-11.235,11.235S43.805,38.765,50,38.765s11.235-5.04,11.235-11.235S56.195,16.295,50,16.295z"/><path d="M55.678 28.038l-.12-1.117c-.139-1.284-.697-2.447-1.613-3.363-2.007-2.006-5.2-2.203-7.428-.458l-.884.694-1.385-1.77.885-.692c3.123-2.446 7.594-2.17 10.402.638 1.264 1.263 2.066 2.936 2.258 4.71l.121 1.117L55.678 28.038zM49.973 35.395c-2.101 0-4.076-.818-5.561-2.304-1.164-1.163-1.923-2.633-2.195-4.25l-.186-1.108 2.215-.373.186 1.108c.194 1.154.736 2.203 1.567 3.034 1.061 1.061 2.471 1.646 3.972 1.646 1.5 0 2.911-.585 3.972-1.646l.794-.794 1.589 1.589-.794.794C54.049 34.576 52.074 35.395 49.973 35.395z"/><polygon points="43.359 24.61 44.375 20.351 46.56 20.872 46.391 21.579 47.099 21.412 47.618 23.598"/><polygon points="55.77 34.511 53.584 33.991 53.753 33.283 53.046 33.451 52.526 31.264 56.785 30.252"/><g><path d="M73.593,39.889h-2.247v-4.494c0-2.478,2.016-4.494,4.494-4.494h10.111v2.247H75.84c-1.239,0-2.247,1.009-2.247,2.247V39.889z"/></g><g><path d="M28.654,39.889h-2.247v-4.494c0-1.238-1.008-2.247-2.247-2.247H14.049v-2.247H24.16c2.478,0,4.494,2.016,4.494,4.494V39.889z"/></g><g><rect width="10.111" height="17.976" x="21.913" y="55.617" fill="#f9a957"/><path d="M33.148,74.716H20.789V54.494h12.358V74.716z M23.037,72.47h7.864V56.741h-7.864V72.47z"/></g><g><rect width="10.111" height="17.976" x="67.976" y="55.617" fill="#f9a957"/><path d="M79.211,74.716H66.853V54.494h12.358V74.716z M69.099,72.47h7.865V56.741h-7.865V72.47z"/></g></svg>