<svg xmlns="http://www.w3.org/2000/svg" enable-background="new 0 0 74 74" viewBox="0 0 74 74" width="74" height="74"><path fill="#f5b945" d="M28.4,5c5.73,4.12,11.47,4.12,17.2,0v25.72H28.4V5z"/><path d="M45.6,31.09H28.4c-0.21,0-0.38-0.17-0.38-0.38V5c0-0.14,0.08-0.27,0.2-0.33c0.12-0.06,0.28-0.05,0.39,0.03    c5.64,4.06,11.12,4.06,16.76,0c0.11-0.08,0.27-0.09,0.39-0.03c0.13,0.06,0.2,0.19,0.2,0.33v25.72    C45.97,30.92,45.81,31.09,45.6,31.09z M28.77,30.34h16.45V5.72c-5.46,3.66-10.99,3.66-16.45,0V30.34z"/><path fill="#fdcd56" d="M28.4,5l10.36,24.82c0.75,1.8,1.14,3.72,1.14,5.67v27c0,3.6-2.92,6.51-6.51,6.51H14.67    c-1.61,0-2.91-1.3-2.91-2.91l0-31.14c0-0.86,0.4-1.65,1.03-2.23c5.18-4.72,6.62-11.78,5.38-20.51c-0.19-1.34,0.53-2.64,1.76-3.22    L28.4,5z"/><path d="M33.38,69.38H14.67c-1.81,0-3.29-1.47-3.29-3.29V34.95c0-0.93,0.41-1.82,1.16-2.5c4.84-4.41,6.56-11.01,5.26-20.18    c-0.21-1.48,0.6-2.96,1.97-3.61l8.47-3.99c0.09-0.04,0.2-0.05,0.29-0.01c0.1,0.04,0.17,0.11,0.21,0.21l10.36,24.82    c0.77,1.85,1.17,3.81,1.17,5.81v27C40.27,66.29,37.18,69.38,33.38,69.38z M28.2,5.51l-8.12,3.83c-1.07,0.51-1.71,1.67-1.54,2.82    c1.33,9.44-0.46,16.25-5.5,20.84c-0.59,0.54-0.91,1.23-0.91,1.95v31.14c0,1.4,1.14,2.54,2.54,2.54h18.72    c3.38,0,6.14-2.75,6.14-6.14v-27c0-1.91-0.37-3.76-1.11-5.52L28.2,5.51z"/><path fill="#f5b945" d="M39.9,35.48v27.01c0,1.67-0.62,3.18-1.65,4.33c-0.75,0.84-1.71,1.5-2.82,1.84    c-1.76-1.46-2.88-3.69-2.88-6.17V35.48c0-2.15,0.42-4.27,1.26-6.26l2.35-5.64l1.68,4.03l0.92,2.21    C39.51,31.62,39.9,33.53,39.9,35.48z"/><path d="M35.43,69.03c-0.09,0-0.17-0.03-0.24-0.09c-1.92-1.59-3.02-3.95-3.02-6.46V35.48c0-2.22,0.43-4.38,1.29-6.41l2.35-5.64    c0.12-0.28,0.58-0.28,0.69,0l2.6,6.25c0.77,1.85,1.17,3.81,1.17,5.8v27.01c0,1.69-0.62,3.32-1.75,4.58    c-0.82,0.92-1.85,1.59-2.99,1.95C35.5,69.03,35.46,69.03,35.43,69.03z M36.16,24.55l-2.01,4.81c-0.82,1.94-1.23,4-1.23,6.12v27.01    c0,2.22,0.94,4.3,2.59,5.75c0.93-0.33,1.77-0.9,2.46-1.66c1-1.13,1.56-2.58,1.56-4.08V35.48c0-1.89-0.37-3.75-1.11-5.51    L36.16,24.55z"/><path fill="#fdcd56" d="M45.6,5L35.24,29.82c-0.75,1.8-1.14,3.72-1.14,5.67v27c0,3.6,2.92,6.51,6.51,6.51h18.72    c1.61,0,2.91-1.3,2.91-2.91V34.95c0-0.86-0.4-1.65-1.03-2.23c-5.18-4.72-6.62-11.78-5.38-20.51c0.19-1.34-0.53-2.64-1.76-3.22    L45.6,5z"/><path d="M59.33,69.38H40.61c-3.8,0-6.89-3.09-6.89-6.89v-27c0-2.01,0.39-3.96,1.16-5.81L45.25,4.86c0.04-0.09,0.12-0.17,0.21-0.21    c0.1-0.04,0.2-0.03,0.29,0.01l8.47,3.99c1.37,0.64,2.18,2.13,1.97,3.61c-1.3,9.17,0.42,15.77,5.26,20.18    c0.75,0.68,1.16,1.57,1.16,2.5v31.14C62.62,67.9,61.14,69.38,59.33,69.38z M45.79,5.51L35.58,29.96    c-0.73,1.76-1.11,3.62-1.11,5.52v27c0,3.38,2.75,6.14,6.14,6.14h18.72c1.4,0,2.54-1.14,2.54-2.54V34.95    c0-0.72-0.32-1.41-0.91-1.95c-5.04-4.59-6.83-11.41-5.5-20.84c0.16-1.16-0.47-2.32-1.54-2.82L45.79,5.51z"/><rect width="50.5" height="4.5" x="11.75" y="54.58" fill="#fa6c51"/><path d="M62.25,59.46h-50.5c-0.21,0-0.38-0.17-0.38-0.38v-4.5c0-0.21,0.17-0.38,0.38-0.38h50.5c0.21,0,0.38,0.17,0.38,0.38v4.5    C62.63,59.29,62.46,59.46,62.25,59.46z M12.12,58.71h49.75v-3.75H12.12V58.71z"/><rect width="50.5" height="4.5" x="11.75" y="42.84" fill="#fa6c51"/><path d="M62.25,47.72h-50.5c-0.21,0-0.38-0.17-0.38-0.38v-4.5c0-0.21,0.17-0.38,0.38-0.38h50.5c0.21,0,0.38,0.17,0.38,0.38v4.5    C62.63,47.56,62.46,47.72,62.25,47.72z M12.12,46.97h49.75v-3.75H12.12V46.97z"/><path fill="#fff" d="M41.91,48.75h-9.82v-7.3h9.82V48.75z M33.65,47.19h6.7V43h-6.7V47.19z"/><path d="M41.91,49.12h-9.82c-0.21,0-0.38-0.17-0.38-0.38v-7.3c0-0.21,0.17-0.38,0.38-0.38h9.82c0.21,0,0.38,0.17,0.38,0.38v7.3    C42.28,48.95,42.12,49.12,41.91,49.12z M32.47,48.37h9.07v-6.55h-9.07V48.37z M40.35,47.56h-6.7c-0.21,0-0.38-0.17-0.38-0.38V43    c0-0.21,0.17-0.38,0.38-0.38h6.7c0.21,0,0.38,0.17,0.38,0.38v4.19C40.73,47.4,40.56,47.56,40.35,47.56z M34.02,46.81h5.95v-3.44    h-5.95V46.81z"/><path fill="#fff" d="M41.91,60.48h-9.82v-7.3h9.82V60.48z M33.65,58.92h6.7v-4.19h-6.7V58.92z"/><path d="M41.91,60.86h-9.82c-0.21,0-0.38-0.17-0.38-0.38v-7.3c0-0.21,0.17-0.38,0.38-0.38h9.82c0.21,0,0.38,0.17,0.38,0.38v7.3    C42.28,60.69,42.12,60.86,41.91,60.86z M32.47,60.11h9.07v-6.55h-9.07V60.11z M40.35,59.3h-6.7c-0.21,0-0.38-0.17-0.38-0.38v-4.19    c0-0.21,0.17-0.38,0.38-0.38h6.7c0.21,0,0.38,0.17,0.38,0.38v4.19C40.73,59.13,40.56,59.3,40.35,59.3z M34.02,58.55h5.95v-3.44    h-5.95V58.55z"/></svg>