<svg xmlns="http://www.w3.org/2000/svg" viewBox="0 0 100 100" width="100" height="100"><path fill="#fff" d="M50 15.048c-14.067 0-26.186 8.315-31.729 20.295H81.73C76.186 23.363 64.067 15.048 50 15.048z"/><path d="M83.493 36.47H16.506l.741-1.601C23.136 22.143 35.992 13.92 50 13.92s26.864 8.223 32.754 20.949l.739 1.601zm-63.407-2.255h59.827C74.087 23.2 62.535 16.175 50 16.175S25.913 23.2 20.086 34.215z"/><path fill="#acacac" d="M18.27 35.343a34.814 34.814 0 0 0-3.222 14.658c0 19.303 15.648 34.952 34.952 34.952s34.952-15.649 34.952-34.952a34.814 34.814 0 0 0-3.222-14.658H18.27z"/><path d="M50 86.08c-19.894 0-36.08-16.186-36.08-36.08 0-5.27 1.119-10.36 3.326-15.131l.303-.654H82.45l.303.654A35.786 35.786 0 0 1 86.08 50c0 19.894-16.186 36.08-36.08 36.08zM18.999 36.47A33.528 33.528 0 0 0 16.175 50c0 18.651 15.174 33.824 33.824 33.824C68.65 83.824 83.824 68.65 83.824 50c0-4.7-.95-9.248-2.824-13.53H18.999z"/><path fill="#875430" d="m35.343 77.06 22.549-41.502V22.94L35.343 63.242v4.606h-5.638v4.606h5.638z"/><path d="M35.343 78.187a1.128 1.128 0 0 1-1.128-1.128v-3.478h-4.51a1.128 1.128 0 0 1-1.128-1.127v-4.606c0-.623.505-1.128 1.128-1.128h4.51v-3.478c0-.193.049-.382.144-.551l22.55-40.302a1.127 1.127 0 0 1 2.111.55v12.618c0 .189-.047.373-.136.538l-22.55 41.503a1.13 1.13 0 0 1-.991.589zm-4.51-6.861h4.51c.623 0 1.127.505 1.127 1.128v.169l20.294-37.351v-8.008L36.47 63.536v4.312c0 .623-.505 1.128-1.127 1.128h-4.51v2.35z"/><path fill="#f7ea98" d="M35.343 72.453h-5.638v-4.606h5.638v-4.606H17.651A35.042 35.042 0 0 0 27.88 77.059h7.462v-4.606z"/><path d="M35.343 78.187H27.88c-.261 0-.513-.09-.714-.255a36.265 36.265 0 0 1-10.558-14.263 1.125 1.125 0 0 1 1.043-1.554h17.691c.623 0 1.127.505 1.127 1.127v4.606c0 .623-.505 1.128-1.127 1.128h-4.51v2.351h4.51c.623 0 1.127.505 1.127 1.128v4.606a1.126 1.126 0 0 1-1.126 1.126zm-7.057-2.255h5.929v-2.351h-4.51a1.128 1.128 0 0 1-1.128-1.127v-4.606c0-.623.505-1.128 1.128-1.128h4.51v-2.35H19.378a34.044 34.044 0 0 0 8.908 11.562z"/><path fill="#c48b50" d="M15.048 50c0 4.688.93 9.156 2.604 13.242h17.691L57.892 22.94H27.88C20.048 29.35 15.048 39.09 15.048 50z"/><path d="M35.343 64.37H17.651c-.458 0-.87-.277-1.043-.7A35.884 35.884 0 0 1 13.92 50c0-10.863 4.828-21.043 13.245-27.932.202-.165.454-.255.714-.255h30.012a1.128 1.128 0 0 1 .984 1.678L36.327 63.793c-.2.355-.576.577-.984.577zm-16.926-2.255h16.265L55.97 24.068H28.286C20.584 30.522 16.175 39.95 16.175 50c0 4.172.754 8.244 2.242 12.115z"/><path fill="#f7ea98" d="M82.348 63.242H51.127v4.606H45.49v4.606h5.637v4.606h20.992a35.042 35.042 0 0 0 10.229-13.818z"/><path d="M72.119 78.187H51.127A1.127 1.127 0 0 1 50 77.059v-3.478h-4.51a1.128 1.128 0 0 1-1.128-1.127v-4.606c0-.623.504-1.128 1.128-1.128H50v-3.478c0-.623.505-1.127 1.127-1.127h31.221a1.13 1.13 0 0 1 1.044 1.554 36.265 36.265 0 0 1-10.558 14.263 1.129 1.129 0 0 1-.715.255zm-19.864-2.255h19.458a34.026 34.026 0 0 0 8.908-11.563H52.255v3.478c0 .623-.504 1.128-1.128 1.128h-4.509v2.351h4.509c.623 0 1.128.505 1.128 1.128v3.478z"/><path fill="#c48b50" d="M82.348 63.242A34.839 34.839 0 0 0 84.952 50c0-10.412-4.557-19.754-11.78-26.158l-22.045 39.4h31.221z"/><path d="M82.348 64.37H51.127a1.126 1.126 0 0 1-.983-1.678l22.045-39.399a1.127 1.127 0 0 1 1.732-.294A36.116 36.116 0 0 1 86.08 50c0 4.719-.905 9.317-2.688 13.669a1.129 1.129 0 0 1-1.044.701zM53.05 62.115h28.533a33.638 33.638 0 0 0 2.241-12.114 33.857 33.857 0 0 0-10.366-24.358L53.05 62.115z"/><path fill="#c48b50" d="m22.94 45.225 12.403-21.157L22.94 45.225z"/><path d="m21.396 45.627 13.543-23.103 1.945 1.14-13.543 23.104z"/><path fill="#c48b50" d="m28.578 56.765 19.167-32.697-19.167 32.697z"/><path d="m27.035 57.167 20.307-34.643 1.945 1.14L28.98 58.307z"/><path fill="#c48b50" d="m33.426 38.744 5.299-9.039-5.299 9.039z"/><path d="m31.883 39.149 6.439-10.985 1.945 1.14-6.439 10.985z"/><path fill="#c48b50" d="m19.558 62.402 10.575-18.039-10.575 18.039z"/><path d="m18.016 62.802 11.716-19.984 1.946 1.14L19.96 63.943z"/><path fill="#c48b50" d="m59.02 62.402 19.167-32.697L59.02 62.402z"/><path d="m57.473 62.806 20.312-34.64 1.945 1.14-20.311 34.64z"/><path fill="#c48b50" d="m77.06 56.765 1.983-3.383-1.983 3.383z"/><path d="m75.516 57.167 3.123-5.328 1.945 1.14-3.123 5.328z"/><path fill="#c48b50" d="m64.657 62.402 6.774-11.557-6.774 11.557z"/><path d="M63.113 62.803 71.028 49.3l1.945 1.14-7.915 13.503z"/></svg>