<svg xmlns="http://www.w3.org/2000/svg" enable-background="new 0 0 66 66" viewBox="0 0 66 66" width="66" height="66"><path fill="#270537" d="M33,6.75c-0.28,0-0.5-0.22-0.5-0.5V2.1c0-0.28,0.22-0.5,0.5-0.5s0.5,0.22,0.5,0.5v4.15     C33.5,6.53,33.28,6.75,33,6.75z"/><line x1="16.83" x2="12.94" y1="12.95" y2="9.05" fill="#1c6be4"/><path fill="#270537" d="M16.83,13.45c-0.13,0-0.26-0.05-0.35-0.15l-3.9-3.9c-0.2-0.2-0.2-0.51,0-0.71s0.51-0.2,0.71,0l3.9,3.9     c0.2,0.2,0.2,0.51,0,0.71C17.09,13.4,16.96,13.45,16.83,13.45z"/><line x1="10.14" x2="5.98" y1="29.12" y2="29.12" fill="#1c6be4"/><path fill="#270537" d="M10.14,29.62H5.98c-0.28,0-0.5-0.22-0.5-0.5s0.22-0.5,0.5-0.5h4.15c0.28,0,0.5,0.22,0.5,0.5     S10.41,29.62,10.14,29.62z"/><line x1="55.86" x2="60.02" y1="29.12" y2="29.12" fill="#1c6be4"/><path fill="#270537" d="M60.02,29.62h-4.15c-0.28,0-0.5-0.22-0.5-0.5s0.22-0.5,0.5-0.5h4.15c0.28,0,0.5,0.22,0.5,0.5     S60.29,29.62,60.02,29.62z"/><line x1="49.17" x2="53.06" y1="12.95" y2="9.05" fill="#1c6be4"/><path fill="#270537" d="M49.17,13.45c-0.13,0-0.26-0.05-0.35-0.15c-0.2-0.2-0.2-0.51,0-0.71l3.9-3.9c0.2-0.2,0.51-0.2,0.71,0     s0.2,0.51,0,0.71l-3.9,3.9C49.42,13.4,49.3,13.45,49.17,13.45z"/><path fill="#9ccffe" d="M37.11,59.79c0,2.27-1.83,4.12-4.11,4.12c-2.28,0-4.12-1.84-4.12-4.12H37.11z"/><path fill="#270537" d="M33,64.4c-2.54,0-4.62-2.07-4.62-4.62c0-0.28,0.22-0.5,0.5-0.5h8.22c0.28,0,0.5,0.22,0.5,0.5    C37.61,62.33,35.54,64.4,33,64.4z M29.42,60.29c0.24,1.76,1.76,3.12,3.58,3.12c1.82,0,3.33-1.36,3.57-3.12H29.42z"/><path fill="#fcbd18" d="M47.62,37.77c-0.05,0.07-0.11,0.15-0.16,0.22c-1.05,1.47-1.99,3-2.76,4.62c-0.87,1.79-1.55,3.67-2.02,5.61    c-0.1,0.37-0.18,0.76-0.26,1.14c-0.16,0.79-0.87,1.35-1.67,1.35h-15.5c-0.82,0-1.53-0.57-1.67-1.37    c-0.77-4.08-2.45-7.96-5.01-11.28c-2.34-3.06-3.74-6.9-3.74-11.05c0-3.32,0.89-6.43,2.45-9.09c2.58-4.47,7.02-7.73,12.25-8.74    c1.23-0.24,2.5-0.35,3.81-0.31c0.25,0,0.5,0.01,0.76,0.02c1.3,0.08,2.57,0.3,3.79,0.64c7.24,2.05,12.71,8.54,13.22,16.29    C51.41,30.29,50.06,34.46,47.62,37.77z"/><path fill="#270537" d="M40.76,51.2h-15.5c-1.06,0-1.97-0.75-2.17-1.78c-0.76-4.06-2.46-7.89-4.91-11.06    c-2.52-3.29-3.84-7.21-3.84-11.36c0-3.31,0.87-6.54,2.52-9.35c2.7-4.68,7.29-7.95,12.59-8.98c1.32-0.25,2.64-0.36,3.92-0.32    c0.22,0,0.49,0.01,0.74,0.02c1.35,0.08,2.66,0.3,3.92,0.66c7.61,2.15,13.07,8.88,13.58,16.74c0.29,4.4-0.99,8.77-3.59,12.3    l-0.15,0.21c-1.09,1.51-2,3.04-2.71,4.54c-0.88,1.81-1.54,3.66-1.98,5.51c-0.1,0.37-0.17,0.75-0.25,1.12    C42.72,50.46,41.82,51.2,40.76,51.2z M32.87,9.35c-1.07,0-2.15,0.1-3.23,0.31c-5.01,0.97-9.36,4.07-11.91,8.5    c-1.56,2.66-2.38,5.72-2.38,8.84c0,3.92,1.26,7.64,3.64,10.75c2.55,3.3,4.31,7.27,5.1,11.49c0.1,0.56,0.6,0.96,1.18,0.96h15.5    c0.58,0,1.07-0.4,1.18-0.95c0.08-0.4,0.16-0.79,0.26-1.17c0.45-1.91,1.15-3.83,2.05-5.7c0.74-1.55,1.68-3.13,2.8-4.69l0.16-0.21    c0,0,0,0,0-0.01c2.46-3.34,3.67-7.47,3.4-11.64C50.14,18.4,44.97,12.03,37.76,10c-1.19-0.34-2.43-0.55-3.68-0.62    c-0.25-0.01-0.49-0.02-0.73-0.02C33.19,9.35,33.03,9.35,32.87,9.35z"/><path fill="#270537" d="M18.77,27.67c-0.28,0-0.5-0.22-0.5-0.5c0-2.61,0.69-5.15,1.98-7.36c2.14-3.7,5.76-6.29,9.94-7.1    c0.9-0.17,1.8-0.26,2.67-0.26c0.28,0,0.5,0.22,0.5,0.5s-0.22,0.5-0.5,0.5c-0.81,0-1.64,0.08-2.48,0.24    c-3.9,0.75-7.27,3.17-9.27,6.62c-1.21,2.06-1.85,4.43-1.85,6.86C19.27,27.45,19.05,27.67,18.77,27.67z"/><path fill="#9ccffe" d="M18.83,38.4c2.41,3.24,4.02,6.99,4.76,10.93c0.15,0.8,0.86,1.37,1.67,1.37h15.5c0.81,0,1.52-0.56,1.67-1.35    c0.08-0.38,0.16-0.77,0.26-1.14c0.46-1.94,1.15-3.82,2.02-5.61c0.7-1.46,1.53-2.86,2.47-4.2H18.83z"/><path fill="#270537" d="M40.76,51.2h-15.5c-1.06,0-1.97-0.75-2.16-1.78c-0.73-3.9-2.35-7.61-4.67-10.72    c-0.11-0.15-0.13-0.35-0.05-0.52s0.26-0.28,0.45-0.28h28.34c0.19,0,0.36,0.1,0.44,0.27c0.09,0.17,0.07,0.36-0.03,0.52    c-0.98,1.41-1.78,2.76-2.43,4.13c-0.88,1.81-1.54,3.66-1.98,5.51c-0.1,0.37-0.17,0.73-0.25,1.1C42.73,50.46,41.82,51.2,40.76,51.2    z M19.81,38.9c2.1,3.06,3.58,6.62,4.28,10.34c0.1,0.56,0.6,0.96,1.18,0.96h15.5c0.58,0,1.07-0.4,1.18-0.95    c0.08-0.41,0.16-0.8,0.26-1.17c0.45-1.91,1.15-3.83,2.05-5.7c0.55-1.16,1.2-2.3,1.98-3.48H19.81z"/><g><path fill="#1c6be4" d="M40.99,50.7v6.92c0,1.19-0.97,2.16-2.16,2.16H27.18c-1.19,0-2.16-0.97-2.16-2.16V50.7H40.99z"/><path fill="#270537" d="M38.82,60.29H27.18c-1.47,0-2.66-1.19-2.66-2.66V50.7c0-0.28,0.22-0.5,0.5-0.5h15.98c0.28,0,0.5,0.22,0.5,0.5    v6.92C41.49,59.09,40.29,60.29,38.82,60.29z M25.51,51.2v6.42c0,0.92,0.75,1.66,1.66,1.66h11.65c0.92,0,1.66-0.75,1.66-1.66V51.2    H25.51z"/></g><g><path fill="#270537" d="M33.01,48.34c-0.28,0-0.5-0.22-0.5-0.5v-6.52c0-0.28,0.22-0.5,0.5-0.5s0.5,0.22,0.5,0.5v6.52     C33.51,48.11,33.28,48.34,33.01,48.34z"/><line x1="39.13" x2="37.44" y1="41.32" y2="47.84" fill="#1c6be4"/><path fill="#270537" d="M37.44,48.34c-0.04,0-0.08-0.01-0.13-0.02c-0.27-0.07-0.43-0.34-0.36-0.61l1.69-6.52     c0.07-0.27,0.34-0.43,0.61-0.36c0.27,0.07,0.43,0.34,0.36,0.61l-1.69,6.52C37.87,48.19,37.66,48.34,37.44,48.34z"/><line x1="26.88" x2="28.57" y1="41.32" y2="47.84" fill="#1c6be4"/><path fill="#270537" d="M28.57,48.34c-0.22,0-0.43-0.15-0.48-0.37l-1.69-6.52c-0.07-0.27,0.09-0.54,0.36-0.61     c0.27-0.07,0.54,0.09,0.61,0.36l1.69,6.52c0.07,0.27-0.09,0.54-0.36,0.61C28.66,48.33,28.61,48.34,28.57,48.34z"/></g><g><path fill="#270537" d="M40.92 54.28H25.02c-.28 0-.5-.22-.5-.5s.22-.5.5-.5h15.91c.28 0 .5.22.5.5S41.2 54.28 40.92 54.28zM40.92 57.21H25.02c-.28 0-.5-.22-.5-.5s.22-.5.5-.5h15.91c.28 0 .5.22.5.5S41.2 57.21 40.92 57.21z"/></g></svg>