<svg xmlns="http://www.w3.org/2000/svg" viewBox="0 0 64 64" width="64" height="64"><circle cx="32" cy="32" r="30" fill="#66ccbe"/><path fill="#59b3a6" d="M60.851,23.782A38.5,38.5,0,0,1,22.5,59a38.951,38.951,0,0,1-3.989-.2,30,30,0,0,0,42.34-35.013Z"/><path fill="#7083a6" d="M54.753,21.213a6.792,6.792,0,0,0-6.816,2.127l-6.659,7.674-10.8,1.491-2.016,2.324,8.782.832L31.2,42.632l-6.561-.263-.672.775,4.811,4.175a4.135,4.135,0,0,0,5.658-.223l8.805-8.951,3.142,13.589,2.689-3.1-.454-16.687,6.979-8.043A1.658,1.658,0,0,0,54.753,21.213Z"/><path fill="#d9e1e6" d="M47.97 6.6a49.54 49.54 0 0 1-6.62 1.33A71.66 71.66 0 0 1 32 8.52a71.66 71.66 0 0 1-9.35-.59A49.54 49.54 0 0 1 16.03 6.6a30.022 30.022 0 0 1 31.94 0zM47.97 57.4a49.54 49.54 0 0 0-6.62-1.33A71.66 71.66 0 0 0 32 55.48a71.66 71.66 0 0 0-9.35.59 49.54 49.54 0 0 0-6.62 1.33 30.022 30.022 0 0 0 31.94 0z"/><path fill="#c0c8cc" d="M22.5,59a39.006,39.006,0,0,1-3.918-.2A29.815,29.815,0,0,0,47.94,57.39a53.261,53.261,0,0,0-9.907-1.663A38.343,38.343,0,0,1,22.5,59Z"/><polygon fill="#5f6f8c" points="37.245 35.661 28.463 34.829 30.479 32.505 41.278 31.014 37.245 35.661"/><path fill="#5f6f8c" d="M54.753,21.213a6.758,6.758,0,0,0-1.34-.188A66.044,66.044,0,0,1,41.848,36.244a68.077,68.077,0,0,1-13.57,10.645l.5.43a4.135,4.135,0,0,0,5.658-.223l8.805-8.951,3.142,13.589,2.689-3.1-.454-16.687,6.979-8.043A1.658,1.658,0,0,0,54.753,21.213Z"/><path d="M58.867,5.133c-1.942-1.943-5.516-1.761-10.593.5a30.951,30.951,0,0,0-32.77.13,30.976,30.976,0,0,0-1.749,51.283c-3.49,1.38-6.076,1.543-7.208.412s-.778-3.44-.286-5.182l-1.926-.542c-.926,3.281-.657,5.683.8,7.138a5.049,5.049,0,0,0,3.723,1.327,17.682,17.682,0,0,0,6.876-1.82,30.979,30.979,0,0,0,42.64-42.64C60.6,10.716,60.782,7.048,58.867,5.133ZM57.453,6.547c1.126,1.126.965,3.711-.407,7.207a31.232,31.232,0,0,0-6.8-6.8C53.745,5.583,56.329,5.422,57.453,6.547ZM55.84,15.514a47,47,0,0,1-8.964,2.476,36.326,36.326,0,0,0-3.843-9.3c1.685-.277,3.273-.614,4.749-1A29.138,29.138,0,0,1,55.84,15.514ZM48.059,48.275,46.912,49.6l-2.7-11.677a1,1,0,0,0-.7-.737,1.013,1.013,0,0,0-.272-.037,1,1,0,0,0-.713.3l-8.8,8.952a3.141,3.141,0,0,1-4.289.169L25.8,43.417l5.352.214a.963.963,0,0,0,.8-.344L48.692,24A5.763,5.763,0,0,1,54.5,22.182a.658.658,0,0,1,.334,1.068l-6.98,8.043a1,1,0,0,0-.245.683ZM43.92,45.536l.442,1.911A31.013,31.013,0,0,1,40.857,55,72.457,72.457,0,0,0,33,54.493V49.078A5.071,5.071,0,0,0,35.145,47.8l2.816-2.863C39.977,45.064,41.973,45.269,43.92,45.536Zm-4.133-2.459,2.886-2.933.767,3.318Q41.646,43.232,39.787,43.077Zm5.585-22.814c.281,1.231.515,2.473.688,3.715l-5.291,6.1L34.07,31H33V21.242A86.678,86.678,0,0,0,45.372,20.263ZM33,19.242V9.506A72.528,72.528,0,0,0,40.855,9a32.938,32.938,0,0,1,4.037,9.314A84.708,84.708,0,0,1,33,19.242Zm5.779,13.126-1.952,2.249-6.336-.6.5-.573Zm-3.562,4.1L33,39.027V36.263ZM31,19.242a84.725,84.725,0,0,1-11.894-.931A32.958,32.958,0,0,1,23.146,9,72.426,72.426,0,0,0,31,9.506Zm0,2V31H17.376a52.612,52.612,0,0,1,1.255-10.737A86.623,86.623,0,0,0,31,21.242ZM28.727,33l-1.019,1.174a1,1,0,0,0,.66,1.65l2.632.25v5.258l-.244.281-6.081-.243a.981.981,0,0,0-.8.344l-.672.774a.99.99,0,0,0-.238.693q-2.238.224-4.343.552A53.176,53.176,0,0,1,17.363,33ZM24.618,45.035l3.5,3.039c.018.016.04.026.058.041-2.191,1.726-4.329,3.273-6.368,4.6a35.923,35.923,0,0,1-2.691-7.038C20.876,45.409,22.713,45.192,24.618,45.035Zm5.505,4.091a5.168,5.168,0,0,0,.877.163v5.2a72.677,72.677,0,0,0-7.854.51c-.119-.18-.24-.355-.356-.541C25.135,52.941,27.6,51.147,30.123,49.126ZM53.834,20.042a7.71,7.71,0,0,0-6.05,2.04c-.127-.719-.275-1.432-.436-2.145a52.532,52.532,0,0,0,7.706-1.994C54.681,18.622,54.269,19.326,53.834,20.042ZM32,3A28.85,28.85,0,0,1,45.275,6.227c-1.285.277-2.634.52-4.053.716A70.788,70.788,0,0,1,32,7.521a70.807,70.807,0,0,1-9.216-.577c-1.422-.2-2.774-.44-4.059-.717A28.85,28.85,0,0,1,32,3ZM16.219,7.684c1.475.391,3.062.728,4.749,1a36.335,36.335,0,0,0-3.846,9.3,46.994,46.994,0,0,1-8.963-2.475A29.147,29.147,0,0,1,16.219,7.684ZM7.072,17.223a47.868,47.868,0,0,0,9.584,2.715A54.714,54.714,0,0,0,15.376,31H3.035A28.87,28.87,0,0,1,7.072,17.223ZM3.025,33H15.363a55.157,55.157,0,0,0,1.268,11.067,47.073,47.073,0,0,0-9.564,2.72A28.8,28.8,0,0,1,3.025,33ZM8.167,48.494a46.089,46.089,0,0,1,8.943-2.485,37.421,37.421,0,0,0,3,7.781q-2.214,1.347-4.222,2.306A29.244,29.244,0,0,1,8.167,48.494ZM32,61a28.808,28.808,0,0,1-13.277-3.231A64.455,64.455,0,0,1,32,56.479a64.455,64.455,0,0,1,13.277,1.29A28.808,28.808,0,0,1,32,61Zm15.776-4.686a46.7,46.7,0,0,0-4.748-1,31.468,31.468,0,0,0,2.158-4.3l.219.947a1,1,0,0,0,1.73.43l2.688-3.1a1,1,0,0,0,.245-.683l-.052-1.935A40.3,40.3,0,0,1,55.833,48.5,29.242,29.242,0,0,1,47.776,56.314Zm9.157-9.527a42.557,42.557,0,0,0-6.974-2.181L49.642,33H60.975A28.814,28.814,0,0,1,56.933,46.787ZM60.965,31H50.76l5.588-6.438a2.627,2.627,0,0,0-.533-3.934q.837-1.4,1.517-2.715A28.866,28.866,0,0,1,60.965,31Z"/></svg>