<svg xmlns="http://www.w3.org/2000/svg" enable-background="new 0 0 100 100" viewBox="0 0 100 100" width="100" height="100"><path fill="#f8cf52" d="M63.486,76.973c2.247,1.124,6.168,3.286,9.084,7.707c0.224,0.339,0.75,0.092,0.622-0.293      c-2.263-6.783-9.521-21.966,11.503-21.127c0.085,0.003,0.125-0.105,0.048-0.14c-3.039-1.388-20.133-16.491,0.062-29.322      c0.07-0.045,0.03-0.157-0.052-0.141c-3.259,0.658-24.998,4.949-27.902-18.422c-0.011-0.089-0.132-0.104-0.147-0.016      c-0.56,3.234-7.588,19.692-22.448,7.669c-0.051-0.041-0.128-0.014-0.13,0.051c-0.051,1.772-1.011,18.048-18.85,10.822      c-0.081-0.032-0.156,0.058-0.092,0.117c2.165,1.949,17.958,13.874,1.149,27.008c-0.054,0.042-0.006,0.133,0.062,0.126      c2.04-0.194,20.118,2.474,9.049,18.666c-0.05,0.073,0.044,0.129,0.123,0.087c5.328-2.792,9.822-2.792,10.946-2.792H63.486z"/><path d="M72.856 85.964c-.492 0-.949-.248-1.224-.664-2.645-4.009-6.203-6.1-8.649-7.322l-1.005-.502 1.005-2.011 1.005.503c1.881.941 4.365 2.353 6.696 4.656-.854-2.556-1.675-5.53-1.675-8.298 0-6.388 4.195-9.81 12.476-10.186-3.17-2.79-7.512-8.088-7.512-14.346 0-4.541 2.258-8.703 6.726-12.411-.892.075-1.877.127-2.924.127-6.723 0-17.92-2.222-21.342-16.275-.152.311-.318.632-.497.959l-.54.986-1.971-1.081.54-.985c1.067-1.946 1.533-3.523 1.631-4.086l.162-.932 1.013-.059c.606 0 1.12.455 1.195 1.059 1.866 15.015 11.803 18.166 19.81 18.166 3.255 0 5.889-.532 6.755-.707l.223-.022c.668 0 1.212.538 1.212 1.2v.609l-.546.398c-6.107 3.88-9.198 8.269-9.198 13.053 0 7.42 7.464 13.608 8.989 14.305l.657.3.041.783c0 .664-.544 1.204-1.212 1.204-.591-.022-1.119-.033-1.627-.033-10.586 0-11.81 4.551-11.81 7.974 0 3.278 1.308 6.938 2.36 9.879.234.657.454 1.27.64 1.828.051.15.078.311.078.474C74.334 85.31 73.672 85.964 72.856 85.964zM72.124 84.741c.001.002.001.003.002.006C72.126 84.745 72.125 84.743 72.124 84.741zM73.508 84.061h.011H73.508zM25.509 80.902c-.664 0-1.203-.531-1.203-1.185v-.351l.213-.328c2.23-3.262 3.362-6.144 3.362-8.561 0-6.812-9.497-8.352-11.244-8.352-.051 0-.094.001-.128.004l-.114.006c-.667 0-1.209-.54-1.209-1.203v-.569l.483-.383c4.766-3.725 7.196-7.673 7.196-11.711 0-6.327-5.976-11.446-7.939-13.127-.202-.174-.369-.316-.493-.429l-.372-.334-.024-.55c0-.668.544-1.192 1.24-1.192h.219l.203.083c2.877 1.165 5.454 1.757 7.66 1.757 8.859 0 9.588-9.637 9.644-11.57l.032-1.091 1.167-.072c.273 0 .542.095.756.266 1.934 1.565 3.814 2.693 5.59 3.358L41.6 25.76l-.787 2.106-1.052-.394c-1.522-.569-3.094-1.426-4.69-2.556-.549 3.886-2.765 11.808-11.713 11.808-1.231 0-2.551-.157-3.95-.47 2.632 2.758 5.703 6.981 5.703 12.015 0 4.146-2.059 8.123-6.128 11.849 4.378.794 11.145 3.669 11.145 10.359 0 2.09-.666 4.406-1.985 6.913 2.303-.853 5.158-1.542 8.369-1.542h1.124v2.248h-1.124c-4.415 0-8.106 1.449-10.425 2.664l-.245.129L25.509 80.902zM35.249 22.952c-.001.013-.001.026-.001.041C35.249 22.98 35.249 22.966 35.249 22.952zM48.875 69.106h-2.248v-6.264c0-1.704-.238-3.4-.706-5.041l-1.807-6.325 2.162-.618 1.807 6.327c.526 1.841.793 3.744.793 5.657V69.106zM53.37 69.106h-2.248v-7.394c0-1.954.461-3.909 1.335-5.657l1.533-3.067 2.011 1.005-1.534 3.067c-.718 1.437-1.098 3.045-1.098 4.651V69.106z"/><path d="M44.38,69.106h-2.248v-3.372c0-4.711-0.746-5.312-2.38-6.628c-0.525-0.424-1.121-0.904-1.786-1.569l-0.795-0.795       l1.59-1.589l0.794,0.795c0.58,0.579,1.102,0.999,1.607,1.407c2.114,1.703,3.218,2.849,3.218,8.379V69.106z"/><rect width="4.496" height="16.858" x="41.008" y="67.982" fill="#2fd7f3"/><polygon points="46.627 85.964 44.38 85.964 44.38 69.106 42.132 69.106 42.132 85.964 39.884 85.964 39.884 66.858 46.627 66.858"/><rect width="4.496" height="16.858" x="45.503" y="67.982" fill="#8de948"/><polygon points="51.123 85.964 48.875 85.964 48.875 69.106 46.627 69.106 46.627 85.964 44.38 85.964 44.38 66.858 51.123 66.858"/><g><rect width="4.495" height="16.858" x="49.999" y="67.982" fill="#d2d2d2"/><polygon points="55.618 85.964 53.37 85.964 53.37 69.106 51.123 69.106 51.123 85.964 48.875 85.964 48.875 66.858 55.618 66.858"/></g><g><path d="M57.866,69.106h-2.247v-3.372c0-4.924,0.885-5.978,2.905-7.212c0.593-0.363,1.208-0.738,1.92-1.45l0.795-0.795       l1.589,1.59l-0.795,0.794c-0.901,0.902-1.697,1.388-2.337,1.779c-1.293,0.789-1.829,1.116-1.829,5.294V69.106z"/><rect width="4.496" height="16.858" x="54.494" y="67.982" fill="#4c4c4c"/><polygon points="60.113 85.964 57.866 85.964 57.866 69.106 55.618 69.106 55.618 85.964 53.37 85.964 53.37 66.858 60.113 66.858"/></g><g><path fill="#fb8102" d="M44.649,30.525l-2.248,3.936c-3.724,3.897-4.221,7.316-2.158,8.91          c1.397,1.079,3.968,1.321,7.507,0.306h4.496h0c8.922,1.612,11.689-3.573,5.349-9.216l-2.248-3.936          C53.117,21.962,47.16,21.56,44.649,30.525z"/><path d="M58.987,44.801H41.01c-1.216,0-2.306-0.628-2.916-1.679c-0.61-1.052-0.614-2.31-0.012-3.365l8.989-15.739          c0.607-1.064,1.702-1.699,2.927-1.699c1.225,0,2.32,0.634,2.928,1.699l8.988,15.739c0.603,1.055,0.598,2.313-0.012,3.365          S60.203,44.801,58.987,44.801z M49.023,25.133l-8.989,15.738c-0.289,0.507-0.093,0.953,0.004,1.122          c0.098,0.168,0.388,0.559,0.972,0.559h17.977c0.584,0,0.874-0.392,0.972-0.559c0.098-0.169,0.294-0.615,0.004-1.122          l-8.988-15.738c-0.293-0.511-0.78-0.566-0.977-0.566C49.802,24.567,49.314,24.622,49.023,25.133z"/><g><polygon points="49.266 40.383 47.333 39.236 50.262 34.303 47.064 34.303 51.727 24.875 53.742 25.872 50.683 32.055 54.21 32.055"/></g></g><g><rect width="4.999" height="2.248" x="65.694" y="52.169" transform="rotate(-20.053 68.204 53.3)"/><rect width="5.36" height="2.248" x="61.946" y="46.632" transform="rotate(-46.417 64.627 47.755)"/><rect width="2.248" height="5.294" x="67.593" y="57.284" transform="rotate(-83.073 68.714 59.931)"/><g><rect width="2.248" height="4.999" x="30.68" y="50.794" transform="rotate(-69.94 31.807 53.296)"/><rect width="2.249" height="5.36" x="34.247" y="45.076" transform="rotate(-43.562 35.373 47.758)"/><rect width="5.294" height="2.248" x="28.634" y="58.807" transform="rotate(-6.927 31.28 59.918)"/></g></g></svg>