<svg xmlns="http://www.w3.org/2000/svg" enable-background="new 0 0 100 100" viewBox="0 0 100 100" width="100" height="100"><polygon fill="#b5b5b5" points="21.813 15.047 21.813 84.952 26.323 84.952 26.323 19.558 57.893 19.558 57.893 84.952 62.403 84.952 62.403 15.047"/><path d="M63.53,86.08h-6.765V20.685H27.45V86.08h-6.765V13.92H63.53V86.08z M59.02,83.825h2.255v-67.65H22.94v67.65h2.255       V18.43H59.02V83.825z"/><rect width="9.02" height="2.255" x="61.275" y="83.825"/><rect width="9.02" height="2.255" x="13.92" y="83.825"/><rect width="31.57" height="65.395" x="26.323" y="19.558" fill="#fdad57"/><path d="M59.02,86.08H25.195V18.43H59.02V86.08z M27.45,83.825h29.315v-63.14H27.45V83.825z"/><polygon fill="#fdf09e" points="30.833 50.001 30.833 24.067 53.382 24.067 53.382 80.442 30.833 80.442 30.833 63.389"/><polygon points="54.51 81.57 29.705 81.57 29.705 62.262 31.96 62.262 31.96 79.315 52.255 79.315 52.255 25.195 31.96 25.195 31.96 51.127 29.705 51.127 29.705 22.94 54.51 22.94"/><polygon points="31.96 59.02 29.705 59.02 29.705 53.382 37.034 53.382 37.034 55.638 31.96 55.638"/><rect width="12.762" height="2.255" x="41.414" y="63.198" transform="rotate(-44.992 47.79 64.323)"/><circle cx="66.912" cy="50" r="18.04" fill="#874c21"/><path d="M66.912,69.168c-10.569,0-19.167-8.598-19.167-19.168s8.598-19.167,19.167-19.167c10.569,0,19.168,8.598,19.168,19.167     S77.482,69.168,66.912,69.168z M66.912,33.088C57.586,33.088,50,40.674,50,50s7.586,16.912,16.912,16.912     c9.326,0,16.912-7.586,16.912-16.912S76.238,33.088,66.912,33.088z"/><g><polygon fill="#fdf09e" points="77.085 56.74 67.476 62.643 57.868 56.74 67.476 50.838"/><path d="M67.476,63.966l-11.762-7.225l11.762-7.226l11.762,7.226L67.476,63.966z M60.022,56.741l7.454,4.578l7.454-4.578     l-7.454-4.579L60.022,56.741z"/><polygon fill="#fdf09e" points="77.085 50.564 67.476 56.466 57.868 50.564 67.476 44.661"/><path d="M67.476,57.79l-11.762-7.226l11.762-7.227l11.762,7.227L67.476,57.79z M60.022,50.564l7.454,4.579l7.454-4.579     l-7.454-4.579L60.022,50.564z"/><polygon fill="#fdf09e" points="77.085 44.387 67.476 50.29 57.868 44.387 67.476 38.485"/><path d="M67.476,51.613l-11.762-7.227l11.762-7.225l11.762,7.225L67.476,51.613z M60.022,44.387l7.454,4.579l7.454-4.579     l-7.454-4.578L60.022,44.387z"/></g></svg>