<svg xmlns="http://www.w3.org/2000/svg" enable-background="new 0 0 504 456" viewBox="0 0 504 456" width="504" height="456"><path fill="#655f68" d="M398.96,63.43c15.39,21.963,19.849,42.397,0,59.43c-10.622,15.979-19.618,13.898-27.55,0    c0-12.19,0-24.38,0-36.57C380.59,78.67,389.78,71.05,398.96,63.43z"/><path fill="#e58e1a" d="M500 164v82.29l-101.04 0c-16.222-46.439-20.518-88.986 0-123.43V63.43C454.76 63.43 500 108.46 500 164zM183.11 314.86c-13.596 12.821-26.004 14.347-36.74 0l-41.33-33.89c-9.299-10.623-11.452-20.795 0-30.11L183.11 314.86zM371.41 250.86c11.444 11.461 12.636 21.646 0 30.11l-41.34 33.89c-15.833 17.801-27.567 15.254-36.74 0L371.41 250.86z"/><path fill="#ef9d26" d="M371.41 122.86c12.494 9.141 12.488 18.285 0 27.43h-27.56c-29.428-15.034-29.443-24.18 0-27.43H371.41zM68.13 122.86h-22.8v27.43h22.8.01c6.635-9.762 7.689-19.004 0-27.43H68.13zM132.59 122.86c15.313 9.143 15.313 18.287 0 27.43h-27.55c-7.974-9.15-7.974-18.293 0-27.43H132.59zM371.41 314.86c6.903 9.368 8.144 18.552 0 27.43H105.04c-20.195-12.462-22.906-22.051 0-27.43h41.33 36.74 55.11 55.11 36.74H371.41z"/><path fill="#ffc05a" d="M105.04,424.57c6.12,9.14,12.24,18.29,18.37,27.43h-64.3c6.12-9.14,12.25-18.29,18.37-27.43    C77.48,406.378,105.04,406.378,105.04,424.57z"/><polygon fill="#f9b132" points="371.41 122.86 371.41 150.29 371.41 250.86 371.41 280.97 371.41 314.86 371.41 342.29 371.41 372.06 398.96 372.05 398.96 246.29 398.96 122.86"/><polygon fill="#f9b132" points="86.45 122.86 77.48 219.9 77.48 424.57 105.04 424.57 105.04 342.29 105.04 314.86 105.04 280.97 105.04 250.86 105.04 150.29 105.04 122.86"/><path fill="#5d5560" d="M398.96,372.06c16.05,5.64,27.56,20.88,27.56,38.8c0,22.72-18.51,41.14-41.33,41.14    c-22.83,0-41.34-18.42-41.34-41.14c0-17.92,11.5-33.16,27.56-38.8c4.31-1.52,8.95-2.35,13.78-2.35c4.83,0,9.46,0.83,13.77,2.34    V372.06z"/><path fill="#655f68" d="M385.19,397.14c7.6,0,13.77,6.14,13.77,13.72c0,7.57-6.17,13.71-13.77,13.71    c-7.61,0-13.78-6.14-13.78-13.71C371.41,403.28,377.58,397.14,385.19,397.14z"/><path fill="#f9b132" d="M343.85,150.29v72.66c0,15-8.98,28.66-22.91,34.39c-35.53,14.62-66.77,16.37-82.72,16.37    c-34.33,0-62.59-8.13-82.56-16.32c-13.99-5.74-23.07-19.39-23.07-34.46v-72.64v-27.43v-5.56c0-19.75,8.37-38.59,23.06-51.88    c9.15-8.28,18.31-16.57,27.46-24.85c39.165-18.871,75.755-17.702,110.22,0c9.16,8.28,18.31,16.57,27.47,24.85    c14.68,13.29,23.05,32.13,23.05,51.88v5.56V150.29z"/><path fill="#ffc05a" d="M293.4 13.14c7.57 0 13.71 6.14 13.71 13.72 0 3.78-1.53 7.21-4.02 9.69-2.48 2.49-5.91 4.02-9.69 4.02h-.07H183.11h-.06c-7.58 0-13.72-6.14-13.72-13.71 0-3.79 1.53-7.22 4.02-9.7 2.48-2.48 5.91-4.02 9.7-4.02H293.4zM86.45 122.86c.15 4.51.22 9.08.22 13.71 0 31.57-3.44 60.56-9.19 83.33-7.58 30.04-19.16 49.24-32.15 49.24C22.51 269.14 4 209.79 4 136.57S22.51 4 45.33 4C66.72 4 84.31 56.08 86.45 122.86zM68.3 136.57c0-4.64-.06-9.21-.16-13.71C66.78 66.21 57.09 22.29 45.33 22.29c-12.68 0-22.96 51.16-22.96 114.28s10.28 114.29 22.96 114.29c11.76 0 21.44-43.92 22.81-100.57C68.24 145.79 68.3 141.21 68.3 136.57z"/><path fill="#3a322b" d="M151.929,148.598c0.932-2.003,3.313-2.872,5.314-1.939c25.18,11.718,53.182,17.912,80.979,17.912   c27.797,0,55.799-6.194,80.979-17.912c2.002-0.932,4.381-0.064,5.314,1.938c0.932,2.003,0.064,4.382-1.938,5.314   c-26.23,12.207-55.399,18.659-84.354,18.659c-28.955,0-58.125-6.452-84.354-18.659C151.865,152.98,150.997,150.601,151.929,148.598   z M385.185,393.143c9.803,0,17.778,7.946,17.778,17.714s-7.975,17.714-17.778,17.714s-17.778-7.947-17.778-17.714   S375.382,393.143,385.185,393.143z M385.185,401.143c-5.392,0-9.778,4.357-9.778,9.714s4.386,9.714,9.778,9.714   s9.778-4.358,9.778-9.714S390.577,401.143,385.185,401.143z M504,164v82.286c0,2.209-1.791,4-4,4h-97.037v119.049   c16.185,6.898,27.556,22.911,27.556,41.522c0,24.892-20.336,45.143-45.333,45.143c-24.997,0-45.333-20.251-45.333-45.143   c0-18.611,11.37-34.624,27.555-41.522v-23.049h-258.37v77.07l17.694,26.418c0.821,1.227,0.9,2.807,0.205,4.11   S124.884,456,123.407,456H59.111c-1.477,0-2.833-0.813-3.529-2.116s-0.616-2.883,0.205-4.11l17.694-26.418V245.027   c-7.792,18.455-17.4,28.116-28.148,28.116c-13.126,0-24.553-14.398-33.046-41.639C4.364,206.09,0,172.375,0,136.571   c0-35.804,4.364-69.518,12.288-94.933C20.78,14.398,32.208,0,45.333,0c13.125,0,24.553,14.398,33.045,41.639   C84.98,62.812,89.1,89.754,90.295,118.857h38.298v-1.555c0-20.84,8.883-40.831,24.373-54.846l21.961-19.873   c-5.69-2.951-9.594-8.886-9.594-15.726c0-9.768,7.946-17.714,17.714-17.714h110.35c9.768,0,17.714,7.946,17.714,17.714   c0,6.84-3.904,12.775-9.594,15.726l21.961,19.874c15.489,14.016,24.373,34.007,24.373,54.846v1.555h19.555V86.286   c0-1.19,0.53-2.319,1.446-3.079l27.556-22.857c0.732-0.607,1.638-0.918,2.554-0.918v-0.003c0.015,0,0.03,0,0.045,0   c0.005,0,0.01,0,0.016,0C456.913,59.462,504,106.359,504,164z M375.407,118.857h19.556V71.944l-19.556,16.221V118.857z    M367.407,289.425l-26.144,21.432h26.144V289.425z M367.407,259.308l-62.885,51.549h24.122l38.763-31.775V259.308z    M109.037,310.857h26.145l-26.145-21.432V310.857z M171.923,310.857l-62.885-51.549v19.774l38.763,31.775H171.923z    M291.904,310.857l75.503-61.893v-94.678h-19.555v68.665c0,16.79-9.967,31.74-25.392,38.087   c-26.512,10.91-55.642,16.677-84.238,16.677c-28.892,0-57.18-5.594-84.077-16.625c-15.522-6.367-25.553-21.344-25.553-38.156   v-68.647h-19.556v94.678l75.504,61.893H291.904z M347.852,126.857v19.429h19.555v-19.429H347.852z M173.333,26.857   c0,5.356,4.357,9.714,9.714,9.714h110.35c5.356,0,9.714-4.358,9.714-9.714s-4.358-9.714-9.714-9.714h-110.35   C177.691,17.143,173.333,21.5,173.333,26.857z M136.593,222.933c0,13.552,8.082,25.624,20.589,30.754   c25.929,10.635,53.195,16.027,81.041,16.027c27.562,0,55.639-5.559,81.194-16.076c12.415-5.108,20.436-17.154,20.436-30.688   V117.302c0-18.583-7.924-36.412-21.741-48.915l-26.319-23.816h-107.14l-26.319,23.816c-13.816,12.502-21.741,30.331-21.741,48.915   V222.933z M128.593,126.857h-19.556v19.429h19.556V126.857z M90.546,126.857c0.072,3.22,0.12,6.455,0.12,9.714   c0,30.802-3.237,60.042-9.185,83.797v200.203l19.556,0V126.857H90.546z M82.667,136.571C82.667,60.802,62.992,8,45.333,8   S8,60.802,8,136.571s19.675,128.572,37.333,128.572S82.667,212.34,82.667,136.571z M102.902,428.572l-23.285,0L66.604,448h49.31   L102.902,428.572z M367.407,338.286v-19.429h-258.37v19.429H367.407z M385.185,373.714c-20.585,0-37.333,16.662-37.333,37.143   c0,20.481,16.748,37.143,37.333,37.143c20.586,0,37.333-16.662,37.333-37.143C422.519,390.376,405.771,373.714,385.185,373.714z    M394.963,366.784V126.857h-19.556v239.927c3.151-0.693,6.42-1.069,9.778-1.069S391.812,366.091,394.963,366.784z M496,164   c0-51.916-41.379-94.387-93.037-96.483v55.34v119.429H496V164z M72.296,136.571c0,40.913-5.635,118.286-26.963,118.286   s-26.963-77.373-26.963-118.286S24.006,18.286,45.333,18.286S72.296,95.659,72.296,136.571z M57.649,216.596   c3.438-17.111,5.634-38.784,6.37-62.31H45.333c-2.209,0-4-1.791-4-4v-27.429c0-2.209,1.791-4,4-4h18.685   c-0.736-23.526-2.932-45.199-6.37-62.31c-4.963-24.702-10.698-30.261-12.315-30.261s-7.353,5.56-12.315,30.261   c-4.287,21.334-6.647,49.754-6.647,80.024s2.361,58.69,6.647,80.024c4.963,24.702,10.698,30.261,12.315,30.261   S52.686,241.297,57.649,216.596z M64.209,126.857H49.333v19.429h14.876c0.054-3.214,0.087-6.451,0.087-9.714   S64.263,130.071,64.209,126.857z"/></svg>