<svg xmlns="http://www.w3.org/2000/svg" enable-background="new 0 0 400 504" viewBox="0 0 400 504" width="400" height="504"><path fill="#655f68" d="M271.13,16.63C266.53,8.81,258.09,4,248.96,4h-9.76h-29.4H200h-9.8h-29.4h-9.76    c-9.13,0-17.57,4.81-22.17,12.63c-8.19,13.94-16.38,27.87-24.57,41.81h191.4C287.51,44.5,279.32,30.57,271.13,16.63z"/><path fill="#cdc7b9" d="M82.4 213.1c26.697 17.532 19.621 29.288 0 38.9H62.8c-23.388-18.854-23.393-31.822 0-38.9H82.4zM337.2 213.1c24.668 12.833 19.508 25.828 0 38.9h-19.6c-19.6-12.971-19.6-25.937 0-38.9H337.2z"/><path fill="#e15c63" d="M244.1,363.84L200,402.75l-44.1-38.91c9.8,0,19.6,0,29.4,0c0-6.48,0-12.96,0-19.45l14.7-10.907    l14.7,10.907c0,6.49,0,12.97,0,19.45C224.5,363.84,234.3,363.84,244.1,363.84z"/><path fill="#aaa" d="M62.8,451.37c0,9.73,0,19.45,0,29.18c16.33,6.48,32.67,12.97,49,19.45c29.4,0,58.8,0,88.2,0    s58.8,0,88.2,0c16.33-6.48,32.67-12.97,49-19.45c0-9.73,0-19.45,0-29.18H62.8z"/><path fill="#e4e4e4" d="M312.7,422.2l-28.854,4.493L268.6,422.2H200h-68.6H87.3c-8.17,0-16.33,0-24.5,0    c0,9.72,0,19.45,0,29.17c16.33,6.49,32.67,12.97,49,19.45c29.4,0,58.8,0,88.2,0s58.8,0,88.2,0c16.33-6.48,32.67-12.96,49-19.45    c0-9.72,0-19.45,0-29.17C329.03,422.2,320.87,422.2,312.7,422.2z"/><path fill="#5d5560" d="M302.9 290.9v97.26c-12.522 8.478-22.625 10.958-34.3 0V290.9h34.12C302.78 290.9 302.84 290.9 302.9 290.9zM131.4 290.9v97.26c-12.879 9.996-22.709 9.43-34.3 0V290.9c.06 0 .12 0 .18 0H131.4z"/><path fill="#bcb9ad" d="M312.7 422.2c0 3.24 0 6.48 0 9.72h-44.1v-9.72-34.04c12.88 0 22.71 0 34.3 0 3.11 0 6.35 0 9.8 0C312.7 399.51 312.7 410.85 312.7 422.2zM131.4 422.2v9.72H87.3c0-3.24 0-6.48 0-9.72 0-11.35 0-22.69 0-34.04 3.45 0 6.69 0 9.8 0 11.59 0 21.42 0 34.3 0V422.2zM273.5 252l-4.9 27.16v11.74h34.12c.06 0 .12 0 .18 0 8.14-.1 14.7-6.67 14.7-14.77V252C302.8 240.074 288.103 240.486 273.5 252zM126.5 252c-12.96-18.796-27.651-18.888-44.1 0v24.13c0 8.1 6.56 14.67 14.7 14.77.06 0 .12 0 .18 0h34.12v-11.74L126.5 252z"/><path fill="#cdc7b9" d="M273.5,252c-0.82,6.5-1.64,13-2.46,19.5c-0.35,2.75-1.19,5.33-2.44,7.66    c-3.77,7.04-11.24,11.74-19.7,11.74L200,303.837L151.1,290.9c-8.46,0-15.93-4.7-19.7-11.74c-1.25-2.33-2.09-4.91-2.44-7.66    c-0.82-6.5-1.64-13-2.46-19.5l71.881-22.411L273.5,252z"/><path fill="#5d5560" d="M248.9,290.9v14.51c0,8.1-6.62,14.67-14.79,14.67h-9.61l-24.5,9.396l-24.5-9.396h-9.61    c-8.17,0-14.79-6.57-14.79-14.67V290.9H200H248.9z"/><polygon fill="#655f68" points="224.5 320.08 224.5 344.39 214.7 344.39 200 344.39 185.3 344.39 175.5 344.39 175.5 320.08 200 320.08"/><path fill="#f69552" d="M295.7,58.44c-2.37-0.62-4.87-0.95-7.44-0.95H200h-88.26c-2.57,0-5.07,0.33-7.44,0.95    c-12.6,3.27-21.9,14.64-21.9,28.17V213.1l115.053,22.23l37.957-22.23h0.01h42.92c12.006,19.377,25.247,16.596,39.26,0V86.61    C317.6,73.08,308.3,61.71,295.7,58.44z"/><path fill="#5d5560" d="M317.6,213.1V252h-44.1H200h-73.5H82.4v-38.9H200h35.41h0.01c0.14,1.88,0.54,3.74,1.22,5.53    c3.89,10.27,16.31,16.89,27.89,12.58c5.1-1.9,9.07-5.55,11.47-10.02c1.37-2.54,2.13-5.29,2.34-8.09H317.6z"/><path fill="#604533" d="M249,106.07v47.57c-0.35-0.61-0.69-1.23-1.04-1.84c-3.23-5.71-10.19-8.23-16.37-5.93    c-7.68,2.86-10.99,11.84-6.97,18.94c2.68,4.75,5.37,9.5,8.06,14.25H200h-34.34c-8.1,0-14.66-6.51-14.66-14.55v-58.44    c0-8.03,6.56-14.54,14.66-14.54H200h34.34C242.44,91.53,249,98.04,249,106.07z"/><path fill="#655f68" d="M275.44,200.39c2.21,3.91,3.23,8.36,2.9,12.71c-0.21,2.8-0.97,5.55-2.34,8.09    c-2.4,4.47-6.37,8.12-11.47,10.02c-11.58,4.31-24-2.31-27.89-12.58c-0.68-1.79-1.08-3.65-1.22-5.53    c-0.27-3.26,0.25-6.58,1.49-9.72c2.46-6.26,2.01-13.27-1.3-19.13c-0.98-1.73-1.95-3.46-2.93-5.19c-2.69-4.75-5.38-9.5-8.06-14.25    c-4.02-7.1-0.71-16.08,6.97-18.94c6.18-2.3,13.14,0.22,16.37,5.93c0.35,0.61,0.69,1.23,1.04,1.84    C257.81,169.23,266.63,184.8,275.44,200.39z"/><path fill="#5d5560" d="M366.6 106.12l29.4 19.45v136.04c0 16.18-13.11 29.29-29.29 29.29h-.22c-16.18 0-29.29-13.11-29.29-29.29V252v-38.9-87.53L366.6 106.12zM33.4 108.843l29.4 16.727v87.53V252v9.61c0 16.18-13.11 29.29-29.29 29.29h-.22C17.11 290.9 4 277.79 4 261.61V125.57L33.4 108.843z"/><path fill="#655f68" d="M396 115.95v9.62h-29.4-29.4v-9.62c0-16.17 13.11-29.28 29.29-29.28h.22C382.89 86.67 396 99.78 396 115.95zM62.8 115.95v9.62H33.4 4v-9.62c0-16.17 13.11-29.28 29.29-29.28h.22C49.69 86.67 62.8 99.78 62.8 115.95z"/><path fill="#dd864a" d="M296.03,213.1h-17.69c0.33-4.35-0.69-8.8-2.9-12.71c-8.81-15.59-17.63-31.16-26.44-46.75v-2.22    c0.18-0.09,0.36-0.16,0.54-0.23c6.18-2.3,13.14,0.22,16.37,5.93c0.35,0.61,0.69,1.23,1.04,1.84    c8.81,15.59,17.63,31.16,26.44,46.75C294.7,208.03,295.59,210.54,296.03,213.1z"/><path fill="#524956" d="M296.03 213.1c.3 1.76.39 3.55.26 5.32-.21 2.8-.97 5.55-2.34 8.09-2.4 4.47-6.37 8.12-11.47 10.02-7.96 2.96-16.32.76-22.03-4.25 1.36-.21 2.72-.57 4.08-1.07 5.1-1.9 9.07-5.55 11.47-10.02 1.37-2.54 2.13-5.29 2.34-8.09H296.03zM302.9 290.9v24.19l-34.3-.31V290.9h34.12C302.78 290.9 302.84 290.9 302.9 290.9zM131.4 290.9v22.63l-34.3-.31V290.9c.06 0 .12 0 .18 0H131.4z"/><path fill="#5d5560" d="M33.4 133.57c-2.209 0-4 1.791-4 4V252c0 2.209 1.791 4 4 4s4-1.791 4-4V137.57C37.4 135.361 35.609 133.57 33.4 133.57zM366.6 133.57c-2.209 0-4 1.791-4 4V252c0 2.209 1.791 4 4 4s4-1.791 4-4V137.57C370.6 135.361 368.809 133.57 366.6 133.57z"/><path fill="#3a322b" d="M33.512,82.667h-0.224C14.933,82.667,0,97.6,0,115.955v145.659   c0,18.355,14.933,33.288,33.288,33.288h0.224c18.355,0,33.288-14.933,33.288-33.288V256h11.6v20.132   c0,8.919,6.297,16.391,14.7,18.29v89.735h-5.8c-2.209,0-4,1.791-4,4v30.04H62.8c-2.209,0-4,1.791-4,4v29.176v29.176   c0,1.64,1,3.113,2.524,3.718l49,19.451c0.47,0.187,0.971,0.282,1.476,0.282h176.4c0.505,0,1.006-0.096,1.476-0.282l49-19.451   c1.523-0.605,2.524-2.078,2.524-3.718v-29.176v-29.176c0-2.209-1.791-4-4-4h-20.5v-30.04c0-2.209-1.791-4-4-4h-5.8v-89.735   c8.403-1.899,14.7-9.371,14.7-18.29V256h11.6v5.614c0,18.355,14.933,33.288,33.288,33.288h0.224   c18.355,0,33.288-14.933,33.288-33.288V115.955c0-18.355-14.933-33.288-33.288-33.288h-0.224   c-18.355,0-33.288,14.933-33.288,33.288v93.144h-11.6V86.611c0-14.771-9.787-27.311-23.257-31.568l-23.769-40.436   C269.279,5.597,259.464,0,248.961,0h-97.922c-10.503,0-20.318,5.597-25.614,14.607l-23.769,40.436   C88.187,59.3,78.4,71.84,78.4,86.611v122.487H66.8v-93.144C66.8,97.6,51.867,82.667,33.512,82.667z M33.288,90.667h0.224   c13.944,0,25.288,11.344,25.288,25.288v5.614H8v-5.614C8,102.011,19.344,90.667,33.288,90.667z M33.512,286.902h-0.224   C19.344,286.902,8,275.558,8,261.614V129.569h21.4V252c0,2.209,1.791,4,4,4s4-1.791,4-4V129.569h21.4v132.045   C58.8,275.558,47.456,286.902,33.512,286.902z M86.4,276.132V256h36.572l2.015,15.999c0.363,2.884,1.196,5.611,2.413,8.11v6.793   H97.283C91.282,286.902,86.4,282.07,86.4,276.132z M232.019,217.098c0.236,0.998,0.513,1.986,0.878,2.948   c3.829,10.096,13.898,16.472,24.321,16.472c2.919,0,5.866-0.5,8.712-1.56c5.816-2.165,10.644-6.381,13.592-11.873   c1.025-1.908,1.776-3.92,2.258-5.988H313.6V248H86.4v-30.902H232.019z M245,143.319c-4.363-2.517-9.753-3.082-14.808-1.201   c0,0,0,0,0,0c-4.773,1.776-8.509,5.528-10.247,10.292c-1.729,4.737-1.295,9.973,1.189,14.365l4.685,8.283h-60.163   c-5.875,0-10.656-4.73-10.656-10.544v-58.441c0-5.814,4.78-10.544,10.656-10.544h68.688c5.875,0,10.656,4.73,10.656,10.544V143.319   z M228.098,162.837c-1.33-2.35-1.562-5.151-0.638-7.684c0.935-2.561,2.947-4.579,5.522-5.538v0   c4.379-1.628,9.213,0.119,11.496,4.156l27.478,48.584c3.043,5.38,3.241,11.873,0.517,16.945c-2.028,3.776-5.343,6.674-9.334,8.16   c-9.896,3.68-19.757-2.329-22.763-10.252c-1.459-3.848-1.37-8.238,0.252-12.362c2.927-7.441,2.368-15.667-1.536-22.57   L228.098,162.837z M135.4,289.718c3.385,2.506,7.384,4.215,11.704,4.876v10.816c0,10.294,8.426,18.67,18.782,18.67h5.614v20.314   c0,2.209,1.791,4,4,4h5.8v11.451h-25.4c-1.664,0-3.153,1.03-3.742,2.585c-0.588,1.556-0.152,3.314,1.096,4.414l44.1,38.902   c0.756,0.667,1.701,1,2.646,1s1.89-0.333,2.646-1l44.1-38.902c1.248-1.1,1.684-2.858,1.096-4.414   c-0.588-1.556-2.078-2.585-3.742-2.585h-25.4v-11.451h5.8c2.209,0,4-1.791,4-4v-20.314h5.614c10.356,0,18.782-8.375,18.782-18.67   v-10.816c4.32-0.66,8.319-2.369,11.704-4.876v128.479H135.4V289.718z M214.7,367.843h18.819L200,397.411l-33.519-29.568H185.3   c2.209,0,4-1.791,4-4v-15.451h21.4v15.451C210.7,366.052,212.491,367.843,214.7,367.843z M179.5,340.393v-16.314h41v16.314H179.5z    M165.886,316.079c-5.945,0-10.782-4.787-10.782-10.67v-10.507h89.792v10.507c0,5.883-4.837,10.67-10.782,10.67H165.886z    M267.075,270.999c-1.142,9.066-8.957,15.903-18.179,15.903h-97.792c-9.222,0-17.038-6.836-18.179-15.903L131.036,256h137.929   L267.075,270.999z M101.1,294.902h26.3v89.255h-26.3V294.902z M91.3,392.157h36.1v35.765H91.3V392.157z M287.436,496H112.564   L66.8,477.833v-20.569l43.524,17.277c0.47,0.187,0.971,0.282,1.476,0.282h176.4c0.505,0,1.006-0.096,1.476-0.282l43.524-17.277   v20.569L287.436,496z M316.7,431.921v-5.725h16.5v22.46l-45.765,18.167h-174.87L66.8,448.657v-22.46h16.5v5.725   c0,2.209,1.791,4,4,4h44.1c2.209,0,4-1.791,4-4v-5.725h129.2v5.725c0,2.209,1.791,4,4,4h44.1   C314.909,435.921,316.7,434.13,316.7,431.921z M308.7,427.921h-36.1v-35.765h36.1V427.921z M272.6,384.157v-89.255h26.3v89.255   H272.6z M313.6,276.132c0,5.938-4.882,10.77-10.883,10.77H272.6v-6.793c1.217-2.499,2.049-5.226,2.413-8.11L277.028,256H313.6   V276.132z M366.712,286.902h-0.224c-13.944,0-25.288-11.344-25.288-25.288V129.569h21.4V252c0,2.209,1.791,4,4,4s4-1.791,4-4   V129.569H392v132.045C392,275.558,380.656,286.902,366.712,286.902z M366.488,90.667h0.224c13.944,0,25.288,11.344,25.288,25.288   v5.614h-50.8v-5.614C341.2,102.011,352.544,90.667,366.488,90.667z M333.2,217.098V248h-11.6v-30.902H333.2z M132.322,18.661   C136.187,12.085,143.359,8,151.039,8h3.266l-11.778,23.376c-0.994,1.973-0.2,4.378,1.772,5.372   c0.577,0.291,1.191,0.429,1.797,0.429c1.462,0,2.872-0.806,3.575-2.201L163.264,8h21.373l-8.029,23.902   c-0.703,2.094,0.424,4.362,2.518,5.066c0.423,0.142,0.852,0.209,1.274,0.209c1.671,0,3.229-1.056,3.792-2.727L193.076,8h13.847   l8.885,26.45c0.562,1.671,2.12,2.727,3.792,2.727c0.422,0,0.852-0.067,1.274-0.209c2.094-0.704,3.221-2.972,2.518-5.066L215.363,8   h21.373l13.591,26.976c0.703,1.396,2.112,2.201,3.575,2.201c0.605,0,1.22-0.138,1.797-0.429c1.973-0.994,2.767-3.399,1.772-5.372   L245.695,8h3.266c7.68,0,14.852,4.085,18.717,10.661l20.473,34.829H111.849L132.322,18.661z M86.4,86.611   c0-13.852,11.369-25.121,25.344-25.121h176.512c13.975,0,25.344,11.269,25.344,25.121v122.487h-31.294   c-0.343-3.652-1.47-7.292-3.387-10.68L253,152.589v-46.515c0-10.226-8.369-18.544-18.656-18.544h-68.688   c-10.287,0-18.656,8.319-18.656,18.544v58.441c0,10.225,8.369,18.544,18.656,18.544h64.687l1.786,3.158   c2.711,4.793,3.095,10.516,1.055,15.703c-0.923,2.346-1.487,4.763-1.716,7.179H86.4V86.611z M78.4,217.098V248H66.8v-30.902H78.4z"/></svg>