<svg xmlns="http://www.w3.org/2000/svg" enable-background="new 0 0 100 100" viewBox="0 0 100 100" width="100" height="100"><polygon fill="#874c21" points="21.813 15.047 21.813 84.952 26.323 84.952 26.323 19.558 57.893 19.558 57.893 84.952 62.403 84.952 62.403 15.047"/><path d="M63.53,86.08h-6.765V20.685H27.45V86.08h-6.765V13.92H63.53V86.08z M59.02,83.825h2.255v-67.65H22.94v67.65h2.255       V18.43H59.02V83.825z"/><rect width="9.02" height="2.255" x="61.275" y="83.825"/><rect width="9.02" height="2.255" x="13.92" y="83.825"/><rect width="31.57" height="65.395" x="26.323" y="19.558" fill="#fdad57"/><path d="M59.02,86.08H25.195V18.43H59.02V86.08z M27.45,83.825h29.315v-63.14H27.45V83.825z"/><polygon points="31.96 59.02 29.705 59.02 29.705 53.382 37.034 53.382 37.034 55.638 31.96 55.638"/><rect width="12.762" height="2.255" x="41.414" y="63.198" transform="rotate(-44.992 47.794 64.325)"/><circle cx="66.912" cy="50" r="18.04" fill="#fdf09e"/><path d="M66.912,69.168c-10.569,0-19.167-8.598-19.167-19.168s8.598-19.167,19.167-19.167S86.08,39.431,86.08,50     S77.482,69.168,66.912,69.168z M66.912,33.088C57.586,33.088,50,40.674,50,50s7.586,16.912,16.912,16.912     c9.326,0,16.912-7.586,16.912-16.912S76.238,33.088,66.912,33.088z"/><path d="M61.275 60.147v-2.255h2.255v2.255C61.275 60.147 63.53 60.147 61.275 60.147zM61.275 55.638v-2.255h2.255v2.255C61.275 55.638 63.53 55.638 61.275 55.638zM61.275 51.127v-2.255h2.255v2.255C61.275 51.127 63.53 51.127 61.275 51.127zM61.275 46.618v-2.255h2.255v2.255C61.275 46.618 63.53 46.618 61.275 46.618zM61.275 42.107v-2.255h2.255v2.255C61.275 42.107 63.53 42.107 61.275 42.107zM65.785 64.658v-2.255h2.255v2.255C65.785 64.658 68.04 64.658 65.785 64.658zM65.785 60.147v-2.255h2.255v2.255C65.785 60.147 68.04 60.147 65.785 60.147zM65.785 55.638v-2.255h2.255v2.255C65.785 55.638 68.04 55.638 65.785 55.638zM65.785 51.127v-2.255h2.255v2.255C65.785 51.127 68.04 51.127 65.785 51.127zM65.785 46.618v-2.255h2.255v2.255C65.785 46.618 68.04 46.618 65.785 46.618zM65.785 42.107v-2.255h2.255v2.255C65.785 42.107 68.04 42.107 65.785 42.107zM65.785 37.597v-2.255h2.255v2.255C65.785 37.597 68.04 37.597 65.785 37.597zM70.295 60.147v-2.255h2.255v2.255C70.295 60.147 72.55 60.147 70.295 60.147zM70.295 55.638v-2.255h2.255v2.255C70.295 55.638 72.55 55.638 70.295 55.638zM70.295 51.127v-2.255h2.255v2.255C70.295 51.127 72.55 51.127 70.295 51.127zM70.295 46.618v-2.255h2.255v2.255C70.295 46.618 72.55 46.618 70.295 46.618zM70.295 42.107v-2.255h2.255v2.255C70.295 42.107 72.55 42.107 70.295 42.107zM74.805 60.147v-2.255h2.255v2.255C74.805 60.147 77.06 60.147 74.805 60.147zM74.805 55.638v-2.255h2.255v2.255C74.805 55.638 77.06 55.638 74.805 55.638zM74.805 51.127v-2.255h2.255v2.255C74.805 51.127 77.06 51.127 74.805 51.127zM74.805 46.618v-2.255h2.255v2.255C74.805 46.618 77.06 46.618 74.805 46.618zM74.805 42.107v-2.255h2.255v2.255C74.805 42.107 77.06 42.107 74.805 42.107zM56.765 60.147v-2.255h2.255v2.255C56.765 60.147 59.02 60.147 56.765 60.147zM56.765 55.638v-2.255h2.255v2.255C56.765 55.638 59.02 55.638 56.765 55.638zM56.765 51.127v-2.255h2.255v2.255C56.765 51.127 59.02 51.127 56.765 51.127zM56.765 46.618v-2.255h2.255v2.255C56.765 46.618 59.02 46.618 56.765 46.618zM56.765 42.107v-2.255h2.255v2.255C56.765 42.107 59.02 42.107 56.765 42.107zM52.255 55.638v-2.255h2.255v2.255C52.255 55.638 54.51 55.638 52.255 55.638zM52.255 51.127v-2.255h2.255v2.255C52.255 51.127 54.51 51.127 52.255 51.127zM52.255 46.618v-2.255h2.255v2.255C52.255 46.618 54.51 46.618 52.255 46.618zM79.315 55.638v-2.255h2.255v2.255C79.315 55.638 81.57 55.638 79.315 55.638zM79.315 51.127v-2.255h2.255v2.255C79.315 51.127 81.57 51.127 79.315 51.127zM79.315 46.618v-2.255h2.255v2.255C79.315 46.618 81.57 46.618 79.315 46.618z"/></svg>