<svg xmlns="http://www.w3.org/2000/svg" enable-background="new 0 0 50 50" viewBox="0 0 50 50" width="50" height="50"><path fill="#D8D8D8" d="M48.2111,31.2637c-0.5025-0.2922-1.1878-0.2467-1.9461,0.1825         c-0.6944,0.4024-1.3249,1.06-1.8092,1.8368c-0.1918,0.3016-0.3564,0.6215-0.4842,0.9503         c-0.2741,0.6393-0.4295,1.3068-0.4295,1.9278c0,0.8588,0.3107,1.4709,0.7949,1.7542         C10.3191,17.7819,11.4886,19.7114,11.3616,17.7041c-0.0183-0.0821-0.0183-0.1642-0.0183-0.2556         c0-1.069,0.466-2.2842,1.1696-3.2528c0.4477-0.6032,0.9776-1.1145,1.5532-1.4526         C16.1965,11.511,14.1793,11.938,48.2111,31.2637z"/><path fill="#BFBFBF" d="M49,33.0179c0.0091,1.727-1.2152,3.8373-2.7228,4.7055c-1.5076,0.8771-2.732,0.1735-2.732-1.5535         c-0.0091-1.7359,1.206-3.8466,2.7228-4.7144C47.7665,30.5873,49,31.2819,49,33.0179z"/><path fill="#AFAFAF" d="M48.7167,33.1825c0,0.1187-0.0091,0.2284-0.0183,0.3471c-0.0182,0.1463-0.0365,0.3016-0.064,0.4475         c-0.0091,0.046-0.0182,0.0825-0.0274,0.128c-0.3107,1.3067-1.2426,2.659-2.3299,3.2894         c-1.3523,0.7857-2.4487,0.1553-2.4487-1.3888c-0.0091-1.1238,0.5665-2.4306,1.4071-3.3626         c0.0913-0.1093,0.1919-0.2191,0.3015-0.3199c0.0182-0.0178,0.0365-0.0366,0.0548-0.0455         c0.2193-0.1918,0.4386-0.3565,0.6761-0.4934C47.6111,31.0076,48.7167,31.629,48.7167,33.1825z"/><path fill="#929393" d="M48.6313,33.978c-0.0099,0.0498-0.02,0.0801-0.02,0.1299c-0.23,0.9702-0.81,1.9702-1.53,2.6699      c-0.26,0.25-0.52,0.46-0.8,0.6201c-1.36,0.7803-2.45,0.1499-2.45-1.3896c0-0.2002,0.01-0.4004,0.05-0.6104      c0.15-0.96,0.66-1.9897,1.35-2.75c0.1-0.1099,0.2-0.2197,0.31-0.3198c0.01-0.02,0.03-0.04,0.05-0.0503      c0.23,0.0903,0.46,0.21,0.65,0.3701c0.18,0.1401,0.34,0.3301,0.52,0.4902c0.3,0.25,0.69,0.3999,1.07,0.5098      c0.26,0.0601,0.55,0.1201,0.77,0.29C48.6113,33.9477,48.6213,33.9579,48.6313,33.978z"/><path fill="#777676" d="M47.0813,36.7778c-0.26,0.25-0.52,0.46-0.8,0.6201c-1.36,0.7803-2.45,0.1499-2.45-1.3896      c0-0.2002,0.01-0.4004,0.05-0.6104c0.14,0.1499,0.29,0.29,0.48,0.3701c0.28,0.1201,0.6,0.1299,0.91,0.1797      C45.9313,36.0478,46.5213,36.3881,47.0813,36.7778z"/><path fill="#E8E8E8" d="M48.2111,31.2637c-0.5025-0.2922-1.1878-0.2467-1.9461,0.1825c-0.6944,0.4024-1.3249,1.06-1.8092,1.8368     c-0.5025-0.0825-0.9868-0.2467-1.4254-0.5206c-1.6812-1.0511-2.2934-3.4995-4.1756-4.1116     c-1.0964-0.3475-2.4396,0.0089-3.3167-0.7219c-0.3563-0.3016-0.5665-0.7219-0.8406-1.0877     c-1.2791-1.69-3.801-1.9461-5.2081-3.5268c-0.4203-0.4751-0.7309-1.0596-1.2335-1.4437     c-1.2152-0.932-3.0975-0.4109-4.3584-1.2791c-0.8771-0.5938-1.2609-1.7176-2.1198-2.348     c-1.2152-0.9048-3.0426-0.5572-4.2487-1.4709c-0.6396-0.4845-1.0233-1.2795-1.7178-1.6998     c-0.5208-0.3105-1.1513-0.3748-1.7543-0.4475c-0.5391-0.0642-1.0873-0.1557-1.5442-0.4296     c0.4477-0.6032,0.9776-1.1145,1.5532-1.4526C16.1965,11.511,14.1793,11.938,48.2111,31.2637z"/><path fill="#AFAFAF" d="M44.337,37.9152C10.3191,17.7819,11.4886,19.7114,11.3616,17.7041c0.5025,0,1.0142-0.0727,1.5167,0.0094     c1.2244,0.2101,2.1106,1.3157,3.3076,1.6811c0.9228,0.2744,1.9553,0.0825,2.869,0.4203c1.4437,0.53,2.1381,2.1928,3.4447,3.0061     c1.1421,0.7036,2.604,0.6946,3.7461,1.3888c1.1969,0.7312,1.8548,2.1201,3.0335,2.8691c1.0821,0.7026,3.329,0.9661,5.939,3.5178     c0.5939,0.5666,1.1421,1.2153,1.9005,1.5347c0.6396,0.2744,1.3523,0.2833,2.0375,0.3658     c1.7086,0.1825,3.3716,0.7857,4.8152,1.7359c-0.2741,0.6393-0.4295,1.3068-0.4295,1.9278     C43.5421,37.0198,43.8528,37.6319,44.337,37.9152z"/><path fill="#D8D8D8" d="M43.4888,35.4491c-0.5025-0.2922-1.1878-0.2467-1.9461,0.1825         c-2.4655,1.4288-3.5997,5.491-1.9279,6.4691C5.0751,21.6586,6.6211,23.9034,6.6211,21.6339         c0-1.069,0.466-2.2842,1.1696-3.2528c0.84-1.1317,2.3498-2.314,3.4994-1.6445L43.4888,35.4491z"/><path fill="#BFBFBF" d="M41.5549,41.9088c-3.5979,2.0932-3.6342-4.1939-0.0091-6.2679         C45.1256,33.5668,45.2007,39.8092,41.5549,41.9088z"/><path fill="#AFAFAF" d="M43.9761,37.7151c-0.058,0.465-0.0651,0.445-0.0913,0.5755         c-0.843,3.5455-4.7786,5.0547-4.7786,1.9006c-0.0107-1.3139,0.7861-2.8341,1.7086-3.6825         c0.0182-0.0178,0.0365-0.0366,0.0548-0.0455c0.2193-0.1918,0.4386-0.3565,0.6761-0.4934         C42.9073,35.1823,44.1244,35.7915,43.9761,37.7151z"/><path fill="#929393" d="M43.9113,38.1581c-0.7022,3.4937-4.81,5.3314-4.81,2.0298c0-1.8382,1.6234-3.7197,1.77-3.7197      c0.23,0.0898,0.46,0.21,0.65,0.3599c0.4332,0.3608,0.5531,0.7177,1.59,1.0098c0.26,0.0601,0.55,0.1099,0.76,0.29      C43.8813,38.1381,43.9013,38.1479,43.9113,38.1581z"/><path fill="#E8E8E8" d="M43.4888,35.4491c-0.5025-0.2922-1.1878-0.2467-1.9461,0.1825c-0.6944,0.4024-1.3249,1.06-1.8092,1.8368     c-3.0855-0.5068-3.2227-3.8589-5.601-4.6323c-1.0964-0.3475-2.4396,0.0089-3.3167-0.7219     c-0.3563-0.3016-0.5665-0.7219-0.8406-1.0877c-1.2791-1.69-3.801-1.9461-5.2081-3.5268     c-0.4203-0.4751-0.7309-1.0596-1.2335-1.4437c-1.2152-0.932-3.0975-0.4109-4.3584-1.2791     c-0.8771-0.5938-1.2609-1.7176-2.1198-2.348c-1.2152-0.9048-3.0426-0.5572-4.2487-1.4709     c-0.6396-0.4845-1.0233-1.2795-1.7178-1.6998c-0.986-0.5879-2.297-0.2766-3.2984-0.8771c0.84-1.1317,2.3498-2.314,3.4994-1.6445     L43.4888,35.4491z"/><path fill="#BFBFBF" d="M39.6147,42.1007C5.5968,21.9673,6.7664,23.8968,6.6394,21.8895c0.5025,0,1.0142-0.0727,1.5167,0.0094     c1.2244,0.2101,2.1106,1.3157,3.3076,1.6811c0.9228,0.2744,1.9553,0.0825,2.869,0.4203c1.4437,0.53,2.1381,2.1928,3.4447,3.0061     c1.1421,0.7036,2.604,0.6946,3.7461,1.3888c1.1969,0.7312,1.8548,2.1201,3.0335,2.8691c1.0821,0.7026,3.329,0.9661,5.939,3.5178     c1.8324,1.7481,1.7079,1.632,3.938,1.9006c1.7086,0.1825,3.3716,0.7857,4.8152,1.7359     C38.726,39.6393,38.512,41.4555,39.6147,42.1007z"/><path fill="#D8D8D8" d="M37.8677,38.143c-1.8748-1.0902-4.669,2.3112-4.669,4.8973c0,0.8588,0.3107,1.4709,0.7949,1.7542         L1.7949,26.082c-0.4386-0.2556-0.7309-0.7767-0.7766-1.4986C1,24.5013,1,24.4193,1,24.3278         c0-1.6806,1.1559-3.7849,2.7228-4.7055C5.8532,18.3904,3.836,18.8174,37.8677,38.143z"/><path fill="#AFAFAF" d="M35.9338,44.6027c-1.5076,0.8771-2.732,0.1735-2.732-1.5535         c-0.0091-1.7359,1.206-3.8466,2.7228-4.7144C39.5046,36.2607,39.5796,42.5032,35.9338,44.6027z"/><path fill="#BFBFBF" d="M35.9338,44.2739c-1.3523,0.7857-2.4487,0.1553-2.4487-1.3888         c-0.0143-1.7558,1.4551-3.5776,1.7634-3.728C38.916,35.9485,39.5785,42.1608,35.9338,44.2739z"/><path fill="#929393" d="M38.2913,40.8578c-0.2971,1.1886-0.8348,2.1155-1.6,2.8398c-0.24,0.2305-0.49,0.4302-0.7599,0.5801      c-1.35,0.7803-2.45,0.1504-2.45-1.3896c0-1.0768,0.507-2.4835,1.71-3.6904c0.02-0.0098,0.04-0.0298,0.06-0.0396      c0.23,0.0898,0.45,0.21,0.65,0.3599c0.3975,0.3311,0.5098,0.7055,1.59,1.0098c0.2599,0.0601,0.54,0.1201,0.7599,0.29      C38.2613,40.828,38.2813,40.8378,38.2913,40.8578z"/><path fill="#E8E8E8" d="M37.8677,38.143c-1.2596-0.7325-2.9355,0.7044-3.7553,2.0192c-3.0855-0.5068-3.2227-3.8589-5.601-4.6323     c-1.0964-0.3475-2.4396,0.0089-3.3167-0.7219c-0.3563-0.3016-0.5665-0.7219-0.8406-1.0877     c-1.2791-1.69-3.801-1.9461-5.2081-3.5268c-0.4203-0.4751-0.7309-1.0596-1.2335-1.4437     c-1.2152-0.932-3.0975-0.4109-4.3584-1.2791c-0.8771-0.5938-1.2609-1.7176-2.1198-2.348     c-1.2152-0.9048-3.0426-0.5572-4.2487-1.4709c-0.6396-0.4845-1.0233-1.2795-1.7178-1.6998     c-0.986-0.5879-2.297-0.2766-3.2984-0.8771c0.4477-0.6032,0.9776-1.1145,1.5532-1.4526     c0.7584-0.4386,1.4437-0.4845,1.9462-0.1918L37.8677,38.143z"/><g><path fill="#D8D8D8" d="M45.9564,27.8366c-0.5025-0.2922-1.1878-0.2467-1.9461,0.1825         c-0.6944,0.4024-1.3249,1.06-1.8092,1.8368c-0.1918,0.3016-0.3564,0.6215-0.4842,0.9503         c-0.2741,0.6393-0.4295,1.3068-0.4295,1.9278c0,0.8588,0.3107,1.4709,0.7949,1.7542         C7.5428,14.046,9.0887,16.2908,9.0887,14.0213c0-1.069,0.466-2.2842,1.1696-3.2528c0.84-1.1317,2.3498-2.314,3.4994-1.6445         L45.9564,27.8366z"/><path fill="#BFBFBF" d="M46.7453,29.5908c0.0091,1.727-1.2152,3.8373-2.7228,4.7055         c-1.5076,0.8771-2.732,0.1735-2.732-1.5535c-0.0091-1.7359,1.206-3.8466,2.7228-4.7144         C45.5118,27.1602,46.7453,27.8548,46.7453,29.5908z"/><path fill="#AFAFAF" d="M46.462,29.7554c0,0.1187-0.0091,0.2284-0.0183,0.3471c-0.0182,0.1463-0.0365,0.3016-0.064,0.4475         c-0.0091,0.046-0.0182,0.0825-0.0274,0.128c-0.3107,1.3068-1.2426,2.659-2.3299,3.2894         c-1.3523,0.7857-2.4487,0.1553-2.4487-1.3888c-0.0091-1.1238,0.5665-2.4306,1.4071-3.3626         c0.0914-0.1093,0.1919-0.2191,0.3015-0.3199c0.0182-0.0178,0.0365-0.0366,0.0548-0.0455         c0.2193-0.1918,0.4386-0.3565,0.6761-0.4934C45.3565,27.5805,46.462,28.2019,46.462,29.7554z"/><path fill="#929393" d="M46.3798,30.55c-0.0091,0.046-0.0182,0.0825-0.0274,0.128c-0.3107,1.3068-1.2426,2.659-2.3299,3.2894      c-1.3523,0.7857-2.4487,0.1553-2.4487-1.3888c-0.0091-1.1238,0.5665-2.4306,1.4071-3.3626      c0.0914-0.1093,0.1919-0.2191,0.3015-0.3199c0.0182-0.0178,0.0365-0.0366,0.0548-0.0455      c0.2284,0.0915,0.4568,0.2101,0.6487,0.3654c0.1828,0.1463,0.3381,0.3382,0.5208,0.4934      c0.3015,0.2561,0.6853,0.402,1.069,0.5117c0.265,0.0642,0.5483,0.1187,0.7675,0.2927      C46.3524,30.5228,46.3707,30.5317,46.3798,30.55z"/><path fill="#E8E8E8" d="M45.9564,27.8366c-0.5025-0.2922-1.1878-0.2467-1.9461,0.1825c-0.6944,0.4024-1.3249,1.06-1.8092,1.8368     c-0.5025-0.0825-0.9868-0.2467-1.4254-0.5206c-1.6812-1.0511-2.2934-3.4995-4.1756-4.1116     c-1.0964-0.3475-2.4396,0.0089-3.3167-0.7219c-0.3563-0.3016-0.5665-0.7219-0.8406-1.0877     c-1.2791-1.69-3.801-1.9461-5.2081-3.5268c-0.4203-0.4751-0.7309-1.0596-1.2335-1.4437     c-1.2152-0.932-3.0975-0.4109-4.3584-1.2791c-0.8771-0.5938-1.2609-1.7176-2.1198-2.348     c-1.2152-0.9048-3.0426-0.5572-4.2487-1.4709c-0.6396-0.4845-1.0233-1.2795-1.7178-1.6998     c-0.5208-0.3105-1.1513-0.3748-1.7543-0.4475c-0.5391-0.0642-1.0873-0.1557-1.5442-0.4296     c0.84-1.1317,2.3498-2.314,3.4994-1.6445L45.9564,27.8366z"/><path fill="#AFAFAF" d="M42.0824,34.4881C8.0644,14.3548,9.234,16.2843,9.107,14.2769c0.5025,0,1.0142-0.0727,1.5167,0.0094     c1.2244,0.2101,2.1106,1.3157,3.3076,1.6811c0.9228,0.2744,1.9553,0.0825,2.869,0.4203c1.4437,0.53,2.1381,2.1928,3.4447,3.0061     c1.1421,0.7036,2.604,0.6946,3.7461,1.3888c1.1969,0.7312,1.8548,2.1201,3.0335,2.8691c0.5208,0.3382,1.1238,0.53,1.6995,0.7584     c1.5807,0.6304,3.0243,1.5713,4.2396,2.7594c1.8324,1.7481,1.7079,1.632,3.938,1.9006c1.7086,0.1825,3.3716,0.7857,4.8152,1.7359     c-0.2741,0.6393-0.4295,1.3068-0.4295,1.9278C41.2874,33.5927,41.5981,34.2048,42.0824,34.4881z"/></g><g><path fill="#D8D8D8" d="M40.4356,31.0807c-0.5026-0.2922-1.1879-0.2467-1.9462,0.1829         c-0.1006,0.0549-0.201,0.1187-0.2924,0.1918c-0.5756,0.402-1.1056,0.9775-1.5168,1.6445         c-0.1918,0.3016-0.3563,0.6215-0.4842,0.9503c-0.525,1.2254-0.7345,3.039,0.3654,3.6825         C1.7212,17.4851,3.693,19.2115,3.586,17.5216c-0.0225-0.1014-0.0183-0.2113-0.0183-0.3471         c0.0274-1.0417,0.4843-2.2204,1.1696-3.1618c0.2467-0.3377,0.5208-0.6393,0.8223-0.9043         c0.2284-0.2101,0.4751-0.402,0.731-0.5483C8.4204,11.3284,6.4038,11.7551,40.4356,31.0807z"/><path fill="#BFBFBF" d="M41.2258,32.8318c0.0219,4.1402-5.4548,7.2922-5.4548,3.152         c-0.0091-1.7359,1.206-3.8466,2.7228-4.7144C39.9923,30.4012,41.2258,31.0959,41.2258,32.8318z"/><path fill="#AFAFAF" d="M40.9425,32.9965c0,0.1187-0.0091,0.2284-0.0183,0.3471c-0.0182,0.1463-0.0365,0.3016-0.064,0.4475         c-0.0091,0.046-0.0182,0.0825-0.0274,0.128c-0.843,3.5455-4.7786,5.0547-4.7786,1.9006         c-0.0091-1.1238,0.5665-2.4306,1.4071-3.3626c0.0913-0.1093,0.1919-0.2191,0.3015-0.3199         c0.0182-0.0178,0.0365-0.0366,0.0548-0.0455c0.2193-0.1918,0.4386-0.3565,0.6761-0.4934         C39.8369,30.8215,40.9425,31.443,40.9425,32.9965z"/><path fill="#929393" d="M40.8613,33.788c-0.01,0.0498-0.02,0.0898-0.03,0.1299c-0.15,0.6201-0.43,1.25-0.81,1.8101      c-2.3476,3.4662-5.2816,1.5197-3.39-2.0601c0.23-0.4399,0.51-0.8501,0.83-1.21c0.09-0.1099,0.19-0.2202,0.3-0.3198      c0.02-0.02,0.04-0.04,0.06-0.0503c0.22,0.1001,0.45,0.21,0.65,0.3701c0.18,0.1499,0.33,0.3398,0.52,0.4897      c0.3,0.2603,0.68,0.4004,1.06,0.5103c0.27,0.0698,0.55,0.1201,0.77,0.3003C40.8313,33.768,40.8513,33.768,40.8613,33.788z"/></g><g><path fill="#D8D8D8" d="M43.0944,23.9175c-0.5025-0.2922-1.1878-0.2467-1.9462,0.1825         c-0.6944,0.4024-1.3249,1.06-1.8091,1.8368c-0.1919,0.3016-0.3564,0.6215-0.4843,0.9503         c-0.2741,0.6393-0.4294,1.3068-0.4294,1.9278c0,0.8588,0.3106,1.4714,0.7949,1.7542         C5.2024,10.4357,6.3721,12.3653,6.2449,10.3579c-0.0182-0.0821-0.0182-0.1642-0.0182-0.2556         c0-1.6975,1.1836-3.8012,2.7228-4.7055c0.7584-0.4386,1.4437-0.4845,1.9462-0.1918L32.532,17.7772L43.0944,23.9175z"/><path fill="#BFBFBF" d="M43.8832,25.6676c0.0091,1.727-1.2152,3.8373-2.7228,4.7055         c-1.5076,0.8771-2.732,0.1735-2.732-1.5535c-0.0091-1.7359,1.206-3.8466,2.7228-4.7144         C42.6497,23.237,43.8832,23.9316,43.8832,25.6676z"/><path fill="#AFAFAF" d="M43.6,25.8322c0,0.1187-0.0091,0.2284-0.0183,0.3471c-0.0182,0.1463-0.0365,0.3016-0.064,0.4475         c-0.0091,0.046-0.0182,0.0825-0.0274,0.128c-0.3107,1.3068-1.2426,2.659-2.3299,3.2894         c-1.3523,0.7857-2.4487,0.1553-2.4487-1.3888c-0.0091-1.1238,0.5665-2.4306,1.4071-3.3626         c0.0913-0.1093,0.1919-0.2191,0.3015-0.3199c0.0182-0.0178,0.0365-0.0366,0.0548-0.0455         c0.2193-0.1918,0.4386-0.3565,0.6761-0.4934C42.4944,23.6572,43.6,24.2787,43.6,25.8322z"/><path fill="#929393" d="M43.5177,26.6268c-0.0091,0.046-0.0182,0.0825-0.0274,0.128c-0.3107,1.3068-1.2426,2.659-2.3299,3.2894      c-1.3523,0.7857-2.4487,0.1553-2.4487-1.3888c-0.0091-1.1238,0.5665-2.4306,1.4071-3.3626      c0.0913-0.1093,0.1919-0.2191,0.3015-0.3199c0.0182-0.0178,0.0365-0.0366,0.0548-0.0455      c0.2284,0.0915,0.4568,0.2101,0.6487,0.3654c0.1828,0.1463,0.3381,0.3382,0.5208,0.4934      c0.3015,0.2561,0.6853,0.402,1.069,0.5117c0.265,0.0642,0.5483,0.1187,0.7675,0.2927      C43.4903,26.5996,43.5086,26.6085,43.5177,26.6268z"/></g><path fill="#E8E8E8" d="M40.4356 31.0807c-.5026-.2922-1.1879-.2467-1.9462.1829-.1006.0549-.201.1187-.2924.1918-.8406-.2556-1.6356-.6121-2.3847-1.06-3.6324-2.1882-2.3493.0421-6.067-2.3846-4.744-3.0699-5.1827-2.0427-6.8527-2.5493-1.5442-.4934-2.3847-2.2022-3.8284-2.9419-.9502-.4845-2.1289-.5211-2.9512-1.2064-.6944-.5666-1.0051-1.4892-1.6447-2.1196-1.133-1.1238-3.0883-1.1698-4.0568-2.4212-1.044-1.3319-.1761-1.5601-3.2893-2.5858-.53-.174-1.334-.5211-1.5624-1.0783.2284-.2101.4751-.402.731-.5483C8.4204 11.3284 6.4038 11.7551 40.4356 31.0807zM32.532 17.7772c-.2741-.0544-.5482-.1187-.8223-.1918-3.9106-1.069-7.1542-4.1299-11.1654-4.7148-.5848-.0821-1.1878-.1187-1.7543-.2829-.9137-.2833-1.6721-.9048-2.4305-1.4803-3.2018-2.4384-4.2469-1.5649-5.9025-2.129C9.1703 8.5313 8.4932 7.4773 7.2682 7.0413 7.5255 6.5926 8.237 5.8153 8.9495 5.3968c.7584-.4386 1.4437-.4845 1.9462-.1918L32.532 17.7772z"/><path fill="#777676" d="M40.0213 35.728c-2.3476 3.4662-5.2816 1.5197-3.39-2.0601.19.0601.39.0801.58.1299C38.3313 34.0878 38.9213 35.4477 40.0213 35.728zM36.6913 43.6977c-.24.2305-.49.4302-.7599.5801-1.35.7803-2.45.1504-2.45-1.3896 0-.5303.12-1.0903.34-1.6401.54.2798 1.21.3198 1.66.7202.34.3198.48.79.74 1.1699C36.3613 43.3481 36.5313 43.518 36.6913 43.6977zM41.8513 41.3779c-1.6084 1.2875-3.1044.1715-2.7-1.75.8672 1.0833 1.1667.118 2.66 1.71C41.8213 41.3481 41.8313 41.3681 41.8513 41.3779z"/></svg>