<svg xmlns="http://www.w3.org/2000/svg" data-name="Layer 3" viewBox="0 0 64 64" width="64" height="64"><path fill="#55b4f0" d="M44,11l-7.209,7.209A6.893,6.893,0,0,1,35,19.5h0a6.893,6.893,0,0,0-1.791,1.291l-.588.588a2.12,2.12,0,0,1-1.5.621h0A2.122,2.122,0,0,1,29,19.879h0a2.12,2.12,0,0,1,.621-1.5l.588-.588A6.893,6.893,0,0,0,31.5,16h0a6.893,6.893,0,0,1,1.291-1.791L40,7"/><path fill="#86dafc" d="M40,7l-7.209,7.209A6.893,6.893,0,0,0,31.5,16a6.893,6.893,0,0,1-1.291,1.791l-.588.588a2.114,2.114,0,0,0,.591,3.409L42.5,9.5Z"/><rect width="62" height="11" x="1" y="51" fill="#f8cd8b"/><path fill="#fadfb8" d="M14,60H63V51H3.19A11,11,0,0,0,14,60Z"/><rect width="62" height="4" x="1" y="51" fill="#6ecbf9"/><path fill="#8c8c8c" d="M61,51l-.584-.292A63.547,63.547,0,0,0,32,44h0A63.547,63.547,0,0,0,3.584,50.708L3,51"/><polygon fill="#f2f2f2" points="7 51 5.586 51 1.585 55 3 55 4.414 55 8.414 51 7 51"/><polygon fill="#f2f2f2" points="13 51 11.586 51 7.585 55 9 55 10.414 55 14.414 51 13 51"/><polygon fill="#f2f2f2" points="19 51 17.586 51 13.585 55 15 55 16.414 55 20.414 51 19 51"/><polygon fill="#f2f2f2" points="25 51 23.586 51 19.585 55 21 55 22.414 55 26.414 51 25 51"/><polygon fill="#f2f2f2" points="31 51 29.586 51 25.585 55 27 55 28.414 55 32.414 51 31 51"/><polygon fill="#f2f2f2" points="37 51 35.586 51 31.585 55 33 55 34.414 55 38.414 51 37 51"/><polygon fill="#f2f2f2" points="43 51 41.586 51 37.585 55 39 55 40.414 55 44.414 51 43 51"/><polygon fill="#f2f2f2" points="49 51 47.586 51 43.585 55 45 55 46.414 55 50.414 51 49 51"/><polygon fill="#f2f2f2" points="55 51 53.586 51 49.585 55 51 55 52.414 55 56.414 51 55 51"/><polygon fill="#f2f2f2" points="61 51 59.586 51 55.585 55 57 55 58.414 55 62.414 51 61 51"/><path fill="#a0a0a0" d="M7.321,49H56.679A63.405,63.405,0,0,0,7.321,49Z"/><path fill="#747574" d="M49,4.828a2.828,2.828,0,0,1-.828,2L47,8l1,1-3,3L39,6l3-3,1,1,1.172-1.172a2.828,2.828,0,0,1,2-.828h0A2.828,2.828,0,0,1,49,4.828Z"/><path fill="#28378e" d="M31,32c0-2.209-4-7-4-7s-4,4.792-4,7a4,4,0,0,0,8,0Z"/><path fill="#394ba4" d="M27,25a35.623,35.623,0,0,0-2.735,3.817A3.587,3.587,0,0,0,24,30a3.989,3.989,0,0,0,6.929,2.707A4.036,4.036,0,0,0,31,32C31,29.791,27,25,27,25Z"/><polygon fill="#c33e37" points="44.357 25.934 43.643 24.066 27 30.429 10.357 24.066 9.643 25.934 24.2 31.5 9.643 37.066 10.357 38.934 27 32.571 43.643 38.934 44.357 37.066 29.8 31.5 44.357 25.934"/><path fill="#182678" d="M34,13l-1.209,1.209A6.893,6.893,0,0,0,31.5,16a6.893,6.893,0,0,1-1.291,1.791l-.588.588a2.121,2.121,0,0,0,3,3l.588-.588A6.893,6.893,0,0,1,35,19.5a6.893,6.893,0,0,0,1.791-1.291L42,13Z"/><path fill="#394ba4" d="M34,13l-1.209,1.209A6.893,6.893,0,0,0,31.5,16a6.893,6.893,0,0,1-1.291,1.791l-.588.588a2.114,2.114,0,0,0,.591,3.409L39,13Z"/><path fill="#8c8c8c" d="M46.172,2a2.828,2.828,0,0,0-2,.828L43,4,42,3,39,6l3.5,3.5,6.1-6.1A2.817,2.817,0,0,0,46.172,2Z"/></svg>