<svg xmlns="http://www.w3.org/2000/svg" viewBox="0 0 100 100" width="100" height="100"><path fill="#f9c087" d="m80.132 84.87 4.821-4.821V14.965L48.795 51.123z"/><path d="M80.131 85.997h-.021a1.13 1.13 0 0 1-.805-.36L47.968 51.89a1.129 1.129 0 0 1 .03-1.565l36.158-36.158a1.127 1.127 0 0 1 1.925.797v65.084c0 .299-.119.586-.33.797l-4.821 4.821c-.212.213-.5.331-.799.331zm-29.77-34.845 29.801 32.094 3.663-3.663V17.687L50.361 51.152z"/><path fill="#f9c087" d="m15.048 19.786 33.747 31.337 36.158-36.158H21.074l-2.333 1.866z"/><path d="M48.795 52.25c-.276 0-.551-.1-.767-.301L14.28 20.612a1.129 1.129 0 0 1 .063-1.706l6.026-4.821c.2-.161.448-.247.704-.247h63.879a1.129 1.129 0 0 1 .797 1.925L49.592 51.92c-.219.219-.508.33-.797.33zM16.773 19.849l31.993 29.708 33.465-33.465H21.469l-4.696 3.757z"/><path fill="#f9ec9a" d="M80.132 84.87H15.048V19.786h65.084z"/><path d="M81.259 85.997H13.92V18.659h67.339v67.338zm-65.084-2.255h62.829V20.914H16.175v62.828z"/><path d="M18.741 72.895h2.255v13.102h-2.255zM18.741 60.842h2.255v5.871h-2.255zM29.588 18.659h2.255V52.25h-2.255zM47.512 85.997h-2.255v-8.545l2.411-7.081V54.739c0-.355.13-.989.543-2.939 1.19-5.63 3.977-18.817 3.977-32.013v-1.128h2.255v1.128c0 13.433-2.821 26.78-4.025 32.479-.246 1.164-.478 2.264-.494 2.5l.001 15.98-2.411 7.081v8.17zm-6.026 0h-2.255v-5.306c0-2.138.306-4.228.909-6.211l1.895-6.241c.538-1.771.811-3.64.811-5.556V43.969h2.255v18.715c0 2.138-.305 4.227-.909 6.211l-1.896 6.241a19.089 19.089 0 0 0-.811 5.555v5.306zM35.615 33.121h2.255v13.103h-2.255zM21.151 28.301h2.255v28.771h-2.255zM53.694 48.79h2.255v3.46h-2.255zM58.515 18.659h2.255v15.513h-2.255zM64.541 35.532h2.255v4.666h-2.255zM64.541 46.38h2.255v9.486h-2.255zM24.767 62.048h2.255v16.718h-2.255zM75.233 85.997h-2.255V84.87c0-6.064 0-17.351-1.296-18.164-.72.008-3.681 3.239-3.681 18.164v1.128h-2.255V84.87c0-12.781 2.224-20.412 5.949-20.412 3.121 0 3.538 4.104 3.538 20.412v1.127zM72.9 47.429c-1.059 0-1.973 0-2.829-10.55-.431-5.317-.71-12.027-.71-17.093v-1.128h2.255v1.128c0 7.892.595 17.581 1.284 22.554.688-4.974 1.283-14.663 1.283-22.554v-1.128h2.255v1.128c0 5.066-.279 11.775-.71 17.093-.855 10.55-1.769 10.55-2.828 10.55zm.698-1.933h.011-.011zm-29.022-6.503c-4.22 0-5.345-12.073-5.345-19.206v-1.128h2.255v1.128c0 10.501 2.029 16.619 3.116 16.954 1.037-.334 3.066-6.452 3.066-16.954v-1.128h2.255v1.128c0 7.133-1.126 19.206-5.347 19.206zM18.741 18.659h2.255v5.871h-2.255zM33.049 85.997h-2.255V84.87c0-1.112.399-2.34.861-3.762.69-2.129 1.55-4.777 1.55-8.29 0-3.038-.603-4.478-1.242-6.003-.805-1.922-1.637-3.911-.981-8.616l.156-1.117 2.233.312-.156 1.116c-.57 4.093.078 5.641.828 7.434.664 1.586 1.417 3.384 1.417 6.874 0 3.87-.96 6.827-1.661 8.987-.402 1.24-.75 2.311-.75 3.066v1.126zm26.866.166-.181-1.113c-.154-.953-.448-2.09-.788-3.407-.729-2.82-1.636-6.33-1.636-10.031 0-.479.008-1.42.019-2.596.03-3.388.08-9.06-.017-10.591l-.07-1.125 2.251-.141.07 1.125c.101 1.611.053 7.112.021 10.752-.01 1.167-.019 2.101-.019 2.576 0 3.414.868 6.771 1.565 9.467.354 1.371.66 2.555.831 3.611l.18 1.113-2.226.36zM64.541 58.432h2.255v4.666h-2.255z"/></svg>