<svg xmlns="http://www.w3.org/2000/svg" enable-background="new 0 0 504.033 479.988" viewBox="0 0 504.033 479.988" width="504.0329895019531" height="479.9880065917969"><path fill="#1498b7" d="M484.375,274.778c5.575-24.732,1.968-44.625-14.35-57.82c-11.18-27.38-28.04-51.85-49.11-71.95    c7.776-20.688,6.709-42.756,0.03-65.7c-37.124-14.937-71.658-23.373-102.16-21.69c-24.992,7.873-47.951,8.66-68.2,0h-0.01    l-45.32-53.36l-41.29,34.48c-1.998,10.209-7.014,12.627-14.97,7.45c-21.484,25.467-46.145,38.965-74.84,37.26l-55.52,37.92    l24.17,141.85l-12.304,21.347l0.336,38.272l28.729,14.381c20.992-12.036,42.981-11.094,65.75,0    c11.247,7.679,16.393,18.16,12.9,32.38l17.84,27.76c82.301,19.683,164.417,20.629,246.32,0l83.03-27.76l-17.124-26.282    l-6.379-26.908l23.503-20.82C485.405,288.568,485.055,281.618,484.375,274.778z M90.435,203.168    c-11.289-1.928-15.182-12.045-13.9-27.89c4.951-38.717,26.035-39.021,52.63-26.2C127.626,176.897,120.803,200.535,90.435,203.168z    "/><path fill="#5d5560" d="M490.095 216.958c6.79 0 11.57 6.66 9.4 13.09-5.04 14.91-10.08 29.82-15.12 44.73-2.01-20.27-6.94-39.68-14.35-57.82H490.095zM250.585 57.618h68.2c-2.03 2.27-3.81 4.82-5.28 7.65-4.12 7.94-5.09 16.68-3.35 24.79-10.76-1.72-21.8-2.61-33.04-2.61-3.86 0-7.7.1-11.51.32v-.01L250.585 57.618z"/><path fill="#655f68" d="M318.785,57.618c7.09-7.92,17.21-12.31,27.61-12.31c5.74,0,11.58,1.34,17.03,4.17l57.52,29.83    c18.15,9.41,25.22,31.75,15.8,49.89c-1.83,3.53-4.15,6.63-6.83,9.28c-2.68,2.65-5.72,4.83-9,6.53    c-5.31-5.07-10.89-9.86-16.72-14.34l0.02-0.02c3.29-0.06,6.5-1,9.3-2.69c2.8-1.7,5.18-4.17,6.8-7.28    c4.71-9.07,1.17-20.24-7.9-24.95l-57.52-29.83c-2.72-1.41-5.64-2.08-8.51-2.08c-6.69,0-13.15,3.63-16.45,9.98    c-3.72,7.16-2.3,15.62,2.93,21.19v0.01c-7.41-2.06-14.99-3.72-22.71-4.94c-1.74-8.11-0.77-16.85,3.35-24.79    C314.975,62.438,316.755,59.888,318.785,57.618z"/><path fill="#1ea6bc" d="M412.415,95.728c9.07,4.71,12.61,15.88,7.9,24.95c-1.62,3.11-4,5.58-6.8,7.28    c-2.8,1.69-6.01,2.63-9.3,2.69l-0.02,0.02c-20.97-16.16-45.11-28.42-71.33-35.67v-0.01c-5.23-5.57-6.65-14.03-2.93-21.19    c3.3-6.35,9.76-9.98,16.45-9.98c2.87,0,5.79,0.67,8.51,2.08L412.415,95.728z"/><polygon fill="#655f68" points="138.215 369.598 453.005 369.598 485.405 369.598 494.665 369.598 494.665 397.358 402.375 397.358 156.055 397.358 59.565 397.358 59.565 369.598"/><path fill="#e4e4e4" d="M485.405,337.218v32.38h-32.4v-32.38h-11.57c-11.51,0-20.83-9.31-20.83-20.81    c0-9.19,5.96-16.99,14.23-19.75c2.07-0.7,4.29-1.07,6.6-1.07h43.97v13.88V337.218z M448.375,316.408c0-3.83-3.11-6.94-6.94-6.94    c-3.84,0-6.95,3.11-6.95,6.94c0,3.83,3.11,6.94,6.95,6.94C445.265,323.348,448.375,320.238,448.375,316.408z"/><path fill="#1498b7" d="M485.405,295.588h-43.97c-2.31,0-4.53,0.37-6.6,1.07l-0.35-1.07    c0-86.85-70.45-157.26-157.37-157.26c-75.81,0-139.1,53.56-154.04,124.89h-51.74c3.32-21.25,9.86-41.44,19.1-60.05    c9.98-20.08,23.1-38.33,38.73-54.09c17.92-18.06,39.12-32.86,62.63-43.42c22.73-10.21,47.63-16.47,73.81-17.89    c3.81-0.22,7.65-0.32,11.51-0.32c11.24,0,22.28,0.89,33.04,2.61c7.72,1.22,15.3,2.88,22.71,4.94    c26.22,7.25,50.36,19.51,71.33,35.67c5.83,4.48,11.41,9.27,16.72,14.34c21.07,20.1,37.93,44.57,49.11,71.95    c7.41,18.14,12.34,37.55,14.35,57.82C485.055,281.618,485.405,288.568,485.405,295.588z"/><path fill="#cdc7b9" d="M453.005,337.218v32.38h-314.79c-5.44-10.18-9.79-21.02-12.9-32.38h40.71h0.64    c16.93,0,29.73-14.87,27.72-31.67c-0.39-3.26-0.59-6.59-0.59-9.96c0-46.65,38.4-84.33,85.33-83.23    c42.12,0.99,79.28,37.26,81.22,79.31c0.22,4.83,0.03,9.57-0.54,14.2c-2.05,16.66,10.95,31.35,27.75,31.35h53.88H453.005z     M300.255,295.588c0-12.77-10.36-23.12-23.14-23.12s-23.14,10.35-23.14,23.12c0,12.78,10.36,23.13,23.14,23.13    S300.255,308.368,300.255,295.588z"/><path fill="#bcb9ad" d="M441.435,337.218h-53.88c-16.8,0-29.8-14.69-27.75-31.35c0.57-4.63,0.76-9.37,0.54-14.2    c-1.94-42.05-39.1-78.32-81.22-79.31c-46.93-1.1-85.33,36.58-85.33,83.23c0,3.37,0.2,6.7,0.59,9.96    c2.01,16.8-10.79,31.67-27.72,31.67h-0.64v-74h-42.95c14.94-71.33,78.23-124.89,154.04-124.89c86.92,0,157.37,70.41,157.37,157.26    l0.35,1.07c-8.27,2.76-14.23,10.56-14.23,19.75C420.605,327.908,429.925,337.218,441.435,337.218z"/><path fill="#cdc7b9" d="M420.605,412.158l-29.63,22.2l-17.64-14.33c-5.74,4.44-11.79,8.5-18.12,12.12l15.06,20.85    l-34.38,13.74l-14.58-20.18c-7.32,2.14-14.86,3.76-22.58,4.82l6.15,24.61h-37.03l-5.97-23.87c-8.36-0.8-16.53-2.25-24.45-4.31    l-5.89,26.46l-33.12-16.55l5.13-23.07c-6.56-3.47-12.84-7.39-18.81-11.72l-7.89,20.68l-30.37-21.18l9.57-25.07h246.32    L420.605,412.158z"/><path fill="#655f68" d="M277.115,272.468c12.78,0,23.14,10.35,23.14,23.12c0,12.78-10.36,23.13-23.14,23.13    s-23.14-10.35-23.14-23.13C253.975,282.818,264.335,272.468,277.115,272.468z"/><path fill="#1498b7" d="M265.605,87.758v0.01c-26.18,1.42-51.08,7.68-73.81,17.89l-24.01-48.16    c-3.01-6.03-4.21-12.49-3.82-18.76c0.79-12.75,8.18-24.75,20.45-30.86c5.3-2.64,10.93-3.89,16.48-3.89c1.46,0,2.92,0.09,4.36,0.27    c-3.09,9.04-2.71,19.25,1.89,28.48l18.58,37.26l24.85-12.38h0.01L265.605,87.758z"/><path fill="#e15c63" d="M234.065,24.498l16.51,33.12l-24.85,12.38l-18.58-37.26c-4.6-9.23-4.98-19.44-1.89-28.48    C217.235,5.668,228.285,12.908,234.065,24.498z"/><path fill="#0d87a3" d="M167.785,57.498l24.01,48.16c-23.51,10.56-44.71,25.36-62.63,43.42l-52.63,26.2l-4.15,2.07    c-11.44,5.7-25.32,1.05-31.02-10.38l-22.73-45.6c7.23-10.17,17.01-18.75,28.96-24.7l26.56-13.22l-0.21,10.67    c-0.21,10.18,7.88,18.6,18.07,18.81l37.15,0.75c10.18,0.21,18.61-7.87,18.82-18.06l1.01-49.43l14.97-7.45    C163.575,45.008,164.775,51.468,167.785,57.498z"/><polygon fill="#1ea6bc" points="166.025 263.218 166.025 337.218 125.315 337.218 59.565 337.218 59.565 263.218 71.335 263.218 123.075 263.218"/><path fill="#e15c63" d="M148.995,46.188l-1.01,49.43c-0.21,10.19-8.64,18.27-18.82,18.06l-37.15-0.75    c-10.19-0.21-18.28-8.63-18.07-18.81l0.21-10.67L148.995,46.188z"/><path fill="#5d5560" d="M76.535,175.278l13.9,27.89c-9.24,18.61-15.78,38.8-19.1,60.05h-11.77h-16.76l-30.51-61.21    c-13.4-26.89-9.95-57.77,6.34-80.64l22.73,45.6c5.7,11.43,19.58,16.08,31.02,10.38L76.535,175.278z"/><polygon fill="#655f68" points="59.565 263.218 59.565 337.218 17.915 337.218 17.915 263.218 42.805 263.218"/><polygon fill="#bcb9ad" points="420.605 412.158 420.175 412.478 150.285 412.478 156.055 397.358 402.375 397.358"/><path fill="#bcb9ad" d="M453.005,337.218v32.38h-43.04c0,0,1.16-12.98,0.49-32.38h30.98H453.005z"/><path fill="#aba49a" d="M441.435,337.218h-30.98c-2.01-57.29-20.08-170.53-131.67-170.53c-96.68,0-132.3,96.53-132.3,96.53    h-23.41c14.94-71.33,78.23-124.89,154.04-124.89c86.92,0,157.37,70.41,157.37,157.26l0.35,1.07    c-8.27,2.76-14.23,10.56-14.23,19.75C420.605,327.908,429.925,337.218,441.435,337.218z"/><ellipse cx="441.432" cy="316.408" fill="#3a322b" rx="6.938" ry="6.943" transform="rotate(-89.908 441.423 316.409)"/><path fill="#3a322b" d="M277.115,322.721c14.967,0,27.143-12.169,27.143-27.127s-12.176-27.127-27.143-27.127    s-27.143,12.169-27.143,27.127S262.148,322.721,277.115,322.721z M277.115,276.466c10.556,0,19.143,8.581,19.143,19.127    s-8.587,19.127-19.143,19.127s-19.143-8.581-19.143-19.127S266.559,276.466,277.115,276.466z"/><path fill="#3a322b" d="M501.409,218.763c-2.646-3.688-6.769-5.804-11.311-5.804h-17.463    c-10.728-25.254-26.217-48.017-45.335-67.16c5.445-3.774,9.897-8.787,12.998-14.759c5.049-9.722,6.008-20.826,2.7-31.269    c-3.308-10.442-10.487-18.971-20.214-24.017l-57.515-29.833c-16.38-8.497-35.907-4.833-48.206,7.697h-64.005l-15.409-30.906    c-10.089-20.235-34.77-28.498-55.019-18.415c-9.81,4.884-17.129,13.293-20.609,23.679c-0.9,2.686-1.51,5.422-1.843,8.171    L45.81,93.092c-19.749,9.833-34.484,26.763-41.491,47.671c-7.007,20.909-5.447,43.293,4.393,63.03l27.632,55.421H17.911    c-2.209,0-4,1.791-4,4v74.008c0,2.209,1.791,4,4,4h104.396c2.464,8.357,5.618,16.521,9.412,24.379H59.569c-2.209,0-4,1.791-4,4    v27.753c0,2.209,1.791,4,4,4h90.682l-7.5,19.649c-0.655,1.715-0.058,3.656,1.448,4.707l30.364,21.18    c1.01,0.705,2.289,0.906,3.465,0.542c1.177-0.362,2.121-1.247,2.56-2.397l6.063-15.884c3.983,2.696,8.115,5.23,12.347,7.574    l-4.475,20.123c-0.398,1.792,0.475,3.625,2.117,4.446l33.12,16.549c1.102,0.551,2.396,0.563,3.507,0.034    c1.112-0.529,1.918-1.542,2.186-2.744l4.995-22.463c5.979,1.385,12.088,2.435,18.238,3.134l5.292,21.154    c0.445,1.78,2.045,3.029,3.88,3.029h37.029c1.232,0,2.395-0.567,3.153-1.539c0.758-0.971,1.026-2.237,0.728-3.432l-5.088-20.341    c5.391-0.895,10.759-2.069,16.034-3.508l12.945,17.912c1.075,1.487,3.023,2.052,4.727,1.371l34.38-13.743    c1.144-0.458,2.014-1.417,2.357-2.6c0.343-1.183,0.122-2.458-0.6-3.457l-12.497-17.292c4.175-2.548,8.266-5.308,12.222-8.246    l15.211,12.351c1.425,1.156,3.453,1.196,4.92,0.095l29.623-22.203c0.986-0.739,1.576-1.891,1.6-3.123s-0.521-2.406-1.478-3.183    l-9.479-7.696h81.016c2.209,0,4-1.791,4-4v-27.753c0-2.209-1.791-4-4-4h-5.257v-70.008c0-6.851-0.339-13.623-0.978-20.309    l14.859-43.959C504.737,227.027,504.054,222.449,501.409,218.763z M481.353,291.593h-39.921c-1.013,0-2.01,0.068-2.991,0.187    c-2.035-87.169-73.619-157.454-161.326-157.454c-37.274,0-73.635,13-102.383,36.607c-27.513,22.592-46.907,53.841-54.865,88.282    H76.058c7.432-41.479,26.878-78.026,54.448-106.335l0.443-0.22l-0.079-0.158c37.208-38.007,89.109-61.056,146.244-61.056    C388.422,91.445,479.211,180.865,481.353,291.593z M453.003,333.222h-11.572c-9.28,0-16.829-7.543-16.829-16.814    c0-9.272,7.549-16.815,16.829-16.815h39.972v66.008h-24.4v-28.379C457.003,335.013,455.212,333.222,453.003,333.222z     M423.193,333.223l-35.636,0c-6.867,0-13.413-2.948-17.959-8.089c-4.54-5.133-6.663-11.977-5.825-18.776    c0.603-4.892,0.792-9.895,0.563-14.87c-2.021-44.023-41-82.092-85.118-83.13c-23.756-0.563-46.167,8.258-63.131,24.828    c-16.952,16.558-26.288,38.722-26.288,62.407c0,3.486,0.208,6.996,0.618,10.432c0.835,7-1.339,14.002-5.963,19.21    c-3.818,4.301-8.854,6.98-14.427,7.75v-69.771c0-2.209-1.791-4-4-4h-37.931c16.579-68.021,78.46-116.889,149.018-116.889    c84.088,0,152.576,67.975,153.356,151.824c-8.208,4.054-13.868,12.506-13.868,22.259    C416.603,322.891,419.105,328.798,423.193,333.223z M90.532,194.39l-8.631-17.311l30.319-15.096    C103.993,172.121,96.741,182.976,90.532,194.39z M333.485,75.637c3.687-7.099,12.466-9.876,19.571-6.191l57.515,29.833    c3.441,1.785,5.98,4.801,7.15,8.494c1.17,3.692,0.831,7.619-0.955,11.057c-2.278,4.388-6.614,7.282-11.492,7.754    C384.53,110.837,360.82,98.8,335.132,91.497C331.49,87.046,330.804,80.798,333.485,75.637z M317.052,67.114    c8.39-16.154,28.368-22.475,44.533-14.089L419.1,82.857c7.83,4.062,13.609,10.927,16.271,19.332    c2.663,8.404,1.891,17.341-2.173,25.165c-2.748,5.292-6.798,9.664-11.797,12.778c-2.738-2.54-5.54-5.011-8.41-7.406    c4.603-2.036,8.474-5.588,10.874-10.209c2.771-5.335,3.297-11.429,1.482-17.16c-1.816-5.73-5.755-10.411-11.093-13.18    l-57.515-29.833c-11.018-5.715-24.634-1.406-30.354,9.605c-2.766,5.325-3.221,11.397-1.556,16.9    c-3.7-0.852-7.439-1.6-11.209-2.255C312.75,79.937,313.937,73.112,317.052,67.114z M310.95,61.619    c-0.345,0.591-0.678,1.193-0.997,1.807c-3.514,6.765-5.051,14.378-4.497,21.914c-9.274-1.242-18.732-1.896-28.341-1.896    c-3.036,0-6.066,0.069-9.088,0.199l-10.98-22.024H310.95z M208.108,8.806c9.378,2.098,17.773,8.232,22.383,17.477l14.727,29.539    l-17.697,8.811L210.728,30.95C207.266,24.006,206.369,16.257,208.108,8.806z M169.607,30.52    c2.801-8.359,8.693-15.128,16.589-19.06c4.471-2.226,9.211-3.334,13.904-3.444c-1.852,8.947-0.677,18.189,3.468,26.504    l18.577,37.261c0.7,1.404,2.114,2.216,3.583,2.216c0.599,0,1.208-0.135,1.78-0.42l21.279-10.595l10.577,21.215    c-22.724,1.905-44.89,7.443-65.67,16.313l-22.332-44.793C167.429,47.827,166.806,38.879,169.607,30.52z M78.109,85.947    l66.75-33.234l-0.874,42.827c-0.162,7.96-6.759,14.309-14.743,14.143l-37.147-0.756c-3.86-0.079-7.458-1.655-10.131-4.438    c-2.673-2.782-4.102-6.438-4.023-10.293L78.109,85.947z M49.375,100.253l20.651-10.282l-0.083,4.061    c-0.123,5.993,2.098,11.675,6.251,15.999c4.153,4.323,9.743,6.771,15.738,6.894l37.147,0.756c0.156,0.003,0.309,0.005,0.464,0.005    c12.168,0,22.191-9.768,22.44-21.982l0.959-47.015l7.152-3.561c0.494,4.865,1.861,9.652,4.109,14.16l22.188,44.504    c-17.199,8.122-33.35,18.568-47.951,31.168c-4.018,3.467-7.883,7.08-11.609,10.814l-56.231,27.997    c-9.443,4.703-20.953,0.851-25.659-8.586L23.3,121.773C30.134,112.798,38.977,105.43,49.375,100.253z M15.87,200.223    c-8.886-17.823-10.294-38.037-3.966-56.918c1.636-4.883,3.748-9.519,6.276-13.872l19.604,39.32    c4.741,9.511,14.355,15.021,24.329,15.021c4.06,0,8.181-0.914,12.055-2.843l0.574-0.286l11.254,22.572    c-8.556,17.646-14.669,36.483-18.048,55.998H45.281L15.87,200.223z M55.569,333.222H21.911v-66.008h33.658V333.222z     M63.569,333.222v-66.008h98.458v66.008H63.569z M130.663,341.222h36.002h0.001c9.083,0,17.747-3.891,23.77-10.675    c6.142-6.917,9.03-16.201,7.924-25.47c-0.373-3.123-0.562-6.314-0.562-9.484c0-21.513,8.48-41.644,23.878-56.684    c15.409-15.051,35.788-23.053,57.353-22.553c40.073,0.942,75.479,35.517,77.315,75.499c0.208,4.527,0.035,9.078-0.513,13.524    c-1.117,9.073,1.716,18.206,7.773,25.055c6.064,6.856,14.794,10.789,23.952,10.789l61.447,0v24.379H140.655    C136.63,357.78,133.279,349.61,130.663,341.222z M414.102,412.03l-23.023,17.256l-15.224-12.361    c-1.441-1.17-3.499-1.195-4.968-0.059c-5.625,4.35-11.566,8.323-17.659,11.81c-0.984,0.563-1.683,1.519-1.923,2.628    c-0.239,1.109,0.004,2.267,0.668,3.187l12.063,16.692l-26.722,10.682l-12.755-17.648c-0.99-1.371-2.737-1.971-4.363-1.497    c-7.194,2.101-14.599,3.681-22.008,4.698c-1.126,0.155-2.133,0.781-2.77,1.722s-0.843,2.109-0.567,3.211l4.912,19.637H270.98    l-5.213-20.84c-0.411-1.643-1.813-2.849-3.498-3.011c-8.07-0.774-16.089-2.187-23.834-4.197c-1.049-0.272-2.167-0.106-3.092,0.459    c-0.926,0.566-1.582,1.484-1.817,2.544l-4.771,21.455l-25.744-12.863l4.452-20.021c0.391-1.758-0.441-3.561-2.034-4.403    c-6.385-3.38-12.555-7.221-18.336-11.417c-1.007-0.73-2.296-0.952-3.49-0.597c-1.193,0.355-2.153,1.245-2.596,2.408L174.94,437.4    l-23.601-16.463l7.474-19.582h242.14L414.102,412.03z M490.661,373.601v19.753H63.569v-19.753h389.435h32.4H490.661z     M495.706,228.763l-9.729,28.781c-2.296-12.617-5.719-24.845-10.149-36.585h14.27c1.932,0,3.686,0.899,4.811,2.468    C496.033,224.993,496.323,226.938,495.706,228.763z"/></svg>