<svg xmlns="http://www.w3.org/2000/svg" viewBox="0 0 24 24" width="24" height="24"><g data-name="Layer 2"><path fill="#f6a530" d="M6.1938,19.55783H17.8062a2.15717,2.15717,0,0,0,2.10928-1.70517L21.96773,8.2755a1.34823,1.34823,0,0,0-2.18142-1.31823L17.23644,9.08216a1.07858,1.07858,0,0,1-1.58792-.2303L12.89744,4.72524a1.07858,1.07858,0,0,0-1.79488,0L8.35148,8.85186a1.07858,1.07858,0,0,1-1.58792.2303L4.21369,6.95727A1.34823,1.34823,0,0,0,2.03227,8.2755l2.05225,9.57716A2.15717,2.15717,0,0,0,6.1938,19.55783Z"/><circle cx="12" cy="14" r="2" fill="#fff"/></g></svg>