<svg xmlns="http://www.w3.org/2000/svg" viewBox="0 0 64 64" width="64" height="64">
    <path fill="#fff"
        d="M59.868,3.01c-3.115-2.852-7.963-2.642-10.808,.467-.312,.342-.572,.677-.793,1.022l-6.522,10.065c-.03,.046-.037,.098-.058,.147l-9.872-.804c-3.469-.272-6.82,1.031-9.175,3.604L2.517,39.492c-.602,.658-.912,1.511-.873,2.401,.04,.89,.423,1.712,1.081,2.314l19.572,17.918c.621,.568,1.414,.876,2.25,.876,.05,0,.1,0,.15-.003,.891-.04,1.712-.424,2.315-1.081l20.124-21.981c2.355-2.572,3.368-6.019,2.78-9.456l-1.698-9.927,9.96-5.065c2.237-1.141,3.774-3.306,4.111-5.794,.338-2.488-.567-4.987-2.421-6.683Zm-17.567,22.329l-.14,.152c-.565,.617-1.337,.977-2.173,1.015-.835,.033-1.637-.256-2.254-.819l-.15-.137c-1.274-1.167-1.362-3.153-.194-4.428l.136-.148c.617-.675,1.463-1.017,2.312-1.017,.756,0,1.514,.272,2.115,.821l.15,.137c.108,.099,.195,.211,.286,.321l-2.72,1.383c-.473,.242-.661,.821-.419,1.294,.17,.333,.507,.525,.858,.525,.147,0,.296-.034,.436-.105l2.565-1.304c.052,.821-.211,1.659-.807,2.311Zm17.983-15.952c-.254,1.872-1.366,3.438-3.049,4.297l-9.356,4.759-.449-2.624c-.074-.433-.432-.761-.87-.797l-2.684-.219,6.009-9.272c.163-.254,.356-.502,.59-.759,2.108-2.303,5.703-2.458,8.013-.344,1.396,1.278,2.05,3.085,1.796,4.959Z" />
    <path fill="#f6a530"
        d="M48.005,30.807c.487,2.842-.351,5.694-2.299,7.821l-20.124,21.981c-.252,.275-.597,.436-.97,.453-.383,.016-.731-.114-1.007-.366L4.033,42.779c-.569-.521-.608-1.409-.087-1.978L24.07,18.819c1.752-1.914,4.27-3.01,6.852-3.01,.245,0,.491,.01,.737,.03l13.983,1.138,.427,2.494-1.962,.998c-.212-.305-.452-.596-.738-.857l-.151-.138c-2.071-1.894-5.298-1.755-7.197,.318l-.137,.15c-1.896,2.071-1.754,5.299,.317,7.195l.151,.138c.947,.867,2.158,1.337,3.434,1.337,.076,0,.153-.002,.23-.005,1.359-.061,2.614-.646,3.53-1.647l.141-.153c1.168-1.276,1.556-2.99,1.202-4.562l1.521-.774,1.596,9.335Z" />
    <path fill="#fff"
        d="M36.732 36.443l-20.819 2.961c-.53.076-.898.566-.823 1.096.069.483.483.833.958.833.045 0 .092-.003.138-.009l20.819-2.961c.53-.076.898-.566.823-1.096-.076-.53-.567-.899-1.096-.823zM28.244 40.217c-2.439.347-4.141 2.615-3.795 5.055.317 2.227 2.235 3.84 4.423 3.84.208 0 .419-.014.631-.044h0c2.439-.347 4.141-2.615 3.795-5.055-.348-2.439-2.615-4.143-5.055-3.796zm.987 6.932c-1.381.2-2.667-.768-2.863-2.15-.196-1.382.768-2.667 2.15-2.864.12-.017.239-.026.357-.026 1.24 0 2.327.914 2.506 2.175.196 1.382-.768 2.667-2.15 2.864zM19.388 36.923c.782.588 1.713.897 2.674.897.212 0 .425-.015.639-.045 1.182-.168 2.227-.787 2.944-1.741.717-.955 1.019-2.132.851-3.313s-.786-2.228-1.741-2.944c-.955-.717-2.13-1.019-3.313-.851-1.182.168-2.227.787-2.944 1.741-.717.955-1.019 2.132-.851 3.313s.786 2.228 1.741 2.944zm.659-5.094c.406-.54.999-.89 1.668-.986.121-.017.242-.026.362-.026.544 0 1.071.175 1.515.507.541.406.891.998.986 1.668.096.67-.076 1.336-.482 1.877-.406.54-.999.89-1.668.986-.666.096-1.335-.076-1.877-.482-.541-.406-.891-.998-.986-1.668-.096-.67.076-1.336.482-1.877z" />
</svg>