<svg xmlns="http://www.w3.org/2000/svg" data-name="Layer 1" viewBox="0 0 128 128" width="128" height="128"><path fill="#2d4356" d="M126,8H116a6.01734,6.01734,0,0,0-5.92,5H71.14A14.02406,14.02406,0,0,0,57.17,27.04V61H54a2.00587,2.00587,0,0,0-2,2v5a5.00857,5.00857,0,0,0,4,4.9V83H51.58A5.00375,5.00375,0,0,0,47,80H42a2.00587,2.00587,0,0,0-2,2v3.91H17.9A6.00278,6.00278,0,0,0,12,81H2a2.00587,2.00587,0,0,0-2,2v34a2.00591,2.00591,0,0,0,2,2H12a6.0174,6.0174,0,0,0,5.92-5H40v4a2.00591,2.00591,0,0,0,2,2h5a5.00375,5.00375,0,0,0,4.58-3H72.97a15.01832,15.01832,0,0,0,15-15V72.91A5.02778,5.02778,0,0,0,92,68V63a2.00587,2.00587,0,0,0-2-2H85.12V41.09H110.1A6.00278,6.00278,0,0,0,116,46h10a2.00591,2.00591,0,0,0,2-2V10A2.00587,2.00587,0,0,0,126,8ZM14,113a2.00591,2.00591,0,0,1-2,2H4V85h8a2.00587,2.00587,0,0,1,2,2Zm26-3H18V89.91H40Zm8,5a1.003,1.003,0,0,1-1,1H44V84h3a1.003,1.003,0,0,1,1,1Zm35.97-13a11.00657,11.00657,0,0,1-11,11H52V87h6a2.00591,2.00591,0,0,0,2-2V73H83.97ZM88,65v3a1.003,1.003,0,0,1-1,1H57a1.003,1.003,0,0,1-1-1V65Zm22-27.91H83.12a1.99311,1.99311,0,0,0-2,2V61H61.17V27.04A10.01882,10.01882,0,0,1,71.14,17H110ZM124,42h-8a2.00591,2.00591,0,0,1-2-2V14a2.00587,2.00587,0,0,1,2-2h8Z"/><path fill="#e1ebf4" d="M110,17V37.09H83.12a1.99311,1.99311,0,0,0-2,2V61H61.17V27.04A10.01882,10.01882,0,0,1,71.14,17Z"/><path fill="#ffdb80" d="M124 12V42h-8a2.00591 2.00591 0 01-2-2V14a2.00587 2.00587 0 012-2zM88 65v3a1.003 1.003 0 01-1 1H57a1.003 1.003 0 01-1-1V65z"/><path fill="#e1ebf4" d="M83.97,73v29a11.00657,11.00657,0,0,1-11,11H52V87h6a2.00591,2.00591,0,0,0,2-2V73Z"/><path fill="#ffdb80" d="M48,85v30a1.003,1.003,0,0,1-1,1H44V84h3A1.003,1.003,0,0,1,48,85Z"/><rect width="22" height="20.09" x="18" y="89.91" fill="#e1ebf4"/><path fill="#ffdb80" d="M14,87v26a2.00591,2.00591,0,0,1-2,2H4V85h8A2.00587,2.00587,0,0,1,14,87Z"/><path fill="#ad9359" d="M14,111v2a2.00591,2.00591,0,0,1-2,2H4v-2h8A2.00591,2.00591,0,0,0,14,111Z" opacity=".45"/><rect width="22" height="2" x="18" y="108" fill="#9fa5aa" opacity=".5"/><path fill="#ad9359" d="M48,113v2a1.003,1.003,0,0,1-1,1H44v-2h3A1.003,1.003,0,0,0,48,113Z" opacity=".45"/><path fill="#9fa5aa" d="M83.97,100v2a11.00657,11.00657,0,0,1-11,11H52v-2H72.97A11.00657,11.00657,0,0,0,83.97,100Z" opacity=".5"/><path fill="#ad9359" d="M124,40v2h-8a2.00591,2.00591,0,0,1-2-2V38a2.00591,2.00591,0,0,0,2,2Z" opacity=".45"/><path fill="#f9edd2" d="M124,12v2h-8a2.00587,2.00587,0,0,0-2,2V14a2.00587,2.00587,0,0,1,2-2Z" opacity=".5"/><path fill="#fff" d="M110,17v2H71.14a10.01882,10.01882,0,0,0-9.97,10.04v-2A10.01882,10.01882,0,0,1,71.14,17Z" opacity=".5"/><path fill="#ad9359" d="M88,66v2a1.003,1.003,0,0,1-1,1H57a1.003,1.003,0,0,1-1-1V66a1.003,1.003,0,0,0,1,1H87A1.003,1.003,0,0,0,88,66Z" opacity=".45"/><path fill="#fff" d="M60,85v2a2.00591,2.00591,0,0,1-2,2H52V87h6A2.00591,2.00591,0,0,0,60,85Z" opacity=".5"/><path fill="#f9edd2" d="M48,85v2a1.003,1.003,0,0,0-1-1H44V84h3A1.003,1.003,0,0,1,48,85Z" opacity=".5"/><rect width="22" height="2" x="18" y="89.91" fill="#fff" opacity=".5"/><path fill="#f9edd2" d="M14,87v2a2.00587,2.00587,0,0,0-2-2H4V85h8A2.00587,2.00587,0,0,1,14,87Z" opacity=".5"/></svg>