<svg xmlns="http://www.w3.org/2000/svg" enable-background="new 0 0 74 74" viewBox="0 0 74 74" width="74" height="74"><path fill="#f8b732" d="M49.56,37.35L52,11.25c-7.99-1.91-16.29-1.78-24.86,0l1.18,25.54c0.24,5.17-3.21,9.79-8.24,11.02       L9.69,50.36c-2,0.49-3.51,2.15-3.8,4.19l-0.09,0.61l3.99,3.54l5.56,0.92l8.01,0.41l12.59-2.63H49.1l2.36-1.89       c0.01-4.19-0.32-8.16-1.26-11.69C49.64,41.7,49.36,39.52,49.56,37.35z"/><path d="M23.37,60.39c-0.01,0-0.01,0-0.02,0l-8.01-0.41l-5.6-0.92c-0.07-0.01-0.13-0.04-0.19-0.09l-3.99-3.54       c-0.09-0.08-0.14-0.21-0.12-0.33l0.09-0.61c0.32-2.21,1.92-3.97,4.08-4.5l10.38-2.54c4.84-1.19,8.19-5.66,7.96-10.64       l-1.18-25.54c-0.01-0.18,0.12-0.35,0.3-0.38c8.88-1.84,17.3-1.84,25.03,0c0.18,0.04,0.3,0.21,0.29,0.4l-2.43,26.1l0,0       c-0.18,1.96,0.03,4.09,0.62,6.33c0.86,3.24,1.28,7.1,1.27,11.79c0,0.11-0.05,0.22-0.14,0.29l-2.36,1.89       c-0.07,0.05-0.15,0.08-0.23,0.08H35.97l-12.52,2.62C23.43,60.39,23.4,60.39,23.37,60.39z M9.97,58.34l5.46,0.9l7.92,0.4       l12.55-2.62l13.08-0.01l2.11-1.69c0-4.54-0.41-8.28-1.25-11.42c-0.62-2.33-0.84-4.54-0.65-6.59l2.4-25.77       c-7.44-1.72-15.53-1.72-24.07,0.01l1.17,25.22c0.25,5.34-3.34,10.13-8.53,11.4L9.78,50.72c-1.87,0.46-3.25,1.98-3.52,3.88       l-0.06,0.41L9.97,58.34z M49.56,37.35L49.56,37.35L49.56,37.35z"/><path fill="#424852" d="M51.99,11.24l-0.5,5.37c-7.75-1.78-15.82-1.63-24.11,0.05l-0.24-5.42C35.7,9.47,44.01,9.35,51.99,11.24z"/><path d="M27.38,17.04c-0.08,0-0.16-0.03-0.23-0.08c-0.09-0.07-0.14-0.17-0.14-0.28l-0.24-5.42c-0.01-0.18,0.12-0.35,0.3-0.38       c8.87-1.84,17.28-1.84,25.02,0c0.18,0.04,0.3,0.21,0.29,0.4l-0.5,5.37c-0.01,0.11-0.07,0.21-0.15,0.27       c-0.09,0.06-0.2,0.09-0.3,0.06c-7.38-1.69-15.44-1.67-23.96,0.06C27.43,17.04,27.4,17.04,27.38,17.04z M27.52,11.55l0.21,4.67       c8.31-1.63,16.18-1.65,23.43-0.06l0.43-4.62C44.14,9.82,36.04,9.82,27.52,11.55z"/><path fill="#424852" d="M51.99,56.12v4.58c-0.88,0.24-1.78,0.45-2.7,0.61c-0.08-0.39-0.45-0.69-0.87-0.69       c-0.47,0-0.87,0.39-0.87,0.87c0,0.03,0,0.07,0.01,0.09c-0.94,0.14-1.88,0.24-2.86,0.3v-0.05c0-0.47-0.39-0.87-0.88-0.87       c-0.47,0-0.87,0.39-0.87,0.87c0,0.05,0,0.11,0.01,0.16c-0.94,0.04-1.87,0.05-2.83,0.03c0-0.05,0.01-0.12,0.01-0.19       c0-0.47-0.39-0.87-0.88-0.87c-0.47,0-0.87,0.39-0.87,0.87c0,0.05,0,0.11,0.01,0.16c-0.8-0.03-1.59-0.07-2.4-0.12v-2.85       c-2.87,0.96-5.69,1.71-8.43,2.22v-0.05c0-0.47-0.39-0.87-0.88-0.87c-0.47,0-0.87,0.39-0.87,0.87c0,0.12,0.03,0.24,0.07,0.35       c-1.02,0.16-2.03,0.28-3.02,0.35v-0.07c0-0.47-0.39-0.87-0.88-0.87c-0.47,0-0.87,0.39-0.87,0.87c0,0.07,0.01,0.14,0.01,0.19       c-1,0.05-1.99,0.05-2.98,0.01c0.01-0.07,0.03-0.14,0.03-0.2c0-0.47-0.39-0.87-0.88-0.87c-0.47,0-0.87,0.39-0.87,0.87       c0,0.03,0,0.07,0.01,0.09c-1.03-0.08-2.05-0.22-3.04-0.41c0.04-0.09,0.07-0.2,0.07-0.33c0-0.47-0.39-0.87-0.88-0.87       c-0.46,0-0.84,0.37-0.87,0.81c-1.07-0.26-2.14-0.6-3.17-0.99c0.04-0.09,0.07-0.2,0.07-0.33c0-0.47-0.39-0.87-0.88-0.87       c-0.35,0-0.65,0.22-0.79,0.52c-0.66-0.3-1.33-0.64-1.98-1v-3.31l0.89-0.61c1.87,2.71,6.28,4.04,12.28,4.47       c6.14,0.45,12.13-2.06,19.52-2.98c4.49-0.57,9.41-0.09,13.76-0.54L51.99,56.12z"/><path d="M19.55,62.44c-0.45,0-0.92-0.01-1.39-0.03c-0.11,0-0.21-0.06-0.28-0.14c-0.07-0.09-0.1-0.2-0.07-0.3       c0.01-0.05,0.02-0.09,0.02-0.13c0-0.27-0.23-0.49-0.51-0.49c-0.27,0-0.49,0.23-0.49,0.49c0.06,0.12,0.04,0.23-0.04,0.34       c-0.08,0.11-0.21,0.14-0.35,0.13c-1.05-0.08-2.08-0.22-3.08-0.41c-0.11-0.02-0.21-0.09-0.26-0.19s-0.06-0.22-0.01-0.32       c0.02-0.06,0.04-0.12,0.04-0.18c0-0.27-0.23-0.49-0.51-0.49c-0.26,0-0.48,0.21-0.49,0.46c-0.01,0.11-0.06,0.21-0.15,0.28       c-0.09,0.07-0.2,0.09-0.31,0.06c-1.05-0.25-2.14-0.59-3.22-1c-0.1-0.04-0.17-0.11-0.21-0.2c-0.04-0.09-0.04-0.2,0-0.29       c0.02-0.06,0.04-0.12,0.04-0.18c0-0.27-0.23-0.49-0.51-0.49c-0.19,0-0.36,0.12-0.44,0.29c-0.08,0.19-0.31,0.27-0.5,0.19       c-0.66-0.29-1.33-0.64-2.01-1.02c-0.12-0.07-0.19-0.19-0.19-0.33v-3.31c0-0.12,0.06-0.24,0.16-0.31l0.89-0.61       c0.17-0.12,0.4-0.07,0.52,0.1c1.68,2.44,5.61,3.85,12,4.31c3.7,0.27,7.41-0.56,11.34-1.45c2.57-0.58,5.22-1.17,8.11-1.53       c2.4-0.31,4.95-0.31,7.41-0.32c2.23-0.01,4.34-0.01,6.36-0.22c0.13-0.01,0.24,0.03,0.32,0.13l0.54,0.62       c0.06,0.07,0.09,0.16,0.09,0.25v4.58c0,0.17-0.11,0.32-0.27,0.36c-0.91,0.25-1.8,0.45-2.73,0.62c-0.2,0.03-0.39-0.09-0.43-0.29       c-0.05-0.22-0.26-0.39-0.5-0.39c-0.27,0-0.49,0.23-0.49,0.49c0.05,0.11,0.04,0.2-0.02,0.31c-0.06,0.11-0.17,0.14-0.29,0.16       c-1.06,0.15-2.01,0.25-2.89,0.3c-0.11,0.01-0.2-0.03-0.28-0.1c-0.07-0.07-0.12-0.17-0.12-0.27c0-0.33-0.23-0.55-0.51-0.55       c-0.27,0-0.49,0.23-0.49,0.49c0.03,0.11,0.01,0.26-0.06,0.35s-0.17,0.18-0.28,0.19c-1.01,0.04-1.94,0.05-2.86,0.03       c-0.2-0.01-0.36-0.17-0.36-0.38c0-0.01,0.01-0.11,0.01-0.12c0.01-0.34-0.22-0.56-0.5-0.56c-0.27,0-0.49,0.23-0.49,0.49       c0.03,0.11,0,0.27-0.07,0.36c-0.07,0.09-0.17,0.17-0.3,0.17c-0.8-0.03-1.59-0.07-2.41-0.12c-0.2-0.01-0.35-0.18-0.35-0.37       v-2.33c-2.73,0.89-5.41,1.59-7.99,2.07c-0.11,0.02-0.22-0.01-0.31-0.08c-0.09-0.07-0.14-0.18-0.14-0.29       c0-0.33-0.23-0.55-0.51-0.55c-0.27,0-0.49,0.23-0.49,0.49c0,0.07,0.02,0.15,0.04,0.22c0.04,0.11,0.03,0.22-0.03,0.32       s-0.15,0.16-0.26,0.18c-1.06,0.17-2.09,0.29-3.06,0.36c-0.11,0.01-0.21-0.03-0.28-0.1S22.52,62,22.52,61.9       c0-0.34-0.23-0.56-0.51-0.56c-0.27,0-0.49,0.23-0.49,0.49c0,0.01,0.01,0.18,0.01,0.19c0,0.2-0.16,0.36-0.35,0.37       C20.64,62.42,20.11,62.44,19.55,62.44z M18.57,61.67c0.76,0.02,1.49,0.02,2.21-0.01c0.08-0.61,0.6-1.07,1.23-1.07       c0.58,0,1.06,0.39,1.21,0.91c0.72-0.06,1.48-0.15,2.25-0.26c0-0.01,0-0.03,0-0.04c0-0.69,0.56-1.24,1.24-1.24       c0.56,0,1.03,0.36,1.19,0.85c2.58-0.5,5.27-1.22,8-2.14c0.11-0.04,0.24-0.02,0.34,0.05c0.1,0.07,0.16,0.18,0.16,0.3v2.5       c0.56,0.03,1.11,0.06,1.66,0.08c0.11-0.58,0.61-1.02,1.22-1.02c0.63,0,1.16,0.46,1.24,1.07c0.67,0.01,1.36,0.01,2.08-0.02       c0.1-0.59,0.61-1.04,1.23-1.04c0.57,0,1.06,0.38,1.21,0.9c0.67-0.05,1.39-0.12,2.17-0.23c0.11-0.57,0.62-1.01,1.22-1.01       c0.47,0,0.89,0.26,1.1,0.64c0.71-0.13,1.39-0.29,2.09-0.47v-4.15l-0.32-0.37c-2,0.19-4.16,0.2-6.24,0.21       c-2.44,0.01-4.96,0.02-7.32,0.32c-2.85,0.36-5.49,0.95-8.04,1.52c-3.98,0.9-7.75,1.74-11.56,1.46       c-6.38-0.46-10.42-1.88-12.34-4.33l-0.43,0.29v2.89c0.5,0.27,0.99,0.52,1.47,0.75c0.23-0.26,0.56-0.42,0.92-0.42       c0.69,0,1.26,0.56,1.26,1.24c0,0.03,0,0.06,0,0.09c0.83,0.3,1.65,0.56,2.46,0.77c0.2-0.43,0.63-0.73,1.14-0.73       c0.69,0,1.26,0.56,1.26,1.24c0,0.01,0,0.02,0,0.03c0.73,0.13,1.48,0.23,2.25,0.3c0.14-0.54,0.63-0.93,1.2-0.93       C17.96,60.59,18.49,61.06,18.57,61.67z"/><rect width="8.72" height="3.11" x="29.44" y="18.53" fill="#424852"/><path d="M38.16,22.01h-8.72c-0.21,0-0.38-0.17-0.38-0.38v-3.11c0-0.21,0.17-0.38,0.38-0.38h8.72c0.21,0,0.38,0.17,0.38,0.38       v3.11C38.54,21.85,38.37,22.01,38.16,22.01z M29.82,21.26h7.97V18.9h-7.97V21.26z"/><path fill="#fed230" d="M66.57,39.41L69,13.31c-7.99-1.91-16.29-1.78-24.86,0l1.18,25.54c0.24,5.17-3.21,9.79-8.24,11.02       L26.7,52.42c-2,0.49-3.51,2.15-3.8,4.19l-0.09,0.61l3.99,3.54l5.56,0.92l8.01,0.41l12.59-2.63H66.1l2.36-1.89       c0.01-4.19-0.32-8.16-1.26-11.69C66.64,43.76,66.37,41.59,66.57,39.41z"/><path d="M40.38,62.45c-0.01,0-0.01,0-0.02,0l-8.01-0.41l-5.6-0.92c-0.07-0.01-0.13-0.04-0.19-0.09l-3.99-3.54       c-0.09-0.08-0.14-0.21-0.12-0.33l0.09-0.61c0.32-2.21,1.92-3.97,4.08-4.5l10.38-2.54c4.84-1.19,8.19-5.66,7.96-10.64       l-1.18-25.54c-0.01-0.18,0.12-0.35,0.3-0.38c8.88-1.84,17.3-1.84,25.03,0c0.18,0.04,0.3,0.21,0.29,0.4l-2.43,26.1l0,0       c-0.18,1.96,0.03,4.09,0.62,6.33c0.86,3.24,1.28,7.1,1.27,11.79c0,0.11-0.05,0.22-0.14,0.29l-2.36,1.89       c-0.07,0.05-0.15,0.08-0.23,0.08H52.97l-12.52,2.62C40.43,62.45,40.4,62.45,40.38,62.45z M26.97,60.4l5.46,0.9l7.92,0.4       l12.55-2.62l13.08-0.01l2.11-1.69c0-4.54-0.41-8.28-1.25-11.42c-0.62-2.33-0.84-4.54-0.65-6.59l2.4-25.77       c-7.44-1.72-15.53-1.72-24.07,0.01l1.17,25.22c0.25,5.34-3.34,10.13-8.53,11.4l-10.38,2.54c-1.87,0.46-3.25,1.98-3.52,3.88       l-0.06,0.41L26.97,60.4z M66.57,39.41L66.57,39.41L66.57,39.41z"/><path fill="#636c77" d="M69,13.31l-0.5,5.37c-7.75-1.78-15.82-1.63-24.11,0.05l-0.24-5.42C52.71,11.53,61.01,11.41,69,13.31z"/><path d="M44.38,19.1c-0.08,0-0.16-0.03-0.23-0.08c-0.09-0.07-0.14-0.17-0.14-0.28l-0.24-5.42c-0.01-0.18,0.12-0.35,0.3-0.38       c8.87-1.84,17.28-1.84,25.02,0c0.18,0.04,0.3,0.21,0.29,0.4l-0.5,5.37c-0.01,0.11-0.07,0.21-0.15,0.27s-0.2,0.08-0.3,0.06       c-7.38-1.69-15.44-1.67-23.96,0.06C44.43,19.1,44.41,19.1,44.38,19.1z M44.53,13.61l0.21,4.67c8.31-1.63,16.18-1.65,23.43-0.06       l0.43-4.62C61.14,11.88,53.05,11.88,44.53,13.61z"/><path fill="#636c77" d="M69,58.19v4.58c-0.88,0.24-1.78,0.45-2.7,0.61c-0.08-0.39-0.45-0.69-0.87-0.69       c-0.47,0-0.87,0.39-0.87,0.87c0,0.03,0,0.07,0.01,0.09c-0.94,0.14-1.88,0.24-2.86,0.3v-0.05c0-0.47-0.39-0.87-0.88-0.87       c-0.47,0-0.87,0.39-0.87,0.87c0,0.05,0,0.11,0.01,0.16c-0.94,0.04-1.87,0.05-2.83,0.03c0-0.05,0.01-0.12,0.01-0.19       c0-0.47-0.39-0.87-0.88-0.87c-0.47,0-0.87,0.39-0.87,0.87c0,0.05,0,0.11,0.01,0.16c-0.8-0.03-1.59-0.07-2.4-0.12v-2.85       c-2.87,0.96-5.69,1.71-8.43,2.22v-0.05c0-0.47-0.39-0.87-0.88-0.87c-0.47,0-0.87,0.39-0.87,0.87c0,0.12,0.03,0.24,0.07,0.35       c-1.02,0.16-2.03,0.28-3.02,0.35v-0.07c0-0.47-0.39-0.87-0.88-0.87c-0.47,0-0.87,0.39-0.87,0.87c0,0.07,0.01,0.14,0.01,0.19       c-1,0.05-1.99,0.05-2.98,0.01c0.01-0.07,0.03-0.14,0.03-0.2c0-0.47-0.39-0.87-0.88-0.87c-0.47,0-0.87,0.39-0.87,0.87       c0,0.03,0,0.07,0.01,0.09c-1.03-0.08-2.05-0.22-3.04-0.41c0.04-0.09,0.07-0.2,0.07-0.33c0-0.47-0.39-0.87-0.88-0.87       c-0.46,0-0.84,0.37-0.87,0.81c-1.07-0.26-2.14-0.6-3.17-0.99c0.04-0.09,0.07-0.2,0.07-0.33c0-0.47-0.39-0.87-0.88-0.87       c-0.35,0-0.65,0.22-0.79,0.52c-0.66-0.3-1.33-0.64-1.98-1v-3.31l0.89-0.61c1.87,2.71,6.28,4.04,12.28,4.47       c6.14,0.45,12.13-2.06,19.52-2.98c4.49-0.57,9.41-0.09,13.76-0.54L69,58.19z"/><path d="M36.56,64.5c-0.46,0-0.92-0.01-1.4-0.03c-0.11,0-0.21-0.06-0.28-0.14s-0.09-0.2-0.07-0.3       c0.01-0.05,0.02-0.09,0.02-0.13c0-0.27-0.23-0.49-0.51-0.49c-0.27,0-0.49,0.23-0.49,0.49c0.06,0.12,0.04,0.23-0.04,0.34       s-0.21,0.14-0.35,0.13c-1.05-0.08-2.08-0.22-3.08-0.41c-0.11-0.02-0.21-0.09-0.26-0.19s-0.06-0.22-0.01-0.32       c0.03-0.06,0.04-0.12,0.04-0.18c0-0.27-0.23-0.49-0.51-0.49c-0.26,0-0.48,0.21-0.49,0.46c-0.01,0.11-0.06,0.21-0.15,0.28       c-0.09,0.07-0.2,0.09-0.31,0.06c-1.05-0.25-2.14-0.59-3.22-1c-0.1-0.04-0.17-0.11-0.21-0.2c-0.04-0.09-0.04-0.2,0-0.29       c0.02-0.06,0.04-0.12,0.04-0.18c0-0.27-0.23-0.49-0.51-0.49c-0.19,0-0.36,0.12-0.44,0.29c-0.08,0.19-0.31,0.27-0.5,0.19       c-0.66-0.29-1.33-0.64-2.01-1.02c-0.12-0.07-0.19-0.19-0.19-0.33v-3.31c0-0.12,0.06-0.24,0.16-0.31l0.89-0.61       c0.17-0.12,0.4-0.07,0.52,0.1c1.68,2.44,5.61,3.85,12,4.31c3.7,0.27,7.41-0.56,11.34-1.45c2.57-0.58,5.22-1.17,8.11-1.53       c2.4-0.31,4.95-0.31,7.41-0.32c2.23-0.01,4.34-0.01,6.36-0.22c0.12-0.01,0.24,0.04,0.32,0.13l0.54,0.62       c0.06,0.07,0.09,0.16,0.09,0.25v4.58c0,0.17-0.11,0.32-0.27,0.36c-0.91,0.25-1.8,0.45-2.73,0.62c-0.2,0.03-0.39-0.09-0.43-0.29       c-0.05-0.22-0.26-0.39-0.5-0.39c-0.27,0-0.49,0.23-0.49,0.49c0.05,0.11,0.04,0.2-0.01,0.3c-0.06,0.11-0.17,0.14-0.29,0.16       c-1.06,0.15-2.01,0.25-2.89,0.3c-0.11,0.01-0.2-0.03-0.28-0.1s-0.12-0.17-0.12-0.27c0-0.33-0.23-0.55-0.51-0.55       c-0.27,0-0.49,0.23-0.49,0.49c0.03,0.11,0.01,0.26-0.06,0.35s-0.17,0.18-0.28,0.19c-1.01,0.04-1.95,0.05-2.86,0.03       c-0.2-0.01-0.36-0.17-0.36-0.38c0-0.01,0.01-0.11,0.01-0.12c0.01-0.34-0.22-0.56-0.5-0.56c-0.27,0-0.49,0.23-0.49,0.49       c0.03,0.11,0,0.27-0.07,0.36c-0.07,0.09-0.16,0.18-0.3,0.17c-0.8-0.03-1.59-0.07-2.41-0.12c-0.2-0.01-0.35-0.18-0.35-0.37       v-2.33c-2.73,0.89-5.41,1.59-7.99,2.07c-0.11,0.02-0.22-0.01-0.31-0.08c-0.09-0.07-0.14-0.18-0.14-0.29       c0-0.33-0.23-0.55-0.51-0.55c-0.27,0-0.49,0.23-0.49,0.49c0,0.07,0.02,0.14,0.04,0.22c0.04,0.11,0.03,0.22-0.03,0.32       c-0.06,0.1-0.15,0.16-0.27,0.18c-1.07,0.17-2.09,0.29-3.06,0.36c-0.11,0-0.21-0.03-0.28-0.1c-0.08-0.07-0.12-0.17-0.12-0.27       c0-0.34-0.23-0.56-0.51-0.56c-0.27,0-0.49,0.23-0.49,0.49c0,0.01,0.01,0.18,0.01,0.19c0,0.2-0.16,0.36-0.35,0.37       C37.65,64.49,37.11,64.5,36.56,64.5z M35.57,63.73c0.76,0.02,1.49,0.02,2.21-0.01c0.08-0.61,0.6-1.08,1.23-1.08       c0.58,0,1.06,0.39,1.21,0.91c0.72-0.06,1.47-0.15,2.25-0.26c0-0.01,0-0.03,0-0.04c0-0.69,0.56-1.24,1.24-1.24       c0.56,0,1.03,0.36,1.19,0.85c2.58-0.5,5.27-1.22,8-2.14c0.11-0.04,0.24-0.02,0.34,0.05c0.1,0.07,0.16,0.18,0.16,0.3v2.49       c0.56,0.04,1.11,0.06,1.66,0.08c0.11-0.58,0.61-1.02,1.22-1.02c0.63,0,1.16,0.46,1.24,1.07c0.67,0.01,1.36,0,2.08-0.02       c0.1-0.59,0.61-1.04,1.23-1.04c0.57,0,1.06,0.38,1.21,0.9c0.68-0.05,1.39-0.12,2.17-0.23c0.11-0.57,0.61-1.01,1.22-1.01       c0.47,0,0.89,0.26,1.1,0.64c0.71-0.13,1.39-0.29,2.09-0.47v-4.15l-0.32-0.37c-2,0.19-4.16,0.2-6.24,0.21       c-2.44,0.01-4.96,0.02-7.32,0.32c-2.85,0.36-5.49,0.95-8.04,1.52c-3.98,0.9-7.75,1.74-11.56,1.46       c-6.38-0.46-10.42-1.88-12.34-4.33l-0.43,0.29v2.89c0.5,0.27,0.99,0.52,1.47,0.75c0.23-0.26,0.56-0.42,0.92-0.42       c0.69,0,1.26,0.56,1.26,1.24c0,0.03,0,0.06,0,0.09c0.83,0.3,1.65,0.56,2.46,0.77c0.2-0.43,0.63-0.73,1.14-0.73       c0.69,0,1.26,0.56,1.26,1.24c0,0.01,0,0.02,0,0.03c0.73,0.13,1.48,0.23,2.25,0.3c0.14-0.54,0.63-0.93,1.2-0.93       C34.96,62.65,35.49,63.12,35.57,63.73z"/><rect width="8.72" height="3.11" x="46.45" y="20.59" fill="#636c77"/><path d="M55.17,24.08h-8.72c-0.21,0-0.38-0.17-0.38-0.38v-3.11c0-0.21,0.17-0.38,0.38-0.38h8.72c0.21,0,0.38,0.17,0.38,0.38       v3.11C55.54,23.91,55.38,24.08,55.17,24.08z M46.82,23.33h7.97v-2.36h-7.97V23.33z"/><path d="M52.61 25.02h-3.6c-.42 0-.76-.36-.76-.81v-4.16c0-.45.34-.81.76-.81h3.6c.42 0 .76.36.76.81v4.16C53.37 24.66 53.03 25.02 52.61 25.02zM49.01 20l-.01 4.22 3.6.06.02-4.22L49.01 20zM35.6 22.97H32c-.42 0-.76-.36-.76-.81V18c0-.45.34-.81.76-.81h3.6c.42 0 .76.36.76.81v4.16C36.37 22.61 36.02 22.97 35.6 22.97zM32 17.94l-.01 4.22 3.6.06L35.62 18 32 17.94z"/><g><path d="M60.72,40.35c-0.01,0-0.03,0-0.04,0c-0.21-0.02-0.35-0.21-0.33-0.41l2.46-21.73c0.02-0.21,0.21-0.36,0.41-0.33     c0.21,0.02,0.35,0.21,0.33,0.41l-2.46,21.73C61.07,40.21,60.91,40.35,60.72,40.35z"/></g><g><path d="M64.88,20.64c-0.03,0-0.05,0-0.08-0.01l-4.03-0.88c-0.2-0.04-0.33-0.24-0.29-0.45s0.25-0.33,0.45-0.29l4.03,0.88     c0.2,0.04,0.33,0.24,0.29,0.45C65.21,20.52,65.05,20.64,64.88,20.64z"/></g><g><path d="M64.57,23.61c-0.03,0-0.05,0-0.08-0.01l-4.03-0.88c-0.2-0.04-0.33-0.24-0.29-0.45c0.04-0.2,0.25-0.33,0.45-0.29     l4.03,0.88c0.2,0.04,0.33,0.24,0.29,0.45C64.89,23.49,64.74,23.61,64.57,23.61z"/></g><g><path d="M64.28,26.3c-0.03,0-0.05,0-0.08-0.01l-4.03-0.88c-0.2-0.04-0.33-0.24-0.29-0.45s0.25-0.33,0.45-0.29l4.03,0.88     c0.2,0.04,0.33,0.24,0.29,0.45C64.61,26.18,64.45,26.3,64.28,26.3z"/></g><g><path d="M64,28.99c-0.03,0-0.05,0-0.08-0.01l-4.03-0.88c-0.2-0.04-0.33-0.24-0.29-0.45c0.04-0.2,0.25-0.33,0.45-0.29l4.03,0.88     c0.2,0.04,0.33,0.24,0.29,0.45C64.32,28.87,64.17,28.99,64,28.99z"/></g><g><path d="M63.69,31.91c-0.03,0-0.05,0-0.08-0.01l-4.03-0.88c-0.2-0.04-0.33-0.24-0.29-0.45s0.25-0.33,0.45-0.29l4.03,0.88     c0.2,0.04,0.33,0.24,0.29,0.45C64.01,31.79,63.86,31.91,63.69,31.91z"/></g><g><path d="M63.04,37.96c-0.03,0-0.05,0-0.08-0.01l-4.03-0.88c-0.2-0.04-0.33-0.24-0.29-0.45s0.25-0.33,0.45-0.29l4.03,0.88     c0.2,0.04,0.33,0.24,0.29,0.45C63.37,37.84,63.22,37.96,63.04,37.96z"/></g><g><path d="M63.41,34.5c-0.03,0-0.05,0-0.08-0.01l-4.03-0.88c-0.2-0.04-0.33-0.24-0.29-0.45s0.25-0.33,0.45-0.29l4.03,0.88     c0.2,0.04,0.33,0.24,0.29,0.45C63.74,34.39,63.58,34.5,63.41,34.5z"/></g><g><path d="M43.83,37.04c-0.02,0-0.04,0-0.07-0.01c-0.2-0.04-0.34-0.23-0.3-0.44l1.09-5.94c0.04-0.2,0.23-0.34,0.44-0.3     c0.2,0.04,0.34,0.23,0.3,0.44l-1.09,5.94C44.17,36.91,44.01,37.04,43.83,37.04z"/></g><g><path d="M45.01,32.68c-0.02,0-0.04,0-0.07-0.01l-3.01-0.54c-0.2-0.04-0.34-0.23-0.3-0.44c0.04-0.2,0.23-0.34,0.44-0.3l3.01,0.54     c0.2,0.04,0.34,0.23,0.3,0.44C45.34,32.56,45.19,32.68,45.01,32.68z"/></g><g><path d="M45.01,35.39c-0.02,0-0.04,0-0.07-0.01l-3.01-0.54c-0.2-0.04-0.34-0.23-0.3-0.44c0.04-0.2,0.23-0.33,0.44-0.3l3.01,0.54     c0.2,0.04,0.34,0.23,0.3,0.44C45.34,35.26,45.19,35.39,45.01,35.39z"/></g><g><path d="M44.78,29.72c-0.02,0-0.05,0-0.07-0.01l-2.57-0.48c-0.2-0.04-0.34-0.23-0.3-0.44c0.04-0.2,0.23-0.34,0.44-0.3l2.57,0.48     c0.2,0.04,0.34,0.23,0.3,0.44C45.12,29.6,44.96,29.72,44.78,29.72z"/></g><g><path d="M42.44,26.68c-0.21,0-0.37-0.17-0.38-0.37s0.17-0.38,0.37-0.38l2.13,0h0c0.21,0,0.37,0.17,0.38,0.37     s-0.17,0.38-0.37,0.38L42.44,26.68L42.44,26.68z"/></g><g><path d="M42.66,21.38c-0.2,0-0.37-0.16-0.38-0.36c-0.01-0.21,0.16-0.38,0.36-0.39l1.71-0.05c0.22-0.01,0.38,0.16,0.39,0.36     c0.01,0.21-0.16,0.38-0.36,0.39l-1.71,0.05C42.67,21.38,42.66,21.38,42.66,21.38z"/></g><g><path d="M42.45,24.08c-0.21,0-0.37-0.17-0.38-0.37c0-0.21,0.17-0.38,0.37-0.38l1.68-0.01c0,0,0,0,0,0c0.21,0,0.37,0.17,0.38,0.37     c0,0.21-0.17,0.38-0.37,0.38L42.45,24.08C42.45,24.08,42.45,24.08,42.45,24.08z"/></g></svg>