<svg xmlns="http://www.w3.org/2000/svg" viewBox="0 0 64 64" width="64" height="64">
    <path fill="#f6a530"
        d="M29.2 33.1h4c.6 0 1.1-.1 1.5-.3.5-.2.9-.4 1.2-.7.3-.3.6-.7.8-1.1.2-.4.3-.9.3-1.4 0-.5-.1-1-.2-1.4-.2-.4-.4-.8-.7-1.1-.3-.3-.7-.6-1.2-.7-.5-.2-1-.3-1.6-.3h-7.7v2.7h7.7c.3 0 .6.1.8.2.2.2.3.4.3.7 0 .3-.1.5-.3.7-.2.2-.4.2-.8.2h-4c-1.2 0-2.1.3-2.8.9-.7.6-1 1.5-1 2.7v3.6h11.3v-2.7H28V34c0-.4.2-.9 1.2-.9zM49.1 32.3v-6.2h-2.7v6.2h-4.2c-.5 0-.8-.1-1-.3-.2-.2-.3-.5-.3-1v-4.9h-2.7V31c0 1.3.4 2.3 1.1 3 .7.6 1.7.9 2.9.9h4.2v2.9h2.7v-2.9h1.6v-2.6h-1.6z"
        class="color2e79be svgShape" />
    <path fill="#f6a530"
        d="M24.7 44.9c-.2-.9-.6-1.6-1.2-2.1-.6-.6-1.4-.9-2.4-1h-.2c-.4-.1-.9-.1-1.5 0-1.4.2-2.9.4-4.3.7-.7-.2-5.3-10.5-.8-20.7 1.2.1 2.5.2 3.9.3.7 0 1.4-.1 2.2-.2 1.6-.4 2.6-1.4 3-3 .2-.8.3-1.6.4-2.3L24 15c.3-2.1.6-4.4.9-6.6.2-1.4-.3-2.4-.8-3.1 0-.2-.1-.3-.2-.4-.3-.3-.7-.6-1.2-.8-.9-.4-1.9-.4-2.8 0-6.2 2.6-11.3 7.2-14.5 13.1-2.5 4.4-3.9 9.4-3.9 14.7C1.5 38.7 3.8 45 7.6 50c3.3 4.4 7.9 7.9 13.1 10 .8.3 1.8.3 2.6 0 .7-.3 1.4-.6 1.9-.9.1-.1.2-.1.3-.2 1.3-.9 1.8-2.3 1.5-4-.8-3.6-1.5-6.8-2.3-10z"
        class="color2d3e50 svgShape" />
    <path fill="#fff"
        d="M32.1 1.6c-1.2 0-2.4.1-3.6.2 1.3 1.5 2 3.3 2.1 5.3.5 0 1-.1 1.5-.1C45.8 7.1 57 18.3 57 32c0 13.6-11 24.7-24.5 24.9-.2 2.1-1.2 4-2.7 5.4.7.1 1.5.1 2.2.1 16.8 0 30.4-13.6 30.4-30.4.1-16.8-13.5-30.4-30.3-30.4z"
        class="color2e79be svgShape" />
</svg>