<svg xmlns="http://www.w3.org/2000/svg" data-name="Layer 1" viewBox="0 0 128 128" width="128" height="128"><path fill="#2d4356" d="M43.93,54.53l-11-6.04a3.98354,3.98354,0,0,0-3.86,0l-11,6.04A4.00907,4.00907,0,0,0,16,58.04V69.96a4.009,4.009,0,0,0,2.07,3.51l11,6.04a4.06413,4.06413,0,0,0,3.86,0l11-6.04A4.009,4.009,0,0,0,46,69.96V58.04A4.00907,4.00907,0,0,0,43.93,54.53ZM29,74.91l-9-4.95V60.21l9,4.97Zm2-13.19-8.83-4.88L31,51.99l8.83,4.85Zm11,8.24-9,4.95V65.18l9-4.97Z"/><polygon fill="#ffdb80" points="29 65.18 29 74.91 20 69.96 20 60.21 29 65.18"/><path fill="#2d4356" d="M55.33,55.5h-.82c-.26-.72-.55-1.42-.87-2.11l.58-.58a6.91519,6.91519,0,0,0-.24-9.67L51.86,41.02a7.2034,7.2034,0,0,0-5.05-2.12,6.44532,6.44532,0,0,0-4.61,1.88l-.59.59c-.69-.33-1.39-.62-2.11-.88v-.82a6.84722,6.84722,0,0,0-7-6.67h-3a6.84722,6.84722,0,0,0-7,6.67v.82c-.72.26-1.42.55-2.11.88l-.59-.59a6.44532,6.44532,0,0,0-4.61-1.88,7.2034,7.2034,0,0,0-5.05,2.12L8.02,43.14a6.86945,6.86945,0,0,0-.25,9.66l.59.59c-.32.68994-.61,1.39-.87,2.11H6.67A6.84722,6.84722,0,0,0,0,62.5v3a6.84722,6.84722,0,0,0,6.67,7h.82c.26.72.55,1.42.88,2.11l-.59.58a6.8718,6.8718,0,0,0,.24,9.67l2.12,2.12a6.92112,6.92112,0,0,0,9.66.24l.59-.59c.69.33,1.39.62,2.11.88V88.33a6.84723,6.84723,0,0,0,7,6.67h3a6.84723,6.84723,0,0,0,7-6.67V87.51c.72-.26,1.42-.55,2.11-.88l.59.59a6.90319,6.90319,0,0,0,9.66-.24l2.12-2.12a6.89639,6.89639,0,0,0,.23-9.67l-.58-.58c.33-.69.62-1.39.88-2.11h.82a6.84722,6.84722,0,0,0,6.67-7v-3A6.84722,6.84722,0,0,0,55.33,55.5ZM58,65.5a2.84392,2.84392,0,0,1-2.67,3H52.68a1.51577,1.51577,0,0,0-1.45,1.13,21.06287,21.06287,0,0,1-1.94,4.69,1.49341,1.49341,0,0,0,.22,1.82L51.39,78.02a2.83657,2.83657,0,0,1-.24,4.01l-2.12,2.12a2.90135,2.90135,0,0,1-4,.24005s-1.88-1.88-1.89-1.88a1.56976,1.56976,0,0,0-1.82-.23,20.63077,20.63077,0,0,1-4.69,1.95,1.50417,1.50417,0,0,0-1.13,1.44v2.66a2.84393,2.84393,0,0,1-3,2.67h-3a2.84393,2.84393,0,0,1-3-2.67V85.67a1.50417,1.50417,0,0,0-1.13-1.44,20.63077,20.63077,0,0,1-4.69-1.95,1.52565,1.52565,0,0,0-1.82.23s-1.88,1.87-1.89,1.88a2.90135,2.90135,0,0,1-4-.24005l-2.12-2.12a2.85484,2.85484,0,0,1-.24-4.01L12.49,76.14a1.50917,1.50917,0,0,0,.23-1.82,20.63061,20.63061,0,0,1-1.95-4.69A1.50417,1.50417,0,0,0,9.33,68.5H6.67A2.84392,2.84392,0,0,1,4,65.5v-3a2.84388,2.84388,0,0,1,2.67-3H9.33a1.50424,1.50424,0,0,0,1.44-1.13,21.06167,21.06167,0,0,1,1.94-4.69,1.49339,1.49339,0,0,0-.22-1.82l-1.88-1.88a2.85484,2.85484,0,0,1,.24-4.01l2.12-2.12a2.91065,2.91065,0,0,1,4-.24l1.89,1.88a1.53668,1.53668,0,0,0,1.82.23,20.63353,20.63353,0,0,1,4.69-1.95,1.50412,1.50412,0,0,0,1.13-1.44V39.67a2.84392,2.84392,0,0,1,3-2.67h3a2.84392,2.84392,0,0,1,3,2.67v2.65a1.50469,1.50469,0,0,0,1.14,1.45,21.10942,21.10942,0,0,1,4.67,1.94,1.57474,1.57474,0,0,0,1.84-.22s1.87-1.88,1.88-1.88a2.88253,2.88253,0,0,1,4,.24l2.12,2.12a2.83658,2.83658,0,0,1,.24,4.01l-1.88,1.88a1.50755,1.50755,0,0,0-.22,1.82,21.06167,21.06167,0,0,1,1.94,4.69,1.51584,1.51584,0,0,0,1.45,1.13h2.65a2.84388,2.84388,0,0,1,2.67,3Z"/><path fill="#81d9e3" d="M55.33,59.5H52.68a1.51584,1.51584,0,0,1-1.45-1.13,21.06167,21.06167,0,0,0-1.94-4.69,1.50755,1.50755,0,0,1,.22-1.82l1.88-1.88a2.83658,2.83658,0,0,0-.24-4.01l-2.12-2.12a2.88253,2.88253,0,0,0-4-.24c-.01,0-1.88,1.88-1.88,1.88a1.57474,1.57474,0,0,1-1.84.22,21.10942,21.10942,0,0,0-4.67-1.94,1.50469,1.50469,0,0,1-1.14-1.45V39.67a2.84392,2.84392,0,0,0-3-2.67h-3a2.84392,2.84392,0,0,0-3,2.67v2.66a1.50412,1.50412,0,0,1-1.13,1.44,20.63353,20.63353,0,0,0-4.69,1.95,1.53668,1.53668,0,0,1-1.82-.23l-1.89-1.88a2.91065,2.91065,0,0,0-4,.24l-2.12,2.12a2.85484,2.85484,0,0,0-.24,4.01l1.88,1.88a1.49339,1.49339,0,0,1,.22,1.82,21.06167,21.06167,0,0,0-1.94,4.69A1.50424,1.50424,0,0,1,9.33,59.5H6.67A2.84388,2.84388,0,0,0,4,62.5v3a2.84392,2.84392,0,0,0,2.67,3H9.33a1.50417,1.50417,0,0,1,1.44,1.13,20.63061,20.63061,0,0,0,1.95,4.69,1.50917,1.50917,0,0,1-.23,1.82L10.61,78.02a2.85484,2.85484,0,0,0,.24,4.01l2.12,2.12a2.90135,2.90135,0,0,0,4,.24005c.01-.01,1.89-1.88,1.89-1.88a1.52565,1.52565,0,0,1,1.82-.23,20.63077,20.63077,0,0,0,4.69,1.95,1.50417,1.50417,0,0,1,1.13,1.44v2.66a2.84393,2.84393,0,0,0,3,2.67h3a2.84393,2.84393,0,0,0,3-2.67V85.67a1.50417,1.50417,0,0,1,1.13-1.44,20.63077,20.63077,0,0,0,4.69-1.95,1.56976,1.56976,0,0,1,1.82.23c.01,0,1.89,1.88,1.89,1.88a2.90135,2.90135,0,0,0,4-.24005l2.12-2.12a2.83657,2.83657,0,0,0,.24-4.01L49.51,76.14a1.49341,1.49341,0,0,1-.22-1.82,21.06287,21.06287,0,0,0,1.94-4.69,1.51577,1.51577,0,0,1,1.45-1.13h2.65a2.84392,2.84392,0,0,0,2.67-3v-3A2.84388,2.84388,0,0,0,55.33,59.5ZM46,69.96a4.009,4.009,0,0,1-2.07,3.51l-11,6.04a4.06413,4.06413,0,0,1-3.86,0l-11-6.04A4.009,4.009,0,0,1,16,69.96V58.04a4.00907,4.00907,0,0,1,2.07-3.51l11-6.04a3.98354,3.98354,0,0,1,3.86,0l11,6.04A4.00907,4.00907,0,0,1,46,58.04Z"/><polygon fill="#ffdb80" points="42 60.21 42 69.96 33 74.91 33 65.18 42 60.21"/><polygon fill="#ffdb80" points="39.83 56.84 31 61.72 22.17 56.84 31 51.99 39.83 56.84"/><path fill="#2d4356" d="M109.93,54.53l-11-6.04a3.98354,3.98354,0,0,0-3.86,0l-11,6.04A4.00907,4.00907,0,0,0,82,58.04V69.96a4.009,4.009,0,0,0,2.07,3.51l11,6.04a4.06413,4.06413,0,0,0,3.86,0l11-6.04A4.009,4.009,0,0,0,112,69.96V58.04A4.00907,4.00907,0,0,0,109.93,54.53ZM95,74.91l-9-4.95V60.21l9,4.97Zm2-13.19-8.83-4.88L97,51.99l8.83,4.85Zm11,8.24-9,4.95V65.18l9-4.97Z"/><path fill="#2d4356" d="M121.33,55.5h-.82c-.26-.72-.55-1.42-.87-2.11l.58-.58a6.91519,6.91519,0,0,0-.24-9.67L117.86,41.02a7.2034,7.2034,0,0,0-5.05-2.12,6.44532,6.44532,0,0,0-4.61,1.88l-.59.59c-.69-.33-1.39-.62-2.11-.88v-.82a6.84722,6.84722,0,0,0-7-6.67h-3a6.84722,6.84722,0,0,0-7,6.67v.82c-.72.26-1.42.55-2.11.88l-.59-.59a6.44532,6.44532,0,0,0-4.61-1.88,7.2034,7.2034,0,0,0-5.05,2.12L74.02,43.14a6.86945,6.86945,0,0,0-.25,9.66l.59.59c-.32.68994-.61,1.39-.87,2.11h-.82a6.84722,6.84722,0,0,0-6.67,7v3a6.84722,6.84722,0,0,0,6.67,7h.82c.26.72.55,1.42.88,2.11l-.59.58a6.8718,6.8718,0,0,0,.24,9.67l2.12,2.12a6.92112,6.92112,0,0,0,9.66.24l.59-.59c.69.33,1.39.62,2.11.88V88.33a6.84723,6.84723,0,0,0,7,6.67h3a6.84723,6.84723,0,0,0,7-6.67V87.51c.72-.26,1.42-.55,2.11-.88l.59.59a6.90319,6.90319,0,0,0,9.66-.24l2.12-2.12a6.89639,6.89639,0,0,0,.23-9.67l-.58-.58c.33-.69.62-1.39.88-2.11h.82a6.84722,6.84722,0,0,0,6.67-7v-3A6.84722,6.84722,0,0,0,121.33,55.5Zm2.67,10a2.84392,2.84392,0,0,1-2.67,3h-2.65a1.51577,1.51577,0,0,0-1.45,1.13,21.06287,21.06287,0,0,1-1.94,4.69,1.49341,1.49341,0,0,0,.22,1.82L117.39,78.02a2.83657,2.83657,0,0,1-.24,4.01l-2.12,2.12a2.90135,2.90135,0,0,1-4,.24005s-1.88-1.88-1.89-1.88a1.56976,1.56976,0,0,0-1.82-.23,20.63077,20.63077,0,0,1-4.69,1.95,1.50417,1.50417,0,0,0-1.13,1.44v2.66a2.84393,2.84393,0,0,1-3,2.67h-3a2.84393,2.84393,0,0,1-3-2.67V85.67a1.50417,1.50417,0,0,0-1.13-1.44,20.63077,20.63077,0,0,1-4.69-1.95,1.52565,1.52565,0,0,0-1.82.23s-1.88,1.87-1.89,1.88a2.90135,2.90135,0,0,1-4-.24005l-2.12-2.12a2.85484,2.85484,0,0,1-.24-4.01L78.49,76.14a1.50917,1.50917,0,0,0,.23-1.82,20.63061,20.63061,0,0,1-1.95-4.69,1.50417,1.50417,0,0,0-1.44-1.13H72.67a2.84392,2.84392,0,0,1-2.67-3v-3a2.84388,2.84388,0,0,1,2.67-3h2.66a1.50424,1.50424,0,0,0,1.44-1.13,21.06167,21.06167,0,0,1,1.94-4.69,1.49339,1.49339,0,0,0-.22-1.82l-1.88-1.88a2.85484,2.85484,0,0,1,.24-4.01l2.12-2.12a2.91065,2.91065,0,0,1,4-.24l1.89,1.88a1.53668,1.53668,0,0,0,1.82.23,20.63353,20.63353,0,0,1,4.69-1.95,1.50412,1.50412,0,0,0,1.13-1.44V39.67a2.84392,2.84392,0,0,1,3-2.67h3a2.84392,2.84392,0,0,1,3,2.67v2.65a1.50469,1.50469,0,0,0,1.14,1.45,21.10942,21.10942,0,0,1,4.67,1.94,1.57474,1.57474,0,0,0,1.84-.22s1.87-1.88,1.88-1.88a2.88253,2.88253,0,0,1,4,.24l2.12,2.12a2.83658,2.83658,0,0,1,.24,4.01l-1.88,1.88a1.50755,1.50755,0,0,0-.22,1.82,21.06167,21.06167,0,0,1,1.94,4.69,1.51584,1.51584,0,0,0,1.45,1.13h2.65a2.84388,2.84388,0,0,1,2.67,3Z"/><path fill="#81d9e3" d="M121.33,59.5h-2.65a1.51584,1.51584,0,0,1-1.45-1.13,21.06167,21.06167,0,0,0-1.94-4.69,1.50755,1.50755,0,0,1,.22-1.82l1.88-1.88a2.83658,2.83658,0,0,0-.24-4.01l-2.12-2.12a2.88253,2.88253,0,0,0-4-.24c-.01,0-1.88,1.88-1.88,1.88a1.57474,1.57474,0,0,1-1.84.22,21.10942,21.10942,0,0,0-4.67-1.94,1.50469,1.50469,0,0,1-1.14-1.45V39.67a2.84392,2.84392,0,0,0-3-2.67h-3a2.84392,2.84392,0,0,0-3,2.67v2.66a1.50412,1.50412,0,0,1-1.13,1.44,20.63353,20.63353,0,0,0-4.69,1.95,1.53668,1.53668,0,0,1-1.82-.23l-1.89-1.88a2.91065,2.91065,0,0,0-4,.24l-2.12,2.12a2.85484,2.85484,0,0,0-.24,4.01l1.88,1.88a1.49339,1.49339,0,0,1,.22,1.82,21.06167,21.06167,0,0,0-1.94,4.69,1.50424,1.50424,0,0,1-1.44,1.13H72.67a2.84388,2.84388,0,0,0-2.67,3v3a2.84392,2.84392,0,0,0,2.67,3h2.66a1.50417,1.50417,0,0,1,1.44,1.13,20.63061,20.63061,0,0,0,1.95,4.69,1.50917,1.50917,0,0,1-.23,1.82L76.61,78.02a2.85484,2.85484,0,0,0,.24,4.01l2.12,2.12a2.90135,2.90135,0,0,0,4,.24005c.01-.01,1.89-1.88,1.89-1.88a1.52565,1.52565,0,0,1,1.82-.23,20.63077,20.63077,0,0,0,4.69,1.95,1.50417,1.50417,0,0,1,1.13,1.44v2.66a2.84393,2.84393,0,0,0,3,2.67h3a2.84393,2.84393,0,0,0,3-2.67V85.67a1.50417,1.50417,0,0,1,1.13-1.44,20.63077,20.63077,0,0,0,4.69-1.95,1.56976,1.56976,0,0,1,1.82.23c.01,0,1.89,1.88,1.89,1.88a2.90135,2.90135,0,0,0,4-.24005l2.12-2.12a2.83657,2.83657,0,0,0,.24-4.01L115.51,76.14a1.49341,1.49341,0,0,1-.22-1.82,21.06287,21.06287,0,0,0,1.94-4.69,1.51577,1.51577,0,0,1,1.45-1.13h2.65a2.84392,2.84392,0,0,0,2.67-3v-3A2.84388,2.84388,0,0,0,121.33,59.5ZM112,69.96a4.009,4.009,0,0,1-2.07,3.51l-11,6.04a4.06413,4.06413,0,0,1-3.86,0l-11-6.04A4.009,4.009,0,0,1,82,69.96V58.04a4.00907,4.00907,0,0,1,2.07-3.51l11-6.04a3.98354,3.98354,0,0,1,3.86,0l11,6.04A4.00907,4.00907,0,0,1,112,58.04Z"/><polygon fill="#ffdb80" points="108 60.21 108 69.96 99 74.91 99 65.18 108 60.21"/><polygon fill="#ffdb80" points="105.83 56.84 97 61.72 88.17 56.84 97 51.99 105.83 56.84"/><polygon fill="#ffdb80" points="95 65.18 95 74.91 86 69.96 86 60.21 95 65.18"/><path fill="#2d4356" d="M32.24268 26.83386a2.001 2.001 0 002.813-.29883A34.63261 34.63261 0 0187.937 24.1076a1.9955 1.9955 0 00-.13281 3.9538l5.36084.91016a2 2 0 002.30859-2.29687l-.87842-5.334a1.99991 1.99991 0 00-3.91571-.15155 38.62518 38.62518 0 00-58.73517 2.83221A2 2 0 0032.24268 26.83386zM94.75732 101.16608a2.001 2.001 0 00-2.813.29883A34.63261 34.63261 0 0139.063 103.89233a1.9955 1.9955 0 00.13281-3.9538L33.835 99.02838a2 2 0 00-2.30859 2.29687l.87842 5.334a1.99991 1.99991 0 003.91571.15155 38.62518 38.62518 0 0058.73517-2.83221A2 2 0 0094.75732 101.16608z"/><polygon fill="#ad9359" points="42 67.96 42 69.96 33 74.91 33 72.91 42 67.96" opacity=".45"/><path fill="#e8fbfc" d="M12.71,55.6799a21.06167,21.06167,0,0,0-1.94,4.69,1.50424,1.50424,0,0,1-1.44,1.13H6.67a2.84388,2.84388,0,0,0-2.67,3v-2a2.84388,2.84388,0,0,1,2.67-3H9.33a1.50424,1.50424,0,0,0,1.44-1.13,20.393,20.393,0,0,1,1.8-4.42A1.489,1.489,0,0,1,12.71,55.6799Z" opacity=".4"/><path fill="#0f423c" d="M12.57 74.03988a20.31363 20.31363 0 01-1.8-4.41 1.50417 1.50417 0 00-1.44-1.13H6.67a2.84392 2.84392 0 01-2.67-3v-2a2.84392 2.84392 0 002.67 3H9.33a1.50417 1.50417 0 011.44 1.13 20.63061 20.63061 0 001.95 4.69A1.49086 1.49086 0 0112.57 74.03988zM26.5 83.66989v2a1.50417 1.50417 0 00-1.13-1.44 20.63077 20.63077 0 01-4.69-1.95 1.52565 1.52565 0 00-1.82.23s-1.88 1.87-1.89 1.88a2.90135 2.90135 0 01-4-.24005l-2.12-2.12a3.01656 3.01656 0 01-.77-3.19 3.3358 3.3358 0 00.77 1.19l2.12 2.12a2.90135 2.90135 0 004 .24005c.01-.01 1.89-1.88 1.89-1.88a1.52565 1.52565 0 011.82-.23 20.63077 20.63077 0 004.69 1.95A1.50417 1.50417 0 0126.5 83.66989zM35.5 86.32986v2a2.84393 2.84393 0 01-3 2.67h-3a2.84393 2.84393 0 01-3-2.67v-2a2.84393 2.84393 0 003 2.67h3A2.84393 2.84393 0 0035.5 86.32986zM51.15 82.02987l-2.12 2.12a2.90135 2.90135 0 01-4 .24005s-1.88-1.88-1.89-1.88a1.56976 1.56976 0 00-1.82-.23 20.63077 20.63077 0 01-4.69 1.95 1.50417 1.50417 0 00-1.13 1.44v-2a1.50417 1.50417 0 011.13-1.44 20.63077 20.63077 0 004.69-1.95 1.56976 1.56976 0 011.82.23c.01 0 1.89 1.88 1.89 1.88a2.90135 2.90135 0 004-.24005l2.12-2.12a3.234 3.234 0 00.78-1.19A3.00244 3.00244 0 0151.15 82.02987zM58 63.4999v2a2.84392 2.84392 0 01-2.67 3H52.68a1.51577 1.51577 0 00-1.45 1.13 20.39429 20.39429 0 01-1.8 4.42 1.489 1.489 0 01-.14-1.73 21.06287 21.06287 0 001.94-4.69 1.51577 1.51577 0 011.45-1.13h2.65A2.84392 2.84392 0 0058 63.4999z" opacity=".3"/><polygon fill="#ad9359" points="29 72.91 29 74.91 20 69.96 20 67.96 29 72.91" opacity=".45"/><polygon fill="#f9edd2" points="39.83 56.84 38.01 57.84 31 53.99 23.99 57.84 22.17 56.84 31 51.99 39.83 56.84" opacity=".5"/><path fill="#e8fbfc" d="M58 62.49991v2a2.84388 2.84388 0 00-2.67-3H52.68a1.51584 1.51584 0 01-1.45-1.13 21.06167 21.06167 0 00-1.94-4.69 1.50549 1.50549 0 01.14-1.73 20.393 20.393 0 011.8 4.42 1.51584 1.51584 0 001.45 1.13h2.65A2.84388 2.84388 0 0158 62.49991zM51.93 49.16989a3.35324 3.35324 0 00-.78-1.2l-2.12-2.12a2.88253 2.88253 0 00-4-.24c-.01 0-1.88 1.88-1.88 1.88a1.57474 1.57474 0 01-1.84.22 21.10942 21.10942 0 00-4.67-1.94 1.50469 1.50469 0 01-1.14-1.45v-2a1.50469 1.50469 0 001.14 1.45 21.10942 21.10942 0 014.67 1.94 1.57474 1.57474 0 001.84-.22s1.87-1.88 1.88-1.88a2.88253 2.88253 0 014 .24l2.12 2.12A3.01862 3.01862 0 0151.93 49.16989zM35.5 39.66989v2a2.84392 2.84392 0 00-3-2.67h-3a2.84392 2.84392 0 00-3 2.67v-2a2.84392 2.84392 0 013-2.67h3A2.84392 2.84392 0 0135.5 39.66989zM26.5 42.32986v2a1.50412 1.50412 0 01-1.13 1.44 20.63353 20.63353 0 00-4.69 1.95 1.53668 1.53668 0 01-1.82-.23l-1.89-1.88a2.91065 2.91065 0 00-4 .24l-2.12 2.12a3.32361 3.32361 0 00-.77 1.2 3.01373 3.01373 0 01.77-3.2l2.12-2.12a2.91065 2.91065 0 014-.24l1.89 1.88a1.53668 1.53668 0 001.82.23 20.63353 20.63353 0 014.69-1.95A1.50412 1.50412 0 0026.5 42.32986z" opacity=".4"/><polygon fill="#ad9359" points="95 72.91 95 74.91 86 69.96 86 67.96 95 72.91" opacity=".45"/><polygon fill="#f9edd2" points="105.83 56.84 104.01 57.84 97 53.99 89.99 57.84 88.17 56.84 97 51.99 105.83 56.84" opacity=".5"/><polygon fill="#ad9359" points="108 67.96 108 69.96 99 74.91 99 72.91 108 67.96" opacity=".45"/><path fill="#0f423c" d="M124 63.4999v2a2.84392 2.84392 0 01-2.67 3h-2.65a1.51577 1.51577 0 00-1.45 1.13 20.3943 20.3943 0 01-1.8 4.42 1.489 1.489 0 01-.14-1.73 21.06287 21.06287 0 001.94-4.69 1.51577 1.51577 0 011.45-1.13h2.65A2.84392 2.84392 0 00124 63.4999zM117.15 82.02987l-2.12 2.12a2.90135 2.90135 0 01-4 .24005s-1.88-1.88-1.89-1.88a1.56976 1.56976 0 00-1.82-.23 20.63077 20.63077 0 01-4.69 1.95 1.50417 1.50417 0 00-1.13 1.44v-2a1.50417 1.50417 0 011.13-1.44 20.63077 20.63077 0 004.69-1.95 1.56976 1.56976 0 011.82.23c.01 0 1.89 1.88 1.89 1.88a2.90135 2.90135 0 004-.24005l2.12-2.12a3.234 3.234 0 00.78-1.19A3.00244 3.00244 0 01117.15 82.02987zM101.5 86.32986v2a2.84393 2.84393 0 01-3 2.67h-3a2.84393 2.84393 0 01-3-2.67v-2a2.84393 2.84393 0 003 2.67h3A2.84393 2.84393 0 00101.5 86.32986zM92.5 83.66989v2a1.50417 1.50417 0 00-1.13-1.44 20.63077 20.63077 0 01-4.69-1.95 1.52565 1.52565 0 00-1.82.23s-1.88 1.87-1.89 1.88a2.90135 2.90135 0 01-4-.24005l-2.12-2.12a3.01656 3.01656 0 01-.77-3.19 3.3358 3.3358 0 00.77 1.19l2.12 2.12a2.90135 2.90135 0 004 .24005c.01-.01 1.89-1.88 1.89-1.88a1.52565 1.52565 0 011.82-.23 20.63077 20.63077 0 004.69 1.95A1.50417 1.50417 0 0192.5 83.66989zM78.57 74.03988a20.31363 20.31363 0 01-1.8-4.41 1.50417 1.50417 0 00-1.44-1.13H72.67a2.84392 2.84392 0 01-2.67-3v-2a2.84392 2.84392 0 002.67 3h2.66a1.50417 1.50417 0 011.44 1.13 20.63061 20.63061 0 001.95 4.69A1.49086 1.49086 0 0178.57 74.03988z" opacity=".3"/><path fill="#e8fbfc" d="M78.71 55.6799a21.06167 21.06167 0 00-1.94 4.69 1.50424 1.50424 0 01-1.44 1.13H72.67a2.84388 2.84388 0 00-2.67 3v-2a2.84388 2.84388 0 012.67-3h2.66a1.50424 1.50424 0 001.44-1.13 20.393 20.393 0 011.8-4.42A1.489 1.489 0 0178.71 55.6799zM124 62.49991v2a2.84388 2.84388 0 00-2.67-3h-2.65a1.51584 1.51584 0 01-1.45-1.13 21.06167 21.06167 0 00-1.94-4.69 1.50549 1.50549 0 01.14-1.73 20.393 20.393 0 011.8 4.42 1.51584 1.51584 0 001.45 1.13h2.65A2.84388 2.84388 0 01124 62.49991zM117.93 49.16989a3.35324 3.35324 0 00-.78-1.2l-2.12-2.12a2.88253 2.88253 0 00-4-.24c-.01 0-1.88 1.88-1.88 1.88a1.57474 1.57474 0 01-1.84.22 21.10942 21.10942 0 00-4.67-1.94 1.50469 1.50469 0 01-1.14-1.45v-2a1.50469 1.50469 0 001.14 1.45 21.10942 21.10942 0 014.67 1.94 1.57474 1.57474 0 001.84-.22s1.87-1.88 1.88-1.88a2.88253 2.88253 0 014 .24l2.12 2.12A3.01862 3.01862 0 01117.93 49.16989zM101.5 39.66989v2a2.84392 2.84392 0 00-3-2.67h-3a2.84392 2.84392 0 00-3 2.67v-2a2.84392 2.84392 0 013-2.67h3A2.84392 2.84392 0 01101.5 39.66989zM92.5 42.32986v2a1.50412 1.50412 0 01-1.13 1.44 20.63353 20.63353 0 00-4.69 1.95 1.53668 1.53668 0 01-1.82-.23l-1.89-1.88a2.91065 2.91065 0 00-4 .24l-2.12 2.12a3.32361 3.32361 0 00-.77 1.2 3.01373 3.01373 0 01.77-3.2l2.12-2.12a2.91065 2.91065 0 014-.24l1.89 1.88a1.53668 1.53668 0 001.82.23 20.63353 20.63353 0 014.69-1.95A1.50412 1.50412 0 0092.5 42.32986z" opacity=".4"/></svg>