<svg xmlns="http://www.w3.org/2000/svg" data-name="Layer 3" viewBox="0 0 64 64" width="64" height="64"><rect width="6" height="6" x="29" y="39" fill="none"/><rect width="6" height="6" x="9" y="29" fill="none"/><rect width="6" height="6" x="19" y="49" fill="none"/><rect width="6" height="6" x="9" y="49" fill="none"/><rect width="6" height="6" x="9" y="19" fill="none"/><rect width="6" height="6" x="19" y="9" fill="none"/><rect width="6" height="6" x="29" y="29" fill="none"/><rect width="6" height="6" x="9" y="9" fill="none"/><rect width="6" height="6" x="29" y="49" fill="none"/><rect width="6" height="6" x="39" y="19" fill="none"/><rect width="6" height="6" x="49" y="39" fill="none"/><rect width="6" height="6" x="49" y="49" fill="none"/><rect width="6" height="6" x="39" y="39" fill="none"/><rect width="6" height="6" x="39" y="49" fill="none"/><rect width="6" height="6" x="49" y="9" fill="none"/><rect width="6" height="6" x="49" y="19" fill="none"/><rect width="6" height="6" x="49" y="29" fill="none"/><rect width="6" height="6" x="9" y="39" fill="none"/><rect width="6" height="6" x="19" y="29" fill="none"/><rect width="6" height="6" x="39" y="29" fill="none"/><rect width="6" height="6" x="19" y="19" fill="none"/><rect width="6" height="6" x="19" y="39" fill="none"/><rect width="6" height="6" x="29" y="19" fill="none"/><rect width="6" height="6" x="29" y="9" fill="none"/><rect width="6" height="6" x="39" y="9" fill="none"/><rect width="6" height="4" x="19" y="5" fill="#6ecbf9"/><rect width="3" height="4" x="2" y="5" fill="#6ecbf9"/><rect width="6" height="4" x="9" y="5" fill="#6ecbf9"/><rect width="6" height="4" x="49" y="5" fill="#6ecbf9"/><rect width="3" height="4" x="59" y="5" fill="#6ecbf9"/><rect width="3" height="4" x="59" y="15" fill="#6ecbf9"/><rect width="3" height="4" x="59" y="25" fill="#6ecbf9"/><rect width="6" height="4" x="49" y="25" fill="#6ecbf9"/><rect width="6" height="4" x="19" y="25" fill="#6ecbf9"/><rect width="6" height="4" x="9" y="25" fill="#6ecbf9"/><rect width="3" height="4" x="2" y="25" fill="#6ecbf9"/><rect width="3" height="4" x="59" y="35" fill="#6ecbf9"/><rect width="3" height="4" x="59" y="45" fill="#6ecbf9"/><rect width="3" height="4" x="2" y="45" fill="#6ecbf9"/><rect width="6" height="4" x="49" y="45" fill="#6ecbf9"/><rect width="6" height="4" x="9" y="45" fill="#6ecbf9"/><rect width="6" height="4" x="19" y="45" fill="#6ecbf9"/><rect width="3" height="4" x="59" y="55" fill="#6ecbf9"/><rect width="4" height="3" x="5" y="59" fill="#47a7ed"/><rect width="4" height="16" x="5" y="19" fill="#47a7ed"/><rect width="4" height="16" x="5" y="39" fill="#47a7ed"/><rect width="4" height="13" x="5" y="2" fill="#47a7ed"/><rect width="13" height="4" x="2" y="15" fill="#6ecbf9"/><rect width="13" height="4" x="2" y="35" fill="#6ecbf9"/><rect width="13" height="4" x="2" y="55" fill="#6ecbf9"/><rect width="4" height="3" x="15" y="2" fill="#47a7ed"/><rect width="4" height="4" x="15" y="5" fill="#6ecbf9"/><rect width="4" height="4" x="15" y="25" fill="#6ecbf9"/><rect width="4" height="4" x="15" y="45" fill="#6ecbf9"/><rect width="4" height="16" x="15" y="29" fill="#47a7ed"/><rect width="4" height="16" x="15" y="9" fill="#47a7ed"/><rect width="4" height="13" x="15" y="49" fill="#47a7ed"/><rect width="4" height="3" x="25" y="59" fill="#47a7ed"/><rect width="4" height="16" x="25" y="39" fill="#47a7ed"/><rect width="4" height="16" x="25" y="19" fill="#47a7ed"/><rect width="4" height="13" x="25" y="2" fill="#47a7ed"/><rect width="16" height="4" x="19" y="15" fill="#6ecbf9"/><rect width="16" height="4" x="19" y="35" fill="#6ecbf9"/><rect width="16" height="4" x="19" y="55" fill="#6ecbf9"/><rect width="4" height="3" x="35" y="2" fill="#47a7ed"/><rect width="4" height="16" x="35" y="9" fill="#47a7ed"/><rect width="4" height="16" x="35" y="29" fill="#47a7ed"/><rect width="16" height="4" x="29" y="5" fill="#6ecbf9"/><rect width="16" height="4" x="29" y="25" fill="#6ecbf9"/><rect width="16" height="4" x="29" y="45" fill="#6ecbf9"/><rect width="4" height="13" x="35" y="49" fill="#47a7ed"/><rect width="4" height="3" x="45" y="59" fill="#47a7ed"/><rect width="4" height="16" x="45" y="19" fill="#47a7ed"/><rect width="4" height="13" x="45" y="2" fill="#47a7ed"/><rect width="4" height="16" x="45" y="39" fill="#47a7ed"/><rect width="16" height="4" x="39" y="15" fill="#6ecbf9"/><rect width="16" height="4" x="39" y="35" fill="#6ecbf9"/><rect width="16" height="4" x="39" y="55" fill="#6ecbf9"/><rect width="4" height="3" x="55" y="2" fill="#47a7ed"/><rect width="4" height="4" x="55" y="5" fill="#6ecbf9"/><rect width="4" height="4" x="55" y="25" fill="#6ecbf9"/><rect width="4" height="4" x="55" y="45" fill="#6ecbf9"/><rect width="4" height="16" x="55" y="9" fill="#47a7ed"/><rect width="4" height="16" x="55" y="29" fill="#47a7ed"/><rect width="4" height="13" x="55" y="49" fill="#47a7ed"/><circle cx="32" cy="32" r="16" fill="#0f8446"/><path fill="#079b46" d="M32,16a15.912,15.912,0,0,0-7.466,1.854A15.991,15.991,0,0,0,43.466,43.146,15.991,15.991,0,0,0,32,16Z"/><polygon fill="#fff" points="27 44 44 27 41 24 27 38 23 34 20 37 27 44"/><path fill="#fcef88" d="M32 19h0a4.162 4.162 0 0 1-2.846 3.949L29 23l.154.051A4.162 4.162 0 0 1 32 27h0a4.162 4.162 0 0 1 2.846-3.949L35 23l-.154-.051A4.162 4.162 0 0 1 32 19zM24 24h0a4.162 4.162 0 0 1-2.846 3.949L21 28l.154.051A4.162 4.162 0 0 1 24 32h0a4.162 4.162 0 0 1 2.846-3.949L27 28l-.154-.051A4.162 4.162 0 0 1 24 24z"/></svg>