<svg xmlns="http://www.w3.org/2000/svg" enable-background="new 0 0 64 64" viewBox="0 0 64 64"
    width="64" height="64">
    <path fill="#E3E8EC"
        d="M60,8v48c0,2.20996-1.78998,4-4,4H8c-2.21002,0-4-1.79004-4-4V8c0-2.21002,1.78998-4,4-4h48    C58.21002,4,60,5.78998,60,8z" />
    <path fill="#CDCFD1"
        d="M59,57H9c-1.10457,0-2-0.89543-2-2V5c0-0.3078,0.04211-0.60437,0.10785-0.89215   C5.32916,4.51416,4,6.09778,4,8v48c0,2.20914,1.79086,4,4,4h48c1.90222,0,3.48584-1.32916,3.89215-3.10785   C59.60437,56.95789,59.3078,57,59,57z" />
    <path fill="#FE9700"
        d="M53,13v38c0,1.09998-0.90002,2-2,2H13c-1.09998,0-2-0.90002-2-2V13c0-1.10004,0.90002-2,2-2h38    C52.09998,11,53,11.89996,53,13z" />
    <path fill="#D37A05"
        d="M13,50V11c-1.09998,0-2,0.89996-2,2v38c0,1.1,0.9,2,2,2h38c1.09998,0,2-0.90002,2-2H14   C13.45,51,13,50.55,13,50z" />
    <rect width="14" height="4" x="16" y="16" fill="#757483" />
    <rect width="14" height="12" x="16" y="20" fill="#E3E8EC" />
    <rect width="14" height="16" x="16" y="32" fill="#E3E8EC" />
    <path fill="#CDCFD1"
        d="M30 30v2H16V20h2v9c0 .55228.44772 1 1 1H30zM30 46v2H16V32h2v13c0 .55228.44772 1 1 1H30z" />
    <circle cx="23" cy="42" r="2" fill="#FB4239" />
    <rect width="14" height="4" x="34" y="44" fill="#757483" />
    <rect width="14" height="12" x="34" y="32" fill="#E3E8EC" />
    <path fill="#CDCFD1" d="M36,41v-9h-2v12h14v-2H37C36.44772,42,36,41.55228,36,41z" />
    <rect width="14" height="16" x="34" y="16" fill="#E3E8EC" />
    <path fill="#CDCFD1" d="M36,29V16h-2v16h14v-2H37C36.44772,30,36,29.55228,36,29z" />
    <ellipse cx="41" cy="38.5" fill="#FB4239" rx="2" ry="1.5" />
    <path fill="#231F20"
        d="M60,41c0.55273,0,1-0.44727,1-1V8c0-2.75684-2.24316-5-5-5H8C5.24316,3,3,5.24316,3,8v48    c0,2.75684,2.24316,5,5,5h48c2.75684,0,5-2.24316,5-5V44c0-0.55273-0.44727-1-1-1s-1,0.44727-1,1v12c0,1.6543-1.3457,3-3,3H8    c-1.6543,0-3-1.3457-3-3V8c0-1.6543,1.3457-3,3-3h48c1.6543,0,3,1.3457,3,3v32C59,40.55273,59.44727,41,60,41z" />
    <path fill="#231F20"
        d="M11,23c-0.55273,0-1,0.44775-1,1v27c0,1.6543,1.3457,3,3,3h38c1.6543,0,3-1.3457,3-3V13    c0-1.6543-1.3457-3-3-3H13c-1.6543,0-3,1.3457-3,3v7c0,0.55225,0.44727,1,1,1s1-0.44775,1-1v-7c0-0.55127,0.44824-1,1-1h38    c0.55176,0,1,0.44873,1,1v38c0,0.55176-0.44824,1-1,1H13c-0.55176,0-1-0.44824-1-1V24C12,23.44775,11.55273,23,11,23z" />
    <path fill="#231F20"
        d="M30,41c0.55273,0,1-0.44727,1-1V16c0-0.55225-0.44727-1-1-1H16c-0.55273,0-1,0.44775-1,1v32    c0,0.55273,0.44727,1,1,1h14c0.55273,0,1-0.44727,1-1v-4c0-0.55273-0.44727-1-1-1s-1,0.44727-1,1v3H17V33h12v7    C29,40.55273,29.44727,41,30,41z M29,17v2H17v-2H29z M17,31V21h12v10H17z" />
    <path fill="#231F20"
        d="M23 23c-.55273 0-1 .44775-1 1v3c0 .55225.44727 1 1 1s1-.44775 1-1v-3C24 23.44775 23.55273 23 23 23zM20 42c0 1.6543 1.3457 3 3 3s3-1.3457 3-3-1.3457-3-3-3S20 40.3457 20 42zM24 42c0 .55176-.44824 1-1 1s-1-.44824-1-1 .44824-1 1-1S24 41.44824 24 42zM48 21c.55273 0 1-.44775 1-1v-4c0-.55225-.44727-1-1-1H34c-.55273 0-1 .44775-1 1v32c0 .55273.44727 1 1 1h14c.55273 0 1-.44727 1-1V24c0-.55225-.44727-1-1-1s-1 .44775-1 1v7H35V17h12v3C47 20.55225 47.44727 21 48 21zM35 47v-2h12v2H35zM47 33v10H35V33H47z" />
    <path fill="#231F20"
        d="M40 20v4c0 .55225.44727 1 1 1s1-.44775 1-1v-4c0-.55225-.44727-1-1-1S40 19.44775 40 20zM41 41c1.68262 0 3-1.09766 3-2.5S42.68262 36 41 36s-3 1.09766-3 2.5S39.31738 41 41 41zM41 38c.62012 0 1 .32324 1 .5S41.62012 39 41 39s-1-.32324-1-.5S40.37988 38 41 38z" />
</svg>