<svg xmlns="http://www.w3.org/2000/svg" enable-background="new 0 0 50 50" viewBox="0 0 50 50" width="50" height="50"><path fill="#BFBFBF" d="M48.2814,27.2285l-6.71,13.3999h-0.01c-0.49,1.3701-1.85,2.6401-4.11,3.52   c-3.1299,1.2202-7.35,1.2402-10.53,0.0503l-11.52-5.3804c-1.936-0.9985-4.7094-1.8469-5.9-3.4497   c-0.28-0.3701-0.75-1.2002-1-1.6104c-0.53-0.8398-2.13-3.4199-2.13-3.4199c-3.0942-5.0112-5.37-10.037-5.37-15.79   c0-0.7798,0.71-2.2197,0.77-3l7.92,0.29l36.63,14.6201L48.2814,27.2285z"/><path fill="#AFAFAF" d="M23.6015 30.6084c-2.08-1.9199-6.38-3.3799-9.11-4.1196-2.73-.75-5.54-1.3203-8.06-2.6001-2.6642-1.3573-4.259-3.2068-4.98-4.9302-.11-.5303-.2-1.0601-.2599-1.6001.02-.02-.1487-1.1227-.1287-1.1329.27-.1997.9687.9928 1.2187 1.1832.47.3496.65.9497.89 1.48.62 1.3501 1.8 2.3799 3.09 3.0898 1.3.71 2.73 1.1401 4.15 1.5601 3.01.8999 6.02 1.7998 9.03 2.6899.93.2798 1.9.5898 2.56 1.2998C22.6514 28.2388 24.3515 29.9888 23.6015 30.6084zM48.2832 27.2326l-6.7126 13.3948h-.0101c-.4853 1.3747-1.85 2.6384-4.1044 3.518-3.1339 1.2232-7.3596 1.2434-10.5339.0508l-11.5246-5.3785c4.3266-.5399.8597-2.1633 5.8027-5.5399 4.897-3.3594 5.6129-.3004 9.1085-.6471 2.0522-.2019 3.5483-1.971 5.2973-3.0733 1.6579-1.041 3.5989-1.4858 5.4995-1.9207 1.7388-.3944 3.4776-.7883 5.2164-1.1827L48.2832 27.2326z"/><path fill="#929393" d="M47.1915,29.4087l-0.82,1.6299c0,0-9.3518,7.0225-21.0418,0.6524c0,0,1.8818-0.0826,3.9118,0.4174   c2.04,0.4902,3.63,0.8003,7.06,0.5903C39.7415,32.4985,46.4115,30.5386,47.1915,29.4087z"/><path fill="#D8D8D8" d="M48.8835,25.5882c-0.2226,2.8457-2.5941,5.3525-6.524,6.882c-2.2553,0.881-4.8978,1.3456-7.6565,1.3456    c-2.6715,0-5.256-0.4358-7.4726-1.2681c-1.8065-0.6898-3.6162-1.6942-4.9365-3.1071c-0.6195-0.6678-1.4325-1.2874-2.4102-1.8584    c-1.8972-1.0941-4.4526-1.9846-7.3855-2.565c-2.3909-0.4745-4.53-1.2487-6.3497-2.3041    c-3.3975-1.9647-5.2656-4.7429-5.1398-7.6273c0.0097-0.1839,0.0193-0.3583,0.0484-0.5421    c0.3194,2.4879,2.1198,4.8303,5.0914,6.5436c1.8197,1.0549,3.9589,1.8291,6.3497,2.3036c2.9329,0.5903,5.4883,1.4713,7.3855,2.565    c0.9776,0.5709,1.7907,1.2005,2.4102,1.8584c0.6873,0.7359,1.5487,1.4037,2.5554,1.994c0.7163,0.4065,1.5197,0.7841,2.3811,1.113    c2.2166,0.8328,4.801,1.278,7.4726,1.278c2.7586,0,5.4012-0.4646,7.6565-1.3456c3.7556-1.4713,6.0884-3.8236,6.4756-6.5048    C48.9029,24.7653,48.9126,25.1718,48.8835,25.5882z"/><path fill="#E8E8E8" d="M42.8141,31.3672c-0.1719,0.0711-0.3437,0.1313-0.5257,0.1925c-4.4178,1.5564-10.17,1.5263-14.5372-0.1214    c-0.8694-0.3337-1.6478-0.698-2.3454-1.1023c-0.9907-0.5761-1.7994-1.2029-2.4363-1.8901    c-0.738-0.7888-1.6681-1.4967-2.7498-2.1231c-2.2139-1.274-5.0344-2.204-8.0268-2.8003c-1.5265-0.3031-2.9923-0.738-4.347-1.314    c-0.6874-0.2932-1.3446-0.617-1.9713-0.9709C-1.03,17.2546-0.6155,10.613,7.2192,6.9834    c5.9443-2.7697,14.6787-2.7396,20.6129,0.0405c2.2498,1.0771,4.4936,2.6611,5.5804,4.8932    c1.4061,2.9123,5.3834,4.7541,8.4514,5.7521c1.0918,0.3436,2.1229,0.7883,3.053,1.3244    C50.9925,22.5013,50.2848,28.4459,42.8141,31.3672z"/><path fill="#D8D8D8" d="M47.9799,24.958c-0.091,1.1931-0.738,2.3353-1.8702,3.3359c-0.92,0.809-2.1533,1.547-3.6596,2.1334    c-0.1718,0.0706-0.3234,0.1214-0.4852,0.1718c-0.1921,0.0706-0.3842,0.1313-0.5762,0.192    c-0.839,0.2631-1.7287,0.4754-2.6486,0.6165c-1.1424,0.192-2.3454,0.2833-3.5584,0.2833c-2.5476,0-4.994-0.4146-7.0765-1.2034    c-0.829-0.313-1.5468-0.6466-2.1938-1.0307c-0.8997-0.5158-1.6377-1.0919-2.2038-1.6985    c-0.7885-0.8392-1.7894-1.6176-2.9823-2.3151c-1.7489-1.0006-3.9426-1.8501-6.4295-2.4765    c-0.6167-0.1619-1.2535-0.3036-1.9006-0.4349c-1.5063-0.2932-2.9014-0.7177-4.1549-1.2538    c-0.1112-0.0504-0.2325-0.1012-0.3437-0.1614c-0.5256-0.2226-1.0412-0.4857-1.5265-0.7582    c-1.193-0.6876-2.1533-1.466-2.8711-2.2948c-1.0312-1.1832-1.5468-2.4873-1.4861-3.8216    c0.1112-2.4261,2.1634-4.7313,5.6309-6.3386c2.7194-1.2735,6.2071-1.971,9.8162-1.971c0.5459,0,1.0918,0.0202,1.6276,0.0503    c3.0631,0.1718,5.9645,0.8594,8.32,1.9611c2.002,0.9396,4.1385,2.4331,5.0951,4.4179c1.4783,3.0534,5.2606,4.9604,8.4817,6.0755    c0.182,0.0711,0.374,0.1318,0.5661,0.1925c1.0412,0.3332,2.0016,0.7478,2.8609,1.2429    C46.8173,21.2579,48.1215,23.1183,47.9799,24.958z"/><path fill="#D1D1D1" d="M47.9799,24.958c-0.1617,2.1635-2.1836,4.1548-5.5298,5.4693c-0.1718,0.0706-0.3234,0.1214-0.4852,0.1718    c-0.1921,0.0706-0.3842,0.1313-0.5762,0.192c-0.839,0.2631-1.7287,0.4754-2.6486,0.6165    c-0.2224-0.1515-0.4448-0.3233-0.6571-0.4951c-0.7886-0.6471-1.5164-1.4053-2.4263-1.8906    c-2.8414-1.5448-6.298-0.0654-10.6855-4.064c-0.5762-0.5257-1.8702-1.5263-1.759-2.4059    c0.1314-1.0213,1.8803-1.4759,2.6992-1.5973c1.3142-0.2024,2.6891-0.0908,3.9427-0.5257    c1.1019-0.3742,2.0219-1.1324,3.0732-1.5973c1.8904-0.8392,4.0437-0.7074,6.0959-0.5662    c0.6469,0.0508,1.3041,0.1012,1.9612,0.1718c0.182,0.0711,0.374,0.1318,0.5661,0.1925c1.0412,0.3332,2.0016,0.7478,2.8609,1.2429    C46.8173,21.2579,48.1215,23.1183,47.9799,24.958z"/><path fill="#E0E0E0" d="M25.6889,21.986c-1.0207,1.2327-3.1215-0.5957-6.3588-0.4754c-1.6478,0.081-3.2249,0.6876-4.7413,1.3347    c-0.1011,0.0405-0.1921,0.081-0.2931,0.1214c-0.6167-0.1619-1.2535-0.3036-1.9006-0.4349    c-1.5063-0.2932-2.9014-0.7177-4.1549-1.2538c-0.1112-0.0504-0.2325-0.1012-0.3437-0.1614    c-0.5256-0.2226-1.0412-0.4857-1.5265-0.7582c-2.9014-1.6783-4.4582-3.8517-4.3572-6.1164    c0.1112-2.4261,2.1634-4.7313,5.6309-6.3386c2.7194-1.2735,6.2071-1.971,9.8162-1.971c0.5459,0,1.0918,0.0202,1.6276,0.0503    c0.4306,2.2604,0.2314,2.6642,3.3867,4.5289c5.1152,2.9799,1.1259,5.3261,2.0522,7.9255    C24.8632,19.3869,26.6176,20.8301,25.6889,21.986z"/><path fill="#E8E8E8" d="M41.3886,30.7911c-1.8904,0.5963-4.0134,0.8999-6.2071,0.8999c-2.5476,0-4.994-0.4146-7.0765-1.2034    c-0.829-0.313-1.5468-0.6466-2.1938-1.0307c-0.8997-0.5158-1.6377-1.0919-2.2038-1.6985    c-0.7885-0.8392-1.7894-1.6176-2.9823-2.3151c-2.1836-1.2533-5.0648-2.2642-8.3301-2.9114    c-1.5063-0.2932-2.9014-0.7177-4.1549-1.2538c-0.1112-0.0504-0.2325-0.1012-0.3437-0.1614    c0.1517-0.6269,0.5661-1.1427,1.2334-1.5366C14.5302,16.4439,32.0308,23.0259,41.3886,30.7911z"/><path fill="#1DA7FC" d="M44.4113,27.0811c-0.8593-0.4956-1.8197-0.9097-2.8609-1.2434c-0.1921-0.0607-0.3842-0.1214-0.5661-0.192    c-1.577-0.5459-2.962-1.1625-4.1246-1.8402c-2.1229-1.2232-3.5888-2.6483-4.3571-4.2357    c-1.9797-4.1062-8.3789-6.0958-13.4151-6.379c-0.5358-0.0301-1.0817-0.0503-1.6276-0.0503c-3.609,0-7.0968,0.6975-9.8162,1.971    c-1.7792,0.8293-3.1844,1.8402-4.1448,2.9523c0.1517,0.1718,0.3134,0.3436,0.4852,0.5055    c3.562-3.5237,9.9647-4.6563,15.1033-4.3675c4.1127,0.2313,7.5291,1.3826,9.5331,2.5984c1.8601,1.0716,3.2047,2.3758,3.882,3.7806    c1.4771,3.0519,5.2598,4.9606,8.4817,6.0759c0.182,0.0706,0.374,0.1313,0.5661,0.192c1.0412,0.3337,2.0016,0.7478,2.8609,1.2434    c0.3842,0.2221,0.7481,0.4546,1.0716,0.7074c0.2224-0.1718,0.4348-0.3337,0.6268-0.5055    C45.6346,27.8595,45.0583,27.4548,44.4113,27.0811z"/><path fill="#3DBDFC" d="M41.5504,26.8486c-0.1921-0.0607-0.3842-0.1214-0.5661-0.192c-3.2165-1.1135-7.0035-3.0216-8.4817-6.0759    c-0.6773-1.4048-2.0219-2.709-3.882-3.7806c-2.004-1.2159-5.4205-2.3671-9.5331-2.5984    c-5.1312-0.2884-11.5382,0.8408-15.1033,4.3675c0.647,0.6466,1.4456,1.2434,2.3858,1.7894    c0.4852,0.2725,1.0008,0.5356,1.5265,0.7582c0.1112,0.0602,0.2326,0.1111,0.3437,0.1614    c1.2535,0.5361,2.6486,0.9606,4.1549,1.2538c0.647,0.1313,1.2839,0.273,1.9006,0.4349c2.4869,0.6264,4.6806,1.4759,6.4295,2.4765    c1.1929,0.6975,2.1938,1.4759,2.9823,2.3151c0.5661,0.6067,1.3041,1.1827,2.2038,1.6985c0.647,0.384,1.3648,0.7177,2.1938,1.0307    c2.0825,0.7888,4.5289,1.2034,7.0765,1.2034c1.2131,0,2.4161-0.0913,3.5584-0.2833c0.92-0.1412,1.8096-0.3534,2.6486-0.6165    c0.1921-0.0607,0.3842-0.1214,0.5762-0.192c0.1618-0.0504,0.3134-0.1012,0.4852-0.1718c1.193-0.465,2.2039-1.0213,3.0328-1.628    c-0.3234-0.2527-0.6874-0.4852-1.0716-0.7074C43.552,27.5964,42.5916,27.1823,41.5504,26.8486z"/><g><path fill="#5BC8FF" d="M29.6783 24.345l.1993.0188.2897.0186c.2769.0301.531.1107.7267.2237.7367.4253.058.9147 1.0565 1.088.1448.0305 1.5187.0168 1.6447.7416-.0533.9865 2.0175.3279 2.2526 1.3155.2288 1.0329 1.1011.4806 1.8745.9271.6274.3622.1089.6574.704 1.0009.2008.1159.4821.1893.7724.1924-.3681.0122-.7123-.0926-.9212-.2348-.482-.2783-.0927-.5589-.6179-.8621-.7542-.4355-1.6873.2067-2.1075-1.0011-.265-.8184-2.4472-.1793-2.3751-1.3116-.0625-.3046-.5018-.4509-.8131-.4771-.1098-.011-.354-.0037-.5408-.0446-1.5234-.246-.4617-1.1556-1.7442-1.2819-.1005-.0064-.6219-.0399-.5215-.0334-1.6955-.2866-.356-1.3091-2.2525-1.338-1.2258-.1328-1.1007-.8587-1.1894-.9987-.3196-.4587-1.0414-.2442-1.624-.477-1.1588-.4353-.0486-1.2337-1.6861-1.2334-1.255-.0704-1.1743-.8388-1.2278-.939-.2272-.4981-1.1064-.3894-1.5661-.533-.0938-.032-.1802-.071-.2569-.1153-.7315-.4223-.0591-1.1663-1.4747-1.1964 1.4153-.0157.9315.7462 1.5436 1.0996.082.0474.1758.0866.2773.1154.4275.1179 1.39-.0416 1.7535.5811.076.1223-.0155.7441.9821.7827.6284-.029 1.5086.2539 1.4716.8347.1658.8064 2.3288.1403 2.3362 1.3117.0975.5945 1.3706.5313 1.2703.5254C29.5379 23.2799 28.5178 24.2118 29.6783 24.345zM28.7984 21.3243c.2678.0036 1.074.0368 1.4565.4472.2649.2752.084.3751.2413.5851.2931.4373 1.0226.2576 1.6176.4732.9015.3453.3445.7298.8809 1.0583.5877.3393 1.1608-.002 1.7785.5218.3902.365-.0959.9521 1.2862 1.0396 1.7875.0358.5668 1.378 2.2657 1.3976-1.7354.0366-.6677-1.2762-2.2717-1.2745-.167-.0001-.3731-.0075-.5406-.0522-.1651-.0365-.3165-.094-.4421-.1666-.5903-.3408-.1521-.6134-.6824-.9195-.5198-.3001-1.0647-.0367-1.6538-.3769-.717-.4121-.1239-1.0047-1.2441-1.0971-.2409-.0246-.6593.0236-1.1167-.2405-.7511-.4336-.0756-.9784-1.1684-1.0861-.1005-.0065-.6216-.0401-.5211-.0336-1.6857-.2827-.5162-1.0888-1.7572-1.3043l-.2059-.0149c-.1026-.016-.5608.0188-1.005-.2376-.1973-.1139-.3942-.3063-.4085-.5337-.0615-.9433-2.1504-.2637-2.2976-1.3043.0235-.9853-2.0721-.3392-2.2528-1.3079-.0198-.1231-.0076-.1975-.0529-.2833-.3574-.7111-1.926-.1738-2.1739-1.0322-.0566-.5898-.5275-.8058-1.1242-.8123 1.6949-.0194.7384 1.2778 2.2654 1.2781 1.9445-.0009.8447 1.2285 2.2848 1.3042.6622-.0306 1.5259.2847 1.4714.8273.1629.7856 1.6793.1895 2.2316.9837.1991.2378.0102.3022.2219.559.3419.3473 1.2628.3046 1.1598.298C28.5891 20.2444 27.6713 21.1526 28.7984 21.3243zM26.2707 24.7315c.1007.0182.8546-.0054 1.2569.4286.3388.3769-.0454.7464.8222.9055.1415.0225.2382.0186.4699.0335 1.8172.1316.5257 1.3602 2.2527 1.3603 1.221.0685 1.1734.8371 1.2278.939.3056.7144 1.9219.159 2.1739 1.0322.0195.2922.0577.4501.3475.6174.2035.1175.4809.1886.7764.1951-1.383.0145-.9553-.7599-1.5455-1.1007-.4732-.2732-.7808-.1141-1.2733-.2297-1.0722-.238-.5679-.7688-1.1006-1.0764-.1709-.0987-.3999-.1628-.6371-.1719-.6679.0226-1.5069-.2754-1.4712-.8349-.1545-.7401-1.7044-.2116-2.2252-.98-.1819-.2094-.0352-.3559-.2285-.5551-.3957-.435-.9656-.1332-1.7137-.4622-.959-.4649.0166-1.152-1.7051-1.1775-1.8554-.2088-.2621-1.2215-2.2465-1.349-1.859-.1728-.5133-1.3609-2.2531-1.3601-.4456-.0296-1.066-.2253-1.1679-.6598-.2262-1.0211-1.1165-.4894-1.8808-.9307-.7011-.4048-.0787-1.1634-1.4769-1.1932.3102-.0067.6627.0635.9216.2346.535.3089.0121.7244.9061.9838.4904.1285.9033-.0278 1.4336.2783.5855.338.1972.5392.5543.8396.1542.1226.423.2301.7409.2424.6221-.0291 1.5087.2517 1.4716.8347.1114.5349 1.1851.4842 1.3475.518 1.5254.2548.4724 1.1485 1.7444 1.2893.1039.0014.6987.0074 1.0755.1901C25.8802 24.0414 24.7811 24.4943 26.2707 24.7315zM19.6962 23.3707c-.0267.7311 1.5217.2961 2.1349.9577.3388.3769-.0454.7464.8222.9055.1194.0189 1.517-.0021 1.6447.7416-.0539.9785 2.0249.3505 2.2528 1.3079.0198.1231.0073.1977.0529.2833.2944.6881 1.93.1869 2.1739 1.0322.0139.2087.028.395.2475.5516.2333.1776.5819.2544.8763.2609-.6328.0066-1.1159-.1819-1.2523-.7976-.3391-.8642-1.9259.0388-2.4007-1.3042-.0199-.0856-.0781-.164-.1622-.2347-.5598-.4451-2.2762-.0796-2.2125-1.0771-.0629-.3015-.4942-.4547-.8072-.4805-2.2429-.0784-.9198-1.1759-2.2847-1.3267l-.2188-.0074c-.1329-.0214-.4297.0051-.8566-.1826-1.0348-.5016.092-1.1382-1.7051-1.1775-1.2276-.1381-1.0753-.8464-1.1894-.9987-.2405-.3453-.8137-.3347-1.057-.3503-1.8172-.1689-.5359-1.3609-2.2531-1.3601-1.8384-.1222-.5011-1.3399-2.2592-1.3789-1.802-.1072-.5721-1.3686-2.2663-1.4048 1.5945-.0346.7754 1.2796 2.2785 1.278.3413.0003.687.048.9828.2188.4104.237.3524.4927.3921.6048.2055.6443 1.3472.347 1.9441.6916.3157.1815.4421.4406.4306.6202.1718.8246 2.1689.097 2.3493 1.3116.0574.6427 1.2205.3959 1.8181.6857C19.2104 22.7589 19.6946 23.0836 19.6962 23.3707z"/></g></svg>