<svg xmlns="http://www.w3.org/2000/svg" enable-background="new 0 0 66 66" viewBox="0 0 66 66" width="66" height="66"><rect width="14.9" height="10.3" x="46.3" y="39.4" fill="#c5dfdc" stroke="#682f2a" stroke-linecap="round" stroke-linejoin="round" stroke-miterlimit="10" stroke-width="1.5"/><rect width="3.1" height="14.2" x="61.2" y="39.4" fill="#a7cec8" stroke="#682f2a" stroke-linecap="round" stroke-linejoin="round" stroke-miterlimit="10" stroke-width="1.5"/><line x1="58.4" x2="58.4" y1="42.3" y2="39.4" fill="none" stroke="#a7cec8" stroke-linecap="round" stroke-linejoin="round" stroke-miterlimit="10" stroke-width="1.5"/><line x1="55.4" x2="55.4" y1="44.6" y2="39.4" fill="none" stroke="#a7cec8" stroke-linecap="round" stroke-linejoin="round" stroke-miterlimit="10" stroke-width="1.5"/><line x1="52.5" x2="52.5" y1="42.3" y2="39.4" fill="none" stroke="#a7cec8" stroke-linecap="round" stroke-linejoin="round" stroke-miterlimit="10" stroke-width="1.5"/><line x1="49.6" x2="49.6" y1="44.6" y2="39.4" fill="none" stroke="#a7cec8" stroke-linecap="round" stroke-linejoin="round" stroke-miterlimit="10" stroke-width="1.5"/><rect width="14.9" height="10.3" x="46.3" y="39.4" fill="none" stroke="#682f2a" stroke-linecap="round" stroke-linejoin="round" stroke-miterlimit="10" stroke-width="1.5"/><path fill="#6e9583" stroke="#682f2a" stroke-linecap="round" stroke-linejoin="round" stroke-miterlimit="10" stroke-width="1.5" d="M43.9,40.3h-6l-6.6-24l5,0.2c1.7,0.1,3.3,1,4.2,2.5C43.8,24.4,45.6,32.1,43.9,40.3z"/><path fill="#525f70" stroke="#682f2a" stroke-linecap="round" stroke-linejoin="round" stroke-miterlimit="10" stroke-width="1.5" d="M39.6,31.3c0-10.5-8.6-19.1-19.2-18.9C10.4,12.5,2,20.8,1.8,30.9c-0.1,3,0.6,5.9,1.7,8.4   c0.5,1.1,0.6,2.3,0.1,3.4l-1,2.5C1.8,47,2.4,49,4,50.2l1.7,1.2c1.6,1.1,3.7,1.1,5.1-0.2l1-0.8c1-0.9,2.5-1.2,3.8-0.8   c1.6,0.5,3.4,0.7,5.2,0.7c4.6,0,8.7-1.6,12-4.3h7.1v4.3c0,1.7,1.2,3.2,2.9,3.4c1.9,0.2,3.5-1.3,3.5-3.2v-12L39.6,31.3z"/><path fill="#6e9583" stroke="#682f2a" stroke-linecap="round" stroke-linejoin="round" stroke-miterlimit="10" stroke-width="1.5" d="M45.4,37.4c0.6,0.6,0.9,1.5,0.9,2.4v10.7c0,1.8-1.5,3.2-3.3,3.2c-0.1,0-0.2,0-0.3,0c-0.8-0.1-1.6-0.5-2.1-1.1   s-0.8-1.5-0.8-2.3c0-2.4-2-4.3-4.4-4.3h-1c-1.1,0-2.2,0.4-3.1,1c-0.7,0.5-1.4,0.9-2.2,1.3c-2.6,1.3-5.5,2-8.5,2   c-1.8,0-3.5-0.2-5.2-0.7c-1.3-0.4-2.7-0.1-3.8,0.8l-1,0.8c-1.5,1.2-3.6,1.3-5.1,0.2L4,50.2c-1.6-1.1-2.1-3.2-1.4-5l1-2.5   c0.5-1.1,0.4-2.4-0.1-3.4c-1.2-2.5-1.8-5.4-1.7-8.4C2,20.8,10.4,12.5,20.5,12.4c9.9-0.1,18.1,7.4,19.1,17c0.1,1.3,0.6,2.5,1.5,3.4   L45.4,37.4z"/><path fill="none" stroke="#fff" stroke-linecap="round" stroke-linejoin="round" stroke-miterlimit="10" stroke-width="1.5" d="M19.4 15.4c-2.6.2-5.2 1.1-7.4 2.6s-4 3.5-5.3 5.8M4.8 30.9C4.7 32 4.8 33 5 34" opacity=".4"/><path fill="#fecd04" stroke="#682f2a" stroke-linecap="round" stroke-linejoin="round" stroke-miterlimit="10" stroke-width="1.5" d="M41,37.9c1.3,1.2,2,2.9,2,4.6v11.1c-0.1,0-0.2,0-0.3,0c-0.8-0.1-1.6-0.5-2.1-1.1s-0.8-1.3-0.8-2.1   c-0.1-2.4-2-4.4-4.4-4.4h-1c-1.1,0-2.1,0.3-3,1c-0.7,0.5-1.4,0.9-2.2,1.3l-0.3-0.5c-1.7-2.3-4.5-3.4-7.3-3.2c-0.3,0-0.6,0-0.9,0   c-7.9,0-14.1-6.8-13.2-14.8c0.7-6.1,5.6-11,11.7-11.7c7.2-0.8,13.4,4.2,14.6,10.8c0.3,1.7,1.2,3.3,2.4,4.5L41,37.9z"/><path fill="#e5e5e5" stroke="#682f2a" stroke-linecap="round" stroke-linejoin="round" stroke-miterlimit="10" stroke-width="1.5" d="M16.2,39.4h9c2.6-1.4,4.4-4,4.7-7c0.1-0.7,0.1-1.5,0-2.2H11.4v1.1C11.4,34.8,13.3,37.8,16.2,39.4z"/><line x1="13.3" x2="28.2" y1="26" y2="26" fill="none" stroke="#eabe06" stroke-linecap="round" stroke-linejoin="round" stroke-miterlimit="10" stroke-width="1.5"/></svg>