<svg xmlns="http://www.w3.org/2000/svg" enable-background="new 0 0 50 50" viewBox="0 0 50 50" width="50" height="50"><path fill="#4F4D4D" d="M35.2724,44.7258l-0.007,1.1436c0,0.8-0.5262,1.5999-1.5787,2.2104      c-2.1119,1.2278-5.5569,1.2278-7.6898,0c-1.0735-0.6177-1.6067-1.4313-1.6067-2.2385l0.007-1.1436      c0,0.8068,0.5332,1.6208,1.6067,2.2381c2.1259,1.2278,5.5709,1.2278,7.6898,0C34.7391,46.3257,35.2654,45.5257,35.2724,44.7258z      "/><path fill="#686868" d="M33.6654,42.4836c2.1278,1.2285,2.1436,3.2225,0.0251,4.4537c-2.114,1.2285-5.5608,1.2284-7.6887-0.0001      c-2.1323-1.2311-2.1393-3.2251-0.0253-4.4536C28.095,41.2524,31.5331,41.2525,33.6654,42.4836z"/><path fill="#4F4D4D" d="M34.4829,31.9586l-0.006,12.4477c0,0.6835-0.4496,1.3671-1.3489,1.8887      c-1.8046,1.0492-4.7482,1.0492-6.5708,0c-0.9173-0.5278-1.3729-1.2231-1.3729-1.9128l0.006-12.4477      c0,0.6894,0.4556,1.3849,1.3729,1.9125c1.8166,1.0492,4.7603,1.0492,6.5708,0C34.0272,33.3256,34.4769,32.6421,34.4829,31.9586z      "/><path fill="#686868" d="M33.1097,30.0426c1.8182,1.0497,1.8317,2.7536,0.0214,3.8056      c-1.8063,1.0497-4.7516,1.0497-6.5698-0.0001c-1.822-1.0519-1.828-2.7558-0.0216-3.8055      C28.3499,28.9907,31.2877,28.9907,33.1097,30.0426z"/><path fill="#BFBFBF" d="M16.5401,19.8465l-0.0031,2.6249c0,0.3537-0.2327,0.7075-0.6981,0.9775      c-0.9339,0.543-2.4573,0.543-3.4005,0c-0.4747-0.2731-0.7105-0.633-0.7105-0.9899l0.0031-2.6249      c0,0.3568,0.2358,0.7167,0.7105,0.9897c0.9401,0.543,2.4635,0.543,3.4005,0C16.3043,20.554,16.537,20.2002,16.5401,19.8465z"/><path fill="#E8E8E8" d="M15.8295,18.8549c0.941,0.5433,0.9479,1.425,0.0111,1.9695c-0.9348,0.5433-2.4591,0.5432-3.4,0      c-0.9429-0.5444-0.946-1.4262-0.0112-1.9694C13.3662,18.3105,14.8866,18.3105,15.8295,18.8549z"/><path fill="#BFBFBF" d="M30.2582,40.8608c0,0.4561,0.1633,0.7767,0.4222,0.9308l3.8371,2.2269        c-0.262-0.1509-0.4222-0.4715-0.4222-0.9308c-0.0031-0.9216,0.6441-2.0465,1.4485-2.5088        c0.4037-0.2342,0.7674-0.2557,1.0325-0.1016l-3.8371-2.2301c-0.265-0.1541-0.6287-0.1326-1.0325,0.1017        C30.9024,38.8113,30.2552,39.9362,30.2582,40.8608z"/><path fill="#AFAFAF" d="M35.9111,40.4909c-0.9417,0.5437-1.7031,1.8625-1.7,2.9445c0.0031,1.082,0.7695,1.5162,1.7111,0.9725        c0.9417-0.5437,1.7008-1.8586,1.6977-2.9406C37.6169,40.3853,36.8528,39.9472,35.9111,40.4909z"/><g><path fill="#D8D8D8" d="M33.4173,43.198c0,0.6079,0.2177,1.0351,0.5627,1.2404l0.9831,0.5672        c-0.3491-0.2012-0.5627-0.6283-0.5627-1.2404c-0.0041-1.2282,0.8584-2.7274,1.9305-3.3435        c0.5381-0.3121,1.0227-0.3407,1.376-0.1354l-0.9831-0.5714c-0.3532-0.2054-0.8379-0.1767-1.376,0.1356        C34.2757,40.4666,33.4132,41.9658,33.4173,43.198z"/><path fill="#929393" d="M36.3304,40.4208c-1.07,0.6178-1.9352,2.1163-1.9317,3.3457s0.8743,1.7228,1.9443,1.105        c1.07-0.6177,1.9325-2.1119,1.9291-3.3413C38.2686,40.3008,37.4004,39.803,36.3304,40.4208z"/></g><g><path fill="#4F4D4D" d="M36.3436,33.102l-0.0006,6.9305c0,0.0629-0.0414,0.1259-0.1242,0.1739       c-0.1661,0.0966-0.4371,0.0966-0.6049,0c-0.0844-0.0486-0.1264-0.1126-0.1264-0.1761l0.0006-6.9305       c0,0.0635,0.042,0.1275,0.1264,0.1761c0.1672,0.0966,0.4383,0.0966,0.6049,0C36.3016,33.2278,36.343,33.1649,36.3436,33.102z"/><path fill="#686868" d="M36.2172,32.9256c0.1674,0.0966,0.1686,0.2535,0.002,0.3504c-0.1663,0.0966-0.4375,0.0966-0.6049,0       c-0.1677-0.0969-0.1683-0.2537-0.002-0.3504C35.779,32.8287,36.0494,32.8287,36.2172,32.9256z"/></g><g><path fill="#BFBFBF" d="M31.8453,31.8949v0.0546c0,0.296-0.1864,0.5921-0.581,0.8223c-0.7894,0.4604-2.0721,0.4604-2.8615,0     c-0.3947-0.2302-0.592-0.515-0.592-0.8223v-0.0107l-0.0658-21.642c0-3.6505-2.5985-5.1686-5.8106-3.311     c-1.6007,0.932-3.0369,2.4994-4.0894,4.3088c-1.0415,1.8196-1.6883,3.8479-1.6774,5.6899l0.011,2.668v0.1536h-0.0219     c-0.0438,0.2409-0.2303,0.4711-0.5262,0.6574c-0.318,0.1975-0.7236,0.318-1.1293,0.3731     c-0.6139,0.0766-1.2498-0.0112-1.7322-0.2634c-0.3727-0.1863-0.581-0.4491-0.6249-0.7125c0,0,0-0.0107,0-0.0219v-0.0327     c-0.011-0.0112-0.011-0.0219-0.011-0.0332v-0.4646c-0.0219-3.1022,1.0854-6.578,2.8505-9.6363     c1.7651-3.0588,4.2209-5.7558,6.9399-7.3237c5.39-3.1209,9.8339-0.6531,9.8561,5.6134L31.8453,31.8949z"/></g></svg>