<svg xmlns="http://www.w3.org/2000/svg" enable-background="new 0 0 66 66" viewBox="0 0 66 66" width="66" height="66"><path fill="#e5e5e5" stroke="#682f2a" stroke-linecap="round" stroke-linejoin="round" stroke-miterlimit="10" stroke-width="1.5" d="M57.8,4.1v1.3v13.3c-1.3,0.7-2.5,0.7-3.8,0V5.4V4.1"/><path fill="#e5e5e5" stroke="#682f2a" stroke-linecap="round" stroke-linejoin="round" stroke-miterlimit="10" stroke-width="1.5" d="M58.3,9.9v17.3c-1.7,0.9-3.3,0.9-5,0V9.9V8.2c1.7,1,3.3,1,5,0V9.9z"/><path fill="#525f70" stroke="#682f2a" stroke-linecap="round" stroke-linejoin="round" stroke-miterlimit="10" stroke-width="1.5" d="M43,8.2l2.3-5l2.3,5C46.3,11,44.8,11,43,8.2z"/><path fill="#f4f4f4" stroke="#682f2a" stroke-linecap="round" stroke-linejoin="round" stroke-miterlimit="10" stroke-width="1.5" d="M21.4,25.5c-0.9,0-1.7-0.7-1.7-1.7V8.6c0-1.9-1.6-3.5-3.5-3.5c-1.2,0-2.4,0.7-3,1.7l-3,5.1    c-0.5,0.8-1.5,1.1-2.3,0.6c-0.7-0.5-1-1.5-0.5-2.3l3-5.1c1.2-2.1,3.5-3.4,5.9-3.4c3.8,0,6.8,3.1,6.8,6.8v15.3    C23.1,24.7,22.3,25.5,21.4,25.5z"/><path fill="#525f70" stroke="#682f2a" stroke-linecap="round" stroke-linejoin="round" stroke-miterlimit="10" stroke-width="1.5" d="M18.5,28.8l0.6-5.7c1.5,1,3.1,1,4.5,0l0.6,5.7C22.6,34.6,20.3,34.6,18.5,28.8z"/><path fill="#525f70" stroke="#682f2a" stroke-linecap="round" stroke-linejoin="round" stroke-miterlimit="10" stroke-width="1.5" d="M24.4 35.9h-6v-7.3c2 1.3 4 1.3 6 0V35.9zM42.3 13.9L43 8.2c1.5 1 3.1 1 4.5 0l.6 5.7C46.4 19.8 44.1 19.8 42.3 13.9z"/><path fill="#e5e5e5" stroke="#682f2a" stroke-linecap="round" stroke-linejoin="round" stroke-miterlimit="10" stroke-width="1.5" d="M48.2,16.9h-6v-3.1c2,1.3,4,1.3,6,0V16.9z"/><path fill="#c5dfdc" stroke="#682f2a" stroke-linecap="round" stroke-linejoin="round" stroke-miterlimit="10" stroke-width="1.5" d="M23.3,63.7c-1.3,0.8-2.6,0.8-3.8,0V40.9h3.8V63.7z"/><path fill="#e5e5e5" stroke="#682f2a" stroke-linecap="round" stroke-linejoin="round" stroke-miterlimit="10" stroke-width="1.5" d="M24.4,33.2c-2,1.1-4,1.1-6,0v12.6c2,1.1,4,1.1,6,0V33.2z"/><path fill="#c5dfdc" stroke="#682f2a" stroke-linecap="round" stroke-linejoin="round" stroke-miterlimit="10" stroke-width="1.5" d="M36.3,63.7c-1.3,0.8-2.6,0.8-3.8,0V31.8h3.8V63.7z"/><path fill="#e5e5e5" stroke="#682f2a" stroke-linecap="round" stroke-linejoin="round" stroke-miterlimit="10" stroke-width="1.5" d="M31.4,15v21.7c2,1.1,4,1.1,6,0V15"/><path fill="#c5dfdc" stroke="#682f2a" stroke-linecap="round" stroke-linejoin="round" stroke-miterlimit="10" stroke-width="1.5" d="M47.2,63.7c-1.3,0.8-2.6,0.8-3.8,0V31.8h3.8V63.7z"/><path fill="#e5e5e5" stroke="#682f2a" stroke-linecap="round" stroke-linejoin="round" stroke-miterlimit="10" stroke-width="1.5" d="M42.3,15.8v20.9c2,1.1,4,1.1,6,0V15.8"/><path fill="#c5dfdc" stroke="#682f2a" stroke-linecap="round" stroke-linejoin="round" stroke-miterlimit="10" stroke-width="1.5" d="M57.8,63.7c-1.3,0.8-2.6,0.8-3.8,0V31.8h3.8V63.7z"/><path fill="#e5e5e5" stroke="#682f2a" stroke-linecap="round" stroke-linejoin="round" stroke-miterlimit="10" stroke-width="1.5" d="M58.8,15.8v20.9c-2,1.1-4,1.1-6,0V15.8v-2c2,1.3,4,1.3,6,0V15.8z"/><ellipse cx="34.4" cy="14.9" fill="#cccaca" stroke="#682f2a" stroke-linecap="round" stroke-linejoin="round" stroke-miterlimit="10" stroke-width="1.5" rx="3" ry="1.1"/><path fill="#cccaca" stroke="#682f2a" stroke-linecap="round" stroke-linejoin="round" stroke-miterlimit="10" stroke-width="1.5" d="M57.8,4.1c0,0.6-0.9,1.1-1.9,1.1c-1.1,0-1.9-0.5-1.9-1.1S54.9,3,55.9,3C56.9,3,57.8,3.5,57.8,4.1z"/><g opacity=".4"><line x1="33" x2="33" y1="26.3" y2="34.3" fill="none" stroke="#fff" stroke-linecap="round" stroke-linejoin="round" stroke-miterlimit="10" stroke-width="1.5"/><line x1="33" x2="33" y1="38.2" y2="39.7" fill="none" stroke="#fff" stroke-linecap="round" stroke-linejoin="round" stroke-miterlimit="10" stroke-width="1.5"/></g></svg>