<svg xmlns="http://www.w3.org/2000/svg" enable-background="new 0 0 66 66" viewBox="0 0 66 66" width="66" height="66"><path fill="#e5e5e5" stroke="#682f2a" stroke-linecap="round" stroke-linejoin="round" stroke-miterlimit="10" stroke-width="1.5" d="M14.2,54.7L38.9,30L36,27.1L11.3,51.8C10.6,52.5,9.8,53,9,53.4l-1,0.4c-0.9,0.4-1.6,0.9-2.3,1.6L2.2,59   c-0.5,0.5-0.6,1.3-0.3,1.9c0.8,1.4,1.8,2.5,3.2,3.2c0.6,0.3,1.4,0.2,1.9-0.3l3.4-3.4c0.7-0.7,1.2-1.5,1.6-2.3l0.4-1   C12.9,56.2,13.5,55.4,14.2,54.7z"/><path fill="#525f70" stroke="#682f2a" stroke-linecap="round" stroke-linejoin="round" stroke-miterlimit="10" stroke-width="1.5" d="M63.9,24.3C59.1,14.6,51.5,6.9,41.8,2.1c-1.4-0.7-3.1-0.4-4.1,0.8c-0.8,1-1.4,1.9-1.8,2.9   c-0.5,1.2-0.2,2.6,0.8,3.5c1,1,2.5,2.5,3.8,3.8c2,2,2,5.1,0,7.1l-4.9,4.9c-0.9,0.9-0.9,2.4,0,3.3l1.9,1.9c0.9,0.9,2.4,0.9,3.3,0   l4.9-4.9c2-2,5.2-2,7.1,0l3.8,3.8c0.9,0.9,2.3,1.2,3.5,0.8c1-0.4,2-1,2.9-1.7C64.2,27.4,64.5,25.7,63.9,24.3z"/><g opacity=".4"><path fill="none" stroke="#fff" stroke-linecap="round" stroke-linejoin="round" stroke-miterlimit="10" stroke-width="1.5" d="M44.9,16.4c0,1.2-0.2,2.5-0.7,3.6s-1.3,2.1-2.2,2.9"/><line x1="39.6" x2="38.6" y1="25.4" y2="26.5" fill="none" stroke="#fff" stroke-linecap="round" stroke-linejoin="round" stroke-miterlimit="10" stroke-width="1.5"/></g><path fill="#abb734" stroke="#682f2a" stroke-linecap="round" stroke-linejoin="round" stroke-miterlimit="10" stroke-width="1.5" d="M55.7 20.1L55.7 20.1c1-1 1-2.5.2-3.5-.9-1.2-1.9-2.3-3-3.3-1.1-1.1-2.4-2.2-3.6-3.2-1-.8-2.5-.7-3.5.2l0 0c-1 1-1 2.7 0 3.7l6.2 6.2C53.1 21.2 54.7 21.2 55.7 20.1zM41.8 2.2C41.8 2.2 41.7 2.2 41.8 2.2c-1.5-.8-3.1-.4-4.1.8-.8 1-1.4 1.9-1.8 2.9-.5 1.2-.2 2.6.7 3.5C39.3 7.3 41.3 5 41.8 2.2zM63.9 24.3c0 0 0-.1-.1-.1-.4.1-.7.2-1.1.3-.9.3-1.9 0-2.5-.8L60 23.3c-.7-.9-2-1-2.8-.2l0 0c-.6.6-.7 1.6-.2 2.4l.3.3c.6.8.6 2-.1 2.8-.2.2-.4.5-.6.7.9.9 2.3 1.2 3.5.7 1-.4 1.9-.9 2.9-1.8C64.2 27.3 64.6 25.7 63.9 24.3z"/></svg>