<svg xmlns="http://www.w3.org/2000/svg" enable-background="new 0 0 50 50" viewBox="0 0 50 50" width="50" height="50"><path fill="#D8D8D8" d="M3.2429,29.1775c0.0071,2.8096,1.0029,4.7868,2.6032,5.7186l3.0661,1.7819        c-1.6003-0.9318-2.5961-2.9089-2.6032-5.7186C6.2948,25.312,10.2708,18.42,15.1927,15.5822        c2.4752-1.4371,4.7228-1.5649,6.3444-0.6262l-3.0661-1.7819c-1.6216-0.9387-3.8693-0.8106-6.3444,0.6258        C7.2117,16.6381,3.2287,23.5301,3.2429,29.1775z"/><path fill="#E8E8E8" d="M15.1922,15.5786c-4.9181,2.8394-8.8967,9.7309-8.8807,15.3821        c0.016,5.6564,4.0207,7.9386,8.9388,5.0991c4.9226-2.8421,8.9013-9.7335,8.8852-15.3898        C24.1195,15.0187,20.1148,12.7365,15.1922,15.5786z"/><path fill="#D8D8D8" d="M8.8506,30.5398c0.0063,2.4831,0.8863,4.2304,2.3006,5.0539L33.303,48.4674        c-1.4143-0.8235-2.2944-2.5709-2.3006-5.0539c-0.0126-4.991,3.5013-11.0821,7.8512-13.59        c2.1875-1.2701,4.1739-1.383,5.6071-0.5534L22.3089,16.3963c-1.4332-0.8296-3.4196-0.7164-5.6071,0.5531        C12.3582,19.4577,8.838,25.5487,8.8506,30.5398z"/><path fill="#E8E8E8" d="M38.8531,29.8202c-4.3465,2.5094-7.8628,8.5999-7.8486,13.5944        c0.0142,4.999,3.5534,7.016,7.8999,4.5065c4.3505-2.5118,7.8668-8.6022,7.8526-13.6012        C46.7429,29.3254,43.2036,27.3084,38.8531,29.8202z"/><path fill="#D8D8D8" d="M46.0864,34.3207c0.0135,4.7771-3.3694,10.6093-7.5236,13.0177        c-1.1096,0.6495-2.2192,0.9878-3.1935,0.9878c-2.2192,0-3.6266-1.813-3.6807-4.7493        c-0.0135-0.0542-0.0135-0.1084-0.0135-0.1625c-0.0135-4.7764,3.3559-10.6093,7.5101-13.0038        c0.0947-0.0542,0.203-0.1084,0.2977-0.1625c1.0149-0.5411,2.0162-0.8259,2.9094-0.8259        C44.652,29.4221,46.0728,31.2899,46.0864,34.3207z"/><path fill="#929393" d="M39.4964,30.3966c0.0135,4.7764-3.3694,10.6225-7.5236,13.0177        c-0.0947,0.0542-0.1895,0.1084-0.2842,0.1625c-0.0135-0.0542-0.0135-0.1084-0.0135-0.1625        c-0.0135-4.7764,3.3559-10.6093,7.5101-13.0038c0.0947-0.0542,0.203-0.1084,0.2977-0.1625        C39.4964,30.3021,39.4964,30.3424,39.4964,30.3966z"/><g><path fill="#AFAFAF" d="M33.4758,17.9904l-0.1435,5.1466c-0.0026,0.9189-0.6061,1.8365-1.8116,2.5371         c-2.4344,1.4147-6.3867,1.4147-8.8293,0.0045c-1.2331-0.712-1.849-1.6454-1.8464-2.5773l0.1435-5.1466         c-0.0026,0.932,0.6132,1.8654,1.8464,2.5773c2.4426,1.4102,6.3949,1.4102,8.8293-0.0045         C32.8697,19.8269,33.4732,18.9093,33.4758,17.9904z"/><path fill="#D8D8D8" d="M31.6354,15.4177c2.4426,1.4102,2.4555,3.6996,0.0288,5.1098         c-2.4344,1.4147-6.3867,1.4147-8.8293,0.0045c-2.4505-1.4148-2.4634-3.7041-0.029-5.1189         C25.2325,14.0029,29.1849,14.0029,31.6354,15.4177z"/></g><g><polygon fill="#EF595A" points="15.306 4.624 17.082 3.592 12.593 1 10.817 2.032"/><polygon fill="#DD454D" points="20.155 12.782 21.931 11.749 17.082 3.592 15.306 4.624"/><polygon fill="#5E5E5E" points="20.147 15.543 21.924 14.51 21.931 11.749 20.155 12.782"/><polygon fill="#BC2B3A" points="10.817 2.032 10.794 10.142 20.147 15.543 20.155 12.782 15.306 4.624"/><g><path fill="#A62532" d="M19.0087,15.0224v3.0724c0.0036,1.2769,1.0416,2.5518,2.7167,3.5253          c3.3826,1.9658,8.8745,1.9658,12.2685,0.0062c1.7135-0.9893,2.5692-2.2863,2.5656-3.5813v-3.0724          c0.0037,1.295-1.0515,2.592-2.765,3.5813c-3.394,1.9595-8.8859,1.9595-12.2685-0.0062          C19.8508,17.5743,19.0123,16.2993,19.0087,15.0224z"/><path fill="#EF595A" d="M21.566,11.5312c-3.394,1.9595-3.4119,5.1406-0.04,7.1002          c3.3826,1.9658,8.8001,1.8309,12.2685,0.0064c3.6661-1.9281,3.6957-5.1082,0.0404-7.113          C30.4156,9.6497,24.971,9.5653,21.566,11.5312z"/></g><g><polygon fill="#EF595A" points="37.262 17.01 39.038 15.978 34.164 18.218 32.388 19.25"/><polygon fill="#A62532" points="41.728 27.712 43.504 26.68 43.527 18.57 41.751 19.602"/><polygon fill="#EF595A" points="41.751 19.602 43.527 18.57 39.038 15.978 37.262 17.01"/><polygon fill="#BC2B3A" points="37.262 17.01 32.388 19.25 32.38 22.315 41.728 27.712 41.751 19.602"/></g></g><g><path fill="#686868" d="M31.3356,11.754l-0.032,2.8285c-0.0015,0.5196-0.3432,1.0383-1.0256,1.4348        c-1.3744,0.7987-3.6102,0.8001-4.9959,0.0001c-0.6955-0.4015-1.0425-0.9285-1.041-1.4549l0.032-2.8285        c-0.0015,0.5263,0.3455,1.0533,1.041,1.4549c1.3857,0.8,3.6215,0.7986,4.9959-0.0001        C30.9924,12.7923,31.3341,12.2737,31.3356,11.754z"/><path fill="#D8D8D8" d="M30.2912,10.2966c1.3857,0.8,1.393,2.0937,0.0188,2.8923c-1.3744,0.7987-3.6102,0.8001-4.9959,0.0001        c-1.3832-0.7986-1.3881-2.0937-0.0138-2.8924C26.6745,9.4979,28.908,9.4979,30.2912,10.2966z"/><g><polygon fill="#AFAFAF" points="32.229 10.63 32.22 11.993 31.044 14.569 31.053 13.206"/><polygon fill="#BFBFBF" points="31.053 13.206 31.044 14.569 26.604 15.257 26.612 13.894"/><polygon fill="#D8D8D8" points="26.612 13.894 26.604 15.257 23.34 13.372 23.348 12.009"/><polygon fill="#E8E8E8" points="32.229 10.63 31.053 13.206 26.612 13.894 23.348 12.009 24.521 9.435 28.965 8.745"/></g></g></svg>