<svg xmlns="http://www.w3.org/2000/svg" viewBox="0 0 5000 5000" width="5000" height="5000"><path fill="#97e1e8" d="M927.723 1716.209c197.593 0 358.358-149.385 358.358-333.002 0-34.705-5.957-69.33-17.699-102.917l-.138-.406c-.247-.599-.471-1.13-.586-1.446-6.503-16.313-132.002-285.145-327.315-701.047-3.292-6.988-9.323-8.028-12.621-8.028s-9.323 1.04-12.621 8.028c-198.34 422.326-320.766 684.588-327.493 701.544-.138.316-.316.79-.523 1.265 0 .033-.023.056-.023.09-11.742 33.587-17.699 68.211-17.699 102.917.002 183.617 160.767 333.002 358.36 333.002zm43.784-430.895c0-50.928 41.429-92.361 92.348-92.361h19.37c19.152 0 34.685 15.523 34.685 34.682 0 19.158-15.533 34.681-34.685 34.681h-19.37c-12.667 0-22.989 10.32-22.989 22.998v286.668c0 19.159-15.533 34.682-34.68 34.682s-34.679-15.523-34.679-34.682v-286.668z"/><path fill="#b0e381" d="M1304.86 1192.953h661.294c50.919 0 92.348 41.433 92.348 92.35V1713.4c0 166.546-90.453 320.267-236.087 401.181l-290.826 161.612a34.637 34.637 0 0 1-16.843 4.369 34.643 34.643 0 0 1-16.849-4.369l-290.912-161.612c-125.362-69.691-209.467-191.949-230.509-331.82-16.021 1.72-32.249 2.815-48.753 2.815-36.213 0-71.191-4.718-104.802-12.725 21.898 194.136 133.783 373.08 291.199 460.476l400.626 222.735 400.649-222.724c173.909-96.506 295.336-314.488 295.336-530.088v-639.541c0-12.678-10.317-22.998-22.984-22.998h-953.688c28.918 61.949 53.395 114.552 70.801 152.242z"/><path fill="#fff" d="M1044.617 1769.916c16.464 114.355 82.709 214.941 182.002 275.642l333.06-333.311c13.546-13.571 35.518-13.548 49.064-.023 13.546 13.537 13.546 35.495.023 49.042l-319.457 319.704 225.437 125.237 273.978-152.253c123.621-68.698 200.414-199.186 200.414-340.555v-32.844l-171.375 171.505c-6.773 6.784-15.671 10.172-24.546 10.172a34.614 34.614 0 0 1-24.523-10.151c-13.546-13.535-13.546-35.494-.017-49.042l220.462-220.628v-297.108c0-12.678-10.317-22.987-22.984-22.987h-158.571l-311.489 311.643c-6.773 6.774-15.648 10.161-24.523 10.161s-17.745-3.386-24.517-10.149c-13.551-13.548-13.551-35.507 0-49.054l262.465-262.601h-374.161c13.212 39.433 20.089 80.054 20.089 120.891-.002 183.705-131.695 338.704-310.831 386.709z"/><path fill="#b0e381" d="M3236.523 3517.341h-565.981l-280.98 456.646 280.98 456.648h565.981l280.997-456.648-280.997-456.646zm-131.807 702.312h-302.361l-151.178-245.666 151.178-245.664h302.361l151.177 245.664-151.177 245.666z"/><path fill="#fff" d="M3104.716 3728.323h-302.361l-151.178 245.665 151.178 245.665h302.361l151.178-245.665z"/><path fill="#b0e381" d="m3236.523 3447.977 281.009-456.648-281.009-456.646H2668.6l-281.014 456.646 281.014 456.648h567.923zm-434.168-706.565h302.361l151.177 245.664-151.177 245.664h-302.361l-151.178-245.664 151.178-245.664z"/><path fill="#fff" d="m3104.716 3232.741 151.178-245.665-151.178-245.664h-302.361l-151.178 245.664 151.178 245.665z"/><path fill="#b0e381" d="M1420.404 3517.341H856.417l-281.003 456.646 281.003 456.648h565.952l280.032-455.051-281.997-458.243zm-129.831 702.312H988.218L837.04 3973.988l151.178-245.664h302.355l151.178 245.664-151.178 245.665z"/><path fill="#fff" d="M1290.573 3728.323H988.218L837.04 3973.988l151.178 245.665h302.355l151.178-245.665z"/><path fill="#b0e381" d="m2529.555 2235.887 141.01 229.43h565.958l280.997-456.648-280.997-456.648h-565.981l-141.01 228.854c-10.093 16.314-31.451 21.394-47.731 11.335-1.241-.767-2.292-1.713-3.406-2.604l-129.573 210.557 136.903 222.47c15.694-7.12 34.553-1.808 43.83 13.254zm272.8-481.388h302.361l151.177 245.666-151.177 245.664h-302.361l-151.178-245.664 151.178-245.666z"/><path fill="#fff" d="m3104.716 2245.83 151.178-245.665-151.178-245.666h-302.361l-151.178 245.666 151.178 245.665z"/><path fill="#b0e381" d="m2529.555 1253.24 141.021 229.419h565.947l281.009-456.648-281.009-456.648h-565.981l-141.01 228.866c-10.047 16.326-31.451 21.371-47.731 11.335-1.896-1.169-3.608-2.52-5.193-3.969l-127.786 207.657 138.925 225.753c15.217-5.767 32.933-.18 41.808 14.235zm272.8-485.652h302.361l151.177 245.664-151.177 245.666h-302.361l-151.178-245.666 151.178-245.664z"/><path fill="#fff" d="m3104.716 1258.918 151.178-245.665-151.178-245.665h-302.361l-151.178 245.665 151.178 245.665z"/><path fill="#b0e381" d="M4143.583 3026.011h-565.952l-281.015 456.648 281.015 456.648h565.952l281.003-456.648-281.003-456.648zm-131.795 702.312h-302.361l-151.178-245.665 151.178-245.664h302.361l151.172 245.664-151.172 245.665z"/><path fill="#fff" d="M4011.788 3236.994h-302.361l-151.178 245.665 151.178 245.664h302.361l151.171-245.664z"/><path fill="#b0e381" d="M2327.493 3026.011h-565.981l-280.997 456.648 280.997 456.648h567.94l280.027-455.071-281.986-458.225zm-131.813 702.312h-302.355l-151.178-245.665 151.178-245.664h302.355l151.183 245.664-151.183 245.665z"/><path fill="#fff" d="M2195.68 3236.994h-302.355l-151.178 245.665 151.178 245.664h302.355l151.184-245.664z"/><path fill="#b0e381" d="M3577.631 2043.352 3296.616 2500l281.015 456.646h565.947L4424.586 2500l-281.003-456.648h-565.952zm434.157 698.06h-302.361l-151.178-245.665 151.178-245.666h302.361l151.172 245.666-151.172 245.665z"/><path fill="#fff" d="m3709.427 2250.082-151.178 245.666 151.178 245.664h302.361l151.171-245.664-151.171-245.666z"/><path fill="#b0e381" d="m4143.578 1973.988 281.009-456.646-281.003-456.648h-565.952l-281.015 456.648 281.015 456.646h565.946zm-434.151-710.817h302.361l151.172 245.664-151.172 245.664h-302.361l-151.178-245.664 151.178-245.664z"/><path fill="#fff" d="m4011.788 1754.499 151.171-245.664-151.171-245.664h-302.361l-151.178 245.664 151.178 245.664z"/><path fill="none" d="m1441.757 2987.076-.006-.003"/><path fill="#b0e381" d="M856.417 3447.977h563.988l281.997-458.243-119.784-194.642c-4.349-7.063-5.704-15.048-4.699-22.673l-136.161 214.658-151.183 245.664H988.218L837.04 2987.076l151.178-245.666-129.653-210.686-283.174 460.593 281.026 456.66z"/><path fill="#333" d="M751.126 1749.242c15.74 228.677 144.623 442.18 329.303 544.721l417.469 232.094a34.643 34.643 0 0 0 16.849 4.369 34.637 34.637 0 0 0 16.843-4.369l417.469-232.084c198.001-109.882 331.043-347.271 331.043-590.724v-639.541c0-50.928-41.435-92.361-92.354-92.361h-986.104c-59.972-128.248-132.238-282.293-198.529-423.445C989.229 518.345 960.352 500 927.723 500s-61.506 18.345-75.391 47.902c-214.103 455.858-325.081 693.8-329.596 706.297a32.604 32.604 0 0 0-2.189 6.21c-13.637 40.022-20.548 81.32-20.548 122.798.001 162.59 103.247 302.631 251.127 366.035zm-164.063-468.951c0-.034.023-.057.023-.09.207-.475.385-.949.523-1.265 6.727-16.956 129.153-279.218 327.493-701.544 3.297-6.988 9.323-8.028 12.621-8.028s9.329 1.04 12.621 8.028c195.312 415.902 320.812 684.734 327.315 701.047.115.316.339.847.586 1.446l.138.406c11.742 33.587 17.699 68.211 17.699 102.917 0 183.617-160.765 333.002-358.358 333.002s-358.358-149.385-358.358-333.002c-.001-34.706 5.956-69.331 17.697-102.917zm1623.668-216.583v639.541c0 215.601-121.427 433.582-295.336 530.088l-400.649 222.724-400.626-222.735c-157.416-87.396-269.301-266.34-291.199-460.476 33.611 8.008 68.589 12.725 104.802 12.725 16.504 0 32.732-1.094 48.753-2.815 21.042 139.871 105.147 262.129 230.509 331.82l290.912 161.612a34.643 34.643 0 0 0 16.849 4.369 34.637 34.637 0 0 0 16.843-4.369l290.826-161.612c145.634-80.914 236.087-234.635 236.087-401.181v-428.097c0-50.916-41.429-92.35-92.348-92.35H1304.86c-17.406-37.69-41.883-90.293-70.801-152.243h953.688c12.667.001 22.984 10.321 22.984 22.999zm-875.374 198.608h374.161l-262.465 262.601c-13.551 13.547-13.551 35.505 0 49.054 6.773 6.763 15.642 10.149 24.517 10.149s17.75-3.386 24.523-10.161l311.489-311.643h158.571c12.667 0 22.984 10.309 22.984 22.987v297.108l-220.462 220.628c-13.528 13.548-13.528 35.507.017 49.042a34.614 34.614 0 0 0 24.523 10.151c8.875 0 17.773-3.388 24.546-10.172l171.375-171.505v32.844c0 141.369-76.792 271.856-200.414 340.555l-273.978 152.253-225.437-125.237 319.457-319.704c13.522-13.547 13.522-35.505-.023-49.042-13.545-13.525-35.518-13.548-49.064.023l-333.06 333.311c-99.293-60.701-165.539-161.286-182.002-275.642 179.136-48.005 310.828-203.004 310.828-386.709.003-40.837-6.873-81.458-20.086-120.891z"/><path fill="#333" d="M1006.187 1606.665c19.146 0 34.68-15.523 34.68-34.682v-286.668c0-12.678 10.323-22.998 22.989-22.998h19.37c19.152 0 34.685-15.523 34.685-34.681 0-19.159-15.533-34.682-34.685-34.682h-19.37c-50.919 0-92.348 41.433-92.348 92.361v286.668c-.001 19.159 15.532 34.682 34.679 34.682zm3488.666 875.158-291.177-473.153 291.177-473.153a34.658 34.658 0 0 0 0-36.353l-302.361-491.33c-6.302-10.261-17.504-16.505-29.533-16.505h-585.328l-292.205-474.823c-6.302-10.263-17.498-16.505-29.532-16.505h-604.722a34.706 34.706 0 0 0-29.538 16.494l-151.166 245.36c-8.881 14.407-5.911 32.734 6.141 43.741 1.585 1.449 3.297 2.801 5.193 3.969 16.28 10.036 37.684 4.991 47.731-11.335l141.01-228.866h565.981l281.009 456.648-281.009 456.648h-565.947l-141.021-229.419c-8.875-14.414-26.591-20.002-41.808-14.235-2.016.764-3.998 1.684-5.9 2.855-16.326 10.026-21.427 31.385-11.403 47.711l139.993 227.756-139.97 227.174c-9.283 15.059-5.526 34.32 7.927 45.107 1.115.891 2.166 1.837 3.406 2.604 16.28 10.059 37.638 4.979 47.731-11.335l141.01-228.854h565.981l280.997 456.648-280.997 456.648h-565.958l-141.01-229.43c-9.277-15.062-28.136-20.374-43.83-13.252-1.304.592-2.625 1.106-3.878 1.873-16.326 10.026-21.427 31.385-11.403 47.711l139.034 226.203-281.985 458.225h-564.017l-121.789-197.909c-10.047-16.324-31.434-21.371-47.714-11.357-9.254 5.691-14.74 15.049-16.056 25.037-1.005 7.626.35 15.611 4.699 22.673l119.784 194.642-281.997 458.243H856.417L575.391 2991.32l283.174-460.593 7.721-12.559c10.047-16.314 4.946-37.675-11.38-47.711-16.234-10.002-37.644-4.956-47.691 11.38l-302.068 491.33a34.637 34.637 0 0 0 0 36.341l291.176 473.153-291.176 473.153a34.658 34.658 0 0 0 0 36.353l302.361 491.33c6.302 10.261 17.503 16.505 29.532 16.505h604.705c12.035 0 23.236-6.244 29.532-16.505l292.199-474.825h565.975l292.182 474.825c6.302 10.261 17.498 16.505 29.538 16.505h604.722c12.035 0 23.231-6.244 29.532-16.505l292.205-474.825h585.328c12.029 0 23.231-6.243 29.533-16.505l302.361-491.33a34.658 34.658 0 0 0 0-36.353l-291.177-473.153 291.177-473.153a34.66 34.66 0 0 0 .001-36.355zm-917.222 1457.484-281.015-456.648 281.015-456.648h565.952l281.003 456.648-281.003 456.648h-565.952zm-907.089 491.328-280.98-456.648 280.98-456.646h565.981l280.997 456.646-280.997 456.648h-565.981zm-909.03-491.328-280.997-456.648 280.997-456.648h565.981l281.985 458.225-280.027 455.071h-567.939zm-905.095 491.328-281.003-456.648 281.003-456.646h563.988l281.997 458.243-280.032 455.051H856.417zm2721.214-3369.942h565.952l281.003 456.648-281.009 456.646H3577.63l-281.015-456.646 281.016-456.648zm-909.03 1473.989h567.923l281.009 456.646-281.009 456.648h-567.923l-281.014-456.648 281.014-456.646zm1474.977 421.964h-565.947L3296.616 2500l281.015-456.648h565.952L4424.586 2500l-281.008 456.646z"/></svg>