<svg xmlns="http://www.w3.org/2000/svg" viewBox="0 0 5000 5000" width="5000" height="5000"><path fill="#97e1e8" d="M927.723 1716.198c197.593 0 358.358-149.364 358.358-332.979 0-34.728-5.957-69.342-17.699-102.918-.046-.158-.115-.337-.161-.495a60.852 60.852 0 0 1-.563-1.379c-6.503-16.347-132.002-285.178-327.315-701.047-3.292-6.977-9.323-8.016-12.621-8.016s-9.323 1.04-12.621 8.016c-198.317 422.304-320.743 684.565-327.493 701.567-.115.293-.293.745-.5 1.196-.023.069-.023.113-.046.158-11.742 33.577-17.699 68.19-17.699 102.918.002 183.615 160.767 332.979 358.36 332.979zm43.784-430.884c0-50.918 41.429-92.35 92.348-92.35h19.37c19.152 0 34.685 15.535 34.685 34.681 0 19.148-15.533 34.682-34.685 34.682h-19.37c-12.667 0-22.989 10.318-22.989 22.986v286.668c0 19.148-15.533 34.682-34.68 34.682s-34.679-15.535-34.679-34.682v-286.667z"/><path fill="#b0e381" d="m1114.12 2233.337 400.626 222.745 400.649-222.724c173.909-96.527 295.336-314.509 295.336-530.121v-639.518c0-12.69-10.317-23.01-22.984-23.01h-953.682c28.918 61.944 53.389 114.542 70.795 152.232h661.294c50.919 0 92.348 41.433 92.348 92.373v428.085c0 166.523-90.453 320.267-236.087 401.192l-290.826 161.624a34.635 34.635 0 0 1-16.843 4.357 34.64 34.64 0 0 1-16.849-4.357l-290.912-161.624c-125.362-69.689-209.467-191.962-230.503-331.843-16.027 1.72-32.255 2.815-48.759 2.815-36.219 0-71.197-4.718-104.802-12.727 21.886 194.126 133.777 373.1 291.199 460.501z"/><path fill="#fff" d="M1044.617 1769.905c16.458 114.358 82.703 214.946 182.002 275.659l333.06-333.317c13.546-13.548 35.518-13.525 49.064-.023 13.546 13.547 13.546 35.517.023 49.065l-319.451 319.697 225.431 125.233 273.978-152.276c123.621-68.687 200.414-199.174 200.414-340.543v-32.858l-171.398 171.519c-6.75 6.773-15.648 10.161-24.523 10.161a34.582 34.582 0 0 1-24.523-10.161c-13.546-13.525-13.546-35.495 0-49.044l220.445-220.594v-297.108c0-12.689-10.317-23.008-22.984-23.008h-158.571l-311.489 311.641c-6.773 6.774-15.648 10.161-24.523 10.161s-17.745-3.386-24.517-10.161c-13.551-13.525-13.551-35.495 0-49.042l262.465-262.599h-374.167c13.207 39.42 20.094 80.057 20.094 120.913-.001 183.685-131.694 338.681-310.83 386.685z"/><path fill="#b0e381" d="M2534.685 650.312v691.962l172.57-172.572c-13.546-13.545-13.546-35.491 0-49.038l259.553-259.552c13.546-13.545 35.49-13.545 49.035-.003l291.751-291.747h-693.635c-19.146 0-34.685-15.535-34.685-34.681H2500v80.947c19.152.001 34.685 15.536 34.685 34.684zm947.68 762.945c-19.106-.078-34.547-15.568-34.547-34.667l.149-622.583-172.57 172.57c.006.001.006.001.006.003 13.545 13.548 13.545 35.495 0 49.043L3038.5 1214.528c-6.779 6.773-15.648 10.161-24.523 10.161s-17.745-3.388-24.523-10.161v-.006l-268.135 268.137H3345.6c19.049 0 34.49 15.377 34.651 34.382h102.114v-103.784z"/><path fill="#fff" d="M2682.353 1482.659h38.965l268.135-268.137c-13.545-13.55-13.545-35.491 0-49.038l236.903-236.904c13.551-13.546 35.495-13.546 49.041-.003l172.57-172.57.011-36.332c0-19.067 15.378-34.487 34.387-34.651V534.682h-78.981c0 19.146-15.539 34.681-34.685 34.681h-61.104L3015.843 861.11l.006.003c13.551 13.548 13.551 35.495 0 49.044l-259.547 259.55c-6.773 6.774-15.648 10.162-24.523 10.162s-17.75-3.388-24.523-10.162v-.004l-172.57 172.572v59.438c0 19.146-15.533 34.681-34.685 34.681v80.648h147.702c.16-19.007 15.607-34.383 34.65-34.383z"/><path fill="#ffc96b" d="M3482.657 684.994c19.169 0 34.685 15.534 34.685 34.681l-.149 622.449 185.932-185.93c-4.067-12.085-1.614-25.898 8.019-35.53l259.547-259.552c9.634-9.631 23.443-12.081 35.53-8.018l283.732-283.732h-677.735c-19.146 0-34.679-15.535-34.679-34.681h-95.175v150.342c.098 0 .196-.029.293-.029zm982.06 751.338c-18.865-.329-34.082-15.678-34.082-34.62V755.698l-164.861 164.864c4.912 1.652 9.593 4.102 13.511 8.018 13.546 13.548 13.546 35.495 0 49.043l-236.902 236.904c-6.779 6.773-15.648 10.161-24.523 10.161s-17.745-3.388-24.523-10.161c-3.912-3.916-6.365-8.599-8.019-13.514l-281.641 281.645h579.291c19.043 0 34.484 15.377 34.65 34.382h147.099v-80.708z"/><path fill="#fff" d="M4378.206 569.363h-88.252l-283.732 283.732c4.912 1.652 9.599 4.102 13.517 8.018 13.545 13.548 13.545 35.495 0 49.044l-259.553 259.55c-6.773 6.774-15.648 10.162-24.523 10.162s-17.75-3.388-24.518-10.162c-3.918-3.916-6.365-8.598-8.019-13.513l-185.932 185.93-.011 36.466c0 19.169-15.533 34.681-34.68 34.681-.046 0-.092-.014-.138-.014v103.784h102.091c.167-19.006 15.608-34.382 34.651-34.382h84.57l281.641-281.645c-4.062-12.086-1.609-25.898 8.019-35.53l236.908-236.904c9.628-9.631 23.443-12.081 35.53-8.018l164.861-164.864V650.312c0-18.944 15.217-34.293 34.082-34.622v-81.007h-51.827c0 19.146-15.539 34.68-34.685 34.68z"/><path fill="#ffc96b" d="m3447.685 2315.006.115-576.024-172.243 172.244c13.344 13.564 13.322 35.328-.155 48.808L3038.5 2196.938c-6.779 6.774-15.648 10.16-24.523 10.16-8.783 0-17.538-3.369-24.288-10.005l-268.222 268.224h647.231c19.1 0 34.588 15.457 34.668 34.533h78.998v-150.162c-19.175-.002-34.679-15.536-34.679-34.682zm-913-658.914v668.991l172.805-172.808c-.069-.069-.167-.088-.235-.156-13.546-13.549-13.546-35.495 0-49.044l259.553-259.55c13.546-13.548 35.495-13.548 49.041 0 .069.069.086.164.155.234l291.74-291.736h-625.391c-19.094 0-34.587-15.457-34.668-34.532H2500v103.919c19.152 0 34.685 15.534 34.685 34.682z"/><path fill="#fff" d="M2613.959 2465.318h107.508l268.222-268.224c-.069-.069-.167-.086-.236-.155-13.545-13.548-13.545-35.495 0-49.044l236.903-236.904c13.551-13.547 35.501-13.547 49.046 0 .069.069.086.165.155.236l172.243-172.244.017-82.89c0-19.1 15.464-34.59 34.547-34.668V1517.49h-102.097c-.08 19.075-15.573 34.532-34.668 34.532h-37.856l-291.74 291.736c13.344 13.563 13.327 35.329-.155 48.808l-259.547 259.552c-6.773 6.773-15.648 10.16-24.523 10.16-8.783 0-17.544-3.369-24.288-10.004l-172.805 172.808v59.287c0 19.146-15.533 34.681-34.685 34.681v80.799h79.291c.086-19.074 15.574-34.531 34.668-34.531z"/><path fill="#b0e381" d="M4430.635 2384.371v-645.864l-164.528 164.531c4.791 1.665 9.346 4.123 13.178 7.953 13.546 13.548 13.546 35.495 0 49.044l-236.902 236.904c-6.779 6.774-15.648 10.16-24.523 10.16s-17.745-3.386-24.523-10.16c-3.826-3.83-6.284-8.387-7.95-13.181l-281.56 281.56h647.53c19.101 0 34.588 15.457 34.674 34.533h78.688v-80.859c-18.866-.33-34.084-15.679-34.084-34.621zm-106.003-866.881h-6.997c-.012 2.795-.437 5.474-1.08 8.077l8.077-8.077zm-842.267 832.198v10.076l12.483-12.487c-3.884 1.505-8.072 2.411-12.483 2.411zm0-728.264c.046 0 .092-.014.138-.014 19.169 0 34.68 15.535 34.68 34.682l-.132 658.914c0 4.415-.907 8.599-2.413 12.484l188.551-188.553c-4.222-12.161-1.764-26.145 7.956-35.863l259.547-259.55c9.72-9.718 23.702-12.177 35.863-7.953l284.639-284.639c-2.648.649-5.377 1.09-8.226 1.09h-663.862c-19.095 0-34.582-15.457-34.668-34.532h-102.074v103.934z"/><path fill="#fff" d="m4291.194 1550.932-284.639 284.639c4.797 1.665 9.352 4.123 13.184 7.953 13.545 13.547 13.545 35.494 0 49.042l-259.553 259.552c-6.773 6.773-15.648 10.16-24.523 10.16s-17.75-3.388-24.518-10.16c-3.832-3.83-6.29-8.387-7.956-13.181l-188.551 188.553a34.672 34.672 0 0 1-19.79 19.787l-12.483 12.487v140.086h79.584c.086-19.076 15.573-34.533 34.668-34.533h107.209l281.56-281.56c-4.222-12.161-1.763-26.145 7.95-35.863l236.908-236.904c9.714-9.717 23.702-12.175 35.863-7.953l164.528-164.531V1632.97c0-18.944 15.217-34.293 34.082-34.622v-80.858h-140.085l-8.077 8.077a34.59 34.59 0 0 1-25.361 25.365z"/><path fill="#b0e381" d="m3447.817 3343.908.149-622.283-172.449 172.45c13.396 13.558 13.379 35.37-.115 48.867L3038.5 3179.845a34.58 34.58 0 0 1-24.523 10.161c-8.806 0-17.595-3.374-24.345-10.044l-268.015 268.015H3345.6c19.152 0 34.685 15.534 34.685 34.682h102.08v-104.083c-19.107-.078-34.548-15.568-34.548-34.668zm-913.132-728.279v692.262l172.748-172.75c-.052-.052-.126-.064-.178-.116-13.546-13.548-13.546-35.495 0-49.044l259.553-259.55c13.546-13.549 35.495-13.549 49.041 0 .052.052.063.124.121.175l291.923-291.925h-693.934c-19.049 0-34.49-15.376-34.651-34.384h-76.855v80.896c17.986 1.283 32.232 16.129 32.232 34.436z"/><path fill="#fff" d="M2502.453 3401.465v81.194h145.215c0-19.148 15.539-34.682 34.685-34.682h39.264l268.015-268.015c-.052-.052-.121-.065-.178-.116-13.545-13.548-13.545-35.495 0-49.043l236.903-236.903c13.551-13.548 35.501-13.548 49.046 0 .052.052.063.124.115.175l172.449-172.45.011-36.631c0-19.069 15.378-34.488 34.387-34.652v-150.043h-79.01c-.167 19.007-15.608 34.384-34.656 34.384h-60.805l-291.923 291.925c13.39 13.558 13.379 35.37-.121 48.867l-259.547 259.552c-6.773 6.773-15.648 10.16-24.523 10.16-8.806 0-17.59-3.375-24.345-10.044l-172.748 172.75v59.138c-.002 18.305-14.248 33.151-32.234 34.434z"/><path fill="#ffc96b" d="M3482.365 2650.342c.098-.001.195-.03.293-.03 19.169 0 34.685 15.535 34.685 34.682l-.149 622.748 185.978-185.979c-4.182-12.142-1.723-26.084 7.973-35.781l259.547-259.55c9.697-9.697 23.638-12.154 35.782-7.971l283.777-283.779h-693.635c-19.043 0-34.484-15.376-34.651-34.384h-79.601v150.044zm948.27 716.688v-645.713l-164.614 164.613c4.825 1.662 9.415 4.119 13.264 7.97 13.546 13.547 13.546 35.494 0 49.042l-236.902 236.904c-6.779 6.774-15.648 10.161-24.523 10.161s-17.745-3.386-24.523-10.161c-3.849-3.852-6.307-8.439-7.968-13.262l-281.394 281.394h578.993c19.146 0 34.679 15.534 34.679 34.682h147.07v-81.007c-18.864-.33-34.082-15.681-34.082-34.623z"/><path fill="#fff" d="M4351.355 2534.682h-61.104l-283.777 283.779c4.82 1.662 9.409 4.119 13.264 7.971 13.545 13.547 13.545 35.494 0 49.042l-259.553 259.552c-6.773 6.773-15.648 10.16-24.523 10.16s-17.75-3.388-24.518-10.16c-3.854-3.852-6.313-8.439-7.973-13.263l-185.978 185.979-.011 36.166c0 19.169-15.533 34.682-34.68 34.682-.046 0-.092-.014-.138-.014v104.083h102.062c0-19.148 15.533-34.682 34.679-34.682h84.869l281.394-281.394c-4.182-12.143-1.729-26.084 7.968-35.781l236.908-236.903c9.691-9.697 23.639-12.154 35.777-7.97l164.614-164.613v-105.687c0-18.944 15.217-34.293 34.082-34.622v-80.709h-78.705c-.166 19.008-15.608 34.384-34.657 34.384z"/><path fill="#ffc96b" d="M2647.714 3483.107h-145.261v103.867c17.986 1.282 32.232 16.128 32.232 34.435v669.29l172.984-172.99c-.121-.12-.293-.152-.414-.275-13.546-13.545-13.546-35.495 0-49.041l259.553-259.552c13.546-13.549 35.495-13.549 49.041 0 .121.122.155.29.276.414l291.917-291.915h-625.689c-18.991.001-34.392-15.298-34.639-34.233zm834.651 831.897c-19.175 0-34.679-15.533-34.679-34.679l.115-575.725-172.122 172.124c13.184 13.573 13.149 35.202-.276 48.628L3038.5 4162.256c-6.779 6.776-15.648 10.159-24.523 10.159-8.714 0-17.383-3.349-24.11-9.883l-268.101 268.104h646.932c19.146 0 34.685 15.533 34.685 34.683 0 .052-.017.098-.017.149h78.998v-150.464z"/><path fill="#fff" d="M2613.959 4430.635h107.807l268.101-268.104c-.121-.121-.287-.152-.414-.276-13.545-13.548-13.545-35.495 0-49.043l236.903-236.903c13.551-13.548 35.501-13.548 49.046 0 .121.122.155.29.276.414L3447.8 3704.6l.017-83.19c0-19.1 15.464-34.59 34.547-34.668v-103.635h-102.125c-.247 18.935-15.642 34.234-34.639 34.234h-37.557l-291.917 291.915c13.184 13.573 13.149 35.204-.276 48.628l-259.547 259.55c-6.773 6.773-15.648 10.162-24.523 10.162-8.714 0-17.383-3.355-24.11-9.887l-172.984 172.99v58.99c0 18.305-14.246 33.151-32.232 34.432v81.345h76.838c0-.051-.017-.097-.017-.149-.001-19.149 15.538-34.682 34.684-34.682z"/><path fill="#b0e381" d="M4430.635 4349.69v-645.565l-164.281 164.279c4.705 1.672 9.163 4.14 12.931 7.906 13.546 13.547 13.546 35.494 0 49.042l-236.902 236.904c-6.779 6.776-15.648 10.159-24.523 10.159s-17.745-3.383-24.523-10.159c-3.763-3.766-6.227-8.229-7.905-12.931l-281.307 281.31h647.231c19.152 0 34.686 15.533 34.686 34.683 0 .052-.012.098-.012.149h78.688v-81.155c-18.865-.331-34.083-15.683-34.083-34.622zm-948.27-762.948c.046 0 .092-.014.138-.014 19.169 0 34.68 15.535 34.68 34.682l-.132 658.916c0 4.572-.936 8.916-2.551 12.917l188.741-188.738c-4.349-12.216-1.884-26.327 7.904-36.11l259.547-259.552c9.783-9.783 23.897-12.252 36.115-7.906l284.817-284.819c-2.78.721-5.652 1.224-8.657 1.224h-663.862c-18.991 0-34.386-15.299-34.639-34.234h-102.102v103.634zm0 728.262v10.375l12.914-12.919c-3.999 1.611-8.342 2.544-12.914 2.544zm842.267-831.897h-7.031c-.035 2.845-.494 5.569-1.178 8.21l8.209-8.21z"/><path fill="#fff" d="m4291.625 3516.118-284.817 284.819c4.699 1.672 9.163 4.14 12.931 7.906 13.545 13.547 13.545 35.495 0 49.042l-259.553 259.55c-6.773 6.773-15.648 10.162-24.523 10.162s-17.75-3.389-24.518-10.162c-3.768-3.763-6.239-8.226-7.904-12.931L3514.5 4293.242a34.703 34.703 0 0 1-19.221 19.218l-12.914 12.919v140.088h79.584c0-.051-.011-.097-.011-.149 0-19.149 15.533-34.683 34.679-34.683h107.508l281.307-281.31c-4.343-12.216-1.873-26.33 7.905-36.113l236.908-236.903c9.783-9.783 23.892-12.252 36.11-7.906l164.281-164.279v-105.836c0-18.944 15.217-34.293 34.082-34.622v-80.559h-140.085l-8.209 8.21a34.566 34.566 0 0 1-24.799 24.801z"/><path fill="#b0e381" d="M1520.094 3378.297c-.977.082-1.913.293-2.912.293-19.169 0-34.679-15.534-34.679-34.682l.149-619.231-171.232 171.23c11.816 13.626 11.615 34.079-1.333 47.034l-236.908 236.904c-6.773 6.774-15.648 10.161-24.523 10.161-8.094 0-16.004-3.188-22.507-8.826l-266.797 266.797h620.933c19.146 0 34.679 15.534 34.679 34.682h105.13v-104.362zm-950.729-762.668v695.314l174.581-174.583c-.62-.541-1.413-.741-2.005-1.334-13.551-13.548-13.551-35.495 0-49.044l259.553-259.55c13.546-13.549 35.489-13.549 49.041 0 .592.593.793 1.384 1.333 2.008l328.142-328.141H537.735v80.957c17.693 1.571 31.63 16.271 31.63 34.373z"/><path fill="#fff" d="M717.032 3447.977h42.32l266.797-266.797c-.626-.542-1.419-.741-2.011-1.334-13.546-13.548-13.546-35.495 0-49.043l236.903-236.903c13.546-13.548 35.495-13.548 49.046 0 .592.593.793 1.384 1.333 2.008l171.232-171.23.006-39.683c0-19.171 15.539-34.682 34.685-34.682.942 0 1.827.204 2.752.277v-120.833c-1.781.281-3.55.681-5.348.681a34.426 34.426 0 0 1-16.849-4.38l-46.329-25.758h-71.559l-328.142 328.141c11.822 13.627 11.621 34.079-1.333 47.034l-259.553 259.552c-6.773 6.773-15.648 10.16-24.518 10.16-8.1 0-16.016-3.188-22.518-8.826l-174.581 174.583v56.086c0 18.101-13.936 32.802-31.629 34.374v81.256h144.617c0-19.149 15.533-34.683 34.679-34.683z"/><path fill="#ffc96b" d="M1520.094 2529.756v120.833c17.854 1.426 31.928 16.199 31.928 34.405l-.149 625.799 186.696-186.691c-5.411-12.645-3.068-27.796 7.255-38.119l259.553-259.55c10.317-10.323 25.471-12.665 38.115-7.257l318.876-318.876h-784.444l-46.335 25.758c-3.613 2.01-7.525 3.072-11.495 3.698zm832.238 952.903h150.121v-81.194c-.822.059-1.614.247-2.453.247-19.146 0-34.685-15.536-34.685-34.682v-642.661l-162.27 162.274c3.952 1.689 7.698 4.031 10.926 7.257 13.545 13.547 13.545 35.494 0 49.042l-236.908 236.904c-6.773 6.774-15.648 10.161-24.523 10.161-8.87 0-17.745-3.386-24.517-10.161-3.228-3.226-5.566-6.974-7.255-10.925l-279.056 279.056h575.937c19.144 0 34.683 15.534 34.683 34.682z"/><path fill="#fff" d="M2054.417 2826.432c13.545 13.547 13.545 35.494 0 49.042l-259.553 259.552c-6.773 6.773-15.648 10.16-24.517 10.16-8.875 0-17.75-3.388-24.523-10.16-3.228-3.226-5.566-6.974-7.255-10.925l-186.696 186.691-.006 33.115c0 18.171-14.011 32.889-31.773 34.389v104.361h99.012c0-19.148 15.533-34.682 34.685-34.682h87.919l279.056-279.056c-5.411-12.644-3.068-27.796 7.255-38.119l236.903-236.903c10.323-10.323 25.477-12.665 38.12-7.257l162.27-162.274v-108.739c0-19.148 15.539-34.682 34.685-34.682.839 0 1.631.188 2.453.247v-80.896h-140.084l-318.876 318.876c3.952 1.692 7.703 4.034 10.925 7.26z"/><path fill="#ffc96b" d="M1520.094 4314.7c-1.023.089-1.999.304-3.045.304-19.175 0-34.685-15.533-34.685-34.679l.121-572.675-170.91 170.907c11.621 13.626 11.391 33.91-1.488 46.794l-236.908 236.904c-6.773 6.776-15.648 10.159-24.523 10.159-8.002 0-15.809-3.154-22.271-8.666l-266.883 266.886h643.882c19.146 0 34.679 15.533 34.679 34.683 0 .052-.011.098-.011.149h82.043V4314.7zm-950.729-693.29v672.34l174.822-174.822c-.701-.598-1.586-.827-2.246-1.494-13.551-13.545-13.551-35.495 0-49.041l259.553-259.552c13.546-13.549 35.489-13.549 49.041 0 .661.663.89 1.545 1.494 2.247l293.744-293.748h-628.74c-18.991 0-34.392-15.299-34.634-34.234H537.735v103.929c17.693 1.572 31.63 16.272 31.63 34.375z"/><path fill="#fff" d="M648.644 4430.635h110.857l266.883-266.886c-.701-.601-1.585-.83-2.246-1.494-13.546-13.548-13.546-35.495 0-49.043l236.903-236.903c13.546-13.548 35.495-13.548 49.046 0 .661.663.89 1.545 1.488 2.248l170.91-170.907.017-86.24c0-19.148 15.533-34.682 34.679-34.682 1 0 1.936.211 2.912.293v-103.913h-105.17c-.253 18.935-15.648 34.234-34.639 34.234h-34.513l-293.744 293.748c11.621 13.626 11.391 33.911-1.494 46.795l-259.553 259.55a34.572 34.572 0 0 1-24.518 10.162c-8.008 0-15.815-3.157-22.277-8.668l-174.82 174.821v55.94c0 18.101-13.936 32.801-31.629 34.372v81.405h76.235c0-.051-.011-.097-.011-.149-.001-19.15 15.532-34.683 34.684-34.683z"/><path fill="#b0e381" d="M1653.791 3517.341c-18.997 0-34.392-15.299-34.639-34.234h-99.058v103.913c17.779 1.504 31.773 16.238 31.773 34.389l-.138 658.916a34.496 34.496 0 0 1-5.877 19.298l192.871-192.874c-5.555-12.696-3.292-27.964 7.1-38.356l259.553-259.552c10.392-10.393 25.661-12.652 38.356-7.099l287-286.999c-4.044 1.652-8.45 2.597-13.086 2.597h-663.855zm695.939-21.598 12.638-12.636h-10.082a34.49 34.49 0 0 1-2.556 12.636zm-829.636 829.636 16.251-16.251c-4.716 3.165-10.288 5.043-16.251 5.572v10.679zm979.906 58.99c-19.146 0-34.685-15.533-34.685-34.679v-642.514l-162.029 162.035c3.849 1.685 7.525 3.944 10.685 7.099 13.545 13.547 13.545 35.494 0 49.042l-236.908 236.904c-6.773 6.776-15.648 10.159-24.523 10.159-8.87 0-17.745-3.383-24.517-10.159-3.154-3.157-5.411-6.833-7.1-10.685l-279.061 279.064h644.181c19.146 0 34.685 15.533 34.685 34.683 0 .052-.017.098-.017.149h81.742v-81.345c-.822.061-1.614.247-2.453.247z"/><path fill="#fff" d="M1631.302 4430.635h110.558l279.061-279.064c-5.549-12.695-3.292-27.964 7.1-38.359l236.903-236.903c10.397-10.393 25.666-12.652 38.362-7.099l162.029-162.035v-85.767c0-19.148 15.539-34.682 34.685-34.682.839 0 1.631.188 2.453.247v-103.867h-140.085l-12.638 12.636a34.758 34.758 0 0 1-18.997 19.001l-287 286.999c3.854 1.685 7.531 3.944 10.685 7.099 13.545 13.547 13.545 35.495 0 49.042l-259.553 259.55a34.571 34.571 0 0 1-24.517 10.162c-8.875 0-17.75-3.389-24.523-10.162-3.154-3.154-5.411-6.83-7.1-10.685l-192.871 192.874a34.9 34.9 0 0 1-9.507 9.504l-16.251 16.251v140.088h76.539c0-.051-.017-.097-.017-.149-.002-19.148 15.537-34.681 34.684-34.681z"/><path fill="#333" d="M1006.187 1606.665c19.146 0 34.68-15.535 34.68-34.682v-286.668c0-12.668 10.323-22.986 22.989-22.986h19.37c19.152 0 34.685-15.535 34.685-34.682 0-19.146-15.533-34.681-34.685-34.681h-19.37c-50.919 0-92.348 41.432-92.348 92.35v286.668c-.001 19.146 15.532 34.681 34.679 34.681z"/><path fill="#333" d="M1514.746 2530.437c1.798 0 3.567-.399 5.348-.681 3.969-.626 7.881-1.689 11.495-3.699l46.335-25.758 371.134-206.314c198.001-109.894 331.043-347.294 331.043-590.747V1063.72c0-50.939-41.435-92.373-92.354-92.373h-986.093c-59.972-128.254-132.244-282.304-198.541-423.456C989.229 518.333 960.352 500 927.723 500s-61.506 18.333-75.391 47.89c-214.103 455.835-325.057 693.777-329.642 706.376a35.95 35.95 0 0 0-2.143 6.142c-13.637 40.01-20.548 81.309-20.548 122.81 0 162.572 103.246 302.609 251.126 366.011 15.734 228.662 144.617 442.189 329.303 544.732l371.14 206.336 46.329 25.758a34.407 34.407 0 0 0 16.849 4.382zM587.063 1280.301c.023-.044.023-.089.046-.158.207-.451.385-.903.5-1.196 6.75-17.002 129.176-279.262 327.493-701.567 3.297-6.977 9.323-8.016 12.621-8.016s9.329 1.04 12.621 8.016c195.312 415.869 320.812 684.7 327.315 701.047.115.294.316.791.563 1.379.046.158.115.338.161.495 11.742 33.577 17.699 68.19 17.699 102.918 0 183.615-160.765 332.979-358.358 332.979s-358.358-149.364-358.358-332.979c-.001-34.728 5.956-69.342 17.697-102.918zm748.289-17.995h374.167l-262.465 262.599c-13.551 13.547-13.551 35.517 0 49.042 6.773 6.774 15.642 10.161 24.517 10.161s17.75-3.386 24.523-10.161l311.489-311.641h158.571c12.667 0 22.984 10.319 22.984 23.008v297.108l-220.445 220.594c-13.546 13.548-13.546 35.518 0 49.044a34.582 34.582 0 0 0 24.523 10.161c8.875 0 17.773-3.388 24.523-10.161l171.398-171.519v32.858c0 141.369-76.792 271.856-200.414 340.543l-273.978 152.276-225.431-125.233 319.451-319.697c13.522-13.548 13.522-35.518-.023-49.065-13.545-13.502-35.518-13.525-49.064.023l-333.06 333.317c-99.299-60.714-165.544-161.301-182.002-275.659 179.136-48.004 310.828-203 310.828-386.686.002-40.855-6.886-81.492-20.092-120.912zm-407.629 523.257c16.504 0 32.732-1.094 48.759-2.815 21.036 139.881 105.141 262.154 230.503 331.843l290.912 161.624a34.64 34.64 0 0 0 16.849 4.357 34.635 34.635 0 0 0 16.843-4.357l290.826-161.624c145.634-80.925 236.087-234.669 236.087-401.192v-428.085c0-50.939-41.429-92.373-92.348-92.373H1304.86c-17.406-37.69-41.877-90.287-70.795-152.232h953.682c12.667 0 22.984 10.32 22.984 23.01v639.518c0 215.612-121.427 433.594-295.336 530.121l-400.649 222.724-400.626-222.745c-157.422-87.401-269.313-266.375-291.199-460.501 33.605 8.009 68.583 12.727 104.802 12.727zm2684.496-1216.2h765.987c19.146 0 34.685-15.535 34.685-34.681 0-19.148-15.539-34.682-34.685-34.682h-765.987c-19.146 0-34.679 15.534-34.679 34.682-.001 19.147 15.532 34.681 34.679 34.681zm-1077.534 832.349v-751.4c0-19.148-15.533-34.682-34.685-34.682-19.146 0-34.685 15.535-34.685 34.682v751.4c0 19.146 15.539 34.681 34.685 34.681 19.152 0 34.685-15.535 34.685-34.681zm0 982.659v-728.278c0-19.148-15.533-34.682-34.685-34.682-19.146 0-34.685 15.535-34.685 34.682v728.279c0 19.146 15.539 34.681 34.685 34.681 19.152-.001 34.685-15.536 34.685-34.682zm79.274 150.311H3368.698c19.049 0 34.49-15.376 34.656-34.384 0-.102.029-.197.029-.299 0-.052-.017-.098-.017-.149-.08-19.076-15.568-34.533-34.668-34.533h-754.739c-19.094 0-34.582 15.457-34.668 34.533 0 .052-.017.098-.017.149 0 .102.034.197.034.299.161 19.008 15.602 34.384 34.651 34.384zm1737.396-69.364h-754.739c-19.095 0-34.582 15.457-34.668 34.533 0 .052-.011.098-.011.149 0 .102.029.197.029.299.167 19.007 15.608 34.384 34.651 34.384h754.739c19.049 0 34.49-15.376 34.657-34.384 0-.102.029-.197.029-.299 0-.052-.012-.098-.012-.149-.087-19.076-15.574-34.533-34.675-34.533zm79.28-1815.006V1401.712c0 18.942 15.217 34.292 34.082 34.62.207.003.396.06.598.06 19.152 0 34.685-15.535 34.685-34.681v-751.4c0-19.148-15.533-34.682-34.685-34.682-.201 0-.391.058-.598.06-18.864.329-34.082 15.679-34.082 34.623zm-1816.676-80.949h754.739c19.146 0 34.685-15.535 34.685-34.681 0-19.148-15.539-34.682-34.685-34.682h-754.739c-19.146 0-34.685 15.534-34.685 34.682 0 19.147 15.539 34.681 34.685 34.681zm903.223 1086.729c0-19.148-15.51-34.682-34.68-34.682-.046 0-.092.014-.138.014-19.083.078-34.547 15.568-34.547 34.668l-.017 82.89-.115 576.024c0 19.146 15.504 34.679 34.679 34.682 4.412 0 8.599-.906 12.483-2.411a34.675 34.675 0 0 0 19.79-19.787c1.505-3.885 2.413-8.07 2.413-12.484l.132-658.914zm-34.817-242.835c.046 0 .092.014.138.014 19.146 0 34.68-15.512 34.68-34.681l.011-36.466.149-622.449c0-19.146-15.516-34.681-34.685-34.681-.098 0-.195.029-.293.03-19.009.164-34.387 15.583-34.387 34.651l-.011 36.332-.149 622.583c-.001 19.099 15.44 34.589 34.547 34.667zm800.603 69.402H3619.107c-19.043 0-34.484 15.377-34.651 34.382 0 .102-.029.197-.029.3 0 .052.011.098.011.149.086 19.075 15.573 34.532 34.668 34.532h663.862c2.849 0 5.578-.441 8.226-1.09a34.593 34.593 0 0 0 25.362-25.365c.644-2.602 1.068-5.282 1.08-8.077 0-.052.011-.098.011-.149 0-.103-.029-.198-.029-.3-.166-19.006-15.607-34.382-34.65-34.382zm-1600.615 69.363H3345.6c19.095 0 34.588-15.457 34.668-34.532 0-.052.017-.098.017-.149 0-.103-.029-.198-.034-.3-.161-19.006-15.602-34.382-34.651-34.382H2682.353c-19.043 0-34.49 15.377-34.651 34.382-.006.102-.034.197-.034.3 0 .052.017.098.017.149.08 19.075 15.573 34.532 34.668 34.532zm1748.282 80.948V2384.37c0 18.942 15.217 34.292 34.082 34.621.207.003.396.06.598.06 19.152 0 34.685-15.534 34.685-34.681v-751.4c0-19.148-15.533-34.682-34.685-34.682-.201 0-.391.057-.598.06-18.864.329-34.082 15.679-34.082 34.622zm-1416.659-408.282a34.582 34.582 0 0 0 24.523-10.161l236.903-236.904c13.545-13.548 13.545-35.495 0-49.043 0-.002 0-.002-.006-.003-13.546-13.543-35.49-13.543-49.041.003l-236.903 236.904c-13.545 13.547-13.545 35.488 0 49.038v.006a34.587 34.587 0 0 0 24.524 10.16zm-47.168-363.575-259.553 259.552c-13.546 13.547-13.546 35.492 0 49.038v.004c6.773 6.774 15.648 10.162 24.523 10.162s17.75-3.388 24.523-10.162l259.547-259.55c13.551-13.548 13.551-35.495 0-49.044l-.006-.003c-13.544-13.543-35.488-13.543-49.034.003zm1263.437 67.467-236.908 236.904c-9.628 9.632-12.081 23.443-8.019 35.53 1.654 4.914 4.107 9.598 8.019 13.514 6.779 6.773 15.648 10.161 24.523 10.161s17.745-3.388 24.523-10.161l236.902-236.904c13.546-13.548 13.546-35.495 0-49.043-3.917-3.916-8.599-6.366-13.511-8.018-12.086-4.063-25.901-1.613-35.529 8.017zm-494.583 251.289c8.875 0 17.75-3.388 24.523-10.162l259.553-259.55c13.545-13.548 13.545-35.495 0-49.044-3.918-3.916-8.605-6.366-13.517-8.018-12.086-4.063-25.896-1.613-35.53 8.018l-259.547 259.552c-9.634 9.632-12.086 23.445-8.019 35.53 1.654 4.914 4.102 9.596 8.019 13.513 6.767 6.773 15.643 10.161 24.518 10.161zm282.198 1027.23c8.875 0 17.745-3.386 24.523-10.16l236.902-236.904c13.546-13.548 13.546-35.495 0-49.044-3.832-3.83-8.387-6.289-13.178-7.953-12.161-4.222-26.149-1.764-35.863 7.953l-236.908 236.904c-9.714 9.718-12.173 23.702-7.95 35.863 1.666 4.794 4.125 9.351 7.95 13.181a34.583 34.583 0 0 0 24.524 10.16zm-47.168-363.574-259.547 259.55c-9.72 9.718-12.178 23.702-7.956 35.863 1.666 4.794 4.125 9.351 7.956 13.181 6.767 6.773 15.642 10.16 24.518 10.16s17.75-3.388 24.523-10.16l259.553-259.552c13.545-13.548 13.545-35.495 0-49.042-3.832-3.83-8.387-6.289-13.184-7.953-12.162-4.224-26.144-1.766-35.863 7.953zM3038.5 2196.938l236.903-236.904c13.477-13.479 13.5-35.244.155-48.808-.069-.07-.086-.167-.155-.236-13.545-13.547-35.495-13.547-49.046 0l-236.903 236.904c-13.545 13.549-13.545 35.495 0 49.044.069.069.167.086.236.155 6.75 6.636 15.504 10.005 24.288 10.005a34.574 34.574 0 0 0 24.522-10.16zm-71.692-353.413-259.553 259.55c-13.546 13.548-13.546 35.495 0 49.044.069.069.167.087.235.156 6.744 6.635 15.504 10.004 24.288 10.004 8.875 0 17.75-3.388 24.523-10.16l259.547-259.552c13.482-13.479 13.5-35.245.155-48.808-.069-.07-.086-.165-.155-.234-13.545-13.549-35.494-13.549-49.04 0zM2500 3401.712c.839 0 1.631-.188 2.453-.247 17.986-1.282 32.232-16.129 32.232-34.435v-751.4c0-18.308-14.246-33.153-32.232-34.435-.822-.059-1.614-.247-2.453-.247-19.146 0-34.685 15.534-34.685 34.682v751.4c0 19.146 15.539 34.682 34.685 34.682zm2.453 185.262c-.822-.059-1.614-.247-2.453-.247-19.146 0-34.685 15.535-34.685 34.682v728.281c0 19.146 15.539 34.679 34.685 34.679.839 0 1.631-.187 2.453-.247 17.986-1.281 32.232-16.127 32.232-34.432v-728.28c0-18.308-14.246-33.153-32.232-34.436zm866.245 843.661h-754.739c-19.146 0-34.685 15.533-34.685 34.683 0 .052.017.098.017.149.086 19.075 15.573 34.533 34.668 34.533h754.739c19.1 0 34.588-15.458 34.668-34.533 0-.051.017-.097.017-.149.001-19.15-15.538-34.683-34.685-34.683zm982.657 0h-754.739c-19.146 0-34.679 15.533-34.679 34.683 0 .052.011.098.011.149.086 19.075 15.573 34.533 34.668 34.533h754.739c19.101 0 34.588-15.458 34.674-34.533 0-.051.012-.097.012-.149 0-19.15-15.533-34.683-34.686-34.683zm79.28-1815.006v751.4c0 18.942 15.217 34.293 34.082 34.622.207.003.396.06.598.06 19.152 0 34.685-15.536 34.685-34.682v-751.4c0-19.148-15.533-34.682-34.685-34.682-.201 0-.391.057-.598.06-18.864.329-34.082 15.678-34.082 34.622zM3517.182 3621.41c0-19.148-15.51-34.682-34.68-34.682-.046 0-.092.014-.138.014-19.083.078-34.547 15.568-34.547 34.668l-.017 83.19-.115 575.725c0 19.146 15.504 34.679 34.679 34.679 4.573 0 8.915-.933 12.914-2.544a34.703 34.703 0 0 0 19.221-19.218c1.614-4.001 2.551-8.344 2.551-12.917l.132-658.915zm-34.525-971.098c-.098 0-.195.029-.293.03-19.009.164-34.387 15.583-34.387 34.652l-.011 36.631-.149 622.283c0 19.1 15.441 34.59 34.547 34.668.046 0 .092.014.138.014 19.146 0 34.68-15.513 34.68-34.682l.011-36.166.149-622.748c.001-19.148-15.515-34.682-34.685-34.682zm800.311 797.665H3619.106c-19.146 0-34.679 15.534-34.679 34.682 0 .154.04.294.04.448.253 18.935 15.648 34.234 34.639 34.234h663.862c3.004 0 5.876-.503 8.657-1.224a34.565 34.565 0 0 0 24.799-24.801c.684-2.641 1.143-5.365 1.178-8.21.006-.154.046-.294.046-.448-.001-19.147-15.534-34.681-34.68-34.681zm-937.368 0h-663.247c-19.146 0-34.685 15.534-34.685 34.682 0 .154.046.294.046.448.247 18.935 15.648 34.234 34.639 34.234h663.246c18.997 0 34.392-15.299 34.639-34.234 0-.154.046-.294.046-.448.001-19.148-15.532-34.682-34.684-34.682zm1085.035 150.311V4349.689c0 18.939 15.217 34.292 34.082 34.622.207 0 .396.057.598.057 19.152 0 34.685-15.533 34.685-34.679v-751.402c0-19.148-15.533-34.682-34.685-34.682-.201 0-.391.058-.598.06-18.864.33-34.082 15.679-34.082 34.623zm-1204.279-704.389-236.903 236.903c-13.545 13.548-13.545 35.495 0 49.043.057.052.126.065.178.116 6.75 6.671 15.539 10.044 24.345 10.044 8.875 0 17.745-3.386 24.523-10.161l236.903-236.904c13.494-13.497 13.511-35.308.115-48.867-.052-.052-.063-.124-.115-.175-13.545-13.547-35.495-13.547-49.046.001zm-470.054 241.127 259.547-259.552c13.5-13.497 13.511-35.309.121-48.867-.058-.052-.069-.124-.121-.175-13.546-13.549-35.495-13.549-49.041 0l-259.553 259.55c-13.546 13.549-13.546 35.495 0 49.044.052.052.126.064.178.116 6.756 6.669 15.539 10.044 24.345 10.044 8.876 0 17.751-3.388 24.524-10.16zm1261.558 54.98c8.875 0 17.745-3.386 24.523-10.161l236.902-236.904c13.546-13.548 13.546-35.495 0-49.042-3.849-3.852-8.438-6.309-13.264-7.97-12.138-4.183-26.086-1.726-35.777 7.97l-236.908 236.903c-9.697 9.697-12.15 23.638-7.968 35.781 1.66 4.824 4.119 9.411 7.968 13.262 6.779 6.775 15.648 10.161 24.524 10.161zm-47.168-363.574-259.547 259.55c-9.697 9.697-12.155 23.639-7.973 35.781 1.66 4.824 4.119 9.411 7.973 13.263 6.767 6.773 15.642 10.16 24.518 10.16s17.75-3.388 24.523-10.16l259.553-259.552c13.545-13.548 13.545-35.495 0-49.042-3.854-3.852-8.444-6.309-13.264-7.971-12.145-4.183-26.087-1.726-35.783 7.971zm47.168 1345.983c8.875 0 17.745-3.383 24.523-10.159l236.902-236.904c13.546-13.548 13.546-35.495 0-49.042-3.768-3.766-8.226-6.234-12.931-7.906-12.218-4.346-26.327-1.877-36.11 7.906l-236.908 236.903c-9.777 9.783-12.247 23.897-7.905 36.113 1.677 4.702 4.142 9.165 7.905 12.931 6.779 6.775 15.648 10.158 24.524 10.158zm-47.168-363.573-259.547 259.552c-9.789 9.783-12.253 23.894-7.904 36.11 1.666 4.705 4.136 9.168 7.904 12.931 6.767 6.773 15.642 10.162 24.518 10.162s17.75-3.389 24.523-10.162l259.553-259.55c13.545-13.547 13.545-35.495 0-49.042-3.768-3.766-8.232-6.234-12.931-7.906-12.219-4.346-26.333-1.878-36.116 7.905zm-744.336 67.468-236.903 236.903c-13.545 13.548-13.545 35.495 0 49.043.126.124.293.155.414.276 6.727 6.534 15.395 9.883 24.11 9.883 8.875 0 17.745-3.383 24.523-10.159l236.903-236.904c13.425-13.426 13.459-35.056.276-48.628-.121-.124-.155-.292-.276-.414-13.546-13.549-35.496-13.549-49.047 0zm-259.548-67.468-259.553 259.552c-13.546 13.545-13.546 35.495 0 49.041.121.124.293.155.414.275 6.727 6.532 15.395 9.887 24.11 9.887 8.875 0 17.75-3.389 24.523-10.162l259.547-259.55c13.425-13.425 13.459-35.056.276-48.628-.121-.124-.155-.292-.276-.414-13.546-13.549-35.495-13.549-49.041-.001zM569.365 3367.03v-751.4c0-18.102-13.936-32.802-31.629-34.374-1.022-.09-2.005-.309-3.05-.309-19.152 0-34.685 15.534-34.685 34.682v751.4c0 19.146 15.533 34.682 34.685 34.682 1.046 0 2.028-.218 3.05-.309 17.692-1.57 31.629-16.272 31.629-34.372zm0 982.66v-728.28c0-18.102-13.936-32.802-31.629-34.374-1.022-.09-2.005-.309-3.05-.309-19.152 0-34.685 15.535-34.685 34.682v728.28c0 19.146 15.533 34.679 34.685 34.679 1.046 0 2.028-.218 3.05-.307 17.692-1.57 31.629-16.27 31.629-34.371zm834.019 80.945h-754.74c-19.152 0-34.685 15.533-34.685 34.683 0 .052.011.098.011.149.086 19.075 15.573 34.533 34.674 34.533h754.739c19.095 0 34.582-15.458 34.668-34.533 0-.051.011-.097.011-.149.001-19.15-15.532-34.683-34.678-34.683zm982.657 0h-754.739c-19.146 0-34.685 15.533-34.685 34.683 0 .052.017.098.017.149.081 19.075 15.568 34.533 34.668 34.533h754.739c19.094 0 34.582-15.458 34.668-34.533 0-.051.017-.097.017-.149 0-19.15-15.539-34.683-34.685-34.683zm-834.174-809.225c0-18.151-13.994-32.886-31.773-34.389-.977-.082-1.913-.293-2.912-.293-19.146 0-34.679 15.535-34.679 34.682l-.017 86.24-.121 572.675c0 19.146 15.51 34.679 34.685 34.679 1.046 0 2.022-.215 3.045-.304 5.963-.529 11.535-2.407 16.251-5.572a34.9 34.9 0 0 0 9.507-9.504 34.507 34.507 0 0 0 5.877-19.298l.137-658.916zm-34.685-242.82c1 0 1.936-.211 2.912-.293 17.762-1.501 31.773-16.218 31.773-34.389l.006-33.115.149-625.799c0-18.206-14.074-32.979-31.928-34.405-.925-.073-1.81-.277-2.752-.277-19.146 0-34.685 15.512-34.685 34.682l-.006 39.683-.149 619.231c0 19.148 15.51 34.682 34.68 34.682zm835.15 104.069c0-19.148-15.539-34.682-34.685-34.682h-663.856c-19.152 0-34.685 15.534-34.685 34.682 0 .154.046.294.046.448.247 18.935 15.642 34.234 34.639 34.234h663.856c4.636 0 9.042-.945 13.086-2.597a34.758 34.758 0 0 0 18.997-19.001 34.494 34.494 0 0 0 2.556-12.636c0-.154.046-.295.046-.448zm-1635.3 34.682h663.253c18.991 0 34.386-15.299 34.639-34.234 0-.154.04-.294.04-.448 0-19.148-15.533-34.682-34.679-34.682H717.032c-19.146 0-34.68 15.534-34.68 34.682 0 .154.04.294.046.448.242 18.935 15.643 34.234 34.634 34.234zm356.147-337.496 236.908-236.904c12.948-12.955 13.149-33.408 1.333-47.034-.54-.623-.741-1.415-1.333-2.008-13.551-13.548-35.501-13.548-49.046 0l-236.903 236.903c-13.546 13.548-13.546 35.495 0 49.043.592.593 1.384.793 2.011 1.334 6.503 5.638 14.413 8.826 22.507 8.826 8.875.001 17.75-3.385 24.523-10.16zm-71.685-353.413-259.553 259.55c-13.551 13.549-13.551 35.495 0 49.044.592.593 1.384.793 2.005 1.334 6.503 5.638 14.419 8.826 22.518 8.826 8.87 0 17.745-3.388 24.518-10.16l259.553-259.552c12.954-12.955 13.155-33.407 1.333-47.034-.54-.623-.741-1.415-1.333-2.008-13.552-13.549-35.496-13.549-49.041 0zm1051.045 363.574c8.875 0 17.75-3.386 24.523-10.161l236.908-236.904c13.545-13.548 13.545-35.495 0-49.042-3.229-3.226-6.974-5.568-10.926-7.257-12.644-5.408-27.798-3.066-38.12 7.257l-236.903 236.903c-10.323 10.323-12.667 25.475-7.255 38.119 1.689 3.951 4.027 7.699 7.255 10.925 6.773 6.774 15.649 10.16 24.518 10.16zm-282.192-44.82c8.87 0 17.745-3.388 24.517-10.16l259.553-259.552c13.545-13.548 13.545-35.495 0-49.042-3.223-3.226-6.974-5.568-10.926-7.257-12.644-5.408-27.798-3.066-38.115 7.257l-259.553 259.55c-10.323 10.323-12.667 25.474-7.255 38.119 1.689 3.951 4.027 7.699 7.255 10.925 6.774 6.772 15.649 10.16 24.524 10.16zm494.577 731.124-236.903 236.903c-10.392 10.395-12.649 25.664-7.1 38.359 1.689 3.852 3.947 7.528 7.1 10.685 6.773 6.776 15.648 10.159 24.517 10.159 8.875 0 17.75-3.383 24.523-10.159l236.908-236.904c13.545-13.548 13.545-35.495 0-49.042-3.16-3.155-6.836-5.414-10.685-7.099-12.693-5.555-27.962-3.295-38.36 7.098zm-259.547-67.468-259.553 259.552c-10.392 10.392-12.655 25.661-7.1 38.356 1.689 3.854 3.946 7.531 7.1 10.685 6.773 6.773 15.648 10.162 24.523 10.162 8.87 0 17.745-3.389 24.517-10.162l259.553-259.55c13.545-13.547 13.545-35.495 0-49.042-3.154-3.155-6.83-5.414-10.685-7.099-12.695-5.554-27.963-3.295-38.355 7.098zm-744.336 67.468-236.903 236.903c-13.546 13.548-13.546 35.495 0 49.043.661.664 1.545.893 2.246 1.494 6.463 5.512 14.269 8.666 22.271 8.666 8.875 0 17.75-3.383 24.523-10.159l236.908-236.904c12.879-12.885 13.109-33.169 1.488-46.794-.597-.702-.827-1.584-1.488-2.248-13.55-13.55-35.5-13.55-49.045-.001zm-259.547-67.468L741.94 4068.394c-13.551 13.545-13.551 35.495 0 49.041.661.667 1.545.896 2.246 1.494 6.463 5.512 14.269 8.668 22.277 8.668 8.87 0 17.745-3.389 24.518-10.162l259.553-259.55c12.885-12.883 13.115-33.169 1.494-46.795-.603-.702-.833-1.584-1.494-2.247-13.551-13.549-35.495-13.549-49.04-.001z"/></svg>