<svg xmlns="http://www.w3.org/2000/svg" enable-background="new 0 0 504 480" viewBox="0 0 504 480" width="504" height="480"><path fill="#5d5560" d="M454.07 144.33c-14.717 47.6-13.254 93.192 0 137.32-56.706 53.629-54.455 104.421 0 152.7h27.56V144.33H454.07zM132.59 144.33v35.51c9.187 15.161 18.373 15.161 27.56 0 7.864-10.558 7.08-22.523 0-35.51H132.59z"/><path fill="#655f68" d="M160.15,281.65c-12.066,19.764-11.373,34.938,0,46.27l156.14,106.43h137.78v-152.7    C454.07,111.567,160.15,111.567,160.15,281.65z"/><path fill="#e7f2f1" d="M160.15,144.33v35.51c-13.746,26.863-9.502,62.984,0,101.81h27.55h238.82h27.55V144.33    C454.07,36.959,160.15,36.959,160.15,144.33z"/><rect width="45.93" height="55.53" x="380.59" y="226.12" fill="#e15c63"/><rect width="45.93" height="111.06" x="316.29" y="170.59" fill="#4aaf8f"/><rect width="45.92" height="92.55" x="252" y="189.1" fill="#53b79a"/><rect width="45.93" height="74.04" x="187.7" y="207.61" fill="#6fceae"/><path fill="#e0ac69" d="M4,327.92V476h156.15c7.473-46.489,7.473-95.849,0-148.08C105.201,305.471,53.304,306.656,4,327.92    z"/><polygon fill="#f1c27d" points="316.29 434.35 316.29 476 160.15 476 160.15 327.92 219.85 327.92 231.056 368.331 243.133 368.779 256.59 327.92 316.29 327.92"/><polygon fill="#f1c27d" points="160.15 281.65 160.15 327.92 100.44 327.92 63.7 327.92 4 327.92 4 179.84 63.7 179.84 71.827 226.12 91.06 226.12 100.44 179.84 132.59 179.84 160.15 179.84"/><rect width="36.74" height="55.53" x="219.85" y="327.92" fill="#e7f2f1"/><rect width="36.74" height="55.53" x="63.7" y="327.92" fill="#e7f2f1"/><rect width="36.74" height="55.53" x="63.7" y="179.84" fill="#e7f2f1"/><path fill="#f9b132" d="M371.41 115.06c17.72-18.199 38.365-22.051 64.29 0 0 17.89-14.39 32.39-32.15 32.39C385.8 147.45 371.41 132.95 371.41 115.06zM307.11 115.06c0 17.89-14.39 32.39-32.15 32.39-17.75 0-32.15-14.5-32.15-32.39C264.243 100.297 285.677 100.297 307.11 115.06zM114.22 115.06c23.37-15.395 44.642-14.118 64.3 0 0 12.92-7.51 24.07-18.37 29.27-4.17 2-8.85 3.12-13.78 3.12-4.93 0-9.6-1.12-13.78-3.12C121.73 139.13 114.22 127.98 114.22 115.06z"/><path fill="#1498b7" d="M435.7 115.06c21.433-24.895 42.867-24.895 64.3 0 0 12.92-7.51 24.07-18.37 29.27-4.17 2-8.85 3.12-13.78 3.12s-9.6-1.12-13.78-3.12C443.21 139.13 435.7 127.98 435.7 115.06zM371.41 115.06c0 17.89-14.4 32.39-32.15 32.39-17.76 0-32.15-14.5-32.15-32.39C327.057 99.331 348.673 101.262 371.41 115.06zM178.52 115.06c23.069-17.774 44.382-16.51 64.29 0 0 17.89-14.39 32.39-32.14 32.39C192.91 147.45 178.52 132.95 178.52 115.06z"/><path fill="#1ea6bc" d="M495.41 73.41c-7.29-31.9-21.68-55.3-32.15-69.41h-55.11l27.55 111.06H500C500.04 103.37 499 89.16 495.41 73.41zM353.04 4h-45.93c-16.609 39.313-15.64 76.199 0 111.06h64.3C382.882 73.613 377.625 36.375 353.04 4zM206.07 4c-56.34 25.742-63.192 63.319-27.55 111.06h64.29L261.19 4H206.07z"/><path fill="#ffc05a" d="M435.7 115.06h-64.29c-.06-15.97-1.2-34.75-4.6-55.53-3.49-21.42-8.57-40.06-13.77-55.53h55.11c8.22 15.64 17.53 37.5 22.96 64.78C434.58 86.21 435.68 101.92 435.7 115.06zM307.11 4v111.06h-64.3c.06-15.97 1.21-34.75 4.6-55.53 3.49-21.42 8.57-40.06 13.78-55.53H307.11zM150.96 4h55.11c-8.21 15.64-17.53 37.5-22.96 64.78-3.46 17.43-4.57 33.14-4.59 46.28h-64.3c-.04-11.69 1-25.9 4.6-41.65C126.1 41.51 140.5 18.11 150.96 4z"/><path fill="#524956" d="M481.63,144.33v26.47c-4.17,2-8.85,3.12-13.78,3.12s-9.6-1.12-13.78-3.12v-26.47    c4.18,2,8.85,3.12,13.78,3.12S477.46,146.33,481.63,144.33z"/><path fill="#d6eae8" d="M435.7,115.06c0,2.49-0.28,4.91-0.8,7.23c-3.27,14.41-16.06,25.16-31.35,25.16    c-17.75,0-32.14-14.5-32.14-32.39c0,17.89-14.4,32.39-32.15,32.39c-17.76,0-32.15-14.5-32.15-32.39    c0,17.89-14.39,32.39-32.15,32.39c-17.75,0-32.15-14.5-32.15-32.39c0,17.89-14.39,32.39-32.14,32.39    c-15.29,0-28.08-10.75-31.35-25.16c-0.52-2.32-0.8-4.74-0.8-7.23c0,12.92-7.51,24.07-18.37,29.27v26.47    c10.86-5.2,18.37-16.35,18.37-29.27c0,17.89,14.39,32.39,32.15,32.39c17.75,0,32.14-14.5,32.14-32.39    c0,17.89,14.4,32.39,32.15,32.39c17.76,0,32.15-14.5,32.15-32.39c0,12.75,7.31,23.77,17.93,29.06h28.44    c10.62-5.29,17.93-16.31,17.93-29.06c0,17.89,14.39,32.39,32.14,32.39c17.76,0,32.15-14.5,32.15-32.39    c0,12.92,7.51,24.07,18.37,29.27v-26.47C443.21,139.13,435.7,127.98,435.7,115.06z"/><path fill="#524956" d="M160.15,144.33v26.47c-4.17,2-8.85,3.12-13.78,3.12c-4.93,0-9.6-1.12-13.78-3.12v-26.47    c4.18,2,8.85,3.12,13.78,3.12C151.3,147.45,155.98,146.33,160.15,144.33z"/><path fill="#3a322b" d="M141.185,277.02c0,2.209-1.791,4-4,4h-36.741c-2.209,0-4-1.791-4-4s1.791-4,4-4h36.741   C139.394,273.02,141.185,274.811,141.185,277.02z M137.185,300.784h-36.741c-2.209,0-4,1.791-4,4s1.791,4,4,4h36.741   c2.209,0,4-1.791,4-4S139.394,300.784,137.185,300.784z M0,476V327.921V179.843c0-2.209,1.791-4,4-4h124.593v-29.116   c-10.957-6.259-18.37-18.105-18.37-31.668c-0.056-14.34,1.522-28.657,4.693-42.538c5.836-25.552,16.884-49.407,32.835-70.904   C148.506,0.6,149.697,0,150.963,0h312.294c1.266,0,2.458,0.6,3.212,1.616c15.951,21.497,26.999,45.353,32.835,70.905   c3.171,13.88,4.75,28.197,4.693,42.553c0,13.553-7.414,25.395-18.37,31.653v287.626c0,2.209-1.791,4-4,4H320.294V476   c0,2.209-1.791,4-4,4H160.147H4C1.791,480,0,478.209,0,476z M156.149,150.087c-3.112,0.882-6.389,1.364-9.778,1.364   s-6.666-0.482-9.778-1.364v25.756h19.556V150.087z M312.294,331.921h-51.703v51.53c0,2.209-1.791,4-4,4h-36.741   c-2.209,0-4-1.791-4-4v-51.53h-51.703V472h148.147V331.921z M252.591,379.451v-47.53h-28.741v47.53H252.591z M450.073,285.647   H164.147v38.274h152.147c2.209,0,4,1.791,4,4v102.432h129.778V285.647z M229.628,277.647v-66.039h-37.926v66.039H229.628z    M293.923,277.647v-84.549h-37.926v84.549H293.923z M358.22,277.647V174.588h-37.926v103.059H358.22z M422.516,277.647v-47.529   H384.59v47.529H422.516z M477.628,150.087c-3.112,0.882-6.389,1.364-9.778,1.364s-6.666-0.482-9.778-1.364v280.266h19.556V150.087z    M495.714,119.059h-55.727c1.934,13.768,13.689,24.393,27.863,24.393S493.78,132.826,495.714,119.059z M414.658,8   c9.391,19.086,16.243,39.238,20.375,60.004c2.811,14.128,4.349,28.592,4.614,43.055h56.311   c-0.225-12.416-1.711-24.758-4.451-36.756C486.063,50.474,475.882,28.179,461.232,8H414.658z M358.543,8   c5.301,16.61,9.414,33.697,12.219,50.885c2.806,17.195,4.337,34.726,4.592,52.173h56.293c-0.263-13.936-1.75-27.876-4.459-41.494   C422.936,48.198,415.707,27.5,405.707,8H358.543z M375.691,119.059c1.934,13.768,13.689,24.393,27.863,24.393   s25.929-10.625,27.863-24.393H375.691z M311.111,111.059h56.243c-0.254-17.017-1.75-34.114-4.487-50.885   C359.987,42.531,355.695,24.998,350.131,8h-39.021V111.059z M311.396,119.059c1.934,13.768,13.689,24.393,27.863,24.393   s25.929-10.625,27.863-24.393H311.396z M307.111,131.666c-6.006,11.735-18.157,19.785-32.148,19.785s-26.142-8.049-32.148-19.785   c-6.006,11.735-18.157,19.785-32.148,19.785s-26.142-8.049-32.148-19.785c-3.233,6.317-8.245,11.562-14.37,15.061v33.116h-0.001   v97.804h19.555v-70.039c0-2.209,1.791-4,4-4h45.926c2.209,0,4,1.791,4,4v70.039h10.369v-88.549c0-2.209,1.791-4,4-4h45.926   c2.209,0,4,1.791,4,4v88.549h10.372V170.588c0-2.209,1.791-4,4-4h45.926c2.209,0,4,1.791,4,4v107.059h10.37v-51.529   c0-2.209,1.791-4,4-4h45.926c2.209,0,4,1.791,4,4v51.529h19.557v-130.92c-6.125-3.499-11.138-8.744-14.371-15.062   c-6.006,11.737-18.157,19.786-32.147,19.786c-13.991,0-26.142-8.049-32.148-19.785c-6.006,11.735-18.157,19.785-32.148,19.785   S313.117,143.402,307.111,131.666z M210.667,143.451c14.175,0,25.929-10.625,27.863-24.393h-55.727   C184.734,132.823,196.49,143.451,210.667,143.451z M274.963,143.451c14.175,0,25.929-10.625,27.863-24.393H247.1   C249.033,132.826,260.788,143.451,274.963,143.451z M264.09,8c-5.564,16.998-9.856,34.531-12.735,52.173   c-2.737,16.771-4.233,33.868-4.487,50.885h56.243V8H264.09z M208.515,8c-10,19.498-17.229,40.196-21.48,61.565   c-2.709,13.614-4.196,27.553-4.459,41.494h56.293c0.255-17.447,1.785-34.978,4.592-52.173c2.805-17.189,6.918-34.276,12.219-50.885   H208.515z M118.264,111.059h56.311c0.264-14.468,1.803-28.93,4.613-43.055C183.32,47.236,190.172,27.085,199.563,8h-46.573   c-14.65,20.179-24.832,42.475-30.274,66.302C119.974,86.305,118.488,98.651,118.264,111.059z M146.371,143.451   c14.175,0,25.929-10.625,27.863-24.393h-55.725C120.448,132.833,132.201,143.451,146.371,143.451z M67.703,231.373h28.741v-47.529   H67.703V231.373z M8,323.921h148.147V183.843h-51.704v51.529c0,2.209-1.791,4-4,4H63.703c-2.209,0-4-1.791-4-4v-51.529H8V323.921z    M67.703,331.921v47.53h28.741v-47.53H67.703z M8,472h148.147V331.921h-51.704v51.53c0,2.209-1.791,4-4,4H63.703   c-2.209,0-4-1.791-4-4v-51.53H8V472z M137.185,421.098h-36.741c-2.209,0-4,1.791-4,4s1.791,4,4,4h36.741c2.209,0,4-1.791,4-4   S139.394,421.098,137.185,421.098z M137.185,448.863h-36.741c-2.209,0-4,1.791-4,4s1.791,4,4,4h36.741c2.209,0,4-1.791,4-4   S139.394,448.863,137.185,448.863z M252.591,425.098c0,2.209,1.791,4,4,4h36.74c2.209,0,4-1.791,4-4s-1.791-4-4-4h-36.74   C254.382,421.098,252.591,422.889,252.591,425.098z M293.332,448.863h-36.74c-2.209,0-4,1.791-4,4s1.791,4,4,4h36.74   c2.209,0,4-1.791,4-4S295.541,448.863,293.332,448.863z"/></svg>