<svg xmlns="http://www.w3.org/2000/svg" data-name="Layer 1" viewBox="0 0 64 64" width="64" height="64"><path fill="#abc8e9" d="M29,15a13.5,13.5,0,0,1,0,10H25a13.5,13.5,0,0,0,0-10"/><path fill="#8299ce" d="M35,15a13.5,13.5,0,0,0,0,10h4a13.5,13.5,0,0,1,0-10"/><polygon fill="#f6b554" points="55 22 43 32 47 32 43 42 55 32 51 32 55 22"/><polygon fill="#f6b554" points="9 22 21 32 17 32 21 42 9 32 13 32 9 22"/><polyline fill="#f6b554" points="23 53 23 49 41 49 41 53"/><polyline fill="#8299ce" points="21 62 21 53 43 53 43 62"/><path fill="#abc8e9" d="M35,49a13.5,13.5,0,0,1,0-10h4a13.5,13.5,0,0,0,0,10"/><path fill="#8299ce" d="M29,49a13.5,13.5,0,0,0,0-10H25a13.5,13.5,0,0,1,0,10"/><polyline fill="#f6b554" points="41 11 41 15 23 15 23 11"/><polyline fill="#8299ce" points="43 2 43 11 21 11 21 2"/><polyline fill="#e6e6e6" points="32 62 32 53 43 53 43 62"/><polyline fill="#e6e6e6" points="43 2 43 11 32 11 32 2"/><path d="M55.94 31.66A1 1 0 0055 31H52.48l3.45-8.63a1 1 0 00-1.57-1.14l-12 10a1 1 0 00-.3 1.11A1 1 0 0043 33h2.52l-3.45 8.63a1 1 0 00.34 1.18A1 1 0 0043 43a1 1 0 00.64-.23l12-10A1 1 0 0055.94 31.66zm-10.54 7l2.53-6.33A1 1 0 0047 31H45.76l6.84-5.7-2.53 6.33A1 1 0 0051 33h1.24zM8.06 31.66a1 1 0 00.3 1.11l12 10A1 1 0 0021 43a1 1 0 00.59-.19 1 1 0 00.34-1.18L18.48 33H21a1 1 0 00.94-.66 1 1 0 00-.3-1.11l-12-10a1 1 0 00-1.57 1.14L11.52 31H9A1 1 0 008.06 31.66zM11.4 25.3L18.24 31H17a1 1 0 00-.93 1.37L18.6 38.7 11.76 33H13a1 1 0 00.93-1.37zM44 62V53a1 1 0 00-1-1H42V49a1 1 0 00-1-1H39.71a12.39 12.39 0 01.22-8.63A1 1 0 0039 38h-.91a7 7 0 011.62-3.3L39 34l-.71-.71A8.84 8.84 0 0036.08 38H35a1 1 0 00-.93.63A14.42 14.42 0 0033.6 48H30.4a14.42 14.42 0 00-.47-9.37A1 1 0 0029 38H27.92a8.84 8.84 0 00-2.21-4.71L24.29 34.7A7 7 0 0125.91 38H25a1 1 0 00-.93 1.37A12.39 12.39 0 0124.29 48H23a1 1 0 00-1 1v3H21a1 1 0 00-1 1v9h2V54H42v8zM35.7 40h1.9a14.32 14.32 0 000 8h-1.9A12.32 12.32 0 0135.7 40zm-9.3 0h1.9a12.32 12.32 0 010 8h-1.9A14.32 14.32 0 0026.4 40zM40 52H24V50H40zM20 2v9a1 1 0 001 1h1v3a1 1 0 001 1h1.29a12.39 12.39 0 01-.22 8.63A1 1 0 0025 26h.91a7 7 0 01-1.62 3.3L25 30l.71.71A8.84 8.84 0 0027.92 26H29a1 1 0 00.93-.63A14.42 14.42 0 0030.4 16h3.2a14.42 14.42 0 00.47 9.37A1 1 0 0035 26h1.08a8.84 8.84 0 002.21 4.71l1.42-1.41A7 7 0 0138.09 26H39a1 1 0 00.93-1.37A12.39 12.39 0 0139.71 16H41a1 1 0 001-1V12h1a1 1 0 001-1V2H42v8H22V2zm8.3 22H26.4a14.32 14.32 0 000-8h1.9A12.32 12.32 0 0128.3 24zm9.3 0H35.7a12.32 12.32 0 010-8h1.9A14.32 14.32 0 0037.6 24zM24 12H40v2H24z"/></svg>